<?xml version="1.0" encoding="UTF-8" standalone="no"?><!-- Generator: Gravit.io --><svg xmlns="http://www.w3.org/2000/svg" xmlns:xlink="http://www.w3.org/1999/xlink" style="isolation:isolate" viewBox="0 0 48 48" width="48pt" height="48pt"><g><path d=" M 0 0 L 48 0 L 48 48 L 0 48 L 0 0 Z " fill="none"/><path d=" M 44 18 L 34.42 18 L 25.66 4.88 C 25.28 4.32 24.64 4.04 24 4.04 C 23.36 4.04 22.72 4.32 22.34 4.9 L 13.58 18 L 4 18 C 2.9 18 2 18.9 2 20 C 2 20.18 2.02 20.36 2.08 20.54 L 7.16 39.08 C 7.62 40.76 9.16 42 11 42 L 37 42 C 38.84 42 40.38 40.76 40.86 39.08 L 45.94 20.54 L 46 20 C 46 18.9 45.1 18 44 18 Z  M 24 9.6 L 29.6 18 L 18.4 18 L 24 9.6 Z  M 37 38 L 11.02 38.02 L 6.62 22 L 41.4 22 L 37 38 Z " fill="rgb(0,0,0)"/><g><path d=" M 0 0 L 48 0 L 48 48 L 0 48 L 0 0 Z " fill="none"/><path d=" M 31.667 20 L 24.444 20 C 23.65 20 23 20.65 23 21.444 L 23 33 L 28.056 30.833 L 33.111 33 L 33.111 21.444 C 33.111 20.65 32.461 20 31.667 20 Z " fill="rgb(0,0,0)"/></g></g></svg>