<?xml version="1.0" encoding="UTF-8" standalone="no"?><!-- Generator: Gravit.io --><svg xmlns="http://www.w3.org/2000/svg" xmlns:xlink="http://www.w3.org/1999/xlink" style="isolation:isolate" viewBox="0 0 300 260" width="300pt" height="260pt"><defs><clipPath id="_clipPath_UhmDzXqcRWdvR2XZjnPg42c8OMHJNCMJ"><rect width="300" height="260"/></clipPath></defs><g clip-path="url(#_clipPath_UhmDzXqcRWdvR2XZjnPg42c8OMHJNCMJ)"><clipPath id="_clipPath_eDsZcjxZldIDsi713YvSDCoMIOW4OBRb"><rect x="0" y="0" width="300" height="260" transform="matrix(1,0,0,1,0,0)" fill="rgb(255,255,255)"/></clipPath><g clip-path="url(#_clipPath_eDsZcjxZldIDsi713YvSDCoMIOW4OBRb)"><g><g><path d=" M 203.409 54.615 C 203.409 57.235 202.679 59.695 201.429 61.805 L 206.569 61.805 C 210.529 61.805 213.759 58.585 213.759 54.615 C 213.759 50.645 210.539 47.425 206.569 47.425 L 201.429 47.425 C 202.689 49.535 203.409 51.995 203.409 54.615 Z " fill="rgb(136,150,194)"/><path d=" M 222.719 207.515 L 225.259 150.605 L 224.839 148.415 C 223.869 147.365 222.989 146.235 222.209 145.005 C 218.869 139.725 217.789 133.465 219.169 127.365 C 219.429 126.205 219.779 125.075 220.199 123.995 L 210.139 71.105 L 203.019 71.245 L 202.869 72.495 C 203.479 74.085 203.869 75.785 203.979 77.565 L 206.889 126.535 C 206.999 128.465 205.529 130.125 203.599 130.235 C 201.669 130.345 200.009 128.875 199.899 126.945 L 196.989 77.965 C 196.699 72.815 192.429 68.785 187.279 68.785 L 159.029 68.785 L 143.329 68.785 C 138.289 68.785 134.029 72.725 133.639 77.755 L 127.529 156.465 L 164.549 156.465 L 166.859 156.465 L 178.109 156.465 C 179.829 156.465 181.299 157.715 181.569 159.425 L 187.279 195.695 L 188.989 195.695 C 190.089 195.695 190.989 196.595 190.989 197.695 C 190.989 198.795 190.089 199.695 188.989 199.695 L 187.909 199.695 L 189.139 207.505 L 194.049 207.505 C 196.749 207.505 199.259 206.425 201.119 204.465 C 202.979 202.505 203.909 199.935 203.759 197.235 L 201.129 153.225 C 201.009 151.295 202.489 149.635 204.419 149.525 C 206.389 149.405 208.009 150.885 208.119 152.815 L 210.749 196.835 C 210.969 200.715 209.859 204.425 207.639 207.515 L 222.719 207.515 L 222.719 207.515 L 222.719 207.515 Z  M 184.509 127.805 C 180.019 131.895 174.479 134.245 169.469 134.245 C 169.129 134.245 168.789 134.225 168.449 134.205 C 168.449 134.205 168.449 134.205 168.449 134.205 C 168.399 134.205 168.349 134.205 168.299 134.195 C 165.169 133.955 162.529 132.765 160.609 130.765 C 159.779 130.925 158.919 131.015 158.029 131.015 C 152.809 131.015 146.829 128.255 142.189 123.165 C 134.869 115.145 133.609 104.345 139.369 99.085 C 139.809 98.685 140.299 98.315 140.919 97.935 C 147.049 94.135 156.369 96.725 163.089 104.095 L 163.089 104.095 C 163.919 105.005 164.689 105.965 165.369 106.955 C 165.399 106.925 165.429 106.895 165.459 106.875 C 173.489 99.565 184.289 98.315 189.539 104.085 C 189.939 104.525 190.319 105.035 190.689 105.635 C 190.689 105.635 190.689 105.645 190.699 105.655 C 194.469 111.795 191.869 121.095 184.509 127.805 Z  M 208.899 140.575 C 208.509 143.225 206.049 145.065 203.399 144.675 C 200.749 144.285 198.909 141.825 199.299 139.175 C 199.689 136.525 202.149 134.685 204.799 135.075 C 207.449 135.465 209.289 137.925 208.899 140.575 Z " fill="rgb(161,172,208)"/><path d=" M 145.459 102.175 C 145.709 102.635 145.959 103.095 146.229 103.545 C 146.269 103.615 146.309 103.685 146.349 103.745 C 146.619 104.195 146.889 104.645 147.179 105.085 C 147.219 105.145 147.259 105.205 147.299 105.265 C 147.609 105.725 147.919 106.175 148.259 106.625 C 148.259 106.635 148.269 106.635 148.269 106.645 C 148.599 107.085 148.959 107.525 149.329 107.955 C 149.379 108.005 149.419 108.065 149.469 108.115 C 149.829 108.525 150.209 108.935 150.609 109.325 C 150.679 109.395 150.749 109.465 150.819 109.535 C 151.219 109.925 151.649 110.315 152.089 110.695 C 152.159 110.755 152.229 110.805 152.289 110.865 C 152.759 111.255 153.259 111.645 153.779 112.015 C 155.699 113.365 157.559 114.285 159.389 115.015 C 160.199 113.265 161.259 111.565 162.549 109.975 C 161.849 108.885 161.049 107.815 160.129 106.805 L 160.129 106.805 C 155.489 101.715 149.079 99.255 144.649 100.615 C 144.889 101.095 145.139 101.585 145.399 102.065 C 145.419 102.105 145.439 102.135 145.459 102.175 Z " fill="rgb(252,180,95)"/><path d=" M 158.009 118.955 C 158.019 118.895 158.039 118.845 158.059 118.785 C 155.979 117.955 153.769 116.885 151.489 115.275 C 150.909 114.865 150.369 114.445 149.849 114.015 C 149.759 113.935 149.659 113.865 149.569 113.785 C 149.079 113.375 148.609 112.955 148.169 112.525 C 148.079 112.435 147.989 112.345 147.899 112.265 C 147.449 111.825 147.019 111.375 146.619 110.925 C 146.589 110.895 146.569 110.865 146.539 110.835 C 146.149 110.395 145.779 109.945 145.429 109.495 C 145.359 109.415 145.299 109.325 145.229 109.245 C 144.879 108.785 144.549 108.335 144.229 107.865 C 144.159 107.765 144.089 107.665 144.019 107.565 C 143.709 107.095 143.409 106.635 143.119 106.165 C 143.079 106.105 143.049 106.045 143.009 105.985 C 142.739 105.545 142.489 105.105 142.249 104.665 C 142.199 104.575 142.149 104.495 142.099 104.405 C 141.849 103.945 141.609 103.495 141.379 103.035 C 141.359 102.985 141.329 102.935 141.299 102.885 C 138.199 106.905 139.789 114.635 145.129 120.495 C 149.039 124.785 154.139 127.155 158.279 127.045 C 157.429 124.675 157.309 121.915 158.009 118.955 Z " fill="rgb(252,180,95)"/><path d=" M 159.029 61.805 L 187.279 61.805 L 189.229 61.805 C 193.189 61.805 196.419 58.585 196.419 54.615 C 196.419 50.645 193.199 47.425 189.229 47.425 L 159.029 47.425 L 141.679 47.425 C 137.719 47.425 134.489 50.645 134.489 54.615 C 134.489 58.585 137.709 61.805 141.679 61.805 L 143.339 61.805 L 159.029 61.805 L 159.029 61.805 Z " fill="rgb(136,150,194)"/><path d=" M 167.329 129.755 C 167.479 129.375 167.619 128.985 167.759 128.595 C 167.809 128.445 167.869 128.295 167.919 128.145 C 168.079 127.675 168.249 127.195 168.409 126.705 C 169.469 123.545 170.679 119.975 173.339 116.195 C 173.749 115.615 174.169 115.075 174.599 114.555 C 174.679 114.465 174.749 114.365 174.829 114.275 C 175.239 113.785 175.669 113.315 176.099 112.875 C 176.189 112.785 176.269 112.695 176.359 112.615 C 176.799 112.165 177.249 111.735 177.709 111.335 C 177.739 111.315 177.769 111.285 177.799 111.265 C 178.249 110.875 178.699 110.505 179.159 110.145 C 179.239 110.085 179.319 110.015 179.399 109.955 C 179.859 109.605 180.319 109.275 180.789 108.955 C 180.889 108.885 180.979 108.825 181.079 108.765 C 181.549 108.445 182.029 108.145 182.499 107.855 C 182.549 107.825 182.599 107.795 182.649 107.765 C 183.109 107.485 183.569 107.225 184.019 106.975 C 184.089 106.935 184.169 106.895 184.239 106.855 C 184.709 106.595 185.179 106.355 185.649 106.115 C 185.689 106.095 185.729 106.075 185.769 106.045 C 184.389 104.975 182.569 104.465 180.539 104.465 C 176.659 104.465 171.999 106.345 168.149 109.855 C 164.949 112.765 162.729 116.325 161.899 119.885 C 161.129 123.165 161.659 126.025 163.379 127.925 C 164.339 128.975 165.649 129.695 167.219 130.035 C 167.259 129.935 167.289 129.845 167.329 129.755 Z " fill="rgb(252,180,95)"/><path d=" M 188.019 109.375 C 183.939 111.385 179.849 113.925 176.619 118.495 C 174.289 121.785 173.239 124.935 172.209 127.965 C 171.969 128.685 171.729 129.395 171.479 130.095 C 174.959 129.575 178.659 127.715 181.819 124.845 C 186.909 120.215 189.369 113.805 188.019 109.375 Z " fill="rgb(252,180,95)"/><path d=" M 190.699 105.665 C 190.699 105.655 190.699 105.655 190.689 105.645 C 190.319 105.045 189.939 104.535 189.539 104.095 C 184.289 98.325 173.489 99.575 165.459 106.885 C 165.429 106.915 165.399 106.945 165.369 106.965 C 164.679 105.975 163.919 105.015 163.089 104.105 L 163.089 104.105 C 156.369 96.735 147.049 94.145 140.919 97.945 C 140.299 98.325 139.809 98.695 139.369 99.095 C 133.609 104.355 134.869 115.155 142.189 123.175 C 146.829 128.255 152.809 131.025 158.029 131.025 C 158.919 131.025 159.779 130.935 160.609 130.775 C 162.529 132.775 165.169 133.965 168.299 134.205 C 168.349 134.205 168.399 134.215 168.449 134.215 C 168.449 134.215 168.449 134.215 168.449 134.215 C 168.789 134.235 169.119 134.255 169.469 134.255 C 174.479 134.255 180.019 131.905 184.509 127.815 C 191.869 121.095 194.469 111.795 190.699 105.665 Z  M 163.379 127.905 C 161.649 126.005 161.129 123.155 161.899 119.865 C 162.729 116.305 164.949 112.745 168.149 109.835 C 171.999 106.335 176.659 104.445 180.539 104.445 C 182.569 104.445 184.389 104.955 185.769 106.025 C 185.729 106.045 185.689 106.065 185.649 106.095 C 185.179 106.335 184.709 106.575 184.239 106.835 C 184.169 106.875 184.089 106.915 184.019 106.955 C 183.559 107.205 183.099 107.465 182.649 107.745 C 182.599 107.775 182.549 107.805 182.499 107.835 C 182.029 108.125 181.549 108.425 181.079 108.745 C 180.979 108.805 180.889 108.875 180.789 108.935 C 180.319 109.255 179.859 109.585 179.399 109.935 C 179.319 109.995 179.239 110.065 179.159 110.125 C 178.699 110.485 178.249 110.855 177.799 111.245 C 177.769 111.265 177.739 111.295 177.709 111.315 C 177.249 111.715 176.799 112.155 176.359 112.595 C 176.269 112.685 176.189 112.765 176.099 112.855 C 175.669 113.305 175.249 113.765 174.829 114.255 C 174.749 114.345 174.679 114.445 174.599 114.535 C 174.169 115.055 173.749 115.595 173.339 116.175 C 170.669 119.945 169.469 123.525 168.409 126.685 C 168.249 127.175 168.079 127.655 167.919 128.125 C 167.869 128.275 167.809 128.425 167.759 128.575 C 167.619 128.975 167.469 129.355 167.329 129.735 C 167.299 129.825 167.259 129.915 167.229 130.005 C 165.649 129.675 164.339 128.955 163.379 127.905 Z  M 181.809 124.845 C 178.659 127.715 174.959 129.565 171.469 130.095 C 171.719 129.395 171.959 128.695 172.199 127.965 C 173.219 124.925 174.279 121.785 176.609 118.495 C 179.839 113.925 183.939 111.385 188.009 109.375 C 189.369 113.805 186.909 120.215 181.809 124.845 Z  M 160.139 106.805 L 160.139 106.805 C 161.059 107.815 161.859 108.885 162.559 109.975 C 161.279 111.565 160.209 113.265 159.399 115.015 C 157.579 114.275 155.709 113.365 153.789 112.015 C 153.259 111.645 152.769 111.265 152.299 110.865 C 152.229 110.805 152.159 110.755 152.099 110.695 C 151.649 110.315 151.229 109.935 150.829 109.535 C 150.759 109.465 150.689 109.395 150.619 109.325 C 150.219 108.925 149.839 108.525 149.479 108.115 C 149.429 108.065 149.389 108.005 149.339 107.955 C 148.969 107.525 148.619 107.095 148.279 106.645 C 148.279 106.635 148.269 106.635 148.269 106.625 C 147.929 106.175 147.619 105.725 147.309 105.265 C 147.269 105.205 147.229 105.145 147.189 105.085 C 146.899 104.645 146.619 104.195 146.359 103.745 C 146.319 103.675 146.279 103.615 146.239 103.545 C 145.969 103.085 145.719 102.635 145.469 102.175 C 145.449 102.145 145.429 102.105 145.419 102.075 C 145.159 101.595 144.909 101.105 144.669 100.625 C 149.079 99.255 155.489 101.715 160.139 106.805 Z  M 145.139 120.485 C 139.799 114.625 138.209 106.905 141.309 102.875 C 141.329 102.925 141.359 102.975 141.389 103.025 C 141.619 103.475 141.859 103.935 142.109 104.395 C 142.159 104.485 142.209 104.565 142.259 104.655 C 142.499 105.095 142.759 105.535 143.019 105.975 C 143.059 106.035 143.089 106.095 143.129 106.155 C 143.409 106.625 143.719 107.095 144.029 107.555 C 144.099 107.655 144.169 107.755 144.239 107.855 C 144.559 108.315 144.889 108.775 145.239 109.235 C 145.299 109.315 145.369 109.405 145.439 109.485 C 145.789 109.935 146.159 110.385 146.549 110.825 C 146.579 110.855 146.599 110.885 146.629 110.915 C 147.029 111.375 147.459 111.815 147.909 112.255 C 147.999 112.345 148.089 112.435 148.179 112.515 C 148.629 112.945 149.089 113.365 149.579 113.775 C 149.669 113.855 149.769 113.925 149.859 114.005 C 150.379 114.435 150.919 114.855 151.499 115.265 C 153.779 116.875 155.979 117.935 158.069 118.775 C 158.059 118.835 158.039 118.885 158.019 118.945 C 157.329 121.905 157.439 124.655 158.309 127.025 C 154.159 127.145 149.059 124.775 145.139 120.485 Z " fill="rgb(45,45,48)"/><path d=" M 204.799 135.065 C 202.149 134.675 199.679 136.515 199.299 139.165 C 198.909 141.815 200.749 144.285 203.399 144.665 C 206.049 145.055 208.519 143.215 208.899 140.565 C 209.289 137.925 207.449 135.455 204.799 135.065 Z " fill="rgb(45,45,48)"/><path d=" M 245.059 109.335 C 245.749 109.425 246.429 109.545 247.119 109.695 C 251.659 110.715 255.579 113.005 258.619 116.105 C 262.689 114.615 267.219 114.235 271.759 115.255 C 272.899 115.515 273.999 115.855 275.059 116.255 C 276.089 114.655 276.859 112.875 277.299 110.965 C 279.289 102.155 273.729 93.365 264.919 91.375 C 263.709 91.105 262.499 90.975 261.319 90.975 C 253.829 90.975 247.049 96.155 245.339 103.755 C 244.919 105.615 244.839 107.495 245.059 109.335 Z " fill="rgb(252,180,95)"/><path d=" M 266.629 161.455 C 264.929 161.455 263.209 161.265 261.479 160.875 C 257.479 159.975 253.889 158.075 250.929 155.395 L 248.679 154.885 C 246.529 155.535 244.279 155.895 241.979 155.895 C 240.279 155.895 238.559 155.705 236.829 155.315 C 235.189 154.945 233.609 154.395 232.119 153.705 L 228.889 226.085 L 245.619 197.635 L 238.019 189.735 C 237.249 188.945 237.279 187.675 238.069 186.905 C 238.869 186.135 240.129 186.165 240.899 186.955 L 247.729 194.045 L 255.169 181.395 L 238.709 167.195 C 237.869 166.475 237.779 165.215 238.499 164.375 C 239.219 163.535 240.479 163.445 241.319 164.165 L 257.229 177.895 L 266.909 161.435 C 266.819 161.445 266.729 161.455 266.629 161.455 Z " fill="rgb(252,180,95)"/><path d=" M 225.999 128.905 C 225.039 133.175 225.799 137.565 228.129 141.265 C 230.469 144.965 234.109 147.535 238.379 148.495 C 240.829 149.045 243.309 149.015 245.679 148.465 C 243.289 143.665 242.619 138.235 243.809 132.925 C 245.039 127.475 248.089 122.905 252.169 119.695 C 250.259 118.175 248.029 117.075 245.579 116.525 C 244.369 116.255 243.159 116.125 241.969 116.125 C 234.489 116.125 227.709 121.305 225.999 128.905 Z " fill="rgb(255,229,201)"/><path d=" M 270.229 122.085 C 269.019 121.815 267.809 121.685 266.629 121.685 C 259.139 121.685 252.359 126.865 250.649 134.465 C 249.689 138.735 250.449 143.125 252.779 146.825 C 255.119 150.525 258.759 153.095 263.029 154.055 C 271.839 156.035 280.629 150.485 282.619 141.675 C 284.599 132.855 279.039 124.065 270.229 122.085 Z " fill="rgb(255,229,201)"/><path d=" M 281.149 119.735 C 282.519 117.535 283.549 115.105 284.139 112.505 C 286.969 99.925 279.049 87.385 266.469 84.555 C 253.889 81.725 241.349 89.645 238.519 102.225 C 237.979 104.635 237.819 107.075 238.039 109.475 C 233.399 110.275 229.119 112.475 225.759 115.705 L 216.469 66.905 C 216.359 66.345 216.119 65.835 215.779 65.405 C 218.829 62.805 220.779 58.935 220.779 54.615 C 220.779 46.795 214.419 40.425 206.589 40.425 L 189.239 40.425 L 159.039 40.425 L 141.689 40.425 C 133.869 40.425 127.499 46.785 127.499 54.615 C 127.499 59.055 129.559 63.025 132.759 65.625 C 129.349 68.435 127.029 72.545 126.669 77.225 L 120.519 156.475 L 117.219 156.475 L 120.449 101.495 C 120.459 101.315 120.459 101.125 120.439 100.945 L 118.859 85.095 C 118.779 76.745 113.159 69.585 105.329 67.365 L 102.469 28.125 C 105.619 26.505 107.779 23.235 107.779 19.455 L 107.779 18.695 C 107.779 13.315 103.399 8.945 98.029 8.945 L 79.719 8.945 C 74.339 8.945 69.969 13.325 69.969 18.695 L 69.969 19.455 C 69.969 23.365 72.289 26.745 75.619 28.295 L 72.489 67.345 C 64.619 69.535 58.969 76.705 58.889 85.085 L 57.289 100.095 C 57.269 100.285 57.269 100.475 57.279 100.675 L 57.409 102.885 C 52.449 101.555 46.689 100.875 40.959 100.875 C 25.609 100.875 10.059 105.745 10.059 115.045 C 10.059 115.135 10.069 115.225 10.069 115.325 C 10.069 115.375 10.059 115.415 10.059 115.465 L 10.059 148.115 C 10.059 150.045 11.629 151.615 13.559 151.615 C 13.559 151.615 13.559 151.615 13.559 151.615 C 15.489 151.615 17.059 150.045 17.059 148.115 L 17.059 124.345 C 23.019 127.555 32.019 129.215 40.959 129.215 C 47.239 129.215 53.549 128.395 58.809 126.805 L 62.059 182.095 L 58.919 206.835 C 58.819 207.585 58.979 208.345 59.339 208.995 C 59.569 210.075 59.899 211.095 60.299 212.075 L 22.239 212.075 L 17.839 202.795 L 42.069 202.795 C 43.169 202.795 44.069 201.895 44.069 200.795 C 44.069 199.695 43.169 198.795 42.069 198.795 L 17.059 198.795 L 17.059 172.035 C 17.059 170.105 15.489 168.535 13.559 168.535 C 13.559 168.535 13.559 168.535 13.559 168.535 C 11.629 168.535 10.059 170.105 10.059 172.035 L 10.059 201.935 C 10.059 202.455 10.179 202.965 10.399 203.435 L 16.869 217.075 C 17.449 218.295 18.679 219.075 20.029 219.075 L 62.789 219.075 C 63.519 219.075 64.219 218.845 64.789 218.445 C 67.249 220.565 70.289 221.815 73.559 221.815 C 76.059 221.815 78.429 221.085 80.499 219.795 C 82.879 221.735 85.779 222.875 88.899 222.875 C 91.719 222.875 94.349 221.965 96.579 220.395 C 96.929 220.645 97.289 220.875 97.669 221.085 L 95.289 247.235 C 95.199 248.215 95.529 249.185 96.189 249.915 C 96.849 250.645 97.789 251.055 98.769 251.055 L 170.039 251.055 C 170.309 251.055 170.579 251.015 170.839 250.955 L 191.919 249.675 C 192.899 249.615 193.819 249.145 194.439 248.375 C 195.059 247.605 195.319 246.615 195.169 245.635 L 190.269 214.515 L 194.079 214.515 L 222.439 214.515 L 221.309 239.865 C 221.239 241.475 222.269 242.915 223.809 243.375 C 224.139 243.475 224.469 243.515 224.799 243.515 C 226.019 243.515 227.179 242.875 227.819 241.785 L 276.289 159.355 C 282.739 156.425 287.799 150.625 289.469 143.205 C 291.479 134.165 287.959 125.145 281.149 119.735 Z  M 282.609 141.665 C 280.619 150.475 271.839 156.025 263.019 154.045 C 258.749 153.085 255.109 150.515 252.769 146.815 C 250.429 143.115 249.669 138.725 250.639 134.455 C 252.349 126.845 259.129 121.675 266.619 121.675 C 267.809 121.675 269.019 121.805 270.219 122.075 C 279.039 124.065 284.599 132.855 282.609 141.665 Z  M 257.239 177.905 L 241.329 164.175 C 240.489 163.455 239.229 163.545 238.509 164.385 C 237.789 165.225 237.879 166.485 238.719 167.205 L 255.179 181.405 L 247.739 194.055 L 240.909 186.965 C 240.139 186.165 238.879 186.145 238.079 186.915 C 237.279 187.685 237.259 188.945 238.029 189.745 L 245.629 197.645 L 228.899 226.095 L 232.129 153.715 C 233.619 154.405 235.199 154.955 236.839 155.325 C 238.559 155.715 240.289 155.905 241.989 155.905 C 244.289 155.905 246.549 155.545 248.689 154.895 L 250.939 155.405 C 253.889 158.085 257.489 159.985 261.489 160.885 C 263.209 161.275 264.939 161.465 266.639 161.465 C 266.739 161.465 266.829 161.455 266.919 161.455 L 257.239 177.905 L 257.239 177.905 Z  M 210.739 196.835 L 208.109 152.815 C 207.989 150.885 206.369 149.415 204.409 149.525 C 202.479 149.645 201.009 151.295 201.119 153.225 L 203.749 197.235 C 203.899 199.935 202.959 202.495 201.109 204.465 C 199.259 206.435 196.749 207.505 194.039 207.505 L 189.129 207.505 L 187.899 199.695 L 188.979 199.695 C 190.079 199.695 190.979 198.795 190.979 197.695 C 190.979 196.595 190.079 195.695 188.979 195.695 L 187.269 195.695 L 181.559 159.425 C 181.289 157.725 179.829 156.465 178.099 156.465 L 166.849 156.465 L 164.539 156.465 L 127.519 156.465 L 133.629 77.755 C 134.019 72.725 138.279 68.785 143.319 68.785 L 159.019 68.785 L 187.269 68.785 C 192.419 68.785 196.679 72.815 196.979 77.965 L 199.889 126.945 C 199.999 128.875 201.669 130.345 203.589 130.235 C 205.519 130.115 206.989 128.465 206.879 126.535 L 203.969 77.565 C 203.869 75.785 203.479 74.085 202.859 72.495 L 203.009 71.245 L 210.129 71.105 L 220.189 123.995 C 219.769 125.075 219.419 126.195 219.159 127.365 C 217.789 133.455 218.869 139.725 222.199 145.005 C 222.979 146.235 223.859 147.365 224.829 148.415 L 225.249 150.605 L 222.709 207.515 L 207.619 207.515 C 209.849 204.425 210.959 200.715 210.739 196.835 Z  M 85.419 214.785 C 86.179 213.565 86.819 212.225 87.279 210.785 L 90.169 210.785 C 90.559 212.315 91.139 213.745 91.869 215.055 C 90.949 215.575 89.939 215.865 88.889 215.865 C 87.629 215.875 86.459 215.475 85.419 214.785 Z  M 107.049 194.955 C 107.229 193.035 105.809 191.325 103.879 191.155 C 101.979 190.985 100.249 192.395 100.079 194.325 L 98.429 212.375 C 97.439 210.885 96.769 209.035 96.589 206.985 C 96.439 205.175 94.919 203.775 93.099 203.775 L 84.499 203.775 C 82.769 203.775 81.299 205.035 81.039 206.745 C 80.329 211.415 77.169 214.795 73.519 214.795 C 69.869 214.795 66.719 211.405 66.009 206.745 C 65.999 206.685 65.989 206.615 65.979 206.555 L 69.019 182.645 C 69.049 182.435 69.059 182.215 69.039 181.995 L 64.249 100.535 L 65.839 85.635 C 65.849 85.515 65.859 85.385 65.859 85.265 C 65.859 79.355 70.279 74.395 76.139 73.715 C 77.799 73.525 79.089 72.185 79.229 70.515 L 82.539 29.185 L 95.499 29.185 L 98.509 70.505 C 98.629 72.175 99.919 73.525 101.589 73.725 C 107.429 74.415 111.829 79.385 111.829 85.265 C 111.829 85.385 111.839 85.495 111.849 85.615 L 113.419 101.355 L 111.979 125.945 C 109.189 119.565 102.819 115.085 95.409 115.085 C 85.439 115.085 77.329 123.195 77.329 133.165 C 77.329 143.135 85.439 151.245 95.409 151.245 C 102.069 151.245 107.879 147.615 111.019 142.245 L 110.189 156.465 L 106.719 156.465 C 104.909 156.465 103.399 157.845 103.229 159.645 L 102.719 165.235 C 102.539 167.155 103.959 168.865 105.889 169.035 C 107.799 169.215 109.519 167.795 109.689 165.865 L 109.909 163.455 L 161.209 163.455 L 161.979 178.385 L 137.719 178.385 C 136.619 178.385 135.719 179.285 135.719 180.385 C 135.719 181.485 136.619 182.385 137.719 182.385 L 162.189 182.385 L 165.359 244.025 L 102.579 244.025 L 107.049 194.955 L 107.049 194.955 Z  M 17.029 115.045 C 17.029 112.895 25.159 107.875 40.929 107.875 C 48.209 107.875 53.839 108.955 57.819 110.315 L 58.369 119.595 C 54.369 121.055 48.559 122.225 40.939 122.225 C 25.159 122.225 17.029 117.195 17.029 115.045 Z  M 76.939 19.455 L 76.939 18.695 C 76.939 17.175 78.179 15.945 79.689 15.945 L 97.999 15.945 C 99.519 15.945 100.749 17.185 100.749 18.695 L 100.749 19.455 C 100.749 20.975 99.509 22.205 97.999 22.205 L 79.689 22.205 C 78.179 22.205 76.939 20.975 76.939 19.455 Z  M 109.499 133.175 C 109.499 140.935 103.179 147.255 95.419 147.255 C 87.659 147.255 81.339 140.935 81.339 133.175 C 81.339 125.415 87.659 119.095 95.419 119.095 C 103.179 119.095 109.499 125.415 109.499 133.175 Z  M 172.359 243.835 L 168.229 163.475 L 175.119 163.475 L 187.619 242.915 L 172.359 243.835 L 172.359 243.835 Z  M 141.669 61.805 C 137.709 61.805 134.479 58.585 134.479 54.615 C 134.479 50.645 137.699 47.425 141.669 47.425 L 159.019 47.425 L 189.219 47.425 C 193.179 47.425 196.409 50.645 196.409 54.615 C 196.409 58.585 193.189 61.805 189.219 61.805 L 187.269 61.805 L 159.019 61.805 L 143.319 61.805 L 141.669 61.805 L 141.669 61.805 Z  M 213.769 54.615 C 213.769 58.575 210.549 61.805 206.579 61.805 L 201.439 61.805 C 202.689 59.695 203.419 57.245 203.419 54.615 C 203.419 51.985 202.689 49.535 201.439 47.425 L 206.579 47.425 C 210.539 47.425 213.769 50.655 213.769 54.615 Z  M 261.319 90.975 C 262.509 90.975 263.719 91.105 264.919 91.375 C 273.729 93.365 279.289 102.145 277.299 110.965 C 276.869 112.875 276.099 114.655 275.059 116.255 C 273.999 115.845 272.899 115.505 271.759 115.255 C 267.219 114.235 262.689 114.615 258.619 116.105 C 255.579 113.015 251.649 110.725 247.119 109.695 C 246.429 109.545 245.749 109.425 245.059 109.335 C 244.839 107.495 244.909 105.615 245.329 103.755 C 247.049 96.155 253.829 90.975 261.319 90.975 Z  M 245.589 116.525 C 248.039 117.075 250.269 118.175 252.179 119.695 C 248.099 122.905 245.049 127.475 243.819 132.925 C 242.619 138.225 243.289 143.665 245.689 148.465 C 243.319 149.015 240.839 149.045 238.389 148.495 C 234.119 147.535 230.479 144.965 228.139 141.265 C 225.799 137.565 225.039 133.175 226.009 128.905 C 227.719 121.295 234.499 116.125 241.989 116.125 C 243.169 116.125 244.379 116.255 245.589 116.525 Z " fill="rgb(45,45,48)"/><path d=" M 17.029 172.035 L 17.029 198.795 L 42.039 198.795 C 43.139 198.795 44.039 199.695 44.039 200.795 C 44.039 201.895 43.139 202.795 42.039 202.795 L 17.809 202.795 L 22.209 212.075 L 60.269 212.075 C 59.869 211.095 59.549 210.075 59.309 208.995 C 58.939 208.345 58.789 207.585 58.889 206.835 L 62.029 182.095 L 58.779 126.805 C 53.509 128.405 47.199 129.215 40.929 129.215 C 31.989 129.215 22.999 127.565 17.029 124.345 L 17.029 148.115 C 17.029 150.045 15.459 151.615 13.529 151.615 L 13.529 156.405 C 15.499 156.405 17.089 157.995 17.089 159.965 C 17.089 161.935 15.499 163.525 13.529 163.525 L 13.529 168.525 C 15.469 168.535 17.029 170.105 17.029 172.035 Z " fill="rgb(255,229,201)"/><path d=" M 57.809 110.315 C 53.829 108.945 48.199 107.875 40.919 107.875 C 25.149 107.875 17.019 112.905 17.019 115.045 C 17.019 117.185 25.149 122.215 40.919 122.215 C 48.539 122.215 54.349 121.035 58.349 119.585 L 57.809 110.315 L 57.809 110.315 Z  M 25.529 115.045 C 25.529 113.945 26.429 113.045 27.529 113.045 L 38.279 113.045 C 39.379 113.045 40.279 113.945 40.279 115.045 C 40.279 116.145 39.379 117.045 38.279 117.045 L 27.529 117.045 C 26.419 117.045 25.529 116.155 25.529 115.045 Z " fill="rgb(252,180,95)"/><path d=" M 27.529 117.045 L 38.279 117.045 C 39.379 117.045 40.279 116.145 40.279 115.045 C 40.279 113.945 39.379 113.045 38.279 113.045 L 27.529 113.045 C 26.429 113.045 25.529 113.945 25.529 115.045 C 25.529 116.145 26.419 117.045 27.529 117.045 Z " fill="rgb(45,45,48)"/><path d=" M 90.159 210.785 L 87.269 210.785 C 86.809 212.235 86.169 213.565 85.409 214.785 C 86.449 215.475 87.619 215.865 88.869 215.865 C 89.919 215.865 90.929 215.565 91.849 215.055 C 91.139 213.745 90.559 212.315 90.159 210.785 Z " fill="rgb(150,150,152)"/><circle vector-effect="non-scaling-stroke" cx="95.41891745383526" cy="133.1750415039062" r="14.079999999999998" fill="rgb(252,180,95)"/><path d=" M 98.009 22.205 C 99.529 22.205 100.759 20.965 100.759 19.455 L 100.759 18.695 C 100.759 17.175 99.519 15.945 98.009 15.945 L 79.699 15.945 C 78.179 15.945 76.949 17.185 76.949 18.695 L 76.949 19.455 C 76.949 20.975 78.189 22.205 79.699 22.205 L 98.009 22.205 L 98.009 22.205 Z " fill="rgb(252,180,95)"/><path d=" M 162.189 182.405 L 137.719 182.405 C 136.619 182.405 135.719 181.505 135.719 180.405 C 135.719 179.305 136.619 178.405 137.719 178.405 L 161.979 178.405 L 161.209 163.475 L 109.909 163.475 L 109.689 165.885 C 109.519 167.805 107.799 169.235 105.889 169.055 C 103.969 168.885 102.549 167.175 102.719 165.255 L 103.229 159.665 C 103.389 157.865 104.909 156.485 106.719 156.485 L 110.189 156.485 L 111.019 142.265 C 107.879 147.635 102.069 151.265 95.409 151.265 C 85.439 151.265 77.329 143.155 77.329 133.185 C 77.329 123.215 85.439 115.105 95.409 115.105 C 102.809 115.105 109.179 119.585 111.979 125.965 L 113.419 101.375 L 111.849 85.635 C 111.839 85.515 111.829 85.405 111.829 85.285 C 111.829 79.405 107.429 74.435 101.589 73.745 C 99.919 73.545 98.629 72.195 98.509 70.525 L 95.499 29.205 L 82.539 29.205 L 79.229 70.535 C 79.099 72.205 77.799 73.545 76.139 73.735 C 70.279 74.415 65.859 79.375 65.859 85.285 C 65.859 85.405 65.849 85.535 65.839 85.655 L 64.249 100.555 L 69.039 182.015 C 69.049 182.225 69.039 182.445 69.019 182.665 L 65.979 206.575 C 65.989 206.635 65.999 206.705 66.009 206.765 C 66.719 211.435 69.879 214.815 73.519 214.815 C 77.169 214.815 80.329 211.425 81.039 206.765 C 81.299 205.055 82.769 203.795 84.499 203.795 L 93.099 203.795 C 94.919 203.795 96.429 205.185 96.589 207.005 C 96.759 209.055 97.429 210.905 98.429 212.395 L 100.079 194.345 C 100.249 192.425 101.979 191.005 103.879 191.175 C 105.809 191.355 107.219 193.055 107.049 194.975 L 102.569 244.065 L 165.349 244.065 L 162.189 182.405 L 162.189 182.405 Z  M 104.389 185.205 C 101.739 184.815 99.899 182.355 100.289 179.705 C 100.679 177.055 103.139 175.215 105.789 175.605 C 108.439 175.995 110.279 178.455 109.889 181.105 C 109.509 183.765 107.049 185.595 104.389 185.205 Z  M 148.629 222.865 C 148.069 222.865 147.509 222.625 147.109 222.175 L 144.249 218.855 C 142.779 219.755 141.019 220.405 139.069 220.405 C 139.019 220.405 138.959 220.405 138.909 220.405 C 136.739 220.365 133.559 219.485 130.719 215.495 C 129.239 213.415 128.029 210.985 126.849 208.645 C 124.739 204.425 122.739 200.435 120.009 200.005 C 119.529 199.925 118.069 199.695 117.769 198.245 C 117.599 197.425 117.999 196.545 118.699 196.105 C 120.709 194.855 137.889 195.485 143.269 199.615 C 147.139 202.585 148.489 205.915 148.929 208.195 C 149.509 211.155 148.919 214.045 147.309 216.145 C 147.289 216.175 147.259 216.205 147.239 216.235 L 150.119 219.585 C 150.839 220.425 150.749 221.685 149.909 222.405 C 149.559 222.705 149.089 222.865 148.629 222.865 Z " fill="rgb(150,150,152)"/><path d=" M 144.159 213.685 C 145.059 212.515 145.379 210.745 145.019 208.945 C 144.709 207.345 143.729 204.985 140.849 202.775 C 138.149 200.695 131.259 199.835 126.179 199.595 C 127.819 201.625 129.139 204.255 130.439 206.835 C 131.549 209.045 132.689 211.335 133.989 213.165 C 135.489 215.275 137.169 216.355 138.989 216.395 C 141.099 216.425 143.099 215.065 144.159 213.685 Z " fill="rgb(161,172,208)"/><path d=" M 175.119 163.475 L 168.229 163.475 L 172.359 243.835 L 187.619 242.915 L 175.119 163.475 L 175.119 163.475 Z " fill="rgb(252,180,95)"/><path d=" M 150.139 219.555 L 147.259 216.205 C 147.279 216.175 147.309 216.145 147.329 216.115 C 148.939 214.015 149.529 211.125 148.949 208.165 C 148.499 205.895 147.159 202.565 143.289 199.585 C 137.909 195.455 120.729 194.825 118.719 196.075 C 118.009 196.515 117.619 197.405 117.789 198.215 C 118.079 199.665 119.549 199.895 120.029 199.975 C 122.759 200.405 124.749 204.395 126.869 208.615 C 128.049 210.965 129.259 213.395 130.739 215.465 C 133.569 219.455 136.759 220.335 138.929 220.375 C 138.979 220.375 139.039 220.375 139.089 220.375 C 141.039 220.375 142.799 219.725 144.269 218.825 L 147.129 222.145 C 147.529 222.605 148.079 222.835 148.649 222.835 C 149.109 222.835 149.579 222.675 149.949 222.345 C 150.769 221.655 150.869 220.395 150.139 219.555 Z  M 138.989 216.395 C 137.169 216.365 135.489 215.275 133.989 213.165 C 132.689 211.335 131.539 209.055 130.439 206.835 C 129.149 204.255 127.829 201.615 126.179 199.595 C 131.259 199.835 138.139 200.695 140.849 202.775 C 143.729 204.985 144.709 207.355 145.019 208.945 C 145.369 210.745 145.049 212.515 144.159 213.685 C 143.099 215.065 141.099 216.425 138.989 216.395 Z " fill="rgb(45,45,48)"/><path d=" M 109.899 181.105 C 110.289 178.455 108.449 175.985 105.799 175.605 C 103.149 175.225 100.679 177.055 100.299 179.705 C 99.919 182.355 101.749 184.825 104.399 185.205 C 107.049 185.595 109.509 183.765 109.899 181.105 Z " fill="rgb(45,45,48)"/><path d=" M 17.089 159.975 C 17.089 158.005 15.499 156.415 13.529 156.415 L 13.529 156.415 C 11.559 156.415 9.969 158.005 9.969 159.975 C 9.969 161.945 11.559 163.535 13.529 163.535 L 13.529 163.535 C 15.499 163.535 17.089 161.945 17.089 159.975 Z " fill="rgb(45,45,48)"/></g></g></g></g></svg>