<?xml version="1.0" encoding="UTF-8" standalone="no"?><!-- Generator: Gravit.io --><svg xmlns="http://www.w3.org/2000/svg" xmlns:xlink="http://www.w3.org/1999/xlink" style="isolation:isolate" viewBox="0 0 300 260" width="300pt" height="260pt"><defs><clipPath id="_clipPath_EF8vlMXkgakqHd4YVfjHncqjo7JKFWZZ"><rect width="300" height="260"/></clipPath></defs><g clip-path="url(#_clipPath_EF8vlMXkgakqHd4YVfjHncqjo7JKFWZZ)"><clipPath id="_clipPath_BVnC16SY5IECQUkky4jIpmL28wKu8yuB"><rect x="0" y="0" width="300" height="260" transform="matrix(1,0,0,1,0,0)" fill="rgb(255,255,255)"/></clipPath><g clip-path="url(#_clipPath_BVnC16SY5IECQUkky4jIpmL28wKu8yuB)"><g><g><path d=" M 191.651 195.941 C 189.731 195.981 187.721 196.029 185.721 196.079 C 185.091 200.893 184.341 205.698 183.451 210.483 L 203.301 210.483 L 203.301 195.647 C 199.771 195.755 195.891 195.853 191.651 195.941 Z " fill="none"/><path d=" M 143.081 222.288 C 142.971 222.043 142.911 221.779 142.911 221.504 L 142.911 212.454 C 142.911 211.375 143.811 210.492 144.911 210.492 L 152.731 210.492 C 154.091 203.305 157.351 188.97 162.111 186.165 C 163.891 185.116 170.941 184.204 179.971 183.449 C 181.331 159.289 174.031 137.766 167.531 118.635 C 165.351 112.203 163.271 106.084 161.731 100.378 L 126.651 100.378 C 124.981 105.398 122.651 110.928 120.211 116.723 C 120.081 117.037 119.941 117.351 119.811 117.675 C 123.471 128.098 124.091 137.521 123.371 143.404 L 122.821 147.973 C 120.621 166.084 119.881 172.183 119.921 180.831 C 119.981 192.333 121.381 203.913 124.081 215.258 C 124.641 217.601 124.751 219.974 124.451 222.279 L 143.081 222.279 L 143.081 222.288 L 143.081 222.288 Z " fill="rgb(150,150,152)"/><path d=" M 170.101 196.941 C 169.091 198.098 167.421 204.119 166.091 210.492 L 176.341 210.492 C 177.241 205.776 178.011 201.04 178.651 196.294 C 174.471 196.441 171.131 196.647 170.101 196.941 Z " fill="rgb(150,150,152)"/><path d=" M 160.151 93.514 L 151.141 51.311 L 140.081 52.439 C 139.761 52.469 139.441 52.488 139.111 52.488 C 138.561 52.488 138.011 52.439 137.471 52.351 L 137.171 52.302 L 128.371 93.514 L 160.151 93.514 L 160.151 93.514 Z " fill="rgb(252,180,95)"/><path d=" M 120.051 24.415 L 118.231 24.719 C 117.111 24.905 116.291 25.857 116.291 26.974 L 116.291 39.761 C 116.291 40.869 117.101 41.82 118.211 42.016 L 138.691 45.605 C 138.911 45.644 139.131 45.654 139.341 45.624 L 178.031 41.673 C 179.221 41.555 180.121 40.575 180.121 39.398 L 180.121 39.388 C 178.351 37.849 177.251 35.721 177.251 33.358 C 177.251 30.995 178.351 28.867 180.121 27.327 L 180.121 27.308 C 180.121 26.082 179.201 25.2 178.821 25.111 L 143.031 21.375 C 141.391 21.209 140.141 19.944 139.941 18.404 L 135.511 18.973 C 134.991 21.003 132.991 22.356 130.841 22.052 C 129.491 21.856 128.401 21.052 127.791 19.964 L 122.921 20.591 C 123.161 22.405 121.911 24.101 120.051 24.415 Z " fill="rgb(252,180,95)"/><path d=" M 186.831 31.759 C 185.371 31.759 184.271 32.603 184.271 33.358 C 184.271 34.113 185.361 34.956 186.831 34.956 C 188.301 34.956 189.391 34.113 189.391 33.358 C 189.391 32.603 188.291 31.759 186.831 31.759 Z " fill="rgb(255,229,201)"/><path d=" M 130.851 22.042 C 133.001 22.356 135.001 20.993 135.521 18.963 C 135.561 18.826 135.601 18.689 135.631 18.551 C 135.971 16.296 134.371 14.198 132.071 13.864 C 129.771 13.531 127.631 15.1 127.291 17.355 C 127.151 18.287 127.361 19.189 127.791 19.954 C 128.411 21.042 129.501 21.856 130.851 22.042 Z " fill="rgb(45,45,48)"/><path d=" M 26.681 124.156 C 25.771 128.725 25.671 133.363 26.361 139.207 C 29.601 167.015 30.041 173.634 29.861 181.949 C 29.611 193.598 28.101 205.345 25.371 216.876 C 24.461 220.72 25.371 224.701 27.881 227.789 C 30.391 230.888 34.141 232.663 38.181 232.663 L 104.491 232.663 C 108.531 232.663 112.281 230.888 114.791 227.789 C 117.301 224.681 118.211 220.69 117.291 216.827 C 114.471 204.982 113.001 192.882 112.941 180.87 C 112.901 171.791 113.651 165.584 115.891 147.169 L 116.441 142.6 C 118.031 129.49 111.771 104.055 88.181 87.101 L 53.691 87.101 C 44.581 94.406 40.281 98.681 36.281 104.339 C 35.291 105.741 33.441 106.182 31.921 105.477 L 29.791 109.909 C 30.931 110.791 31.581 112.223 31.361 113.733 C 31.021 115.988 28.881 117.547 26.581 117.223 C 26.491 117.214 26.401 117.174 26.311 117.155 L 24.751 120.4 C 26.141 121.057 26.991 122.587 26.681 124.156 Z  M 79.501 105.261 C 87.881 102.505 97.841 111.066 102.691 125.195 C 102.691 125.195 102.691 125.195 102.691 125.195 C 104.841 131.451 105.561 137.825 104.721 143.129 C 103.761 149.238 100.841 153.386 96.501 154.817 C 95.461 155.161 94.381 155.337 93.281 155.337 C 89.831 155.337 86.181 153.641 82.741 150.385 C 78.801 146.649 75.451 141.149 73.301 134.893 C 68.471 120.753 71.131 108.016 79.501 105.261 Z  M 54.901 209.414 L 87.791 209.414 C 88.891 209.414 89.791 210.296 89.791 211.375 C 89.791 212.454 88.891 213.336 87.791 213.336 L 54.901 213.336 C 53.801 213.336 52.901 212.454 52.901 211.375 C 52.901 210.296 53.791 209.414 54.901 209.414 Z  M 43.171 220.141 L 99.581 220.141 C 100.681 220.141 101.581 221.023 101.581 222.102 C 101.581 223.181 100.681 224.063 99.581 224.063 L 43.171 224.063 C 42.071 224.063 41.171 223.181 41.171 222.102 C 41.171 221.023 42.061 220.141 43.171 220.141 Z " fill="rgb(252,180,95)"/><path d=" M 56.291 64.343 L 56.291 80.247 L 85.801 80.247 L 85.801 64.343 C 85.801 59.685 81.931 55.891 77.181 55.891 L 64.911 55.891 C 60.161 55.891 56.291 59.675 56.291 64.343 Z " fill="rgb(136,150,194)"/><path d=" M 82.751 150.376 C 86.191 153.631 89.831 155.327 93.291 155.327 C 94.391 155.327 95.461 155.161 96.511 154.808 C 100.851 153.376 103.771 149.228 104.731 143.12 C 105.571 137.815 104.851 131.441 102.701 125.185 C 102.701 125.185 102.701 125.185 102.701 125.185 C 97.851 111.066 87.891 102.496 79.511 105.251 C 71.141 108.016 68.471 120.743 73.321 134.873 C 75.461 141.139 78.811 146.64 82.751 150.376 Z  M 81.731 111.762 C 82.021 111.664 82.331 111.625 82.671 111.625 C 86.281 111.625 92.501 117.027 96.051 127.382 L 96.051 127.382 C 97.821 132.539 98.461 137.903 97.801 142.08 C 97.271 145.424 95.951 147.748 94.261 148.307 C 92.581 148.865 90.091 147.787 87.601 145.443 C 84.501 142.502 81.701 137.854 79.931 132.696 C 76.061 121.371 78.371 112.87 81.731 111.762 Z " fill="rgb(45,45,48)"/><path d=" M 31.341 113.743 C 31.571 112.232 30.911 110.801 29.771 109.918 C 29.211 109.487 28.541 109.163 27.781 109.056 C 25.481 108.722 23.341 110.291 23.001 112.546 C 22.681 114.713 24.141 116.713 26.291 117.165 C 26.381 117.184 26.471 117.214 26.561 117.233 C 28.861 117.557 31.001 115.998 31.341 113.743 Z " fill="rgb(45,45,48)"/><path d=" M 43.171 224.063 L 99.581 224.063 C 100.681 224.063 101.581 223.181 101.581 222.102 C 101.581 221.023 100.681 220.141 99.581 220.141 L 43.171 220.141 C 42.071 220.141 41.171 221.023 41.171 222.102 C 41.171 223.181 42.061 224.063 43.171 224.063 Z " fill="rgb(45,45,48)"/><path d=" M 54.901 213.336 L 87.791 213.336 C 88.891 213.336 89.791 212.454 89.791 211.375 C 89.791 210.296 88.891 209.414 87.791 209.414 L 54.901 209.414 C 53.801 209.414 52.901 210.296 52.901 211.375 C 52.901 212.454 53.791 213.336 54.901 213.336 Z " fill="rgb(45,45,48)"/><path d=" M 71.041 53.41 C 72.971 53.41 74.541 51.87 74.541 49.978 L 74.541 49.027 L 74.541 38.172 C 74.541 36.28 72.971 34.74 71.041 34.74 C 69.111 34.74 67.541 36.28 67.541 38.172 L 67.541 49.027 L 67.541 49.978 C 67.541 51.88 69.111 53.41 71.041 53.41 Z " fill="rgb(45,45,48)"/><path d=" M 274.481 159.887 C 274.481 157.955 276.071 156.396 278.041 156.396 L 278.041 153.052 C 276.111 153.052 274.541 151.513 274.541 149.621 L 274.541 90.092 C 274.541 85.493 270.731 81.757 266.041 81.757 L 245.831 81.757 C 230.091 81.757 224.901 73.511 223.391 69.971 C 221.421 65.323 221.971 60.342 224.771 57.577 C 231.131 51.302 238.161 52.419 243.811 53.322 C 249.211 54.175 253.471 54.861 258.001 50.9 C 258.301 50.635 258.421 49.88 258.321 48.88 C 257.691 42.712 250.181 31.975 245.141 26.2 L 238.011 31.759 C 239.021 34.946 239.421 38.309 236.711 40.731 C 232.261 44.703 226.631 44.791 222.091 44.859 C 215.711 44.958 213.841 45.212 213.301 50.282 C 213.051 52.596 212.751 54.89 212.431 57.322 C 211.711 62.794 210.891 68.991 210.471 77.511 C 210.461 77.776 210.411 78.041 210.341 78.296 C 210.191 79.257 210.161 82.699 210.271 88.513 C 210.281 89.268 210.291 89.837 210.291 90.102 L 210.291 181.606 C 220.231 181.145 228.771 180.861 232.401 180.743 C 233.071 180.713 233.671 181.017 234.061 181.518 C 234.451 182.018 234.571 182.694 234.371 183.302 C 234.281 183.567 232.201 189.774 226.841 193.206 C 224.941 194.421 219.271 195.02 210.301 195.412 L 210.301 210.492 L 249.491 210.492 C 250.591 210.492 251.491 211.375 251.491 212.454 L 251.491 221.504 C 251.491 222.553 250.651 223.406 249.591 223.455 C 249.961 224.769 250.281 226.181 250.561 227.662 L 266.041 227.662 C 270.731 227.662 274.541 223.926 274.541 219.327 L 274.541 171.232 C 274.541 169.339 276.111 167.8 278.041 167.8 L 278.041 163.378 C 276.071 163.378 274.481 161.809 274.481 159.887 Z  M 263.681 216.091 C 263.671 216.091 263.651 216.091 263.641 216.091 C 262.551 216.091 261.661 215.238 261.641 214.17 C 260.801 171.075 259.131 106.349 257.831 97.593 C 253.651 97.064 236.471 97.338 220.901 97.956 C 219.771 97.985 218.871 97.162 218.821 96.073 C 218.781 94.995 219.631 94.073 220.741 94.034 C 258.231 92.543 260.031 93.926 260.711 94.445 C 261.831 95.308 262.631 95.926 264.271 155.553 C 265.071 184.577 265.641 213.797 265.641 214.091 C 265.661 215.179 264.781 216.072 263.681 216.091 Z " fill="rgb(161,172,208)"/><path d=" M 274.541 171.222 L 274.541 219.317 C 274.541 223.916 270.731 227.652 266.041 227.652 L 250.561 227.652 C 250.281 226.171 249.961 224.759 249.591 223.446 C 250.651 223.396 251.491 222.543 251.491 221.494 L 251.491 212.444 C 251.491 211.365 250.591 210.483 249.491 210.483 L 210.301 210.483 L 210.301 195.402 C 219.281 195.01 224.951 194.402 226.841 193.196 C 232.201 189.764 234.291 183.557 234.371 183.292 C 234.571 182.684 234.451 182.018 234.061 181.508 C 233.671 180.998 233.071 180.704 232.401 180.733 C 228.771 180.851 220.231 181.145 210.291 181.596 L 210.291 90.092 C 210.291 89.827 210.281 89.258 210.271 88.503 C 210.171 82.689 210.191 79.247 210.341 78.286 C 210.411 78.031 210.461 77.766 210.471 77.502 C 210.891 68.981 211.711 62.784 212.431 57.312 C 212.591 56.097 212.746 54.915 212.892 53.748 C 213.039 52.581 213.176 51.429 213.301 50.272 C 213.841 45.203 215.701 44.948 222.091 44.85 C 226.621 44.781 232.261 44.693 236.711 40.722 C 239.421 38.3 239.021 34.936 238.011 31.75 L 245.141 26.19 C 250.181 31.975 257.691 42.702 258.321 48.87 C 258.421 49.87 258.301 50.625 258.001 50.89 C 253.471 54.851 249.211 54.175 243.811 53.312 C 238.161 52.419 231.131 51.302 224.771 57.567 C 221.971 60.332 221.411 65.304 223.391 69.961 C 224.891 73.501 230.091 81.747 245.831 81.747 L 266.041 81.747 C 270.731 81.747 274.541 85.483 274.541 90.082 L 274.541 149.611 C 274.541 151.503 276.111 153.043 278.041 153.043 C 278.041 153.043 278.041 153.043 278.041 153.043 C 279.971 153.043 281.541 151.503 281.541 149.611 L 281.541 90.082 C 281.541 81.698 274.591 74.884 266.041 74.884 L 245.831 74.884 C 234.311 74.884 230.821 69.599 229.861 67.324 C 228.811 64.853 229.281 62.872 229.741 62.411 C 233.391 58.813 236.871 59.156 242.701 60.087 C 248.471 60.999 255.651 62.146 262.661 56.008 C 265.591 53.449 266.141 49.36 264.301 43.84 C 262.271 37.76 256.131 28.161 250.611 21.905 L 250.661 21.866 C 251.511 21.209 251.991 20.199 251.981 19.14 C 251.971 18.081 251.461 17.081 250.591 16.443 L 229.371 0.696 C 228.041 -0.285 226.201 -0.226 224.951 0.853 L 212.451 11.629 C 211.071 12.815 210.861 14.855 211.981 16.287 L 227.141 35.75 C 227.711 36.486 228.561 36.956 229.491 37.074 C 229.491 37.074 229.501 37.074 229.501 37.074 C 227.321 37.868 224.711 37.917 221.991 37.956 C 216.241 38.045 207.551 38.172 206.351 49.527 C 206.111 51.753 205.821 54.008 205.501 56.391 C 204.771 61.921 203.941 68.177 203.511 76.796 C 203.231 78.139 203.151 80.826 203.281 88.582 C 203.291 89.278 203.301 89.807 203.301 90.053 L 203.301 181.9 C 197.861 182.174 192.271 182.498 187.011 182.871 C 188.191 157.69 180.471 134.952 174.181 116.429 C 171.711 109.154 169.381 102.28 167.871 96.142 L 158.141 50.566 L 161.031 50.272 C 171.511 82.836 180.321 86.366 183.631 86.366 C 183.631 86.366 183.631 86.366 183.631 86.366 C 185.561 86.366 187.131 84.826 187.131 82.934 C 187.131 81.041 185.561 79.502 183.631 79.502 C 183.631 79.502 183.631 79.502 183.631 79.502 C 183.571 79.502 176.781 75.796 168.151 49.546 L 178.771 48.458 C 182.691 48.056 185.821 45.34 186.801 41.771 C 186.811 41.771 186.821 41.771 186.831 41.771 C 192.101 41.771 196.391 37.976 196.391 33.309 C 196.391 28.641 192.101 24.847 186.831 24.847 C 186.821 24.847 186.811 24.847 186.801 24.847 C 185.841 21.395 182.931 18.581 179.601 18.238 L 143.781 14.502 C 141.861 14.296 140.131 15.669 139.931 17.551 C 139.901 17.826 139.911 18.091 139.951 18.355 C 140.151 19.895 141.401 21.15 143.041 21.326 L 178.831 25.062 C 179.211 25.151 180.131 26.033 180.131 27.259 L 180.131 27.278 C 178.361 28.818 177.261 30.946 177.261 33.309 C 177.261 35.672 178.361 37.8 180.131 39.339 L 180.131 39.349 C 180.131 40.525 179.231 41.506 178.041 41.624 L 139.351 45.575 C 139.131 45.595 138.911 45.595 138.701 45.556 L 118.221 41.967 C 117.111 41.771 116.301 40.82 116.301 39.712 L 116.301 26.925 C 116.301 25.808 117.111 24.856 118.241 24.67 L 120.061 24.366 C 121.921 24.052 123.171 22.356 122.921 20.542 C 122.911 20.493 122.921 20.454 122.911 20.405 C 122.581 18.542 120.781 17.287 118.871 17.61 L 117.051 17.914 C 112.561 18.669 109.301 22.464 109.301 26.935 L 109.301 39.721 C 109.301 44.163 112.541 47.948 116.991 48.733 L 130.281 51.056 L 120.671 96.054 C 119.531 99.858 117.861 104.153 115.971 108.712 C 111.231 99.446 103.871 89.984 92.791 81.904 L 92.791 64.304 C 92.791 55.861 85.781 48.988 77.171 48.988 L 74.541 48.988 L 74.541 49.939 C 74.541 51.831 72.971 53.371 71.041 53.371 C 69.111 53.371 67.541 51.831 67.541 49.939 L 67.541 48.988 L 64.901 48.988 C 56.291 48.988 49.281 55.861 49.281 64.304 L 49.281 81.728 C 39.581 89.503 34.931 94.142 30.511 100.397 C 29.411 101.956 29.801 104.094 31.391 105.173 C 31.551 105.28 31.721 105.369 31.901 105.447 C 33.421 106.153 35.271 105.702 36.261 104.31 C 40.261 98.652 44.571 94.377 53.671 87.072 L 88.161 87.072 C 111.751 104.025 118.011 129.451 116.421 142.57 L 115.871 147.14 C 113.631 165.564 112.881 171.771 112.921 180.841 C 112.981 192.853 114.441 204.952 117.271 216.797 C 118.191 220.661 117.281 224.652 114.771 227.76 C 112.261 230.858 108.511 232.633 104.471 232.633 L 38.161 232.633 C 34.121 232.633 30.371 230.858 27.861 227.76 C 25.361 224.671 24.441 220.69 25.351 216.846 C 28.081 205.315 29.591 193.568 29.841 181.919 C 30.021 173.605 29.581 166.976 26.341 139.178 C 25.661 133.334 25.761 128.696 26.661 124.126 C 26.971 122.548 26.131 121.028 24.711 120.381 C 24.451 120.263 24.181 120.165 23.891 120.106 C 21.991 119.743 20.161 120.959 19.791 122.822 C 18.741 128.107 18.621 133.392 19.381 139.962 C 22.571 167.368 23.011 173.82 22.841 181.782 C 22.601 192.951 21.151 204.227 18.531 215.297 C 17.131 221.19 18.531 227.299 22.381 232.035 C 26.221 236.781 31.981 239.507 38.161 239.507 L 104.471 239.507 C 110.661 239.507 116.411 236.781 120.251 232.035 C 120.991 231.113 121.651 230.143 122.201 229.133 L 144.241 229.133 C 142.281 237.487 140.171 247.684 140.691 250.959 C 140.911 252.342 141.801 254.274 144.811 255.568 C 150.011 257.813 158.801 257.088 162.081 254.94 C 162.761 254.499 163.371 254.038 163.911 253.636 C 166.371 251.793 167.301 251.107 171.301 253.715 C 174.751 255.97 181.711 260 187.451 260 C 189.861 260 192.051 259.294 193.671 257.451 C 197.431 253.175 199.701 250.597 207.111 254.283 C 211.091 256.254 215.341 258.01 219.431 258.264 C 219.481 258.264 219.541 258.284 219.591 258.284 C 219.611 258.284 219.621 258.284 219.641 258.284 C 223.301 258.47 226.821 257.431 229.851 254.254 C 232.421 251.567 238.211 253.656 242.431 255.186 C 244.931 256.088 246.891 256.803 248.421 256.705 C 250.771 256.568 251.351 253.695 251.551 252.744 C 252.231 249.43 252.321 241.948 251.561 234.506 L 266.061 234.506 C 274.611 234.506 281.561 227.691 281.561 219.308 L 281.561 171.212 C 281.561 169.32 279.991 167.78 278.061 167.78 C 278.061 167.78 278.061 167.78 278.061 167.78 C 276.111 167.79 274.541 169.329 274.541 171.222 Z  M 247.461 252.705 C 246.521 252.489 245.041 251.96 243.801 251.509 C 238.521 249.606 231.291 246.988 226.911 251.577 C 225.381 253.185 223.641 254.087 221.521 254.323 L 220.761 228.701 C 220.731 227.623 219.801 226.74 218.701 226.799 C 217.601 226.828 216.731 227.73 216.761 228.819 L 217.501 254.068 C 215.101 253.558 212.281 252.479 208.901 250.793 C 198.711 245.733 194.411 250.597 190.631 254.901 C 188.281 257.568 181.711 255.382 175.591 251.764 L 176.261 231.162 C 176.301 230.084 175.431 229.172 174.321 229.142 C 173.191 229.103 172.291 229.956 172.261 231.045 L 171.661 249.391 C 169.901 248.469 168.441 248.096 167.151 248.096 C 164.991 248.096 163.301 249.165 161.461 250.548 C 160.951 250.93 160.421 251.332 159.841 251.705 C 157.781 253.058 150.361 253.715 146.401 252.009 C 145.661 251.685 144.741 251.146 144.621 250.391 C 144.141 247.351 147.111 233.878 149.711 223.465 L 156.361 223.465 L 155.191 242.419 C 155.121 243.498 155.961 244.429 157.071 244.498 C 157.111 244.498 157.151 244.498 157.191 244.498 C 158.241 244.498 159.121 243.694 159.181 242.654 L 160.361 223.465 L 185.291 223.465 L 184.911 235.133 C 184.871 236.212 185.741 237.124 186.851 237.153 C 186.871 237.153 186.891 237.153 186.911 237.153 C 187.991 237.153 188.871 236.32 188.911 235.251 L 189.291 223.455 L 198.401 223.455 L 198.211 240.468 C 198.201 241.546 199.081 242.439 200.191 242.448 C 200.201 242.448 200.201 242.448 200.211 242.448 C 201.301 242.448 202.201 241.586 202.211 240.507 L 202.401 223.455 L 230.421 223.455 L 230.421 236.947 C 230.421 238.026 231.321 238.909 232.421 238.909 C 233.521 238.909 234.421 238.026 234.421 236.947 L 234.421 223.455 L 245.421 223.455 C 245.481 223.642 245.531 223.818 245.591 224.024 C 248.391 233.692 248.581 249.145 247.461 252.705 Z  M 124.081 215.268 C 121.381 203.923 119.981 192.343 119.921 180.841 C 119.881 172.183 120.621 166.084 122.821 147.983 L 123.371 143.414 C 124.081 137.521 123.471 128.098 119.811 117.684 C 119.941 117.37 120.081 117.047 120.211 116.733 C 122.651 110.928 124.981 105.398 126.651 100.388 L 161.731 100.388 C 163.271 106.084 165.351 112.213 167.531 118.645 C 174.031 137.776 181.331 159.298 179.971 183.459 C 170.931 184.214 163.891 185.126 162.111 186.175 C 157.351 188.97 154.091 203.315 152.731 210.502 L 144.911 210.502 C 143.811 210.502 142.911 211.385 142.911 212.463 L 142.911 221.514 C 142.911 221.798 142.971 222.063 143.081 222.298 L 124.451 222.298 C 124.751 219.974 124.641 217.611 124.081 215.268 Z  M 137.481 52.351 C 138.021 52.449 138.571 52.488 139.121 52.488 C 139.441 52.488 139.761 52.469 140.091 52.439 L 151.151 51.311 L 160.161 93.514 L 128.391 93.514 L 137.191 52.302 L 137.481 52.351 L 137.481 52.351 Z  M 247.491 219.533 L 200.491 219.533 L 200.471 219.533 L 146.911 219.533 L 146.911 214.405 L 247.491 214.405 L 247.491 219.533 L 247.491 219.533 Z  M 166.091 210.483 C 167.421 204.109 169.091 198.089 170.101 196.932 C 171.131 196.637 174.471 196.441 178.641 196.284 C 178.001 201.03 177.231 205.766 176.331 210.483 L 166.091 210.483 L 166.091 210.483 Z  M 183.451 210.483 C 184.341 205.698 185.101 200.883 185.721 196.079 C 187.721 196.029 189.741 195.981 191.651 195.941 C 195.891 195.853 199.761 195.755 203.301 195.647 L 203.301 210.483 L 183.451 210.483 L 183.451 210.483 Z  M 191.561 192.019 C 173.991 192.402 169.371 192.637 167.881 193.647 C 165.461 195.284 163.351 203.619 161.991 210.483 L 156.811 210.483 C 158.551 201.648 161.521 191.078 164.171 189.519 C 167.341 187.744 199.491 185.773 229.331 184.753 C 228.391 186.41 226.871 188.489 224.661 189.901 C 222.261 191.352 203.791 191.754 191.561 192.019 Z  M 242.781 19.267 L 230.531 28.828 L 219.521 14.688 L 227.431 7.873 L 242.781 19.267 L 242.781 19.267 Z  M 186.831 34.946 C 185.371 34.946 184.271 34.103 184.271 33.348 C 184.271 32.593 185.361 31.75 186.831 31.75 C 188.301 31.75 189.391 32.593 189.391 33.348 C 189.391 34.103 188.291 34.946 186.831 34.946 Z  M 77.181 55.891 C 81.931 55.891 85.801 59.685 85.801 64.343 L 85.801 80.247 L 56.291 80.247 L 56.291 64.343 C 56.291 59.685 60.161 55.891 64.911 55.891 L 77.181 55.891 L 77.181 55.891 Z " fill="rgb(45,45,48)"/><path d=" M 230.531 28.828 L 242.781 19.267 L 227.431 7.873 L 219.521 14.688 L 230.531 28.828 L 230.531 28.828 Z " fill="rgb(252,180,95)"/><path d=" M 260.711 94.455 C 260.031 93.936 258.231 92.553 220.741 94.043 C 219.641 94.083 218.781 95.004 218.821 96.083 C 218.861 97.162 219.771 97.995 220.901 97.966 C 236.471 97.348 253.661 97.073 257.831 97.603 C 259.121 106.359 260.801 171.075 261.641 214.179 C 261.661 215.248 262.551 216.101 263.641 216.101 C 263.651 216.101 263.671 216.101 263.681 216.101 C 264.781 216.082 265.661 215.189 265.641 214.101 C 265.631 213.807 265.061 184.587 264.271 155.563 C 262.631 95.936 261.821 95.318 260.711 94.455 Z " fill="rgb(45,45,48)"/><path d=" M 245.641 224.024 C 245.581 223.828 245.531 223.642 245.471 223.455 L 234.471 223.455 L 234.471 236.947 C 234.471 238.026 233.571 238.909 232.471 238.909 C 231.371 238.909 230.471 238.026 230.471 236.947 L 230.471 223.455 L 202.451 223.455 L 202.261 240.507 C 202.251 241.586 201.351 242.448 200.261 242.448 C 200.251 242.448 200.251 242.448 200.241 242.448 C 199.141 242.439 198.251 241.546 198.261 240.468 L 198.451 223.455 L 189.341 223.455 L 188.961 235.251 C 188.931 236.31 188.041 237.153 186.961 237.153 C 186.941 237.153 186.921 237.153 186.901 237.153 C 185.801 237.114 184.931 236.212 184.961 235.133 L 185.341 223.465 L 160.401 223.465 L 159.221 242.654 C 159.161 243.694 158.271 244.498 157.231 244.498 C 157.191 244.498 157.151 244.498 157.111 244.498 C 156.011 244.429 155.171 243.507 155.231 242.419 L 156.401 223.465 L 149.751 223.465 C 147.151 233.878 144.181 247.351 144.661 250.391 C 144.781 251.146 145.691 251.685 146.441 252.009 C 150.391 253.715 157.811 253.058 159.881 251.705 C 160.451 251.332 160.991 250.93 161.501 250.548 C 163.351 249.165 165.041 248.096 167.191 248.096 C 168.481 248.096 169.941 248.479 171.701 249.391 L 172.301 231.045 C 172.341 229.956 173.241 229.113 174.361 229.142 C 175.461 229.182 176.331 230.084 176.301 231.162 L 175.631 251.764 C 181.751 255.372 188.321 257.558 190.671 254.901 C 194.461 250.606 198.751 245.733 208.941 250.793 C 212.321 252.47 215.141 253.558 217.541 254.068 L 216.801 228.819 C 216.771 227.74 217.641 226.838 218.741 226.799 C 219.831 226.74 220.761 227.623 220.801 228.701 L 221.561 254.323 C 223.681 254.087 225.421 253.175 226.951 251.577 C 231.331 246.988 238.561 249.596 243.841 251.509 C 245.081 251.96 246.561 252.489 247.501 252.705 C 248.581 249.145 248.391 233.692 245.641 224.024 Z " fill="rgb(255,229,201)"/><path d=" M 224.661 189.911 C 226.871 188.499 228.381 186.42 229.331 184.763 C 199.491 185.783 167.341 187.754 164.171 189.528 C 161.521 191.088 158.551 201.648 156.811 210.492 L 161.991 210.492 C 163.361 203.629 165.461 195.294 167.881 193.657 C 169.371 192.647 173.991 192.411 191.561 192.029 C 203.791 191.754 222.261 191.352 224.661 189.911 Z " fill="rgb(252,180,95)"/><path d=" M 146.911 214.405 L 146.911 219.533 L 200.471 219.533 L 200.491 219.533 L 247.491 219.533 L 247.491 214.405 L 146.911 214.405 L 146.911 214.405 Z " fill="rgb(252,180,95)"/><path d=" M 274.481 159.887 C 274.481 161.818 276.071 163.378 278.041 163.378 C 280.011 163.378 281.601 161.818 281.601 159.887 C 281.601 157.955 280.011 156.396 278.041 156.396 C 276.071 156.396 274.481 157.955 274.481 159.887 Z " fill="rgb(45,45,48)"/></g></g></g></g></svg>