<?xml version="1.0" encoding="UTF-8" standalone="no"?><!-- Generator: Gravit.io --><svg xmlns="http://www.w3.org/2000/svg" xmlns:xlink="http://www.w3.org/1999/xlink" style="isolation:isolate" viewBox="0 0 300 260" width="300pt" height="260pt"><defs><clipPath id="_clipPath_LggEmtUcEbRv1DhcQx7nvEXEzIP1Prv3"><rect width="300" height="260"/></clipPath></defs><g clip-path="url(#_clipPath_LggEmtUcEbRv1DhcQx7nvEXEzIP1Prv3)"><clipPath id="_clipPath_XzhU1wpV1yzwEUQGQ9sbTudz8FOh7EVt"><rect x="0" y="0" width="300" height="260" transform="matrix(1,0,0,1,0,0)" fill="rgb(255,255,255)"/></clipPath><g clip-path="url(#_clipPath_XzhU1wpV1yzwEUQGQ9sbTudz8FOh7EVt)"><g><g><path d=" M 130.69 53.186 C 133.225 49.46 134.854 45.367 135.348 41.06 L 125.529 41.06 L 125.529 48.699 L 130.69 53.186 L 130.69 53.186 Z " fill="none"/><path d=" M 96.766 14.451 C 94.707 9.252 91.119 5.731 87.139 5.731 C 83.158 5.731 79.57 9.252 77.511 14.451 C 82.242 14.156 85.995 14.123 87.139 14.123 C 88.282 14.123 92.035 14.148 96.766 14.451 Z " fill="none"/><path d=" M 48.748 41.06 L 37.583 41.06 C 38.151 45.972 40.182 50.598 43.349 54.717 L 48.748 48.879 L 48.748 41.06 L 48.748 41.06 Z " fill="none"/><rect x="193.195" y="108.066" width="54.598" height="16.997" transform="matrix(1,0,0,1,0,0)" fill="rgb(161,172,208)"/><path d=" M 201.349 81.113 L 193.195 86.934 L 193.195 104.791 L 247.793 104.791 L 247.793 86.934 L 231.622 75.382 L 220.503 67.432 L 215.451 71.042 C 214.07 72.033 212.056 71.828 210.949 70.592 L 208.908 72.049 C 209.402 72.639 209.649 73.4 209.521 74.186 C 209.265 75.75 207.645 76.831 205.897 76.602 C 205.092 76.495 204.415 76.127 203.93 75.611 L 201.861 77.085 C 202.95 78.321 202.731 80.13 201.349 81.113 Z " fill="rgb(252,180,95)"/><path d=" M 250.868 81.809 L 267.011 68.815 L 261.858 64.689 L 258.052 68.3 C 257.21 69.094 256.047 69.503 254.675 69.503 C 254.043 69.503 253.366 69.413 252.652 69.241 C 250.794 68.783 248.845 67.743 247.143 66.318 C 245.441 64.894 244.169 63.207 243.556 61.578 C 242.805 59.596 243.061 57.861 244.297 56.698 L 247.774 53.398 L 245.917 51.908 L 226.827 64.632 L 250.868 81.809 L 250.868 81.809 Z " fill="rgb(161,172,208)"/><path d=" M 254.199 186.379 L 268.603 170.233 L 268.603 75.242 L 254.199 86.836 L 254.199 186.379 L 254.199 186.379 Z " fill="rgb(255,229,201)"/><path d=" M 241.771 42.755 L 225.939 52.514 L 225.939 58.065 L 241.771 47.512 L 241.771 42.755 L 241.771 42.755 Z " fill="rgb(255,229,201)"/><path d=" M 205.888 76.602 C 207.636 76.831 209.256 75.75 209.512 74.186 C 209.64 73.4 209.393 72.639 208.899 72.049 C 208.414 71.468 207.682 71.059 206.812 70.944 C 205.064 70.715 203.445 71.796 203.188 73.359 C 203.051 74.203 203.353 75.005 203.921 75.611 C 204.406 76.127 205.083 76.495 205.888 76.602 Z " fill="rgb(66,66,69)"/><path d=" M 246.96 58.941 C 246.768 59.121 246.713 59.695 247.024 60.521 C 247.445 61.635 248.406 62.879 249.66 63.936 C 250.913 64.992 252.35 65.778 253.622 66.089 C 254.565 66.318 255.196 66.236 255.388 66.056 L 259.159 62.478 C 257.448 61.971 255.681 60.996 254.135 59.686 C 252.588 58.376 251.389 56.862 250.73 55.363 L 246.96 58.941 L 246.96 58.941 Z " fill="rgb(136,150,194)"/><path d=" M 254.665 52.121 C 254.327 52.121 254.08 52.187 253.952 52.301 C 253.759 52.481 253.705 53.055 254.016 53.881 C 254.437 54.995 255.398 56.239 256.651 57.296 C 257.905 58.352 259.342 59.138 260.614 59.449 C 261.566 59.686 262.197 59.596 262.38 59.416 L 262.38 59.416 C 262.902 58.925 262.252 56.592 259.68 54.422 C 257.731 52.768 255.736 52.121 254.665 52.121 Z " fill="rgb(136,150,194)"/><path d=" M 112.131 191.438 L 112.131 149.494 C 112.131 145.253 113.458 141.102 115.966 137.5 L 126.526 122.337 L 126.526 113.216 C 123.918 111.767 122.179 109.188 122.179 106.248 C 122.179 101.729 126.298 98.044 131.349 98.044 L 147.886 98.044 L 147.886 84.429 C 137.435 90.037 115.938 92.649 96.766 93.14 C 94.414 93.197 92.025 93.23 89.673 93.23 C 87.907 93.23 86.47 91.945 86.47 90.365 C 86.47 88.785 87.907 87.499 89.673 87.499 C 91.97 87.499 94.295 87.466 96.583 87.409 C 130.26 86.549 147.886 79.909 147.886 76.593 C 147.886 76.225 147.438 75.521 146.184 74.645 C 146.092 74.579 146.01 74.514 145.918 74.44 L 131.432 61.823 C 121.347 71.992 104.956 78.632 86.47 78.632 C 69.11 78.632 53.589 72.778 43.413 63.641 L 33.639 74.211 C 33.493 74.366 33.328 74.514 33.145 74.645 C 31.891 75.521 31.443 76.225 31.443 76.593 C 31.443 79.189 43.907 85.084 72.716 86.959 C 74.482 87.073 75.809 88.449 75.681 90.029 C 75.553 91.609 73.997 92.788 72.249 92.682 C 64.095 92.15 42.342 90.225 31.443 84.421 L 31.443 181.499 C 31.443 182.4 34.307 185.609 47.009 188.458 C 58.366 191.005 73.512 192.405 89.664 192.405 C 97.498 192.396 105.085 192.069 112.131 191.438 Z  M 46.762 171.903 C 46.762 172.804 45.939 173.541 44.932 173.541 C 43.925 173.541 43.102 172.804 43.102 171.903 L 43.102 100.091 C 43.102 99.191 43.925 98.454 44.932 98.454 C 45.939 98.454 46.762 99.191 46.762 100.091 L 46.762 171.903 L 46.762 171.903 Z  M 80.833 93.189 C 79.03 93.189 77.575 91.888 77.575 90.275 C 77.575 88.662 79.03 87.36 80.833 87.36 C 82.636 87.36 84.091 88.662 84.091 90.275 C 84.091 91.888 82.636 93.189 80.833 93.189 Z " fill="rgb(150,150,152)"/><path d=" M 86.47 72.901 C 103.208 72.901 118.016 66.932 126.865 57.852 L 122.875 54.381 C 114.739 60.448 90.406 60.661 87.139 60.661 C 83.917 60.661 60.197 60.456 51.741 54.627 L 47.485 59.228 C 56.463 67.538 70.593 72.901 86.47 72.901 Z " fill="rgb(150,150,152)"/><path d=" M 55.154 49.706 C 56.646 51.63 68.296 54.929 87.148 54.929 C 106 54.929 117.64 51.63 119.141 49.706 L 119.141 31.481 C 108.983 35.607 90.003 35.771 87.148 35.771 C 84.292 35.771 65.321 35.607 55.154 31.481 L 55.154 49.706 L 55.154 49.706 Z " fill="rgb(108,108,115)"/><path d=" M 69.458 20.968 C 61.505 22.057 56.582 23.735 55.319 24.955 C 57.341 26.92 68.836 30.048 87.139 30.048 C 105.451 30.048 116.936 26.912 118.958 24.955 C 118.326 24.345 116.78 23.621 114.397 22.912 C 112.015 22.204 108.796 21.512 104.819 20.968 C 104.929 22.09 104.993 23.236 104.993 24.407 C 104.993 25.987 103.556 27.272 101.79 27.272 C 100.024 27.272 98.587 25.987 98.587 24.407 C 98.587 22.99 98.477 21.607 98.285 20.272 C 94.917 20.01 91.193 19.855 87.129 19.855 C 83.066 19.855 79.341 20.01 75.974 20.272 C 75.782 21.607 75.672 22.99 75.672 24.407 C 75.672 25.987 74.235 27.272 72.469 27.272 C 70.702 27.272 69.266 25.987 69.266 24.407 C 69.284 23.236 69.339 22.09 69.458 20.968 Z " fill="rgb(150,150,152)"/><path d=" M 44.932 98.462 C 43.925 98.462 43.102 99.199 43.102 100.1 L 43.102 171.911 C 43.102 172.812 43.925 173.549 44.932 173.549 C 45.939 173.549 46.762 172.812 46.762 171.911 L 46.762 100.1 C 46.762 99.191 45.948 98.462 44.932 98.462 Z " fill="rgb(66,66,69)"/><path d=" M 159.728 124.67 C 159.408 124.22 159.243 123.687 159.243 123.155 L 159.243 114.452 L 132.932 114.452 L 132.932 123.155 C 132.932 123.687 132.768 124.22 132.448 124.67 L 121.402 140.529 C 119.526 143.223 118.537 146.318 118.537 149.494 L 118.537 221.65 C 118.537 226.276 122.747 230.042 127.917 230.042 L 139.613 230.042 L 139.21 208.599 C 139.21 208.55 139.22 208.509 139.22 208.468 C 139.22 208.354 139.229 208.239 139.247 208.133 C 139.256 208.059 139.274 207.994 139.293 207.92 C 139.32 207.813 139.357 207.715 139.393 207.617 C 139.421 207.551 139.439 207.486 139.476 207.42 C 139.522 207.314 139.586 207.216 139.65 207.126 C 139.686 207.076 139.714 207.019 139.75 206.97 C 139.86 206.831 139.979 206.692 140.107 206.569 C 140.116 206.561 140.126 206.553 140.135 206.544 C 140.263 206.43 140.4 206.323 140.547 206.233 C 140.601 206.192 140.675 206.168 140.73 206.135 C 140.812 206.086 140.894 206.037 140.977 205.996 L 173.638 191.414 L 173.638 149.502 C 173.638 146.326 172.65 143.231 170.774 140.537 L 159.728 124.67 L 159.728 124.67 Z  M 125.813 221.306 C 124.806 221.306 123.982 220.569 123.982 219.669 L 123.982 155.602 C 123.982 154.701 124.806 153.965 125.813 153.965 C 126.819 153.965 127.643 154.701 127.643 155.602 L 127.643 219.669 C 127.643 220.578 126.829 221.306 125.813 221.306 Z  M 167.058 148.405 C 162.208 150.198 158.639 150.935 155.848 150.935 C 151.382 150.935 148.902 149.052 146.321 146.58 C 144.994 145.311 143.74 144.107 141.846 143.346 C 132.329 139.53 127.634 147.308 127.442 147.644 C 126.975 148.446 125.868 148.749 124.971 148.332 C 124.074 147.914 123.726 146.923 124.202 146.121 C 126.407 142.355 133.244 136.304 143.347 140.349 C 145.918 141.38 147.557 142.953 149.003 144.336 C 152.032 147.235 154.429 149.527 165.658 145.368 C 166.592 145.024 167.662 145.417 168.047 146.252 C 168.431 147.095 167.992 148.053 167.058 148.405 Z " fill="rgb(161,172,208)"/><path d=" M 165.658 145.376 C 154.42 149.535 152.032 147.243 149.003 144.344 C 147.557 142.961 145.909 141.389 143.347 140.357 C 133.235 136.304 126.407 142.363 124.202 146.129 C 123.735 146.932 124.083 147.922 124.971 148.34 C 125.868 148.757 126.975 148.446 127.442 147.652 C 127.634 147.316 132.329 139.538 141.846 143.354 C 143.74 144.115 144.994 145.319 146.321 146.588 C 148.902 149.052 151.382 150.943 155.848 150.943 C 158.639 150.943 162.208 150.207 167.058 148.414 C 167.992 148.07 168.44 147.112 168.047 146.277 C 167.662 145.425 166.592 145.032 165.658 145.376 Z " fill="rgb(66,66,69)"/><path d=" M 127.643 155.602 C 127.643 154.701 126.819 153.965 125.813 153.965 C 124.806 153.965 123.982 154.701 123.982 155.602 L 123.982 219.669 C 123.982 220.569 124.806 221.306 125.813 221.306 C 126.819 221.306 127.643 220.569 127.643 219.669 L 127.643 155.602 L 127.643 155.602 Z " fill="rgb(66,66,69)"/><path d=" M 131.349 103.776 C 129.821 103.776 128.586 104.881 128.586 106.248 C 128.586 107.616 129.821 108.721 131.349 108.721 L 160.835 108.721 C 162.364 108.721 163.599 107.616 163.599 106.248 C 163.599 104.881 162.364 103.776 160.835 103.776 L 131.349 103.776 L 131.349 103.776 Z " fill="rgb(255,229,201)"/><path d=" M 146.248 242.585 C 147.511 243.944 149.488 244.812 151.693 244.78 C 153.523 244.755 155.216 244.125 156.479 243.011 C 157.715 241.922 158.383 240.489 158.355 238.983 C 158.3 235.872 155.28 233.383 151.602 233.383 C 151.565 233.383 151.519 233.383 151.483 233.383 C 149.652 233.407 147.959 234.038 146.696 235.151 C 146.486 235.331 146.303 235.528 146.129 235.732 L 146.248 242.585 L 146.248 242.585 Z " fill="rgb(252,180,95)"/><path d=" M 216.147 210.777 C 214.911 211.866 214.243 213.299 214.271 214.805 C 214.326 217.949 217.437 220.455 221.153 220.406 C 222.983 220.381 224.676 219.751 225.939 218.637 C 227.174 217.548 227.843 216.115 227.815 214.609 C 227.778 212.8 226.735 211.195 225.143 210.18 L 216.769 210.302 C 216.55 210.442 216.348 210.605 216.147 210.777 Z " fill="rgb(252,180,95)"/><path d=" M 231.476 214.552 C 231.521 216.967 230.469 219.243 228.511 220.971 C 226.57 222.674 223.981 223.64 221.217 223.681 C 221.153 223.681 221.098 223.681 221.034 223.681 C 215.36 223.681 210.711 219.759 210.619 214.863 C 210.592 213.266 211.049 211.727 211.928 210.368 L 184.812 210.777 C 185.718 212.079 186.267 213.602 186.295 215.231 C 186.34 217.646 185.288 219.923 183.33 221.65 C 181.39 223.353 178.8 224.319 176.036 224.36 C 175.972 224.36 175.917 224.36 175.853 224.36 C 170.179 224.36 165.53 220.438 165.439 215.542 C 165.411 213.946 165.869 212.406 166.747 211.047 L 145.681 211.367 L 146.056 231.5 C 147.657 230.632 149.497 230.14 151.437 230.116 C 151.501 230.116 151.556 230.116 151.62 230.116 C 157.294 230.116 161.943 234.038 162.034 238.934 C 162.08 241.349 161.028 243.625 159.069 245.353 C 157.129 247.056 154.539 248.022 151.775 248.063 C 151.711 248.063 151.656 248.063 151.592 248.063 C 149.68 248.063 147.895 247.612 146.349 246.835 L 146.486 254.228 L 189.15 253.589 C 188.244 252.288 187.695 250.765 187.668 249.135 C 187.576 244.19 192.179 240.088 197.935 240.006 C 198 240.006 198.054 240.006 198.118 240.006 C 203.792 240.006 208.441 243.928 208.533 248.824 C 208.56 250.421 208.103 251.96 207.224 253.319 L 225.564 253.041 C 224.649 251.739 224.109 250.216 224.081 248.587 C 224.035 246.171 225.088 243.895 227.046 242.168 C 228.986 240.465 231.576 239.499 234.34 239.458 C 237.095 239.425 239.739 240.301 241.734 241.947 C 243.757 243.617 244.901 245.86 244.937 248.276 C 244.965 249.872 244.507 251.411 243.629 252.771 L 257.2 252.566 L 256.807 231.467 C 255.205 232.335 253.366 232.826 251.426 232.851 C 251.362 232.851 251.307 232.851 251.243 232.851 C 245.569 232.851 240.92 228.929 240.828 224.033 C 240.737 219.087 245.34 214.986 251.096 214.904 C 251.16 214.904 251.215 214.904 251.279 214.904 C 253.192 214.904 254.977 215.354 256.523 216.132 L 256.404 209.705 L 230.002 210.098 C 230.899 211.399 231.448 212.914 231.476 214.552 Z " fill="rgb(255,229,201)"/><path d=" M 182.625 215.28 C 182.588 213.471 181.545 211.866 179.953 210.851 L 171.579 210.974 C 171.36 211.121 171.158 211.277 170.957 211.449 C 169.721 212.537 169.053 213.97 169.081 215.477 C 169.136 218.588 172.156 221.077 175.835 221.077 C 175.871 221.077 175.917 221.077 175.954 221.077 C 177.775 221.052 179.477 220.422 180.74 219.309 C 181.994 218.22 182.662 216.787 182.625 215.28 Z " fill="rgb(252,180,95)"/><path d=" M 241.268 248.325 C 241.24 246.818 240.517 245.41 239.245 244.354 C 237.973 243.306 236.298 242.725 234.514 242.725 C 234.477 242.725 234.432 242.725 234.386 242.725 C 232.555 242.749 230.862 243.38 229.6 244.493 C 228.364 245.582 227.696 247.015 227.724 248.521 C 227.76 250.339 228.803 251.935 230.396 252.951 L 238.769 252.828 C 238.989 252.68 239.199 252.525 239.392 252.353 C 240.627 251.264 241.295 249.831 241.268 248.325 Z " fill="rgb(252,180,95)"/><path d=" M 251.261 218.179 C 251.224 218.179 251.179 218.179 251.142 218.179 C 247.408 218.236 244.416 220.84 244.471 223.975 C 244.526 227.119 247.61 229.649 251.353 229.576 C 253.183 229.551 254.876 228.921 256.139 227.807 C 256.349 227.627 256.532 227.43 256.706 227.226 L 256.578 220.373 C 255.343 219.038 253.421 218.179 251.261 218.179 Z " fill="rgb(252,180,95)"/><path d=" M 204.854 248.873 C 204.799 245.762 201.779 243.273 198.1 243.273 C 198.064 243.273 198.018 243.273 197.981 243.273 C 194.247 243.33 191.255 245.934 191.31 249.07 C 191.346 250.879 192.39 252.476 193.964 253.499 L 202.356 253.376 C 202.575 253.229 202.777 253.073 202.978 252.902 C 204.223 251.813 204.881 250.38 204.854 248.873 Z " fill="rgb(252,180,95)"/><path d=" M 156.479 205.472 L 253.137 204.023 L 227.348 173.827 L 212.651 180.385 C 211.068 181.09 209.146 180.516 208.359 179.1 C 207.572 177.684 208.213 175.964 209.796 175.26 L 226.863 167.638 C 228.236 167.024 229.911 167.367 230.835 168.465 L 247.793 188.319 L 247.793 128.346 L 193.195 128.346 L 193.195 184.921 C 193.415 185.126 193.616 185.355 193.771 185.625 C 194.559 187.042 193.918 188.761 192.335 189.465 L 156.479 205.472 L 156.479 205.472 Z  M 196.572 181.892 C 196.801 180.132 198.585 178.871 200.553 179.075 C 202.52 179.28 203.93 180.877 203.701 182.637 C 203.472 184.397 201.688 185.658 199.72 185.454 C 197.752 185.241 196.343 183.652 196.572 181.892 Z " fill="rgb(252,180,95)"/><path d=" M 199.72 185.445 C 201.688 185.65 203.472 184.389 203.701 182.629 C 203.93 180.869 202.52 179.272 200.553 179.067 C 198.585 178.863 196.801 180.123 196.572 181.884 C 196.343 183.652 197.752 185.241 199.72 185.445 Z " fill="rgb(66,66,69)"/><path d=" M 80.833 87.36 C 79.03 87.36 77.575 88.662 77.575 90.275 C 77.575 91.888 79.03 93.189 80.833 93.189 C 82.636 93.189 84.091 91.888 84.091 90.275 C 84.091 88.662 82.636 87.36 80.833 87.36 Z " fill="rgb(66,66,69)"/><path d=" M 112.131 197.202 L 112.131 221.65 C 112.131 229.436 119.214 235.773 127.917 235.773 L 139.723 235.773 L 140.126 257.184 C 140.153 258.747 141.581 260 143.329 260 C 143.347 260 143.365 260 143.383 260 L 260.504 258.248 C 261.355 258.232 262.161 257.92 262.755 257.372 C 263.35 256.823 263.67 256.095 263.652 255.333 L 262.737 206.741 C 262.737 206.716 262.728 206.692 262.728 206.667 C 262.719 206.528 262.7 206.389 262.673 206.25 C 262.664 206.217 262.664 206.184 262.655 206.159 C 262.618 205.996 262.554 205.84 262.49 205.693 C 262.472 205.652 262.453 205.619 262.435 205.586 C 262.371 205.464 262.298 205.349 262.215 205.242 C 262.188 205.202 262.161 205.169 262.133 205.136 C 262.115 205.112 262.096 205.087 262.078 205.062 L 254.08 195.696 L 274.304 173.033 C 274.762 172.526 275 171.895 275 171.248 L 275 68.824 C 275 68.824 275 68.824 275 68.824 C 275 68.824 275 68.824 275 68.824 C 275 68.824 275 68.824 275 68.815 C 275 68.635 274.973 68.455 274.936 68.283 C 274.927 68.234 274.918 68.193 274.899 68.152 C 274.854 67.997 274.808 67.849 274.735 67.702 C 274.726 67.685 274.716 67.661 274.707 67.645 C 274.625 67.481 274.524 67.333 274.414 67.186 C 274.387 67.153 274.359 67.121 274.332 67.08 C 274.222 66.957 274.112 66.842 273.975 66.728 C 273.957 66.711 273.948 66.695 273.929 66.687 L 265.949 60.284 C 266.791 57.992 265.382 54.741 262.188 52.048 C 258.784 49.182 254.812 48.167 252.323 49.362 L 248.278 46.12 C 248.241 46.095 248.205 46.071 248.168 46.046 L 248.168 37.31 C 248.168 36.246 247.509 35.271 246.457 34.772 C 245.404 34.281 244.132 34.346 243.153 34.952 L 220.915 48.666 C 220.045 49.198 219.533 50.083 219.533 51.024 L 219.533 60.898 L 218.691 61.406 C 218.664 61.422 218.645 61.447 218.618 61.463 C 218.572 61.488 218.526 61.512 218.48 61.545 L 211.425 66.588 C 210.043 67.579 209.814 69.38 210.921 70.617 C 210.921 70.617 210.921 70.617 210.921 70.617 C 212.029 71.853 214.042 72.058 215.424 71.067 L 220.476 67.456 L 231.595 75.406 L 247.765 86.959 L 247.765 104.816 L 193.168 104.816 L 193.168 86.959 L 201.321 81.137 C 202.703 80.147 202.932 78.346 201.825 77.109 C 201.825 77.109 201.825 77.109 201.825 77.109 C 200.718 75.873 198.704 75.668 197.322 76.659 L 187.969 83.34 C 187.21 83.88 186.762 84.707 186.762 85.575 L 186.762 185.544 L 180.017 188.556 L 180.017 149.502 C 180.017 145.261 178.69 141.11 176.182 137.508 L 165.622 122.345 L 165.622 113.224 C 168.23 111.775 169.969 109.196 169.969 106.257 C 169.969 101.737 165.85 98.053 160.799 98.053 L 154.255 98.053 L 154.255 76.602 C 154.255 74.285 152.901 72.148 150.238 70.24 L 135.33 57.263 C 139.512 51.581 141.892 45.088 141.892 38.203 C 141.892 36.622 140.455 35.337 138.689 35.337 L 125.501 35.337 L 125.501 24.415 C 125.501 23.817 125.3 23.26 124.943 22.802 C 122.573 18.25 112.754 16.088 103.648 15.057 C 101.012 6.141 94.679 0 87.102 0 C 79.524 0 73.192 6.141 70.556 15.057 C 61.45 16.08 51.631 18.25 49.261 22.802 C 48.913 23.26 48.702 23.817 48.702 24.415 L 48.702 35.337 L 34.17 35.337 C 32.404 35.337 30.967 36.622 30.967 38.203 C 30.967 45.915 33.95 53.128 39.102 59.269 L 28.871 70.346 C 26.299 72.221 25 74.334 25 76.61 L 25 181.507 C 25 192.937 58.494 198.144 89.619 198.144 C 97.178 198.128 104.837 197.825 112.131 197.202 Z  M 31.443 181.499 L 31.443 84.421 C 42.342 90.217 64.086 92.15 72.249 92.682 C 73.988 92.788 75.544 91.609 75.681 90.029 C 75.809 88.449 74.482 87.082 72.716 86.959 C 43.907 85.084 31.443 79.189 31.443 76.593 C 31.443 76.225 31.891 75.521 33.145 74.645 C 33.328 74.514 33.493 74.375 33.639 74.211 L 43.413 63.641 C 53.589 72.778 69.11 78.632 86.47 78.632 C 104.956 78.632 121.347 71.992 131.432 61.823 L 145.918 74.44 C 146.001 74.514 146.092 74.579 146.184 74.645 C 147.438 75.521 147.886 76.225 147.886 76.593 C 147.886 79.909 130.269 86.549 96.583 87.409 C 94.295 87.466 91.97 87.499 89.673 87.499 C 87.907 87.499 86.47 88.785 86.47 90.365 C 86.47 91.945 87.907 93.23 89.673 93.23 C 92.035 93.23 94.423 93.197 96.766 93.14 C 115.938 92.649 137.435 90.037 147.886 84.429 L 147.886 98.044 L 131.349 98.044 C 126.298 98.044 122.179 101.729 122.179 106.248 C 122.179 109.188 123.918 111.767 126.526 113.216 L 126.526 122.337 L 115.966 137.5 C 113.458 141.102 112.131 145.245 112.131 149.494 L 112.131 191.438 C 105.085 192.069 97.498 192.405 89.664 192.405 C 73.512 192.405 58.366 191.005 47.009 188.458 C 34.307 185.601 31.443 182.391 31.443 181.499 Z  M 72.487 27.272 C 74.253 27.272 75.69 25.987 75.69 24.407 C 75.69 22.99 75.8 21.607 75.992 20.272 C 79.36 20.01 83.084 19.855 87.148 19.855 C 91.211 19.855 94.936 20.01 98.303 20.272 C 98.495 21.607 98.605 22.99 98.605 24.407 C 98.605 25.987 100.042 27.272 101.808 27.272 C 103.575 27.272 105.011 25.987 105.011 24.407 C 105.011 23.236 104.947 22.09 104.837 20.968 C 112.79 22.057 117.714 23.735 118.976 24.955 C 116.954 26.92 105.46 30.048 87.157 30.048 C 68.845 30.048 57.36 26.912 55.337 24.955 C 56.6 23.735 61.524 22.057 69.476 20.968 C 69.366 22.09 69.302 23.236 69.302 24.407 C 69.284 25.987 70.712 27.272 72.487 27.272 Z  M 87.139 35.779 C 89.994 35.779 108.965 35.615 119.132 31.489 L 119.132 49.714 C 117.64 51.638 105.991 54.938 87.139 54.938 C 68.286 54.938 56.646 51.638 55.145 49.714 L 55.145 31.489 C 65.312 35.615 84.283 35.779 87.139 35.779 Z  M 51.741 54.627 C 60.197 60.456 83.917 60.661 87.139 60.661 C 90.406 60.661 114.739 60.448 122.875 54.381 L 126.865 57.852 C 118.006 66.94 103.208 72.901 86.47 72.901 C 70.593 72.901 56.463 67.53 47.494 59.228 L 51.741 54.627 L 51.741 54.627 Z  M 173.638 191.398 L 140.977 205.979 C 140.885 206.02 140.812 206.069 140.73 206.119 C 140.666 206.151 140.601 206.184 140.547 206.217 C 140.4 206.315 140.263 206.413 140.135 206.528 C 140.126 206.536 140.116 206.544 140.107 206.553 C 139.97 206.675 139.851 206.814 139.75 206.954 C 139.714 207.003 139.686 207.06 139.65 207.109 C 139.586 207.207 139.522 207.306 139.476 207.404 C 139.448 207.47 139.421 207.535 139.393 207.6 C 139.357 207.699 139.32 207.797 139.293 207.903 C 139.274 207.977 139.256 208.043 139.247 208.116 C 139.229 208.231 139.22 208.337 139.22 208.452 C 139.22 208.501 139.21 208.542 139.21 208.583 L 139.613 230.026 L 127.917 230.026 C 122.747 230.026 118.537 226.26 118.537 221.634 L 118.537 149.478 C 118.537 146.301 119.526 143.206 121.402 140.513 L 132.448 124.654 C 132.768 124.203 132.932 123.671 132.932 123.139 L 132.932 114.436 L 159.243 114.436 L 159.243 123.139 C 159.243 123.671 159.408 124.203 159.728 124.654 L 170.774 140.513 C 172.65 143.206 173.638 146.301 173.638 149.478 L 173.638 191.398 L 173.638 191.398 L 173.638 191.398 Z  M 192.335 189.457 C 193.918 188.753 194.559 187.034 193.771 185.617 C 193.625 185.347 193.424 185.118 193.195 184.913 L 193.195 128.338 L 247.793 128.338 L 247.793 188.311 L 230.835 168.456 C 229.902 167.367 228.236 167.015 226.863 167.629 L 209.796 175.252 C 208.213 175.956 207.572 177.675 208.359 179.092 C 209.146 180.508 211.068 181.081 212.651 180.377 L 227.348 173.819 L 253.137 204.014 L 156.479 205.464 L 192.335 189.457 L 192.335 189.457 Z  M 225.939 52.514 L 241.771 42.755 L 241.771 47.512 L 225.939 58.057 L 225.939 52.514 L 225.939 52.514 Z  M 256.715 227.226 C 256.542 227.43 256.358 227.627 256.148 227.807 C 254.885 228.921 253.183 229.551 251.362 229.576 C 247.619 229.649 244.544 227.119 244.48 223.975 C 244.425 220.831 247.408 218.228 251.151 218.179 C 251.188 218.179 251.234 218.179 251.27 218.179 C 253.43 218.179 255.352 219.038 256.587 220.373 L 256.715 227.226 L 256.715 227.226 Z  M 256.505 216.132 C 254.958 215.354 253.174 214.904 251.261 214.904 C 251.197 214.904 251.142 214.904 251.078 214.904 C 245.322 214.994 240.719 219.087 240.81 224.033 C 240.902 228.929 245.56 232.851 251.224 232.851 C 251.289 232.851 251.343 232.851 251.408 232.851 C 253.348 232.818 255.187 232.335 256.789 231.467 L 257.182 252.566 L 243.61 252.771 C 244.489 251.411 244.947 249.872 244.919 248.276 C 244.873 245.86 243.739 243.617 241.716 241.947 C 239.721 240.301 237.076 239.425 234.322 239.458 C 231.549 239.499 228.959 240.465 227.028 242.168 C 225.07 243.895 224.017 246.171 224.063 248.587 C 224.09 250.216 224.64 251.731 225.545 253.041 L 207.206 253.319 C 208.084 251.96 208.542 250.421 208.515 248.824 C 208.423 243.928 203.765 240.006 198.1 240.006 C 198.036 240.006 197.981 240.006 197.917 240.006 C 192.161 240.096 187.558 244.19 187.649 249.135 C 187.677 250.765 188.226 252.279 189.132 253.589 L 146.468 254.228 L 146.33 246.835 C 147.877 247.612 149.661 248.063 151.574 248.063 C 151.638 248.063 151.693 248.063 151.757 248.063 C 154.53 248.022 157.12 247.056 159.051 245.353 C 161.009 243.625 162.062 241.349 162.016 238.934 C 161.924 234.038 157.266 230.116 151.602 230.116 C 151.537 230.116 151.483 230.116 151.419 230.116 C 149.478 230.149 147.639 230.632 146.037 231.5 L 145.662 211.367 L 166.729 211.047 C 165.85 212.406 165.393 213.938 165.42 215.542 C 165.512 220.438 170.17 224.36 175.835 224.36 C 175.899 224.36 175.954 224.36 176.018 224.36 C 178.791 224.319 181.38 223.353 183.311 221.65 C 185.27 219.923 186.322 217.646 186.276 215.231 C 186.249 213.602 185.7 212.087 184.794 210.777 L 211.91 210.368 C 211.031 211.727 210.574 213.258 210.601 214.863 C 210.693 219.759 215.351 223.681 221.015 223.681 C 221.08 223.681 221.134 223.681 221.199 223.681 C 223.971 223.64 226.561 222.674 228.492 220.971 C 230.451 219.243 231.503 216.967 231.457 214.552 C 231.43 212.922 230.881 211.408 229.966 210.098 L 256.368 209.705 L 256.505 216.132 L 256.505 216.132 Z  M 230.396 252.959 C 228.803 251.935 227.751 250.339 227.724 248.529 C 227.696 247.023 228.364 245.59 229.6 244.501 C 230.862 243.388 232.565 242.757 234.386 242.733 C 234.432 242.733 234.468 242.733 234.514 242.733 C 236.289 242.733 237.973 243.306 239.245 244.362 C 240.526 245.418 241.24 246.826 241.268 248.333 C 241.295 249.839 240.627 251.272 239.392 252.361 C 239.199 252.533 238.989 252.689 238.769 252.836 L 230.396 252.959 L 230.396 252.959 Z  M 193.973 253.507 C 192.39 252.484 191.346 250.879 191.319 249.078 C 191.264 245.934 194.247 243.33 197.99 243.281 C 198.027 243.281 198.073 243.281 198.109 243.281 C 201.788 243.281 204.808 245.77 204.863 248.882 C 204.891 250.388 204.223 251.821 202.987 252.91 C 202.795 253.082 202.584 253.237 202.365 253.385 L 193.973 253.507 L 193.973 253.507 Z  M 146.696 235.151 C 147.959 234.038 149.661 233.407 151.483 233.383 C 151.519 233.383 151.565 233.383 151.602 233.383 C 155.28 233.383 158.3 235.872 158.355 238.983 C 158.383 240.489 157.715 241.922 156.479 243.011 C 155.216 244.125 153.514 244.755 151.693 244.78 C 149.488 244.812 147.511 243.944 146.248 242.585 L 146.12 235.732 C 146.303 235.536 146.486 235.339 146.696 235.151 Z  M 227.815 214.601 C 227.843 216.107 227.174 217.54 225.939 218.629 C 224.676 219.742 222.974 220.373 221.153 220.397 C 217.446 220.455 214.335 217.941 214.271 214.797 C 214.243 213.291 214.911 211.858 216.147 210.769 C 216.339 210.597 216.55 210.442 216.769 210.294 L 225.143 210.171 C 226.735 211.195 227.788 212.791 227.815 214.601 Z  M 175.963 221.077 C 175.926 221.077 175.88 221.077 175.844 221.077 C 172.165 221.077 169.145 218.588 169.09 215.477 C 169.062 213.97 169.731 212.537 170.966 211.449 C 171.158 211.277 171.369 211.121 171.588 210.974 L 179.962 210.851 C 181.554 211.874 182.598 213.471 182.634 215.28 C 182.662 216.787 181.994 218.22 180.758 219.309 C 179.486 220.422 177.784 221.052 175.963 221.077 Z  M 247.774 53.39 L 244.297 56.69 C 243.071 57.852 242.805 59.588 243.556 61.569 C 244.178 63.199 245.45 64.885 247.143 66.31 C 248.836 67.735 250.794 68.783 252.652 69.233 C 253.366 69.405 254.043 69.495 254.675 69.495 C 256.047 69.495 257.219 69.086 258.052 68.291 L 261.858 64.681 L 267.011 68.807 L 250.868 81.801 L 226.818 64.623 L 245.908 51.9 L 247.774 53.39 L 247.774 53.39 Z  M 254.144 59.678 C 255.69 60.988 257.457 61.962 259.168 62.47 L 255.398 66.048 C 255.205 66.228 254.574 66.318 253.631 66.081 C 252.359 65.77 250.913 64.984 249.669 63.927 C 248.415 62.871 247.454 61.627 247.033 60.513 C 246.722 59.686 246.777 59.113 246.969 58.933 L 250.739 55.355 C 251.398 56.854 252.588 58.376 254.144 59.678 Z  M 268.603 75.242 L 268.603 170.233 L 254.19 186.379 L 254.19 86.844 L 268.603 75.242 L 268.603 75.242 Z  M 262.389 59.416 L 262.389 59.416 C 262.197 59.596 261.566 59.686 260.623 59.449 C 259.351 59.138 257.905 58.352 256.661 57.296 C 255.407 56.239 254.446 54.995 254.025 53.881 C 253.714 53.055 253.769 52.481 253.961 52.301 C 254.089 52.178 254.336 52.121 254.675 52.121 C 255.745 52.121 257.74 52.768 259.699 54.422 C 262.261 56.592 262.902 58.917 262.389 59.416 Z  M 163.59 106.248 C 163.59 107.616 162.354 108.721 160.826 108.721 L 131.34 108.721 C 129.812 108.721 128.576 107.616 128.576 106.248 C 128.576 104.881 129.812 103.776 131.34 103.776 L 160.826 103.776 C 162.354 103.776 163.59 104.881 163.59 106.248 Z  M 247.793 108.066 L 247.793 125.063 L 193.195 125.063 L 193.195 108.066 L 247.793 108.066 L 247.793 108.066 Z  M 135.348 41.06 C 134.845 45.375 133.216 49.46 130.69 53.186 L 125.538 48.699 L 125.538 41.06 L 135.348 41.06 L 135.348 41.06 L 135.348 41.06 Z  M 87.139 5.723 C 91.119 5.723 94.707 9.244 96.766 14.443 C 92.035 14.148 88.282 14.115 87.139 14.115 C 85.995 14.115 82.242 14.14 77.511 14.443 C 79.57 9.252 83.158 5.723 87.139 5.723 Z  M 37.583 41.06 L 48.748 41.06 L 48.748 48.879 L 43.349 54.717 C 40.182 50.59 38.151 45.972 37.583 41.06 Z " fill="rgb(66,66,69)"/></g></g></g></g></svg>