<?xml version="1.0" encoding="UTF-8" standalone="no"?><!-- Generator: Gravit.io --><svg xmlns="http://www.w3.org/2000/svg" xmlns:xlink="http://www.w3.org/1999/xlink" style="isolation:isolate" viewBox="0 0 300 260" width="300pt" height="260pt"><defs><clipPath id="_clipPath_P0uU9yoxv3jdEpnd82Gv1vKt3DgXxtDP"><rect width="300" height="260"/></clipPath></defs><g clip-path="url(#_clipPath_P0uU9yoxv3jdEpnd82Gv1vKt3DgXxtDP)"><clipPath id="_clipPath_b7OQmcX0oQ8jKF4QxWhPKQQhibLspWP4"><rect x="0" y="0" width="300" height="260" transform="matrix(1,0,0,1,0,0)" fill="rgb(255,255,255)"/></clipPath><g clip-path="url(#_clipPath_b7OQmcX0oQ8jKF4QxWhPKQQhibLspWP4)"><g><g><path d=" M 213.775 90.781 L 216.098 120.312 L 230.071 119.439 L 232.88 91.979 L 213.775 90.781 L 213.775 90.781 Z " fill="rgb(255,229,201)"/><path d=" M 230.071 93.869 L 216.098 93.869 L 217.502 106.897 L 228.666 106.897 L 230.071 93.869 L 230.071 93.869 Z " fill="none"/><path d=" M 128.711 213.939 C 128.711 214.29 128.675 214.632 128.594 214.965 C 128.657 215.424 128.711 215.892 128.711 216.37 L 128.711 222.69 L 178.202 222.69 C 179.562 222.69 180.894 222.501 182.182 222.159 C 180.867 217.495 179.796 212.579 179.328 207.834 L 123.822 207.834 C 126.838 209.446 128.711 211.445 128.711 213.939 Z " fill="rgb(252,180,95)"/><path d=" M 80.507 115.676 L 80.507 166.131 C 82.667 167.166 84.162 168.535 84.999 170.281 C 86.845 174.126 85.008 178.375 83.073 182.868 C 82.145 185.011 81.164 187.289 80.516 189.639 L 80.516 199.173 C 80.786 199.947 81.119 200.704 81.524 201.433 C 88.862 201.568 101.998 202.117 112.559 204.251 L 179.103 204.251 C 179.085 203.774 179.076 203.297 179.076 202.819 C 179.085 188.684 185.9 177.133 191.879 170.038 C 188.916 137.185 181.633 97.507 163.914 81.823 C 144.503 64.635 134.392 55.497 129.323 50.86 C 126.748 48.501 123.408 47.07 119.905 46.818 C 118.258 46.701 116.979 45.323 116.979 43.675 L 116.979 30.666 L 94.966 30.666 L 94.966 44.126 C 94.966 45.593 93.958 46.863 92.535 47.196 C 85.458 48.852 80.516 55.083 80.516 62.349 L 80.516 97.948 C 80.516 99.686 79.102 101.099 77.364 101.099 L 77.364 103.629 C 79.138 103.629 80.57 105.061 80.57 106.834 C 80.57 108.608 79.138 110.039 77.364 110.039 L 77.364 112.533 C 79.093 112.524 80.507 113.929 80.507 115.676 Z  M 116.781 95.004 C 117.366 74.278 120.221 69.803 122.931 68.156 C 124.614 67.138 126.622 67.165 128.45 68.228 C 137.885 73.72 160.484 103.188 163.032 106.537 C 163.419 107.041 163.635 107.645 163.671 108.284 C 163.896 112.488 162.41 116.018 159.376 118.476 C 155.415 121.69 149.13 122.725 142.693 122.725 C 132.141 122.725 121.175 119.952 119.311 119.457 C 117.979 119.106 117.033 117.935 116.97 116.558 C 116.97 116.459 116.475 105.898 116.781 95.004 Z  M 116.241 160.197 C 116.385 160.179 116.52 160.17 116.664 160.152 C 116.331 158.748 116.349 157.334 116.745 155.975 C 118.42 150.222 126.073 147.386 134.167 149.501 C 134.995 149.717 135.778 149.997 136.553 150.303 C 138.56 141.353 143.9 129.919 145.313 126.957 C 145.592 126.372 146.177 125.975 146.826 125.939 C 147.483 125.894 148.104 126.219 148.455 126.768 C 151.868 132.098 149.482 143.829 146.276 151.995 C 153.137 146.521 162.491 141.353 165.12 139.94 C 165.697 139.634 166.39 139.661 166.939 140.012 C 167.488 140.363 167.803 140.984 167.767 141.641 C 167.308 149.24 154.622 159.378 146.925 163.16 C 156 165.149 168.713 171.785 171.819 173.459 C 172.395 173.766 172.755 174.369 172.764 175.017 C 172.773 175.674 172.431 176.277 171.864 176.602 C 170.216 177.556 168.011 177.952 165.526 177.952 C 159.655 177.952 152.201 175.719 146.564 173.189 C 146.123 174.846 145.502 176.539 144.665 178.231 C 142.063 183.498 138.164 187.424 134.23 188.72 C 133.321 189.017 132.438 189.17 131.583 189.17 C 130.52 189.17 129.503 188.936 128.594 188.468 C 125.875 187.082 124.461 183.867 124.443 179.879 C 122.759 180.644 120.887 181.202 118.861 181.499 C 117.844 181.652 116.835 181.725 115.845 181.725 C 112.145 181.725 108.696 180.707 106.247 178.834 C 104.212 177.277 102.997 175.251 102.727 172.973 C 102.025 167.022 107.958 161.413 116.241 160.197 Z " fill="rgb(150,150,152)"/><path d=" M 119.311 119.457 C 121.175 119.952 132.141 122.725 142.693 122.725 C 149.13 122.725 155.415 121.69 159.376 118.476 C 162.41 116.018 163.896 112.488 163.671 108.284 C 163.635 107.654 163.419 107.041 163.032 106.537 C 160.484 103.197 137.885 73.72 128.45 68.228 C 126.622 67.165 124.614 67.138 122.931 68.156 C 120.221 69.803 117.366 74.278 116.781 95.004 C 116.475 105.898 116.97 116.45 116.97 116.558 C 117.042 117.935 117.988 119.106 119.311 119.457 Z  M 155.397 113.578 C 149.806 118.125 133.564 116.342 123.165 113.92 C 122.426 95.157 123.606 77.87 125.857 74.035 C 133.104 78.861 150.373 100.388 157.378 109.517 C 157.288 111.255 156.648 112.56 155.397 113.578 Z " fill="rgb(45,45,48)"/><rect x="87.988" y="6.284" width="33.529" height="18.061" transform="matrix(1,0,0,1,0,0)" fill="rgb(255,229,201)"/><path d=" M 205.303 116.585 C 206.824 117.053 210.146 118.089 212.676 120.447 C 212.631 120.276 212.586 120.105 212.568 119.916 L 211.848 113.191 L 199.288 113.191 C 199.225 113.191 199.153 113.191 199.09 113.182 L 199.045 113.182 C 201.107 114.784 203.385 116.225 204.492 116.441 C 204.762 116.459 205.032 116.504 205.303 116.585 Z " fill="rgb(161,172,208)"/><path d=" M 252.363 173.648 C 250.455 172.127 248.654 170.848 247.06 169.714 C 246.232 169.129 245.476 168.589 244.81 168.093 C 244.035 167.517 243.306 167.004 242.622 166.518 C 238.417 163.547 234.78 160.972 234.78 153.688 L 234.78 113.191 L 234.321 113.191 L 233.6 119.916 C 233.429 121.519 232.079 122.734 230.467 122.734 L 215.693 122.734 C 215.197 122.734 214.738 122.608 214.315 122.401 C 215.287 123.887 215.936 125.714 215.936 128.01 L 215.936 153.688 C 215.936 160.639 209.93 164.024 205.546 166.5 C 204.42 167.13 203.358 167.733 202.593 168.282 C 198.955 170.884 185.378 184.381 185.36 202.81 C 185.351 217.234 193.616 236.051 196.308 241.786 L 254.794 241.786 C 257.963 237.302 268.488 221.168 268.488 205.025 C 268.488 199.182 267.318 193.744 265.013 188.864 C 264.383 187.532 264.779 185.992 265.859 185.101 L 263.528 182.283 C 263.122 182.463 262.681 182.571 262.213 182.571 C 260.439 182.571 259.008 181.139 259.008 179.366 C 259.008 178.681 259.224 178.051 259.593 177.529 L 256.352 173.612 C 255.217 174.549 253.552 174.594 252.363 173.648 Z  M 261.358 204.395 C 261.583 206.115 260.376 207.699 258.657 207.933 C 258.45 207.96 256.658 208.185 253.57 208.185 C 247.646 208.185 236.968 207.348 223.715 202.621 C 210.209 197.814 194.94 207.366 194.787 207.465 C 193.319 208.402 191.374 207.969 190.438 206.493 C 189.502 205.025 189.934 203.081 191.41 202.144 C 192.14 201.676 209.462 190.854 225.83 196.679 C 244.458 203.315 257.702 201.694 257.828 201.676 C 259.557 201.46 261.133 202.675 261.358 204.395 Z " fill="rgb(161,172,208)"/><path d=" M 225.821 196.688 C 209.453 190.863 192.131 201.685 191.401 202.153 C 189.934 203.09 189.502 205.034 190.429 206.502 C 191.365 207.969 193.31 208.402 194.778 207.474 C 194.931 207.375 210.2 197.823 223.706 202.63 C 236.968 207.357 247.637 208.194 253.561 208.194 C 256.649 208.194 258.45 207.969 258.648 207.942 C 260.367 207.708 261.574 206.133 261.349 204.404 C 261.124 202.675 259.539 201.46 257.819 201.694 C 257.693 201.703 244.449 203.324 225.821 196.688 Z " fill="rgb(45,45,48)"/><path d=" M 122.408 240.157 L 122.408 220.718 C 110.182 226.147 83.883 226.498 77.355 226.498 C 70.828 226.498 44.529 226.147 32.302 220.718 L 32.302 240.157 C 32.302 247.62 38.38 253.698 45.844 253.698 L 108.867 253.698 C 116.331 253.698 122.408 247.62 122.408 240.157 Z " fill="rgb(252,180,95)"/><path d=" M 128.711 240.157 L 128.711 228.992 L 178.202 228.992 C 180.21 228.992 182.173 228.722 184.055 228.2 C 187.395 238.113 191.239 245.802 191.527 246.36 C 192.068 247.422 193.148 248.089 194.345 248.089 L 256.406 248.089 C 257.378 248.089 258.297 247.638 258.9 246.873 C 259.548 246.036 274.809 226.12 274.809 205.034 C 274.809 198.246 273.431 191.907 270.721 186.181 C 269.974 184.606 268.092 183.939 266.526 184.678 C 266.283 184.795 266.067 184.939 265.868 185.11 C 264.788 186.01 264.392 187.55 265.022 188.873 C 267.327 193.753 268.497 199.191 268.497 205.034 C 268.497 221.177 257.972 237.311 254.803 241.795 L 196.317 241.795 C 193.625 236.06 185.36 217.243 185.369 202.819 C 185.387 184.381 198.964 170.893 202.602 168.291 C 203.367 167.742 204.429 167.139 205.555 166.509 C 209.939 164.033 215.945 160.648 215.945 153.697 L 215.945 128.019 C 215.945 125.723 215.296 123.896 214.324 122.41 C 214.747 122.617 215.206 122.743 215.702 122.743 L 230.476 122.743 C 232.088 122.743 233.438 121.528 233.609 119.925 L 234.33 113.2 L 234.789 113.2 L 234.789 153.697 C 234.789 160.981 238.426 163.547 242.631 166.527 C 243.315 167.013 244.044 167.526 244.819 168.102 C 245.476 168.598 246.232 169.129 247.069 169.723 C 248.663 170.848 250.464 172.136 252.372 173.657 C 253.561 174.603 255.226 174.558 256.352 173.621 C 256.514 173.486 256.667 173.333 256.802 173.162 C 257.891 171.803 257.666 169.822 256.307 168.733 C 254.263 167.094 252.291 165.707 250.716 164.582 C 249.932 164.024 249.212 163.511 248.591 163.051 C 247.772 162.439 246.997 161.899 246.277 161.386 C 243.288 159.27 241.838 158.235 241.325 156.029 C 251.427 155.687 259.557 146.404 259.557 135.033 C 259.557 123.581 251.31 114.244 241.1 114.028 L 241.1 110.057 C 241.1 108.32 239.687 106.906 237.949 106.906 L 235.014 106.906 L 236.724 91.069 C 236.824 90.178 236.535 89.296 235.932 88.629 C 235.338 87.963 234.483 87.585 233.591 87.585 L 212.595 87.585 C 211.704 87.585 210.849 87.963 210.254 88.629 C 209.66 89.296 209.372 90.187 209.462 91.069 L 211.173 106.906 L 199.387 106.906 L 192.059 106.438 C 191.194 106.384 190.339 106.69 189.7 107.284 C 189.06 107.879 188.7 108.716 188.7 109.58 C 188.7 114.343 199.072 121.978 203.709 122.698 C 208.922 124.364 209.633 126.318 209.633 128.019 L 209.633 153.697 C 209.633 156.731 206.653 158.64 202.449 161.017 C 201.17 161.737 199.964 162.412 198.919 163.169 C 198.55 163.43 198.127 163.763 197.677 164.141 C 194.219 130.108 186.188 93.14 168.074 77.096 C 148.698 59.936 138.615 50.824 133.564 46.205 C 130.673 43.558 127.099 41.74 123.273 40.938 L 123.273 30.666 L 124.668 30.666 C 126.406 30.666 127.819 29.252 127.819 27.514 L 127.819 3.151 C 127.819 1.414 126.406 0 124.668 0 L 84.837 0 C 83.1 0 81.686 1.414 81.686 3.151 L 81.686 27.514 C 81.686 29.252 83.1 30.666 84.837 30.666 L 88.655 30.666 L 88.655 41.776 C 80.029 44.864 74.204 52.994 74.204 62.349 L 74.204 97.948 C 74.204 99.686 75.618 101.099 77.355 101.099 C 77.355 101.099 77.355 101.099 77.355 101.099 C 79.093 101.099 80.507 99.686 80.507 97.948 L 80.507 62.349 C 80.507 55.083 85.449 48.852 92.526 47.196 C 93.949 46.863 94.957 45.593 94.957 44.126 L 94.957 30.666 L 116.97 30.666 L 116.97 43.675 C 116.97 45.332 118.249 46.701 119.896 46.818 C 123.399 47.07 126.739 48.501 129.314 50.86 C 134.383 55.497 144.494 64.635 163.905 81.823 C 181.615 97.516 188.907 137.185 191.87 170.038 C 185.891 177.142 179.076 188.684 179.067 202.819 C 179.067 203.297 179.076 203.774 179.094 204.251 L 112.55 204.251 C 101.998 202.117 88.862 201.568 81.515 201.433 C 81.119 200.704 80.777 199.947 80.507 199.173 L 80.507 189.639 C 81.155 187.289 82.136 185.011 83.064 182.868 C 85.008 178.375 86.836 174.135 84.99 170.281 C 84.153 168.535 82.658 167.166 80.498 166.131 L 80.498 115.676 C 80.498 113.938 79.084 112.524 77.346 112.524 C 77.346 112.524 77.346 112.524 77.346 112.524 C 75.609 112.524 74.195 113.938 74.195 115.676 L 74.195 164.708 C 69.144 165.086 63.715 169.03 59.907 173.135 C 53.523 180.014 48.112 191.196 50.957 202.855 C 38.254 204.395 26 207.546 26 213.939 C 26 214.29 26.036 214.632 26.117 214.965 C 26.054 215.424 26 215.892 26 216.37 L 26 240.157 C 26 251.096 34.904 260 45.844 260 L 108.867 260 C 119.806 260 128.711 251.096 128.711 240.157 Z  M 32.311 240.157 L 32.311 220.718 C 44.538 226.147 70.837 226.498 77.364 226.498 C 83.892 226.498 110.191 226.147 122.417 220.718 L 122.417 240.157 C 122.417 247.62 116.34 253.698 108.876 253.698 L 45.853 253.698 C 38.38 253.698 32.311 247.62 32.311 240.157 Z  M 64.535 177.421 C 69.351 172.235 73.988 170.578 75.744 171.064 C 77.68 171.596 78.976 172.298 79.309 173 C 79.912 174.261 78.517 177.502 77.274 180.356 C 74.879 185.902 71.89 192.808 74.339 200.641 C 76.428 207.312 81.839 212.435 87.619 216.19 L 75.924 214.956 C 71.602 214.146 60.24 210.58 57.71 203.477 C 54.163 193.51 58.907 183.48 64.535 177.421 Z  M 121.985 213.939 C 120.266 215.199 115.251 216.865 107.04 218.17 C 102.412 216.838 93.39 213.299 86.989 207.87 C 107.355 208.654 119.14 211.859 121.985 213.939 Z  M 70.657 220.097 C 48.49 219.512 35.706 216.108 32.726 213.93 C 34.823 212.399 41.783 210.256 53.442 208.924 C 57.557 215.271 65.651 218.584 70.657 220.097 Z  M 199.081 113.191 C 199.144 113.191 199.216 113.2 199.279 113.2 L 211.839 113.2 L 212.559 119.925 C 212.577 120.105 212.622 120.285 212.667 120.456 C 211.402 119.277 209.939 118.429 208.602 117.816 C 207.265 117.204 206.055 116.828 205.294 116.594 C 205.032 116.513 204.753 116.468 204.474 116.459 C 203.367 116.243 201.089 114.802 199.027 113.2 L 199.081 113.191 Z  M 227.64 116.432 L 218.529 116.432 L 218.178 113.2 L 227.991 113.2 L 227.64 116.432 L 227.64 116.432 Z  M 240.731 120.312 C 247.628 120.312 253.246 126.912 253.246 135.024 C 253.246 143.136 247.637 149.735 240.731 149.735 C 240.731 149.735 240.731 149.735 240.731 149.735 L 240.731 120.312 C 240.731 120.312 240.731 120.312 240.731 120.312 Z  M 216.098 93.869 L 230.071 93.869 L 228.666 106.897 L 217.502 106.897 L 216.098 93.869 L 216.098 93.869 Z  M 87.988 6.284 L 121.517 6.284 L 121.517 24.345 L 87.988 24.345 L 87.988 6.284 L 87.988 6.284 Z  M 179.328 207.843 C 179.796 212.588 180.858 217.504 182.182 222.168 C 180.894 222.501 179.571 222.699 178.202 222.699 L 128.711 222.699 L 128.711 216.379 C 128.711 215.901 128.666 215.433 128.594 214.974 C 128.666 214.641 128.711 214.299 128.711 213.948 C 128.711 211.454 126.847 209.455 123.822 207.852 L 179.328 207.852 L 179.328 207.843 L 179.328 207.843 Z " fill="rgb(45,45,48)"/><path d=" M 107.04 218.161 C 115.251 216.865 120.266 215.19 121.985 213.93 C 119.14 211.85 107.355 208.654 86.989 207.861 C 93.39 213.29 102.412 216.829 107.04 218.161 Z " fill="rgb(252,180,95)"/><path d=" M 32.726 213.939 C 35.697 216.117 48.49 219.521 70.657 220.106 C 65.66 218.593 57.557 215.271 53.442 208.933 C 41.783 210.265 34.823 212.408 32.726 213.939 Z " fill="rgb(252,180,95)"/><path d=" M 75.933 214.956 L 87.628 216.19 C 81.857 212.435 76.437 207.321 74.348 200.641 C 71.899 192.817 74.879 185.911 77.283 180.356 C 78.517 177.493 79.921 174.261 79.318 173 C 78.985 172.307 77.68 171.596 75.753 171.064 C 73.997 170.578 69.36 172.235 64.544 177.421 C 58.916 183.48 54.172 193.51 57.728 203.468 C 60.249 210.58 71.611 214.146 75.933 214.956 Z " fill="rgb(255,229,201)"/><path d=" M 141.775 153.373 C 142.756 151.293 143.809 148.574 144.737 145.297 C 146.096 140.498 146.7 136.185 146.519 132.989 C 143.827 139.129 141 146.593 139.857 151.977 C 140.532 152.409 141.189 152.869 141.775 153.373 Z " fill="rgb(255,229,201)"/><path d=" M 145.151 157.703 C 145.448 158.361 145.664 159.018 145.808 159.684 C 147.969 158.577 150.76 156.848 153.857 154.417 C 157.783 151.338 160.808 148.205 162.546 145.513 C 156.342 149.123 149.121 153.886 145.151 157.703 Z " fill="rgb(255,229,201)"/><path d=" M 153.524 172.028 C 158.26 173.603 162.527 174.396 165.742 174.369 C 159.817 171.443 152.615 168.327 147.312 166.914 C 147.357 167.751 147.339 168.634 147.249 169.534 C 149.004 170.362 151.102 171.227 153.524 172.028 Z " fill="rgb(255,229,201)"/><path d=" M 143.719 167.049 C 141.469 169.453 137.786 170.83 133.573 170.83 C 133.167 170.83 132.762 170.812 132.348 170.794 C 132.006 173.315 130.511 175.674 128.216 177.556 C 127.666 181.4 128.513 184.381 130.241 185.263 C 131.025 185.659 131.988 185.677 133.104 185.308 C 136.048 184.335 139.317 180.932 141.441 176.638 C 143.197 173.072 143.863 169.678 143.719 167.049 Z " fill="rgb(136,150,194)"/><path d=" M 106.31 172.541 C 106.499 174.171 107.58 175.305 108.444 175.962 C 110.785 177.754 114.485 178.492 118.348 177.925 C 123.894 177.115 128.324 173.739 128.774 170.245 C 128.603 170.2 128.432 170.173 128.261 170.128 C 123.984 169.003 120.338 166.608 118.267 163.61 C 117.772 163.637 117.267 163.682 116.763 163.763 C 110.641 164.654 105.851 168.679 106.31 172.541 Z " fill="rgb(136,150,194)"/><path d=" M 106.256 178.825 C 108.696 180.698 112.154 181.716 115.854 181.716 C 116.844 181.716 117.853 181.643 118.87 181.49 C 120.896 181.193 122.777 180.635 124.452 179.87 C 124.479 183.858 125.884 187.073 128.603 188.459 C 129.521 188.927 130.529 189.161 131.592 189.161 C 132.447 189.161 133.329 189.008 134.239 188.711 C 138.164 187.415 142.072 183.489 144.674 178.222 C 145.511 176.53 146.132 174.837 146.573 173.18 C 152.201 175.71 159.664 177.943 165.535 177.943 C 168.029 177.943 170.225 177.538 171.873 176.593 C 172.44 176.268 172.782 175.656 172.773 175.008 C 172.764 174.351 172.404 173.757 171.828 173.45 C 168.713 171.776 156.009 165.14 146.934 163.151 C 154.641 159.369 167.317 149.231 167.776 141.632 C 167.812 140.984 167.497 140.354 166.948 140.003 C 166.399 139.652 165.697 139.625 165.129 139.931 C 162.5 141.344 153.146 146.512 146.285 151.986 C 149.491 143.82 151.877 132.089 148.464 126.759 C 148.113 126.21 147.501 125.885 146.835 125.93 C 146.186 125.966 145.601 126.363 145.322 126.948 C 143.9 129.91 138.569 141.344 136.562 150.294 C 135.787 149.988 135.004 149.708 134.176 149.492 C 126.082 147.368 118.429 150.213 116.754 155.966 C 116.358 157.325 116.331 158.739 116.673 160.143 C 116.529 160.161 116.394 160.17 116.25 160.188 C 107.976 161.404 102.043 167.013 102.745 172.955 C 103.006 175.242 104.221 177.268 106.256 178.825 Z  M 120.833 160.963 C 120.293 160.008 119.752 158.55 120.212 156.974 C 121.031 154.147 124.65 152.418 128.954 152.418 C 130.34 152.418 131.799 152.599 133.257 152.986 C 137.03 153.976 140.145 156.092 141.604 158.667 C 142.144 159.621 142.684 161.08 142.225 162.655 C 141.135 166.392 135.157 168.219 129.17 166.653 C 125.407 165.653 122.282 163.529 120.833 160.963 Z  M 144.728 145.297 C 143.8 148.574 142.747 151.293 141.766 153.373 C 141.18 152.869 140.523 152.409 139.848 151.977 C 140.991 146.593 143.809 139.129 146.51 132.989 C 146.691 136.185 146.087 140.498 144.728 145.297 Z  M 133.113 185.299 C 131.988 185.668 131.025 185.659 130.25 185.254 C 128.522 184.372 127.675 181.391 128.225 177.547 C 130.52 175.665 132.015 173.306 132.357 170.785 C 132.771 170.812 133.176 170.821 133.582 170.821 C 137.786 170.821 141.478 169.444 143.728 167.04 C 143.872 169.669 143.215 173.063 141.46 176.62 C 139.326 180.914 136.048 184.317 133.113 185.299 Z  M 147.303 166.905 C 152.606 168.318 159.817 171.434 165.733 174.36 C 162.518 174.387 158.251 173.594 153.515 172.019 C 151.093 171.218 148.995 170.353 147.231 169.525 C 147.33 168.625 147.348 167.751 147.303 166.905 Z  M 153.848 154.417 C 150.76 156.848 147.96 158.577 145.799 159.684 C 145.655 159.027 145.448 158.361 145.142 157.703 C 149.112 153.886 156.333 149.123 162.527 145.513 C 160.799 148.205 157.774 151.338 153.848 154.417 Z  M 118.267 163.61 C 120.338 166.599 123.984 169.003 128.261 170.128 C 128.432 170.173 128.603 170.209 128.774 170.245 C 128.324 173.739 123.894 177.115 118.348 177.925 C 114.494 178.492 110.794 177.754 108.444 175.962 C 107.58 175.296 106.499 174.162 106.31 172.541 C 105.851 168.679 110.632 164.654 116.754 163.763 C 117.267 163.682 117.772 163.637 118.267 163.61 Z " fill="rgb(45,45,48)"/><path d=" M 129.17 166.644 C 135.157 168.21 141.135 166.383 142.225 162.646 C 142.684 161.071 142.135 159.612 141.604 158.658 C 140.145 156.092 137.03 153.967 133.257 152.977 C 131.799 152.599 130.34 152.409 128.954 152.409 C 124.65 152.409 121.031 154.147 120.212 156.965 C 119.752 158.541 120.302 159.999 120.833 160.954 C 122.282 163.529 125.407 165.653 129.17 166.644 Z " fill="rgb(136,150,194)"/><path d=" M 80.561 106.825 C 80.561 105.052 79.129 103.62 77.355 103.62 C 75.582 103.62 74.15 105.052 74.15 106.825 C 74.15 108.599 75.582 110.03 77.355 110.03 C 79.129 110.03 80.561 108.59 80.561 106.825 Z " fill="rgb(45,45,48)"/><path d=" M 262.213 182.571 C 262.681 182.571 263.122 182.463 263.528 182.283 C 264.644 181.779 265.418 180.662 265.418 179.366 C 265.418 177.592 263.987 176.16 262.213 176.16 C 261.124 176.16 260.169 176.701 259.593 177.529 C 259.233 178.051 259.008 178.681 259.008 179.366 C 259.008 181.139 260.439 182.571 262.213 182.571 Z " fill="rgb(45,45,48)"/></g></g></g></g></svg>