<?xml version="1.0" encoding="UTF-8" standalone="no"?><!-- Generator: Gravit.io --><svg xmlns="http://www.w3.org/2000/svg" xmlns:xlink="http://www.w3.org/1999/xlink" style="isolation:isolate" viewBox="0 0 300 260" width="300pt" height="260pt"><defs><clipPath id="_clipPath_Eg3JZgVsEi0J2wulaz6FIBmrJQERYFC7"><rect width="300" height="260"/></clipPath></defs><g clip-path="url(#_clipPath_Eg3JZgVsEi0J2wulaz6FIBmrJQERYFC7)"><clipPath id="_clipPath_ldG7c0bInQXOSuGLKIbQjA6bdJby6j3y"><rect x="0" y="0" width="300" height="260" transform="matrix(1,0,0,1,0,0)" fill="rgb(255,255,255)"/></clipPath><g clip-path="url(#_clipPath_ldG7c0bInQXOSuGLKIbQjA6bdJby6j3y)"><g><g><path d=" M 94.56 11.933 L 86.13 11.933 C 70.72 11.933 58.18 24.473 58.18 39.883 L 58.18 74.133 C 58.18 86.043 65.66 96.223 76.17 100.243 C 76.04 99.023 75.97 97.783 75.97 96.523 L 75.97 46.383 C 75.97 44.453 77.54 42.883 79.47 42.883 C 81.4 42.883 82.97 44.453 82.97 46.383 L 82.97 96.523 C 82.97 102.173 84.66 107.443 87.56 111.843 L 88.97 111.843 L 110.76 111.843 C 118.75 111.843 125.01 116.813 125.01 123.153 C 125.01 123.603 124.97 124.043 124.91 124.473 L 153 124.473 C 160.5 124.473 167.31 121.503 172.33 116.683 L 172.33 87.343 C 172.33 86.083 173.01 84.923 174.1 84.303 C 176.45 82.973 178.729 82.173 180.95 81.873 L 180.95 43.843 C 180.95 41.913 182.52 40.343 184.45 40.343 C 186.38 40.343 187.95 41.913 187.95 43.843 L 187.95 82.733 C 192.1 84.443 195.56 88.183 198.42 94.063 C 203.59 88.983 206.8 81.933 206.8 74.133 L 206.8 39.883 C 206.8 24.473 194.26 11.933 178.85 11.933 L 114.18 11.933 C 112.25 11.933 110.68 10.363 110.68 8.433 C 110.68 8.433 110.68 8.433 110.68 8.433 L 107.84 8.433 C 107.84 8.693 107.82 8.943 107.76 9.203 C 107.33 11.123 105.43 12.333 103.51 11.903 C 101.85 11.533 100.729 10.063 100.729 8.423 L 98.07 8.423 C 98.07 8.423 98.07 8.423 98.07 8.423 C 98.06 10.363 96.489 11.933 94.56 11.933 Z  M 146.41 109.783 C 140.479 109.783 135.229 106.883 131.96 102.433 C 128.69 106.873 123.44 109.783 117.51 109.783 C 107.609 109.783 99.56 101.733 99.56 91.833 C 99.56 89.903 101.13 88.333 103.06 88.333 C 104.989 88.333 106.56 89.903 106.56 91.833 C 106.56 97.873 111.47 102.783 117.51 102.783 C 123.55 102.783 128.46 97.873 128.46 91.833 C 128.46 91.713 128.479 91.603 128.489 91.493 L 119.9 75.753 C 119.31 74.673 119.33 73.353 119.96 72.293 C 120.59 71.233 121.729 70.583 122.97 70.583 L 140.9 70.583 C 142.13 70.583 143.28 71.233 143.91 72.293 C 144.54 73.353 144.57 74.673 143.979 75.753 L 135.42 91.493 C 135.43 91.603 135.45 91.723 135.45 91.833 C 135.45 97.873 140.359 102.783 146.4 102.783 C 152.44 102.783 157.35 97.873 157.35 91.833 C 157.35 89.903 158.92 88.333 160.85 88.333 C 162.78 88.333 164.35 89.903 164.35 91.833 C 164.359 101.733 156.31 109.783 146.41 109.783 Z  M 152.96 58.013 L 152.96 48.923 C 152.96 46.993 154.53 45.423 156.46 45.423 C 158.39 45.423 159.96 46.993 159.96 48.923 L 159.96 58.013 C 159.96 59.943 158.39 61.513 156.46 61.513 C 154.53 61.513 152.96 59.943 152.96 58.013 Z  M 105.739 45.413 C 107.67 45.413 109.239 46.983 109.239 48.913 L 109.239 58.003 C 109.239 59.933 107.67 61.503 105.739 61.503 C 103.81 61.503 102.239 59.933 102.239 58.003 L 102.239 48.913 C 102.239 46.983 103.81 45.413 105.739 45.413 Z " fill="rgb(150,150,152)"/><path d=" M 135.02 77.583 L 128.87 77.583 L 131.95 83.223 L 135.02 77.583 L 135.02 77.583 Z " fill="rgb(255,229,201)"/><path d=" M 102.239 48.913 L 102.239 58.003 C 102.239 59.933 103.81 61.503 105.739 61.503 C 107.67 61.503 109.239 59.933 109.239 58.003 L 109.239 48.913 C 109.239 46.983 107.67 45.413 105.739 45.413 C 103.81 45.413 102.239 46.983 102.239 48.913 Z " fill="rgb(45,45,48)"/><path d=" M 159.96 58.013 L 159.96 48.923 C 159.96 46.993 158.39 45.423 156.46 45.423 C 154.53 45.423 152.96 46.993 152.96 48.923 L 152.96 58.013 C 152.96 59.943 154.53 61.513 156.46 61.513 C 158.39 61.513 159.96 59.943 159.96 58.013 Z " fill="rgb(45,45,48)"/><path d=" M 160.859 88.333 C 158.93 88.333 157.359 89.903 157.359 91.833 C 157.359 97.873 152.45 102.783 146.41 102.783 C 140.37 102.783 135.46 97.873 135.46 91.833 C 135.46 91.713 135.44 91.603 135.43 91.493 L 143.989 75.753 C 144.58 74.673 144.55 73.353 143.92 72.293 C 143.29 71.233 142.15 70.583 140.91 70.583 L 122.979 70.583 C 121.739 70.583 120.6 71.233 119.97 72.293 C 119.34 73.353 119.32 74.673 119.91 75.753 L 128.5 91.493 C 128.489 91.603 128.47 91.713 128.47 91.833 C 128.47 97.873 123.56 102.783 117.52 102.783 C 111.479 102.783 106.57 97.873 106.57 91.833 C 106.57 89.903 105 88.333 103.07 88.333 C 101.14 88.333 99.57 89.903 99.57 91.833 C 99.57 101.733 107.62 109.783 117.52 109.783 C 123.45 109.783 128.7 106.883 131.97 102.433 C 135.239 106.873 140.489 109.783 146.42 109.783 C 156.32 109.783 164.37 101.733 164.37 91.833 C 164.359 89.903 162.79 88.333 160.859 88.333 Z  M 135.02 77.583 L 131.95 83.223 L 128.87 77.583 L 135.02 77.583 L 135.02 77.583 Z " fill="rgb(45,45,48)"/><path d=" M 231.67 149.363 L 225.37 149.363 L 228.53 155.133 L 231.67 149.363 L 231.67 149.363 Z " fill="rgb(255,229,201)"/><path d=" M 277.69 150.893 C 277.72 150.143 277.739 149.383 277.739 148.623 L 277.739 89.513 C 275.5 88.583 273.54 88.483 271.8 89.203 C 267.84 90.823 264.33 96.653 261.64 106.073 C 261.33 107.153 260.52 108.023 259.46 108.403 C 258.4 108.783 257.22 108.633 256.29 108.003 C 248.09 102.383 238.489 99.423 228.52 99.423 C 218.55 99.423 208.96 102.393 200.75 108.003 C 199.82 108.643 198.64 108.793 197.58 108.403 C 196.52 108.023 195.71 107.153 195.4 106.073 C 192.71 96.653 189.2 90.823 185.239 89.203 C 183.489 88.483 181.54 88.583 179.3 89.513 L 179.3 148.623 C 179.3 175.753 201.38 197.833 228.51 197.833 C 247.14 197.833 263.96 187.503 272.41 170.883 C 273.17 169.383 274.859 168.673 276.42 169.083 L 277.67 164.333 C 276.75 163.693 276.14 162.623 276.14 161.413 C 276.14 159.563 277.56 158.063 279.359 157.883 L 280.27 154.423 C 278.739 154.033 277.62 152.573 277.69 150.893 Z  M 190.32 132.773 C 190.32 130.843 191.89 129.273 193.82 129.273 L 209.25 129.273 C 211.18 129.273 212.75 130.843 212.75 132.773 C 212.75 134.703 211.18 136.273 209.25 136.273 L 193.82 136.273 C 191.89 136.273 190.32 134.703 190.32 132.773 Z  M 243.109 181.833 C 237.13 181.833 231.83 178.903 228.54 174.403 C 225.25 178.893 219.95 181.833 213.97 181.833 C 204.01 181.833 195.9 173.723 195.9 163.763 C 195.9 161.833 197.47 160.263 199.4 160.263 C 201.33 160.263 202.9 161.833 202.9 163.763 C 202.9 169.863 207.87 174.833 213.97 174.833 C 220.07 174.833 225.04 169.863 225.04 163.763 C 225.04 163.643 225.06 163.533 225.08 163.413 L 216.41 147.543 C 215.82 146.463 215.84 145.143 216.47 144.083 C 217.1 143.023 218.239 142.373 219.479 142.373 L 237.56 142.373 C 238.79 142.373 239.94 143.023 240.57 144.083 C 241.2 145.143 241.229 146.463 240.64 147.543 L 232.01 163.423 C 232.02 163.543 232.05 163.653 232.05 163.773 C 232.05 169.873 237.02 174.843 243.12 174.843 C 249.22 174.843 254.19 169.873 254.19 163.773 C 254.19 161.843 255.76 160.273 257.69 160.273 C 259.62 160.273 261.19 161.843 261.19 163.773 C 261.18 173.723 253.07 181.833 243.109 181.833 Z  M 265.39 136.273 L 249.96 136.273 C 248.03 136.273 246.46 134.703 246.46 132.773 C 246.46 130.843 248.03 129.273 249.96 129.273 L 265.39 129.273 C 267.32 129.273 268.89 130.843 268.89 132.773 C 268.89 134.703 267.32 136.273 265.39 136.273 Z " fill="rgb(252,180,95)"/><path d=" M 282.97 84.303 C 278.05 81.513 273.4 80.983 269.15 82.723 C 263.77 84.923 259.55 90.513 256.31 99.753 C 247.87 94.943 238.359 92.423 228.54 92.423 C 220.16 92.423 212 94.273 204.54 97.803 C 210.28 91.573 213.8 83.263 213.8 74.143 L 213.8 39.893 C 213.8 20.623 198.12 4.943 178.85 4.943 L 114.18 4.943 C 112.25 4.943 110.68 6.513 110.68 8.443 C 110.68 8.443 110.68 8.443 110.68 8.443 C 110.68 10.373 112.25 11.943 114.18 11.943 L 178.85 11.943 C 194.26 11.943 206.8 24.483 206.8 39.893 L 206.8 74.143 C 206.8 81.943 203.59 88.993 198.42 94.073 C 195.57 88.203 192.1 84.463 187.95 82.743 L 187.95 43.853 C 187.95 41.923 186.38 40.353 184.45 40.353 C 182.52 40.353 180.95 41.923 180.95 43.853 L 180.95 81.883 C 178.739 82.183 176.45 82.983 174.1 84.313 C 173 84.933 172.33 86.093 172.33 87.353 L 172.33 116.693 C 167.31 121.513 160.489 124.483 153 124.483 L 124.91 124.483 C 124.97 124.053 125.01 123.613 125.01 123.163 C 125.01 116.823 118.75 111.853 110.76 111.853 L 88.97 111.853 L 87.56 111.853 C 84.66 107.453 82.97 102.183 82.97 96.533 L 82.97 46.393 C 82.97 44.463 81.4 42.893 79.47 42.893 C 77.54 42.893 75.97 44.463 75.97 46.393 L 75.97 96.533 C 75.97 97.793 76.04 99.033 76.17 100.253 C 65.66 96.233 58.18 86.043 58.18 74.143 L 58.18 39.893 C 58.18 24.483 70.72 11.943 86.13 11.943 L 94.56 11.943 C 96.489 11.943 98.06 10.373 98.06 8.443 C 98.06 8.443 98.06 8.443 98.06 8.443 C 98.06 6.513 96.489 4.943 94.56 4.943 L 86.13 4.943 C 66.859 4.943 51.18 20.623 51.18 39.893 L 51.18 74.143 C 51.18 90.603 62.62 104.423 77.95 108.123 C 78.4 109.403 78.92 110.653 79.51 111.863 L 62.93 111.863 L 34.979 111.863 C 26.21 111.863 19.35 116.833 19.35 123.173 C 19.35 127.543 22.609 131.253 27.5 133.143 C 25.89 134.973 24.85 137.143 24.59 139.523 L 15.28 226.693 C 14.95 229.813 16.01 232.913 18.27 235.433 C 21.39 238.903 26.53 240.983 32.01 240.983 L 80.64 240.983 L 92.32 240.983 L 104.64 240.983 L 101.26 250.463 C 100.88 251.533 101.04 252.723 101.7 253.653 C 102.359 254.583 103.42 255.133 104.56 255.133 L 214.72 255.133 C 215.83 255.133 216.88 254.603 217.54 253.713 C 218.2 252.813 218.39 251.663 218.07 250.603 L 207.05 215.033 C 206.6 213.563 205.239 212.573 203.71 212.573 L 191.63 212.573 C 191.07 211.843 190.42 211.043 189.67 210.153 C 185 204.583 171.5 190.123 165.18 190.123 C 165.18 190.123 165.17 190.123 165.17 190.123 C 158.42 190.133 142.45 194.013 137.6 197.343 C 137.489 197.423 137.38 197.503 137.27 197.593 L 122.979 131.873 C 122.95 131.733 122.9 131.613 122.859 131.483 L 153 131.483 C 160.14 131.483 166.79 129.323 172.33 125.633 L 172.33 148.633 C 172.33 179.623 197.55 204.843 228.54 204.843 C 249.82 204.843 269.03 193.053 278.68 174.073 C 279.56 172.353 278.87 170.243 277.15 169.363 C 276.92 169.243 276.69 169.163 276.45 169.103 C 274.89 168.693 273.2 169.403 272.44 170.903 C 263.989 187.523 247.17 197.853 228.54 197.853 C 201.41 197.853 179.33 175.773 179.33 148.643 L 179.33 89.533 C 181.57 88.603 183.53 88.503 185.27 89.223 C 189.229 90.843 192.739 96.673 195.43 106.093 C 195.739 107.173 196.55 108.043 197.609 108.423 C 198.67 108.803 199.85 108.653 200.78 108.023 C 208.979 102.403 218.58 99.443 228.55 99.443 C 238.52 99.443 248.12 102.413 256.32 108.023 C 257.25 108.663 258.43 108.813 259.489 108.423 C 260.55 108.043 261.359 107.173 261.67 106.093 C 264.359 96.673 267.87 90.843 271.83 89.223 C 273.58 88.503 275.53 88.603 277.77 89.533 L 277.77 148.643 C 277.77 149.403 277.75 150.163 277.72 150.913 C 277.64 152.593 278.76 154.043 280.33 154.453 C 280.56 154.513 280.81 154.553 281.06 154.563 C 282.989 154.683 284.63 153.163 284.72 151.233 C 284.76 150.373 284.78 149.513 284.78 148.643 L 284.78 87.363 C 284.75 86.083 284.07 84.923 282.97 84.303 Z  M 139.87 200.633 C 143.75 197.963 158.66 194.133 165.18 194.113 C 165.18 194.113 165.18 194.113 165.18 194.113 C 168.91 194.113 180.02 204.943 186.489 212.553 L 132.09 212.553 C 134.84 207.243 137.97 201.943 139.87 200.633 Z  M 201.13 219.553 L 209.979 248.123 L 171.92 248.123 L 167.66 229.413 C 167.45 228.503 166.64 227.853 165.71 227.853 L 132.66 227.853 C 131.78 227.853 131 228.433 130.75 229.273 L 126.89 241.913 C 126.57 242.973 127.16 244.083 128.22 244.413 C 129.27 244.733 130.39 244.143 130.72 243.083 L 134.14 231.853 L 164.109 231.853 L 167.81 248.123 L 109.52 248.123 L 119.7 219.553 L 201.13 219.553 L 201.13 219.553 L 201.13 219.553 Z  M 32.02 233.963 C 28.54 233.963 25.27 232.723 23.479 230.733 C 22.54 229.683 22.12 228.563 22.239 227.423 L 31.55 140.253 C 31.89 137.063 36.28 134.463 41.33 134.463 L 62.93 134.463 L 85.53 134.463 C 90.59 134.463 95.07 137.163 95.32 140.393 L 98.25 173.193 C 98.42 175.123 100.109 176.533 102.05 176.373 C 103.979 176.203 105.4 174.503 105.229 172.573 L 102.31 139.813 C 102.21 138.573 101.9 137.393 101.42 136.273 L 116.77 136.133 L 131.729 204.943 C 130.239 207.463 128.81 210.193 127.63 212.553 L 117.25 212.553 C 115.77 212.553 114.45 213.483 113.95 214.883 L 109.1 228.493 C 109.13 227.993 109.14 227.493 109.1 226.993 L 106.46 192.313 C 106.31 190.383 104.609 188.943 102.7 189.093 C 100.77 189.243 99.33 190.923 99.479 192.853 L 102.12 227.533 C 102.229 228.953 101.47 230.103 100.81 230.813 C 99.01 232.763 95.76 233.973 92.34 233.973 L 84.8 233.973 L 32.02 233.973 L 32.02 233.963 L 32.02 233.963 Z  M 34.979 118.843 L 62.93 118.843 L 88.97 118.843 C 94.239 118.843 97.6 121.393 97.6 123.153 C 97.6 124.913 94.239 127.463 88.97 127.463 L 85.53 127.463 L 62.93 127.463 L 41.33 127.463 L 34.989 127.463 C 29.72 127.463 26.359 124.913 26.359 123.153 C 26.359 121.393 29.71 118.843 34.979 118.843 Z  M 118 123.153 C 118 125.193 115.02 127.463 110.75 127.463 L 103.45 127.463 C 104.18 126.143 104.59 124.683 104.59 123.153 C 104.59 121.623 104.18 120.163 103.45 118.843 L 110.75 118.843 C 115.03 118.843 118 121.123 118 123.153 Z " fill="rgb(45,45,48)"/><path d=" M 257.68 160.263 C 255.75 160.263 254.18 161.833 254.18 163.763 C 254.18 169.863 249.21 174.833 243.109 174.833 C 237.01 174.833 232.04 169.863 232.04 163.763 C 232.04 163.643 232.02 163.523 232 163.413 L 240.63 147.533 C 241.22 146.453 241.19 145.133 240.56 144.073 C 239.93 143.013 238.79 142.363 237.55 142.363 L 219.47 142.363 C 218.229 142.363 217.09 143.013 216.46 144.073 C 215.83 145.133 215.81 146.453 216.4 147.533 L 225.07 163.403 C 225.06 163.523 225.03 163.633 225.03 163.753 C 225.03 169.853 220.06 174.823 213.96 174.823 C 207.859 174.823 202.89 169.853 202.89 163.753 C 202.89 161.823 201.32 160.253 199.39 160.253 C 197.46 160.253 195.89 161.823 195.89 163.753 C 195.89 173.713 204 181.823 213.96 181.823 C 219.94 181.823 225.239 178.893 228.53 174.393 C 231.82 178.883 237.12 181.823 243.1 181.823 C 253.06 181.823 261.17 173.713 261.17 163.753 C 261.18 161.823 259.609 160.263 257.68 160.263 Z  M 231.67 149.363 L 228.53 155.143 L 225.38 149.363 L 231.67 149.363 L 231.67 149.363 Z " fill="rgb(45,45,48)"/><path d=" M 212.75 132.773 C 212.75 130.843 211.18 129.273 209.25 129.273 L 193.82 129.273 C 191.89 129.273 190.32 130.843 190.32 132.773 C 190.32 134.703 191.89 136.273 193.82 136.273 L 209.25 136.273 C 211.18 136.273 212.75 134.703 212.75 132.773 Z " fill="rgb(45,45,48)"/><path d=" M 265.39 129.273 L 249.96 129.273 C 248.03 129.273 246.46 130.843 246.46 132.773 C 246.46 134.703 248.03 136.273 249.96 136.273 L 265.39 136.273 C 267.32 136.273 268.89 134.703 268.89 132.773 C 268.89 130.843 267.32 129.273 265.39 129.273 Z " fill="rgb(45,45,48)"/><path d=" M 103.46 118.843 C 104.19 120.163 104.6 121.623 104.6 123.153 C 104.6 124.683 104.19 126.143 103.46 127.463 L 110.76 127.463 C 115.03 127.463 118.01 125.193 118.01 123.153 C 118.01 121.113 115.03 118.843 110.76 118.843 L 103.46 118.843 L 103.46 118.843 Z " fill="rgb(255,229,201)"/><path d=" M 84.79 233.963 L 92.33 233.963 C 95.76 233.963 99 232.753 100.8 230.803 C 101.46 230.093 102.22 228.943 102.109 227.523 L 99.47 192.843 C 99.32 190.913 100.77 189.233 102.69 189.083 C 104.59 188.943 106.3 190.383 106.45 192.303 L 109.09 226.983 C 109.13 227.483 109.12 227.983 109.09 228.483 L 113.94 214.873 C 114.44 213.483 115.76 212.543 117.239 212.543 L 127.62 212.543 C 128.79 210.183 130.22 207.453 131.72 204.933 L 116.76 136.123 L 101.41 136.263 C 101.89 137.373 102.21 138.563 102.3 139.803 L 105.22 172.563 C 105.39 174.483 103.97 176.193 102.04 176.363 C 100.109 176.523 98.41 175.113 98.239 173.183 L 95.31 140.383 C 95.06 137.153 90.58 134.453 85.52 134.453 L 62.92 134.453 L 41.32 134.453 C 36.27 134.453 31.88 137.053 31.54 140.243 L 22.229 227.413 C 22.109 228.563 22.52 229.673 23.47 230.723 C 25.26 232.713 28.53 233.953 32.01 233.953 L 84.79 233.953 L 84.79 233.963 L 84.79 233.963 Z  M 100.42 180.013 C 102.09 179.033 104.229 179.583 105.21 181.253 L 105.38 181.533 C 106.359 183.203 105.81 185.343 104.14 186.323 C 103.58 186.653 102.97 186.813 102.37 186.813 C 101.17 186.813 100 186.193 99.35 185.093 L 99.18 184.813 C 98.2 183.143 98.75 180.993 100.42 180.013 Z  M 43.8 185.583 C 44.989 184.203 46.64 183.373 48.46 183.243 C 50.09 183.133 51.66 183.573 52.95 184.523 L 62.03 174.353 L 66.17 169.623 C 64.52 167.123 64.66 163.733 66.72 161.373 C 69.19 158.553 73.51 158.263 76.33 160.733 C 77.5 161.763 78.27 163.133 78.54 164.613 C 80.05 164.693 81.51 165.263 82.68 166.293 C 84.05 167.493 84.87 169.153 84.989 170.963 C 85.109 172.783 84.52 174.533 83.32 175.903 C 82.12 177.273 80.46 178.093 78.65 178.213 C 77.03 178.333 75.46 177.863 74.17 176.913 L 65.06 187.053 L 60.989 191.763 C 62.66 194.253 62.53 197.643 60.479 200.013 C 59.29 201.393 57.64 202.223 55.82 202.353 C 55.65 202.363 55.479 202.373 55.32 202.373 C 53.69 202.373 52.12 201.793 50.87 200.713 C 49.69 199.693 48.92 198.323 48.64 196.843 C 47.13 196.773 45.67 196.213 44.489 195.193 C 41.65 192.733 41.34 188.423 43.8 185.583 Z  M 36.77 229.733 C 35.67 229.733 34.77 228.833 34.77 227.733 C 34.77 226.633 35.67 225.733 36.77 225.733 L 87.239 225.733 C 88.34 225.733 89.239 226.633 89.239 227.733 C 89.239 228.833 88.34 229.733 87.239 229.733 L 36.77 229.733 L 36.77 229.733 Z " fill="rgb(255,229,201)"/><path d=" M 34.979 127.463 L 41.32 127.463 L 62.92 127.463 L 85.52 127.463 L 88.96 127.463 C 94.229 127.463 97.59 124.913 97.59 123.153 C 97.59 121.393 94.229 118.843 88.96 118.843 L 62.92 118.843 L 34.97 118.843 C 29.7 118.843 26.34 121.393 26.34 123.153 C 26.34 124.913 29.71 127.463 34.979 127.463 Z " fill="rgb(255,229,201)"/><path d=" M 87.239 229.733 C 88.34 229.733 89.239 228.833 89.239 227.733 C 89.239 226.633 88.34 225.733 87.239 225.733 L 36.77 225.733 C 35.67 225.733 34.77 226.633 34.77 227.733 C 34.77 228.833 35.67 229.733 36.77 229.733 L 87.239 229.733 L 87.239 229.733 Z " fill="rgb(45,45,48)"/><path d=" M 99.34 185.083 C 99.989 186.193 101.16 186.803 102.359 186.803 C 102.96 186.803 103.58 186.643 104.13 186.313 C 105.8 185.333 106.35 183.183 105.37 181.523 L 105.2 181.243 C 104.22 179.573 102.07 179.023 100.41 180.003 C 98.739 180.983 98.19 183.133 99.17 184.793 L 99.34 185.083 L 99.34 185.083 Z " fill="rgb(45,45,48)"/><path d=" M 47.109 192.163 C 47.89 192.833 48.97 193.033 49.93 192.673 C 50.16 192.593 50.39 192.543 50.63 192.543 C 51.1 192.543 51.57 192.713 51.94 193.033 C 52.489 193.513 52.739 194.253 52.59 194.963 C 52.38 195.973 52.72 197.013 53.5 197.683 C 54.07 198.173 54.79 198.423 55.54 198.363 C 56.29 198.313 56.97 197.963 57.46 197.403 C 57.95 196.833 58.19 196.113 58.14 195.363 C 58.09 194.613 57.739 193.933 57.17 193.443 C 57.15 193.433 57.08 193.373 57.06 193.363 C 56.64 193.023 56.38 192.523 56.33 191.983 C 56.28 191.443 56.46 190.913 56.81 190.503 L 62.06 184.433 L 72.63 172.663 C 73.05 172.193 73.67 171.943 74.29 172.003 C 74.92 172.053 75.479 172.403 75.81 172.933 C 75.96 173.163 76.14 173.373 76.34 173.553 C 76.91 174.053 77.63 174.303 78.38 174.243 C 79.13 174.193 79.82 173.853 80.31 173.293 C 80.81 172.723 81.05 172.003 81 171.253 C 80.95 170.503 80.609 169.823 80.05 169.323 C 80.05 169.323 80.05 169.323 80.05 169.323 C 79.28 168.643 78.2 168.443 77.229 168.803 C 76.55 169.053 75.78 168.913 75.229 168.433 C 74.68 167.953 74.44 167.213 74.59 166.503 C 74.81 165.493 74.47 164.453 73.7 163.773 C 72.53 162.753 70.75 162.873 69.729 164.033 C 68.71 165.203 68.83 166.983 70 168.003 C 70.01 168.013 70.07 168.053 70.09 168.063 C 70.52 168.403 70.79 168.903 70.84 169.443 C 70.89 169.983 70.71 170.523 70.35 170.943 L 65.04 177.013 L 54.52 188.803 C 54.1 189.273 53.489 189.523 52.87 189.463 C 52.239 189.413 51.68 189.073 51.34 188.543 C 51.19 188.303 51.01 188.093 50.8 187.923 C 49.63 186.913 47.85 187.043 46.83 188.213 C 45.81 189.373 45.94 191.153 47.109 192.163 Z " fill="rgb(252,180,95)"/><path d=" M 44.489 195.193 C 45.67 196.213 47.14 196.773 48.64 196.843 C 48.92 198.323 49.7 199.693 50.87 200.713 C 52.12 201.793 53.68 202.373 55.32 202.373 C 55.489 202.373 55.65 202.363 55.82 202.353 C 57.64 202.223 59.29 201.393 60.479 200.013 C 62.53 197.643 62.65 194.253 60.989 191.763 L 65.06 187.053 L 74.17 176.913 C 75.46 177.863 77.03 178.333 78.65 178.213 C 80.47 178.093 82.13 177.273 83.32 175.903 C 83.92 175.218 84.367 174.438 84.649 173.602 C 84.932 172.765 85.049 171.873 84.989 170.963 C 84.87 169.143 84.05 167.483 82.68 166.293 C 81.51 165.263 80.04 164.693 78.54 164.613 C 78.26 163.133 77.5 161.753 76.33 160.733 C 73.5 158.263 69.19 158.553 66.72 161.373 C 64.66 163.733 64.51 167.123 66.17 169.623 L 62.03 174.353 L 52.95 184.523 C 51.65 183.583 50.08 183.133 48.46 183.243 C 46.64 183.373 44.989 184.203 43.8 185.583 C 41.34 188.423 41.65 192.733 44.489 195.193 Z  M 50.79 187.913 C 51 188.093 51.18 188.303 51.33 188.533 C 51.67 189.063 52.229 189.403 52.859 189.453 C 53.479 189.513 54.1 189.263 54.51 188.793 L 65.03 177.003 L 70.34 170.933 C 70.7 170.523 70.88 169.983 70.83 169.433 C 70.78 168.893 70.51 168.393 70.08 168.053 C 70.07 168.043 70.01 168.003 69.989 167.993 C 68.82 166.973 68.7 165.193 69.72 164.023 C 70.739 162.853 72.52 162.733 73.69 163.763 C 74.46 164.433 74.8 165.483 74.58 166.493 C 74.42 167.203 74.67 167.943 75.22 168.423 C 75.77 168.903 76.54 169.043 77.22 168.793 C 78.19 168.443 79.27 168.643 80.04 169.313 C 80.04 169.313 80.04 169.313 80.04 169.313 C 80.609 169.803 80.94 170.493 80.989 171.243 C 81.04 171.993 80.79 172.713 80.3 173.283 C 79.81 173.853 79.12 174.183 78.37 174.233 C 77.62 174.293 76.9 174.033 76.33 173.543 C 76.13 173.363 75.95 173.153 75.8 172.923 C 75.47 172.393 74.9 172.043 74.28 171.993 C 73.66 171.933 73.04 172.183 72.62 172.653 L 62.05 184.423 L 56.8 190.493 C 56.45 190.903 56.27 191.443 56.32 191.973 C 56.37 192.503 56.63 193.013 57.05 193.353 C 57.07 193.373 57.14 193.423 57.16 193.433 C 57.729 193.923 58.07 194.613 58.13 195.353 C 58.18 196.103 57.94 196.823 57.45 197.393 C 56.96 197.963 56.28 198.303 55.53 198.353 C 54.77 198.413 54.05 198.163 53.489 197.673 C 52.71 197.003 52.359 195.963 52.58 194.953 C 52.729 194.243 52.489 193.503 51.93 193.023 C 51.56 192.703 51.09 192.533 50.62 192.533 C 50.39 192.533 50.15 192.573 49.92 192.663 C 48.96 193.023 47.87 192.833 47.1 192.153 C 45.93 191.143 45.8 189.363 46.81 188.183 C 47.84 187.023 49.62 186.893 50.79 187.913 Z " fill="rgb(45,45,48)"/><path d=" M 132.1 212.553 L 186.5 212.553 C 180.03 204.933 168.92 194.113 165.19 194.113 C 165.19 194.113 165.19 194.113 165.19 194.113 C 158.66 194.123 143.76 197.963 139.88 200.633 C 137.97 201.943 134.84 207.243 132.1 212.553 Z " fill="rgb(252,180,95)"/><path d=" M 119.7 219.553 L 109.52 248.123 L 167.81 248.123 L 164.109 231.853 L 134.14 231.853 L 130.72 243.083 C 130.4 244.143 129.28 244.733 128.22 244.413 C 127.16 244.093 126.57 242.973 126.89 241.913 L 130.75 229.273 C 131.01 228.433 131.78 227.853 132.66 227.853 L 165.71 227.853 C 166.64 227.853 167.45 228.503 167.66 229.413 L 171.92 248.123 L 209.979 248.123 L 201.13 219.553 L 119.7 219.553 L 119.7 219.553 L 119.7 219.553 Z " fill="rgb(136,150,194)"/><path d=" M 103.5 11.903 C 105.42 12.333 107.32 11.123 107.75 9.203 C 107.81 8.943 107.83 8.683 107.83 8.433 C 107.83 6.803 106.71 5.323 105.05 4.953 C 103.13 4.523 101.229 5.733 100.8 7.653 C 100.739 7.913 100.72 8.173 100.72 8.423 C 100.72 10.063 101.84 11.533 103.5 11.903 Z " fill="rgb(45,45,48)"/><path d=" M 276.17 161.423 C 276.17 162.633 276.78 163.693 277.7 164.343 C 278.28 164.743 278.979 164.983 279.729 164.983 C 281.7 164.983 283.29 163.393 283.29 161.423 C 283.29 159.453 281.7 157.863 279.729 157.863 C 279.609 157.863 279.51 157.883 279.39 157.893 C 277.58 158.063 276.17 159.573 276.17 161.423 Z " fill="rgb(45,45,48)"/></g></g></g></g></svg>