<?xml version="1.0" encoding="UTF-8" standalone="no"?><!-- Generator: Gravit.io --><svg xmlns="http://www.w3.org/2000/svg" xmlns:xlink="http://www.w3.org/1999/xlink" style="isolation:isolate" viewBox="0 0 300 260" width="300pt" height="260pt"><defs><clipPath id="_clipPath_0aAe1Hqmze6ASWiIGz3kzxKERU41wGhp"><rect width="300" height="260"/></clipPath></defs><g clip-path="url(#_clipPath_0aAe1Hqmze6ASWiIGz3kzxKERU41wGhp)"><clipPath id="_clipPath_HkCbPDfcUa2hA9PYXFt9uUQBcCxHOjaH"><rect x="0" y="0" width="300" height="260" transform="matrix(1,0,0,1,0,0)" fill="rgb(255,255,255)"/></clipPath><g clip-path="url(#_clipPath_HkCbPDfcUa2hA9PYXFt9uUQBcCxHOjaH)"><g><g><path d=" M 64.565 92.27 L 64.565 133.86 C 69.515 135.41 75.565 140.33 80.055 145.35 C 81.375 146.83 82.975 148.78 84.605 151.12 L 159.705 151.12 C 158.215 147.49 157.055 143.67 156.305 139.66 C 153.425 124.33 156.695 108.8 165.495 95.92 C 166.965 93.77 168.565 91.76 170.275 89.85 L 170.275 45.41 L 64.575 45.41 L 64.575 69.6 C 64.575 71.53 63.005 73.1 61.075 73.1 L 61.075 76.73 C 63.045 76.73 64.635 78.32 64.635 80.29 C 64.635 82.26 63.045 83.85 61.075 83.85 L 61.075 88.75 C 62.995 88.77 64.565 90.34 64.565 92.27 Z  M 90.805 100.07 C 91.435 98.89 92.385 98.07 93.535 97.62 L 127.025 69.77 C 127.675 69.23 128.585 69.16 129.305 69.58 C 151.855 82.63 146.865 95.3 144.795 98.87 C 141.045 105.34 132.805 109.33 125.205 109.33 C 122.045 109.33 118.985 108.64 116.415 107.15 C 115.935 106.87 115.465 106.61 115.005 106.36 L 95.815 121.4 C 95.455 121.68 95.025 121.83 94.585 121.83 C 94.395 121.83 94.205 121.8 94.015 121.75 C 93.395 121.57 92.905 121.09 92.695 120.48 C 92.175 118.97 87.795 105.67 90.805 100.07 Z " fill="rgb(161,172,208)"/><path d=" M 95.835 101.12 C 95.585 101.17 95.335 101.22 95.085 101.29 C 94.855 101.35 94.585 101.48 94.325 101.96 C 92.935 104.54 94.185 111.36 95.625 116.45 L 111.045 104.37 C 102.645 100.56 97.505 100.86 95.835 101.12 Z " fill="rgb(252,180,95)"/><path d=" M 115.815 102.26 C 116.655 102.7 117.525 103.18 118.415 103.69 C 125.315 107.68 137.095 104.18 141.325 96.87 C 145.515 89.63 140.845 81.25 128.485 73.76 L 100.515 97.01 C 108.135 97.74 115.415 102.02 115.815 102.26 Z " fill="rgb(255,229,201)"/><path d=" M 93.875 175.67 C 93.915 176.16 93.935 176.64 93.955 177.12 L 112.285 177.12 L 112.285 167.62 C 112.285 166.52 113.185 165.62 114.285 165.62 C 115.385 165.62 116.285 166.52 116.285 167.62 L 116.285 177.12 L 153.265 177.12 L 152.425 167.8 C 152.325 166.7 153.135 165.73 154.235 165.63 C 155.335 165.54 156.305 166.34 156.405 167.44 L 157.275 177.12 L 180.095 177.12 L 179.755 176.37 C 173.055 171.58 167.355 165.39 163.145 158.12 L 88.775 158.12 C 91.275 163.08 93.325 168.99 93.875 175.67 Z " fill="rgb(136,150,194)"/><path d=" M 185.525 184.12 C 186.715 184.12 187.825 183.52 188.465 182.52 C 188.625 182.27 188.755 181.99 188.845 181.71 C 189.235 181.89 189.625 182.07 190.015 182.24 C 188.485 184.29 186.605 187.5 183.985 192.04 C 180.025 198.92 172.635 211.73 168.895 212.85 C 167.025 213.41 162.075 214.89 161.615 218.82 C 161.345 221.12 162.795 222.89 164.185 223.76 C 164.905 224.26 167.555 225.94 171.175 226.28 C 172.915 226.99 178.615 231.55 182.795 234.9 C 187.995 239.06 193.385 243.37 196.925 245.34 C 199.775 246.92 205.265 247.52 211.485 247.52 C 223.935 247.52 239.305 245.13 242.195 243.45 C 245.405 241.59 248.945 231.97 250.555 221.74 C 255.055 225.27 258.955 228.82 259.385 230.94 C 259.775 232.85 260.805 237.92 264.675 238.73 C 265.005 238.8 265.325 238.83 265.635 238.83 C 267.465 238.83 268.975 237.73 269.825 236.62 C 270.385 235.95 272.295 233.46 272.965 229.88 C 273.825 228.21 278.875 222.95 282.585 219.08 C 286.475 215.03 290.495 210.84 292.995 207.64 C 294.185 206.12 293.925 203.92 292.405 202.73 C 291.965 202.38 291.465 202.17 290.945 202.07 C 289.685 201.81 288.335 202.25 287.485 203.32 C 285.195 206.24 281.295 210.3 277.525 214.23 C 269.405 222.69 266.525 225.89 266.095 228.47 C 266.075 228.57 266.055 228.67 266.035 228.77 C 264.645 224.21 259.195 219.36 251.375 213.58 C 251.885 201.9 249.645 186.46 236.795 176.73 C 235.575 175.81 233.915 175.11 231.965 174.61 C 232.345 170.12 233.195 166.39 234.665 164.77 C 240.405 158.46 248.625 155.27 259.085 155.27 C 259.105 155.27 259.125 155.27 259.145 155.27 C 273.515 155.29 287.665 161.6 290.155 163.88 C 290.695 165.81 291.465 173.63 291.195 183.73 C 291.145 185.45 292.355 186.91 293.995 187.25 C 294.195 187.29 294.395 187.32 294.605 187.33 C 296.565 187.38 298.145 185.86 298.195 183.93 C 298.395 176.54 298.095 164.26 296.435 160.71 C 295.145 157.94 288.635 154.47 280.765 151.93 C 286.745 140.88 289.125 128.11 286.705 115.23 C 280.765 83.58 248.085 63.06 213.865 69.49 C 211.955 69.85 210.085 70.3 208.245 70.8 C 206.465 70.97 204.675 71.21 202.885 71.55 C 193.345 73.34 184.605 77.38 177.235 83.27 L 177.235 43.31 C 177.305 43.19 177.385 43.06 177.435 42.93 L 189.195 16.94 C 189.685 15.86 189.595 14.6 188.945 13.6 C 188.295 12.6 187.195 12 186.005 12 L 52.245 12 C 51.105 12 50.035 12.55 49.385 13.49 C 48.725 14.42 48.565 15.61 48.955 16.69 L 57.705 41.06 C 57.625 41.36 57.565 41.66 57.565 41.98 L 57.565 69.67 C 57.565 71.6 59.135 73.17 61.065 73.17 C 62.995 73.17 64.565 71.6 64.565 69.67 L 64.565 45.48 L 170.265 45.48 L 170.265 89.92 C 168.555 91.83 166.955 93.84 165.485 95.99 C 156.685 108.87 153.415 124.4 156.295 139.73 C 157.045 143.73 158.205 147.56 159.695 151.19 L 84.595 151.19 C 82.965 148.85 81.375 146.9 80.045 145.42 C 75.545 140.4 69.495 135.48 64.555 133.93 L 64.555 92.34 C 64.555 90.41 62.985 88.84 61.055 88.84 C 59.125 88.84 57.555 90.41 57.555 92.34 L 57.555 134.71 C 53.205 137.2 48.185 142.96 44.715 148.3 C 42.325 151.98 39.005 157.99 37.075 165.36 C 34.905 164.39 32.935 163.65 31.315 163.11 C 23.315 160.46 13.285 159.14 8.905 162.16 C 4.885 164.93 2.555 175 2.095 183.19 C 1.695 190.3 2.235 203.98 10.265 215.65 C 18.545 227.68 30.365 233.22 36.675 235.45 C 41.765 237.25 46.695 238.16 50.875 238.16 C 54.565 238.16 57.665 237.45 59.745 236.02 C 62.885 233.86 65.315 228.99 66.575 222.77 C 66.965 222.81 67.355 222.84 67.725 222.84 C 67.965 222.84 68.205 222.83 68.435 222.81 C 78.085 222.02 91.965 204.58 93.815 184.19 L 185.525 184.19 L 185.525 184.12 L 185.525 184.12 Z  M 55.785 230.18 C 53.985 231.42 47.585 231.81 39.015 228.78 C 33.505 226.83 23.195 222.01 16.035 211.61 C 4.015 194.15 10.435 170.5 12.925 167.83 C 15.075 166.69 25.395 167.43 35.765 172.43 C 35.495 175.01 35.425 177.68 35.655 180.44 C 36.855 194.99 44.345 205.68 48.705 210.75 C 52.295 214.93 56.215 218.23 59.905 220.3 C 58.975 225.76 57.145 229.24 55.785 230.18 Z  M 54.015 206.2 C 50.205 201.77 43.665 192.45 42.635 179.88 C 40.895 158.75 58.235 141.43 61.725 140.36 C 65.615 140.49 85.155 155.12 86.895 176.24 C 88.675 197.87 73.045 215.34 67.865 215.76 C 65.695 215.93 59.935 213.09 54.015 206.2 Z  M 273.825 149.97 C 272.135 149.59 270.435 149.26 268.745 149 C 268.665 148.99 268.575 148.98 268.495 148.96 C 272.015 139.41 273.085 128.82 271.075 118.11 C 268.195 102.78 259.525 89.49 246.645 80.68 C 244.555 79.25 242.395 77.99 240.185 76.86 C 260.125 81.6 276.085 96.5 279.835 116.46 C 282.065 128.27 279.645 139.97 273.825 149.97 Z  M 229.515 160.04 C 227.115 162.67 225.715 167.74 225.095 173.6 C 215.925 173.09 204.375 174.91 197.175 177.53 C 180.205 171.73 166.725 157.22 163.185 138.37 C 160.655 124.88 163.525 111.21 171.275 99.87 C 179.025 88.54 190.725 80.9 204.215 78.37 C 207.415 77.77 210.625 77.47 213.805 77.47 C 224.055 77.47 234.065 80.54 242.705 86.46 C 254.035 94.21 261.675 105.91 264.205 119.4 C 266.095 129.48 264.885 139.43 261.255 148.28 C 250.735 147.89 238.505 150.17 229.515 160.04 Z  M 244.265 205.82 C 245.545 220.15 240.515 234.83 238.475 237.49 C 233.655 239.5 205.725 242.2 200.345 239.21 C 197.315 237.53 191.935 233.22 187.185 229.43 C 178.025 222.1 174.585 219.52 171.975 219.32 C 171.875 219.31 171.775 219.3 171.675 219.29 C 177.365 216.98 182.925 207.93 190.065 195.54 C 192.515 191.28 195.055 186.88 196.265 185.66 C 199.735 182.24 226.955 178.01 232.605 182.3 C 239.405 187.46 243.325 195.37 244.265 205.82 Z  M 179.765 176.37 L 180.105 177.12 L 157.285 177.12 L 156.415 167.44 C 156.315 166.34 155.345 165.53 154.245 165.63 C 153.145 165.73 152.335 166.7 152.435 167.8 L 153.275 177.12 L 116.295 177.12 L 116.295 167.62 C 116.295 166.52 115.395 165.62 114.295 165.62 C 113.195 165.62 112.295 166.52 112.295 167.62 L 112.295 177.12 L 93.965 177.12 C 93.945 176.64 93.915 176.15 93.885 175.67 C 93.335 168.99 91.285 163.08 88.795 158.13 L 163.165 158.13 C 167.365 165.39 173.065 171.58 179.765 176.37 Z  M 74.295 18.95 L 75.855 28.76 C 76.015 29.74 76.865 30.45 77.825 30.45 C 77.925 30.45 78.035 30.44 78.145 30.42 C 79.235 30.25 79.975 29.22 79.805 28.13 L 78.345 18.95 L 112.795 18.95 L 112.795 28.45 C 112.795 29.55 113.695 30.45 114.795 30.45 C 115.895 30.45 116.795 29.55 116.795 28.45 L 116.795 18.95 L 153.775 18.95 L 152.935 28.27 C 152.835 29.37 153.645 30.34 154.745 30.44 C 154.805 30.45 154.865 30.45 154.925 30.45 C 155.945 30.45 156.825 29.67 156.915 28.63 L 157.785 18.95 L 180.605 18.95 L 172.015 37.94 L 64.045 37.94 L 57.225 18.95 L 74.295 18.95 L 74.295 18.95 L 74.295 18.95 Z " fill="rgb(45,45,48)"/><path d=" M 172.025 37.94 L 180.615 18.95 L 157.795 18.95 L 156.925 28.63 C 156.835 29.67 155.955 30.45 154.935 30.45 C 154.875 30.45 154.815 30.45 154.755 30.44 C 153.655 30.34 152.845 29.37 152.945 28.27 L 153.785 18.95 L 116.805 18.95 L 116.805 28.45 C 116.805 29.55 115.905 30.45 114.805 30.45 C 113.705 30.45 112.805 29.55 112.805 28.45 L 112.805 18.95 L 78.345 18.95 L 79.805 28.13 C 79.975 29.22 79.235 30.25 78.145 30.42 C 78.035 30.44 77.935 30.45 77.825 30.45 C 76.855 30.45 76.005 29.75 75.855 28.76 L 74.295 18.95 L 57.215 18.95 L 64.035 37.94 L 172.025 37.94 L 172.025 37.94 L 172.025 37.94 Z " fill="rgb(136,150,194)"/><path d=" M 94.005 121.74 C 94.195 121.8 94.385 121.82 94.575 121.82 C 95.015 121.82 95.455 121.67 95.805 121.39 L 114.995 106.35 C 115.455 106.6 115.925 106.87 116.405 107.14 C 118.975 108.63 122.025 109.32 125.195 109.32 C 132.795 109.32 141.045 105.33 144.785 98.86 C 146.855 95.29 151.845 82.63 129.295 69.57 C 128.565 69.15 127.655 69.23 127.015 69.76 L 93.525 97.61 C 92.375 98.06 91.435 98.88 90.795 100.06 C 87.785 105.67 92.165 118.96 92.675 120.45 C 92.895 121.08 93.385 121.55 94.005 121.74 Z  M 95.625 116.45 C 94.185 111.35 92.935 104.54 94.325 101.96 C 94.585 101.47 94.855 101.35 95.085 101.29 C 95.335 101.23 95.585 101.17 95.835 101.12 C 97.515 100.85 102.645 100.55 111.055 104.37 L 95.625 116.45 L 95.625 116.45 Z  M 128.495 73.75 C 140.845 81.24 145.525 89.62 141.335 96.86 C 137.105 104.17 125.325 107.68 118.425 103.68 C 117.535 103.16 116.665 102.69 115.825 102.25 C 115.425 102.01 108.145 97.74 100.535 97 L 128.495 73.75 L 128.495 73.75 Z " fill="rgb(45,45,48)"/><path d=" M 48.705 210.76 C 44.345 205.68 36.855 195 35.655 180.45 C 35.425 177.69 35.495 175.01 35.765 172.44 C 25.405 167.44 15.085 166.7 12.925 167.84 C 10.425 170.51 4.015 194.15 16.035 211.62 C 23.195 222.02 33.505 226.84 39.015 228.79 C 47.585 231.82 53.975 231.43 55.785 230.19 C 57.145 229.25 58.975 225.77 59.915 220.32 C 56.225 218.24 52.305 214.94 48.705 210.76 Z  M 41.775 217.31 C 41.545 218.21 40.735 218.81 39.835 218.81 C 39.675 218.81 39.505 218.79 39.335 218.75 C 30.685 216.54 21.665 195.94 20.665 193.6 C 20.235 192.58 20.705 191.41 21.715 190.97 C 22.725 190.54 23.905 191.01 24.345 192.02 C 27.825 200.16 35.245 213.56 40.335 214.86 C 41.395 215.15 42.045 216.24 41.775 217.31 Z " fill="rgb(150,150,152)"/><path d=" M 40.325 214.87 C 35.245 213.57 27.825 200.17 24.335 192.03 C 23.895 191.02 22.725 190.54 21.705 190.98 C 20.685 191.41 20.215 192.59 20.655 193.61 C 21.655 195.95 30.675 216.55 39.325 218.76 C 39.495 218.8 39.655 218.82 39.825 218.82 C 40.715 218.82 41.535 218.22 41.765 217.32 C 42.045 216.24 41.395 215.15 40.325 214.87 Z " fill="rgb(45,45,48)"/><path d=" M 67.865 215.76 C 73.055 215.33 88.675 197.87 86.895 176.24 C 85.165 155.12 65.615 140.49 61.725 140.36 C 58.235 141.43 40.895 158.75 42.635 179.88 C 43.665 192.46 50.215 201.77 54.015 206.2 C 59.935 213.09 65.695 215.93 67.865 215.76 Z  M 59.295 197.66 C 52.895 191.44 55.315 169.08 55.615 166.55 C 55.745 165.45 56.735 164.68 57.835 164.8 C 58.935 164.93 59.715 165.92 59.585 167.02 C 58.555 175.82 58.315 191.13 62.085 194.79 C 62.875 195.56 62.895 196.83 62.125 197.62 C 61.735 198.02 61.215 198.23 60.695 198.23 C 60.185 198.23 59.675 198.04 59.295 197.66 Z " fill="rgb(255,229,201)"/><path d=" M 62.115 197.62 C 62.885 196.83 62.865 195.56 62.075 194.79 C 58.315 191.13 58.545 175.82 59.575 167.02 C 59.705 165.92 58.915 164.93 57.825 164.8 C 56.725 164.68 55.735 165.46 55.605 166.55 C 55.305 169.08 52.885 191.44 59.285 197.66 C 59.675 198.04 60.175 198.23 60.675 198.23 C 61.205 198.23 61.725 198.02 62.115 197.62 Z " fill="rgb(45,45,48)"/><path d=" M 240.195 76.87 C 242.405 78 244.565 79.27 246.655 80.69 C 259.535 89.49 268.205 102.79 271.085 118.12 C 273.095 128.83 272.025 139.42 268.505 148.97 C 268.585 148.98 268.675 148.99 268.755 149.01 C 270.435 149.27 272.135 149.59 273.835 149.98 C 279.655 139.98 282.075 128.28 279.855 116.48 C 276.105 96.51 260.145 81.61 240.195 76.87 Z " fill="rgb(252,180,95)"/><path d=" M 264.205 119.41 C 261.675 105.92 254.035 94.22 242.705 86.47 C 234.055 80.56 224.055 77.48 213.805 77.48 C 210.615 77.48 207.415 77.78 204.215 78.38 C 190.725 80.91 179.025 88.55 171.275 99.88 C 163.525 111.21 160.655 124.88 163.185 138.38 C 166.725 157.23 180.205 171.74 197.175 177.54 C 204.375 174.91 215.925 173.1 225.095 173.61 C 225.725 167.75 227.125 162.69 229.515 160.05 C 238.505 150.18 250.735 147.9 261.255 148.3 C 264.885 139.44 266.095 129.49 264.205 119.41 Z  M 215.345 128.77 C 217.135 129.49 218.015 131.53 217.295 133.32 C 216.745 134.69 215.435 135.52 214.045 135.52 C 213.615 135.52 213.175 135.44 212.745 135.27 L 203.985 131.76 C 202.195 131.04 201.315 129 202.035 127.21 C 202.755 125.42 204.795 124.54 206.585 125.26 L 215.345 128.77 L 215.345 128.77 Z  M 182.295 106.41 C 183.025 104.62 185.075 103.76 186.865 104.5 L 193.965 107.41 C 195.755 108.14 196.615 110.19 195.875 111.98 C 195.325 113.33 194.015 114.15 192.635 114.15 C 192.195 114.15 191.745 114.07 191.305 113.89 L 184.205 110.98 C 182.415 110.24 181.565 108.2 182.295 106.41 Z  M 191.735 135.74 C 193.665 135.57 195.355 137.01 195.515 138.94 L 196.445 150.07 C 196.605 152 195.175 153.69 193.245 153.85 C 193.145 153.86 193.045 153.86 192.945 153.86 C 191.145 153.86 189.615 152.48 189.465 150.65 L 188.535 139.52 C 188.375 137.59 189.805 135.9 191.735 135.74 Z  M 223.075 157.11 L 217.295 164.75 C 216.605 165.66 215.565 166.14 214.505 166.14 C 213.765 166.14 213.025 165.91 212.395 165.43 C 210.855 164.26 210.545 162.07 211.715 160.53 L 217.495 152.89 C 218.665 151.35 220.855 151.04 222.395 152.21 C 223.945 153.37 224.245 155.57 223.075 157.11 Z  M 224.025 109.32 C 223.895 111.16 222.355 112.57 220.535 112.57 C 220.455 112.57 220.365 112.57 220.285 112.56 C 218.355 112.42 216.905 110.75 217.045 108.82 L 217.575 101.39 C 217.715 99.46 219.385 98.02 221.315 98.15 C 223.245 98.29 224.695 99.96 224.555 101.89 L 224.025 109.32 L 224.025 109.32 Z  M 232.165 103.42 C 233.025 101.69 235.125 100.98 236.855 101.85 L 243.515 105.17 C 245.245 106.03 245.945 108.13 245.085 109.86 C 244.475 111.09 243.235 111.8 241.945 111.8 C 241.425 111.8 240.885 111.68 240.385 111.43 L 233.725 108.11 C 232.015 107.25 231.305 105.15 232.165 103.42 Z  M 246.705 131.92 L 244.395 144.34 C 244.085 146.02 242.615 147.2 240.955 147.2 C 240.745 147.2 240.525 147.18 240.305 147.14 C 238.405 146.79 237.155 144.96 237.505 143.06 L 239.815 130.64 C 240.165 128.74 241.995 127.48 243.895 127.84 C 245.805 128.19 247.055 130.02 246.705 131.92 Z " fill="rgb(150,150,152)"/><path d=" M 222.395 152.21 C 220.855 151.04 218.655 151.35 217.495 152.89 L 211.715 160.53 C 210.545 162.07 210.855 164.27 212.395 165.43 C 213.025 165.91 213.765 166.14 214.505 166.14 C 215.565 166.14 216.605 165.66 217.295 164.75 L 223.075 157.11 C 224.245 155.57 223.945 153.37 222.395 152.21 Z " fill="rgb(45,45,48)"/><path d=" M 202.045 127.21 C 201.325 129 202.195 131.04 203.995 131.76 L 212.755 135.27 C 213.185 135.44 213.625 135.52 214.055 135.52 C 215.445 135.52 216.755 134.69 217.305 133.32 C 218.025 131.53 217.155 129.49 215.355 128.77 L 206.595 125.26 C 204.795 124.54 202.765 125.41 202.045 127.21 Z " fill="rgb(45,45,48)"/><path d=" M 192.955 153.86 C 193.055 153.86 193.155 153.86 193.255 153.85 C 195.185 153.69 196.615 152 196.455 150.07 L 195.525 138.94 C 195.365 137.01 193.675 135.58 191.745 135.74 C 189.815 135.9 188.385 137.59 188.545 139.52 L 189.475 150.65 C 189.625 152.48 191.155 153.86 192.955 153.86 Z " fill="rgb(45,45,48)"/><path d=" M 243.905 127.84 C 242.005 127.48 240.175 128.74 239.825 130.64 L 237.515 143.06 C 237.165 144.96 238.415 146.79 240.315 147.14 C 240.535 147.18 240.745 147.2 240.965 147.2 C 242.615 147.2 244.085 146.02 244.405 144.34 L 246.715 131.92 C 247.055 130.02 245.805 128.19 243.905 127.84 Z " fill="rgb(45,45,48)"/><path d=" M 221.315 98.15 C 219.375 98.02 217.715 99.46 217.575 101.39 L 217.045 108.82 C 216.905 110.75 218.355 112.42 220.285 112.56 C 220.375 112.57 220.455 112.57 220.535 112.57 C 222.355 112.57 223.885 111.16 224.025 109.32 L 224.555 101.89 C 224.695 99.97 223.245 98.29 221.315 98.15 Z " fill="rgb(45,45,48)"/><path d=" M 241.965 111.8 C 243.255 111.8 244.485 111.09 245.105 109.86 C 245.965 108.13 245.265 106.03 243.535 105.17 L 236.875 101.85 C 235.145 100.99 233.045 101.69 232.185 103.42 C 231.325 105.15 232.025 107.25 233.755 108.11 L 240.415 111.43 C 240.905 111.68 241.435 111.8 241.965 111.8 Z " fill="rgb(45,45,48)"/><path d=" M 191.305 113.88 C 191.735 114.06 192.185 114.14 192.635 114.14 C 194.015 114.14 195.325 113.32 195.875 111.97 C 196.605 110.18 195.755 108.14 193.965 107.4 L 186.865 104.49 C 185.075 103.76 183.035 104.62 182.295 106.4 C 181.565 108.19 182.415 110.23 184.205 110.97 L 191.305 113.88 L 191.305 113.88 Z " fill="rgb(45,45,48)"/><path d=" M 291.225 183.7 C 291.495 173.61 290.735 165.79 290.185 163.85 C 287.695 161.57 273.545 155.26 259.175 155.24 C 259.155 155.24 259.135 155.24 259.115 155.24 C 248.655 155.24 240.435 158.44 234.695 164.74 C 233.225 166.35 232.375 170.08 231.995 174.58 C 233.945 175.09 235.605 175.78 236.825 176.7 C 249.675 186.44 251.915 201.87 251.405 213.55 C 259.235 219.33 264.675 224.18 266.065 228.74 C 266.085 228.64 266.105 228.54 266.125 228.44 C 266.555 225.86 269.435 222.67 277.555 214.2 C 281.325 210.27 285.225 206.21 287.515 203.29 C 288.365 202.21 289.715 201.78 290.975 202.04 L 291.795 198.06 C 290.775 197.43 290.095 196.32 290.095 195.04 C 290.095 193.25 291.415 191.78 293.135 191.53 L 294.025 187.2 C 292.385 186.88 291.175 185.43 291.225 183.7 Z  M 284.445 170.19 C 284.085 170.36 275.345 174.39 260.615 175.92 C 258.605 176.13 256.725 176.22 254.975 176.22 C 243.585 176.22 237.735 172.38 237.455 172.2 C 236.535 171.58 236.295 170.34 236.915 169.42 C 237.535 168.51 238.765 168.26 239.685 168.87 C 239.825 168.96 246.735 173.34 260.205 171.94 C 274.265 170.48 282.665 166.61 282.745 166.57 C 283.745 166.1 284.935 166.53 285.405 167.53 C 285.875 168.53 285.445 169.72 284.445 170.19 Z " fill="rgb(255,229,201)"/><path d=" M 282.745 166.57 C 282.665 166.61 274.265 170.49 260.205 171.94 C 246.735 173.34 239.825 168.96 239.685 168.87 C 238.765 168.26 237.535 168.5 236.915 169.42 C 236.295 170.34 236.535 171.58 237.455 172.2 C 237.735 172.39 243.585 176.22 254.975 176.22 C 256.725 176.22 258.605 176.13 260.615 175.92 C 275.335 174.39 284.075 170.36 284.445 170.19 C 285.445 169.72 285.875 168.53 285.405 167.53 C 284.935 166.53 283.745 166.1 282.745 166.57 Z " fill="rgb(45,45,48)"/><path d=" M 196.255 185.66 C 195.045 186.89 192.515 191.29 190.055 195.54 C 182.915 207.93 177.355 216.98 171.665 219.29 C 171.765 219.3 171.865 219.31 171.965 219.32 C 174.575 219.52 178.015 222.1 187.175 229.43 C 191.925 233.23 197.305 237.53 200.335 239.21 C 205.715 242.2 233.645 239.49 238.465 237.49 C 240.505 234.83 245.535 220.15 244.255 205.82 C 243.325 195.37 239.395 187.45 232.585 182.29 C 226.945 178.01 199.725 182.23 196.255 185.66 Z  M 234.385 233.05 C 234.065 233.23 233.725 233.32 233.375 233.32 C 232.685 233.32 232.015 232.97 231.645 232.33 C 231.445 231.98 226.635 223.64 223.795 209.12 C 220.875 194.22 225.235 186.06 225.425 185.72 C 225.955 184.75 227.175 184.4 228.145 184.93 C 229.105 185.46 229.465 186.67 228.935 187.64 C 228.865 187.77 225.125 195.05 227.725 208.35 C 230.435 222.22 235.055 230.24 235.105 230.32 C 235.665 231.27 235.335 232.49 234.385 233.05 Z " fill="rgb(252,180,95)"/><path d=" M 227.725 208.35 C 225.125 195.05 228.865 187.77 228.935 187.64 C 229.465 186.67 229.105 185.46 228.145 184.93 C 227.175 184.4 225.965 184.75 225.425 185.72 C 225.235 186.06 220.885 194.22 223.795 209.12 C 226.635 223.65 231.445 231.99 231.645 232.33 C 232.015 232.97 232.685 233.32 233.375 233.32 C 233.715 233.32 234.065 233.23 234.385 233.05 C 235.335 232.49 235.665 231.27 235.105 230.31 C 235.055 230.24 230.445 222.22 227.725 208.35 Z " fill="rgb(45,45,48)"/><circle vector-effect="non-scaling-stroke" cx="61.06476907421643" cy="80.30997802734373" r="3.5600000000000023" fill="rgb(45,45,48)"/><path d=" M 290.085 195.05 C 290.085 196.33 290.765 197.45 291.785 198.07 C 292.325 198.4 292.965 198.61 293.645 198.61 C 295.615 198.61 297.205 197.02 297.205 195.05 C 297.205 193.08 295.615 191.49 293.645 191.49 C 293.465 191.49 293.295 191.52 293.125 191.54 C 291.415 191.8 290.085 193.26 290.085 195.05 Z " fill="rgb(45,45,48)"/></g></g></g></g></svg>