<?xml version="1.0" encoding="UTF-8" standalone="no"?><!-- Generator: Gravit.io --><svg xmlns="http://www.w3.org/2000/svg" xmlns:xlink="http://www.w3.org/1999/xlink" style="isolation:isolate" viewBox="0 0 300 260" width="300pt" height="260pt"><defs><clipPath id="_clipPath_f9ebmZkyu5ITXvTdyiOPzfDIYj6PKhdU"><rect width="300" height="260"/></clipPath></defs><g clip-path="url(#_clipPath_f9ebmZkyu5ITXvTdyiOPzfDIYj6PKhdU)"><clipPath id="_clipPath_vPjqfgb9RekuJIk81snAqQ9BHIVt7R4I"><rect x="0" y="0" width="300" height="260" transform="matrix(1,0,0,1,0,0)" fill="rgb(255,255,255)"/></clipPath><g clip-path="url(#_clipPath_vPjqfgb9RekuJIk81snAqQ9BHIVt7R4I)"><g><rect x="0" y="0" width="300" height="260" transform="matrix(1,0,0,1,0,0)" fill="none"/><g><path d=" M 118.473 41.155 L 111.151 31.159 L 99.756 31.37 L 105.458 42.782 L 118.473 41.155 L 118.473 41.155 Z " fill="rgb(252,180,95)"/><path d=" M 149.148 19.527 L 141.826 9.541 L 130.431 9.742 L 136.133 21.163 L 149.148 19.527 L 149.148 19.527 Z " fill="rgb(252,180,95)"/><path d=" M 115.874 36.803 L 110.104 31.159 L 98.835 31.159 L 110.104 22.847 L 118.473 22.847 L 119.782 29.055 L 115.874 36.803 L 115.874 36.803 Z " fill="rgb(252,180,95)"/><path d=" M 148.111 16.514 L 142.33 10.87 L 130.431 6.767 L 142.33 2.558 L 150.7 2.558 L 152.019 8.766 L 148.111 16.514 L 148.111 16.514 Z " fill="rgb(252,180,95)"/><path d=" M 113.149 36.717 L 110.792 32.958 C 107.446 33.292 104.944 33.35 103.063 33.235 L 105.72 37.607 C 105.808 37.75 105.866 37.903 105.914 38.056 C 106.651 37.989 107.437 37.932 108.29 37.874 C 110.288 37.74 111.869 37.31 113.149 36.717 Z " fill="none"/><path d=" M 113.353 29.772 C 113.391 29.82 113.43 29.868 113.469 29.916 L 116.281 34.412 C 117.3 33.225 117.843 31.953 118.124 30.978 C 118.725 28.854 118.493 26.931 117.969 25.678 L 113.285 29.677 C 113.304 29.705 113.324 29.744 113.353 29.772 Z " fill="none"/><path d=" M 143 16.744 L 141.39 12.621 C 138.044 12.343 135.571 11.942 133.748 11.483 L 135.542 16.256 C 135.6 16.409 135.629 16.571 135.649 16.725 C 136.386 16.791 137.161 16.878 138.015 16.983 C 139.993 17.222 141.632 17.088 143 16.744 Z " fill="none"/><path d=" M 144.513 10 C 144.532 10.038 144.561 10.076 144.571 10.115 L 146.491 15.041 C 147.723 14.065 148.489 12.917 148.945 11.999 C 149.934 10.019 150.06 8.087 149.788 6.767 L 144.435 9.837 C 144.474 9.895 144.493 9.942 144.513 10 Z " fill="none"/><path d=" M 79.594 78.959 C 79.594 81.016 79.08 82.948 78.178 84.651 L 86.877 84.651 C 90.058 84.651 92.647 82.097 92.647 78.959 C 92.647 75.822 90.058 73.268 86.877 73.268 L 78.178 73.268 C 79.08 74.97 79.594 76.903 79.594 78.959 Z " fill="rgb(161,172,208)"/><path d=" M 46.892 149.602 C 54.282 149.602 60.294 143.672 60.294 136.383 C 60.294 129.093 54.282 123.163 46.892 123.163 C 39.502 123.163 33.489 129.093 33.489 136.383 C 33.489 143.672 39.502 149.602 46.892 149.602 Z " fill="rgb(255,229,201)"/><path d=" M 13.909 205.371 C 15.431 206.987 17.497 207.887 19.737 207.887 L 65.037 207.887 L 71.166 207.887 C 72.834 207.887 74.415 207.38 75.743 206.452 C 68.644 197.307 64.542 186.708 64.542 179.352 C 64.542 177.506 66.065 176.004 67.937 176.004 L 77.664 176.004 L 76.839 162.382 C 76.723 160.536 78.158 158.948 80.03 158.843 C 81.902 158.738 83.512 160.144 83.618 161.99 L 84.336 173.833 C 89.127 169.174 95.334 163.415 101.87 158.087 L 91.483 93.279 L 79.206 93.423 L 79.128 94.025 C 79.652 95.384 79.982 96.828 80.069 98.349 L 82.561 139.769 C 82.668 141.615 81.242 143.203 79.371 143.308 C 77.499 143.423 75.889 142.007 75.782 140.161 L 73.29 98.732 C 73.047 94.58 69.566 91.328 65.357 91.328 L 46.096 91.328 L 27.68 91.328 C 23.558 91.328 20.077 94.504 19.757 98.56 L 11.814 199.431 C 11.649 201.65 12.396 203.754 13.909 205.371 Z  M 75.666 150.473 C 75.996 148.235 78.11 146.675 80.389 147.01 C 82.658 147.335 84.239 149.421 83.9 151.669 C 83.57 153.907 81.456 155.466 79.177 155.131 C 76.898 154.797 75.336 152.711 75.666 150.473 Z  M 46.892 119.327 C 56.425 119.327 64.174 126.979 64.174 136.373 C 64.174 145.776 56.415 153.419 46.892 153.419 C 37.359 153.419 29.61 145.767 29.61 136.373 C 29.61 126.979 37.368 119.327 46.892 119.327 Z  M 23.801 198.063 L 66.831 198.063 C 67.898 198.063 68.771 198.924 68.771 199.976 C 68.771 201.028 67.898 201.889 66.831 201.889 L 23.801 201.889 C 22.734 201.889 21.861 201.028 21.861 199.976 C 21.861 198.924 22.724 198.063 23.801 198.063 Z " fill="rgb(161,172,208)"/><path d=" M 19.737 214.583 L 61.206 214.583 L 71.166 214.583 L 83.395 214.583 C 86.867 217.605 90.746 220.179 94.965 222.025 C 87.275 222.781 79.303 223.498 77.392 223.163 C 75.375 221.307 71.99 220.456 69.595 220.447 C 69.585 220.447 69.566 220.447 69.556 220.447 C 67.607 220.447 66.075 220.963 65.114 221.958 C 64.542 222.551 64.203 223.288 64.086 224.081 C 57.307 226.167 52.507 232.442 53.079 235.79 C 53.477 238.114 56.26 240.219 58.723 241.424 C 60.236 242.161 62.952 243.194 66.288 243.28 C 66.598 243.863 67.103 244.466 67.946 244.973 C 68.984 245.585 70.022 245.834 71.021 245.834 C 74.551 245.834 77.732 242.716 79.332 241.128 C 80.079 240.697 82.387 240.267 85.509 239.846 C 86.188 241.348 87.362 242.83 88.535 243.959 C 89.738 245.126 91.997 246.944 95.13 248.053 C 95.237 248.704 95.528 249.431 96.168 250.167 C 99.737 254.233 105.604 251.334 108.203 250.024 C 110.55 249.536 124.282 252.702 134.339 255.017 C 150.176 258.671 157.547 260.202 161.164 260.202 C 163.24 260.202 164.074 259.695 164.558 258.796 C 164.568 258.786 164.568 258.777 164.578 258.757 C 164.675 258.566 166.993 254.013 167.584 249.364 C 168.04 245.805 162.59 243.93 133.292 237.588 C 130.77 237.043 128.074 236.46 125.466 235.876 C 131.847 235.053 134.3 234.298 135.202 233.15 L 166.886 233.15 C 168.758 233.15 170.28 231.648 170.28 229.802 L 170.28 223.087 C 171.89 222.503 173.452 221.814 174.974 221.04 L 207.395 221.04 C 203.409 222.283 199.889 224.12 197.202 226.023 C 193.527 224.158 188.794 222.589 185.128 224.273 C 183.305 225.105 182.093 226.454 181.608 228.166 C 180.589 231.753 183.14 235.646 183.441 236.077 C 183.761 236.546 184.275 236.852 184.837 236.909 L 193.003 237.799 C 196.291 243.94 204.573 252.894 215.764 254.826 C 217.578 255.141 219.343 255.275 221.03 255.275 C 227.606 255.275 233.017 253.219 235.985 251.793 C 239.67 250.024 242.657 247.776 244.441 245.547 C 247.933 246.8 251.793 247.575 255.769 247.575 C 256.457 247.575 257.156 247.556 257.854 247.498 C 267.591 246.819 275.863 240.879 280.392 235.618 C 284.417 236.555 289.392 236.938 292.534 234.441 C 294.096 233.198 294.949 231.6 294.998 229.831 C 295.104 226.109 291.671 222.943 291.283 222.589 C 290.856 222.207 290.294 222.034 289.722 222.111 L 281.585 223.192 C 276.891 218.017 266.669 211.311 255.323 212.096 C 254.324 212.163 253.344 212.287 252.384 212.449 C 252.452 211.713 252.51 211.005 252.53 210.316 C 256.263 208.575 260.405 205.811 261.268 201.918 C 261.704 199.985 261.355 198.216 260.269 196.8 C 257.999 193.825 253.315 193.461 252.782 193.433 C 252.219 193.395 251.657 193.615 251.259 194.016 L 245.586 199.871 C 241.619 199.211 235.907 199.277 230.185 200.875 L 230.185 128.242 C 230.185 126.396 228.663 124.894 226.791 124.894 C 226.791 124.894 226.791 124.894 226.791 124.894 C 224.919 124.894 223.397 126.396 223.397 128.242 L 223.397 203.601 C 221.506 204.625 219.702 205.868 218.043 207.37 C 215.745 209.455 213.873 211.837 212.38 214.344 L 184.73 214.344 C 196.397 204.108 203.467 188.985 203.467 179.342 C 203.467 178.214 202.895 177.219 202.022 176.607 L 202.022 117.108 C 202.022 116.055 201.149 115.194 200.083 115.194 L 166.75 115.194 L 166.75 100.932 C 166.75 96.79 170.164 93.413 174.373 93.413 L 178.359 93.413 C 180.231 93.413 181.753 91.911 181.753 90.065 L 181.753 45.393 L 208.268 45.393 L 208.268 90.065 C 208.268 91.911 209.79 93.413 211.662 93.413 L 215.764 93.413 C 219.964 93.413 223.387 96.78 223.387 100.932 L 223.387 110.316 C 223.387 112.162 224.91 113.664 226.781 113.664 C 226.781 113.664 226.781 113.664 226.781 113.664 C 228.653 113.664 230.176 112.162 230.176 110.316 L 230.176 100.932 C 230.176 93.098 223.717 86.717 215.764 86.717 L 215.056 86.717 L 215.056 45.393 L 220.061 45.393 C 221.932 45.393 223.455 43.891 223.455 42.045 L 223.455 35.713 C 223.455 29.514 218.344 24.463 212.05 24.463 L 177.098 24.463 C 170.814 24.463 165.693 29.504 165.693 35.713 L 165.693 42.045 C 165.693 43.891 167.216 45.393 169.087 45.393 L 174.984 45.393 L 174.984 72.369 C 164.791 39.682 154.56 8.689 153.483 5.447 C 153.173 4.346 152.649 3.38 151.922 2.644 C 147.626 -1.68 137.792 0.281 130.722 4.308 C 128.404 5.628 128.2 7.082 128.433 8.068 C 128.472 8.249 128.53 8.488 128.695 8.785 C 128.705 8.957 128.734 9.139 128.802 9.311 L 131.488 16.476 C 127.522 16.428 126.212 17.193 125.64 18.446 C 125.213 19.384 125.466 20.35 125.979 21.039 L 135.222 48.913 C 127.745 35.225 122.275 25.382 121.344 23.698 C 120.83 22.674 120.141 21.823 119.278 21.23 C 114.245 17.767 104.944 21.488 98.757 26.74 C 96.73 28.462 96.798 29.925 97.215 30.853 C 97.293 31.016 97.39 31.255 97.603 31.504 C 97.651 31.676 97.71 31.838 97.807 32.001 L 101.793 38.554 C 97.894 39.233 96.74 40.228 96.41 41.557 C 96.168 42.562 96.594 43.461 97.225 44.044 L 159.991 156.758 L 159.991 156.968 C 148.76 148.694 137.026 141.854 129.558 142.505 C 123.691 143.012 115.864 147.508 107.99 153.333 L 97.739 89.376 C 97.584 88.429 97.04 87.645 96.284 87.138 C 98.243 84.957 99.436 82.097 99.436 78.959 C 99.436 72.129 93.801 66.572 86.877 66.572 L 67.035 66.572 L 46.096 66.572 L 26.254 66.572 C 19.33 66.572 13.695 72.129 13.695 78.959 C 13.695 82.671 15.363 86 18.001 88.267 C 15.189 90.697 13.298 94.15 12.987 98.053 L 5.045 198.924 C 4.724 202.951 6.14 206.959 8.924 209.915 C 11.707 212.88 15.654 214.583 19.737 214.583 Z  M 27.68 91.337 L 46.096 91.337 L 65.367 91.337 C 69.576 91.337 73.057 94.58 73.3 98.741 L 75.792 140.171 C 75.899 142.017 77.509 143.423 79.38 143.318 C 81.252 143.213 82.678 141.625 82.571 139.778 L 80.079 98.359 C 79.991 96.838 79.662 95.393 79.138 94.035 L 79.215 93.432 L 91.493 93.289 L 101.88 158.097 C 95.343 163.415 89.137 169.184 84.346 173.842 L 83.628 162 C 83.512 160.154 81.911 158.757 80.04 158.853 C 78.168 158.967 76.742 160.546 76.849 162.392 L 77.673 176.014 L 67.946 176.014 C 66.075 176.014 64.552 177.515 64.552 179.362 C 64.552 186.718 68.654 197.317 75.753 206.461 C 74.425 207.389 72.844 207.896 71.176 207.896 L 65.047 207.896 L 19.747 207.896 C 17.507 207.896 15.441 207.007 13.918 205.38 C 12.396 203.754 11.659 201.65 11.833 199.45 L 19.776 98.579 C 20.077 94.513 23.558 91.337 27.68 91.337 Z  M 26.264 84.641 C 23.083 84.641 20.494 82.087 20.494 78.95 C 20.494 75.812 23.083 73.258 26.264 73.258 L 46.106 73.258 L 67.044 73.258 C 70.225 73.258 72.815 75.812 72.815 78.95 C 72.815 82.087 70.225 84.641 67.044 84.641 L 65.376 84.641 L 46.096 84.641 L 27.68 84.641 L 26.264 84.641 L 26.264 84.641 Z  M 92.647 78.959 C 92.647 82.097 90.058 84.651 86.877 84.651 L 78.178 84.651 C 79.08 82.948 79.594 81.016 79.594 78.959 C 79.594 76.903 79.08 74.97 78.178 73.268 L 86.877 73.268 C 90.058 73.268 92.647 75.812 92.647 78.959 Z  M 105.73 37.597 L 103.073 33.225 C 104.954 33.34 107.456 33.292 110.802 32.948 L 113.159 36.707 C 111.879 37.3 110.288 37.721 108.3 37.855 C 107.437 37.913 106.661 37.97 105.924 38.037 C 105.875 37.894 105.817 37.74 105.73 37.597 Z  M 117.959 25.678 C 118.483 26.931 118.716 28.854 118.114 30.978 C 117.833 31.963 117.29 33.235 116.272 34.412 L 113.459 29.916 C 113.43 29.868 113.382 29.82 113.343 29.772 C 113.314 29.744 113.294 29.705 113.265 29.667 C 113.265 29.657 113.256 29.657 113.256 29.657 C 113.197 29.59 113.13 29.524 113.052 29.466 C 113.033 29.447 113.013 29.428 112.984 29.409 C 112.907 29.351 112.819 29.294 112.732 29.246 C 112.713 29.237 112.693 29.217 112.664 29.208 C 112.577 29.17 112.489 29.131 112.393 29.103 C 112.363 29.093 112.334 29.083 112.305 29.074 C 112.218 29.055 112.131 29.036 112.043 29.026 C 112.005 29.017 111.966 29.017 111.927 29.007 C 111.84 28.997 111.762 29.007 111.675 29.007 C 111.636 29.007 111.607 29.007 111.568 29.007 C 107.737 29.447 103.761 29.524 101.715 29.256 C 107.243 24.76 114.293 22.474 117.038 24.358 C 117.387 24.597 117.707 25.066 117.959 25.678 Z  M 108.542 41.682 C 117.823 41.089 120.82 35.263 121.732 32.384 C 128.094 43.872 135.086 56.662 142.078 69.614 L 159.981 123.584 L 159.981 148.818 L 100.871 42.667 C 101.986 42.361 104.207 41.959 108.542 41.682 Z  M 137.54 20.78 C 146.772 21.89 150.807 16.705 152.242 14.046 C 159.399 35.799 167.71 61.779 174.984 85.483 L 174.984 86.717 L 174.392 86.717 C 166.45 86.717 159.981 93.088 159.981 100.932 L 159.981 111.282 L 129.82 20.35 C 130.974 20.254 133.224 20.264 137.54 20.78 Z  M 135.542 16.256 L 133.748 11.483 C 135.581 11.942 138.044 12.343 141.39 12.621 L 143 16.744 C 141.622 17.088 139.993 17.222 138.015 16.983 C 137.161 16.878 136.386 16.801 135.649 16.725 C 135.629 16.571 135.6 16.409 135.542 16.256 Z  M 148.954 12.009 C 148.498 12.927 147.723 14.075 146.501 15.051 L 144.58 10.124 C 144.561 10.086 144.542 10.048 144.522 10.009 C 144.493 9.962 144.474 9.904 144.445 9.856 C 144.435 9.847 144.425 9.837 144.425 9.828 C 144.396 9.77 144.348 9.722 144.319 9.675 C 144.28 9.627 144.251 9.579 144.202 9.531 C 144.154 9.483 144.105 9.445 144.057 9.397 C 144.008 9.359 143.969 9.321 143.921 9.282 C 143.872 9.244 143.814 9.215 143.766 9.187 C 143.708 9.158 143.659 9.12 143.601 9.091 C 143.543 9.062 143.485 9.043 143.426 9.024 C 143.368 9.005 143.31 8.976 143.252 8.967 C 143.184 8.948 143.116 8.938 143.038 8.928 C 142.99 8.919 142.951 8.909 142.903 8.909 C 139.062 8.641 135.134 7.991 133.176 7.35 C 139.45 3.935 146.811 2.979 149.158 5.332 C 149.439 5.619 149.662 6.135 149.798 6.776 C 150.07 8.096 149.943 10.028 148.954 12.009 Z  M 165.945 217.452 C 164.491 217.864 163.492 219.174 163.492 220.667 L 163.492 226.463 L 135.978 226.463 C 135.949 225.115 135.823 223.651 135.542 222.235 C 134.882 218.906 129.675 218.629 103.858 221.145 L 103.858 220.686 C 103.955 219.146 102.966 217.72 101.434 217.271 C 84.898 212.421 73.746 193.681 71.68 182.7 L 196.339 182.7 C 194.244 193.758 182.849 212.631 165.945 217.452 Z  M 163.637 249.526 C 163.162 252.377 161.969 255.189 161.407 256.404 C 158.177 256.576 144.978 253.544 135.212 251.296 C 119.802 247.738 112.383 246.188 108.795 246.188 C 107.747 246.188 107.02 246.322 106.516 246.571 C 101.375 249.172 99.843 248.522 99.096 247.661 C 98.932 247.479 98.941 247.403 98.941 247.384 C 99.067 246.379 101.812 244.504 103.121 243.615 C 105.119 242.247 106.322 241.424 106.477 240.066 C 106.545 239.425 106.331 238.784 105.885 238.306 C 104.392 236.718 101.899 231.782 102.578 230.816 C 102.665 230.768 103.208 230.672 104.275 231.017 C 106.137 231.629 108.135 233.131 108.717 234.365 C 109.57 236.144 112.674 237.062 132.448 241.338 C 143.058 243.634 160.534 247.412 163.637 249.526 Z  M 88.778 237.464 C 89.049 236.402 93.278 232.939 98.747 232.939 C 98.776 232.939 98.796 232.939 98.825 232.939 C 99.387 235.465 101.007 238.124 102.093 239.655 C 101.725 239.922 101.288 240.219 100.929 240.468 C 99.31 241.577 97.428 242.859 96.245 244.39 C 91.416 242.63 88.71 238.478 88.778 237.464 Z  M 112.043 232.365 C 110.715 229.984 107.767 228.128 105.488 227.382 C 103.625 226.769 101.986 226.789 100.755 227.439 C 100.018 227.822 99.465 228.424 99.106 229.142 C 92.579 229.046 86.537 232.825 85.199 236.039 C 79.982 236.737 77.596 237.416 76.636 238.373 C 72.572 242.429 70.914 242.276 69.934 241.692 C 69.721 241.568 69.711 241.501 69.702 241.472 C 69.508 240.477 71.515 237.856 72.485 236.603 C 73.949 234.69 74.842 233.542 74.551 232.193 C 74.415 231.562 74.008 231.017 73.435 230.701 C 71.515 229.649 67.587 225.727 67.927 224.598 C 67.995 224.531 68.47 224.273 69.566 224.273 C 69.576 224.273 69.585 224.273 69.605 224.273 C 71.573 224.282 73.94 225.095 74.88 226.081 C 76.248 227.516 79.487 227.43 99.64 225.411 C 110.443 224.33 128.239 222.541 131.857 223.603 C 132.303 226.454 132.06 229.496 131.915 230.825 C 129.752 231.667 122.226 232.499 114.468 233.226 C 113.333 232.882 112.48 232.595 112.043 232.365 Z  M 65.027 227.783 C 66.365 230.003 68.732 232.031 70.245 233.159 C 69.983 233.523 69.663 233.944 69.391 234.288 C 68.198 235.838 66.821 237.636 66.181 239.463 C 61.051 239.272 57.162 236.163 56.91 235.168 C 56.823 234.059 59.79 229.448 65.027 227.783 Z  M 177.195 176.004 L 87.653 176.004 C 99.358 164.678 118.987 147.259 129.888 146.321 C 140.1 145.441 162.192 162.736 177.195 176.004 Z  M 220.691 210.192 C 226.413 204.988 234.452 203.324 240.514 203.324 C 242.579 203.324 244.412 203.515 245.848 203.831 C 246.507 203.974 247.205 203.773 247.671 203.286 L 253.403 197.364 C 254.654 197.584 256.419 198.13 257.175 199.115 C 257.427 199.44 257.728 200.004 257.476 201.105 C 257.01 203.199 254.217 205.467 249.824 207.332 C 249.106 207.638 248.641 208.346 248.65 209.121 C 248.747 215.042 246.633 223.919 240.494 229.993 C 236.266 225.536 230.03 221.508 222.815 220.045 C 224.958 217.242 228.1 214.277 232.707 211.713 C 233.638 211.196 233.968 210.029 233.444 209.101 C 232.92 208.183 231.737 207.858 230.796 208.375 C 224.716 211.761 220.885 215.817 218.47 219.509 C 216.957 219.442 215.454 219.509 213.98 219.662 C 215.444 216.333 217.597 213.004 220.691 210.192 Z  M 257.146 215.864 C 266.951 215.864 275.834 222.207 279.287 226.435 C 279.713 226.951 280.383 227.219 281.061 227.133 L 289.285 226.033 C 290.119 226.97 291.167 228.491 291.128 229.725 C 291.118 230.137 291.002 230.758 290.11 231.466 C 288.422 232.815 284.805 232.872 280.189 231.619 C 279.432 231.418 278.627 231.677 278.142 232.289 C 274.331 237.148 266.66 243.05 257.592 243.682 C 253.441 243.969 249.581 243.29 246.207 242.123 C 246.207 242.103 246.216 242.094 246.216 242.075 C 246.653 239.635 245.431 236.307 242.996 232.939 C 245.227 230.797 247.002 228.338 248.389 225.756 C 252.181 224.359 257.408 223.431 264.061 224.493 C 265.108 224.655 266.117 223.948 266.282 222.905 C 266.456 221.862 265.729 220.877 264.672 220.714 C 259.037 219.815 254.285 220.198 250.435 221.135 C 250.997 219.557 251.444 217.988 251.764 216.458 C 253.005 216.19 254.285 215.998 255.604 215.903 C 256.118 215.884 256.632 215.864 257.146 215.864 Z  M 234.288 248.359 C 230.981 249.947 224.27 252.415 216.433 251.057 C 206.163 249.278 198.463 240.391 196.029 235.206 C 195.747 234.604 195.156 234.183 194.477 234.106 L 186.234 233.207 C 185.681 232.145 184.992 230.424 185.351 229.18 C 185.468 228.788 185.729 228.214 186.767 227.736 C 188.736 226.836 192.256 227.64 196.426 229.945 C 197.115 230.328 197.959 230.261 198.579 229.783 C 203.477 225.975 212.36 222.082 221.321 223.632 C 235.073 226.014 242.977 238.105 242.395 241.415 C 242.143 242.811 239.466 245.872 234.288 248.359 Z  M 198.162 119.021 L 198.162 176.004 L 182.965 176.004 C 178.65 172.082 172.957 167.098 166.779 162.181 L 166.779 119.021 L 198.162 119.021 L 198.162 119.021 Z  M 172.511 35.713 C 172.511 33.206 174.577 31.159 177.127 31.159 L 212.079 31.159 C 214.62 31.159 216.695 33.197 216.695 35.713 L 216.695 38.697 L 211.691 38.697 L 178.378 38.697 L 172.501 38.697 L 172.501 35.713 L 172.511 35.713 L 172.511 35.713 Z " fill="rgb(66,66,69)"/><path d=" M 46.096 84.641 L 65.367 84.641 L 67.035 84.641 C 70.216 84.641 72.805 82.087 72.805 78.95 C 72.805 75.812 70.216 73.258 67.035 73.258 L 46.096 73.258 L 26.254 73.258 C 23.073 73.258 20.484 75.812 20.484 78.95 C 20.484 82.087 23.073 84.641 26.254 84.641 L 27.67 84.641 L 46.096 84.641 L 46.096 84.641 Z " fill="rgb(161,172,208)"/><path d=" M 46.892 153.429 C 56.425 153.429 64.174 145.776 64.174 136.383 C 64.174 126.979 56.415 119.336 46.892 119.336 C 37.359 119.336 29.61 126.989 29.61 136.383 C 29.61 145.786 37.368 153.429 46.892 153.429 Z  M 46.892 123.153 C 54.282 123.153 60.294 129.084 60.294 136.373 C 60.294 143.662 54.282 149.593 46.892 149.593 C 39.502 149.593 33.489 143.662 33.489 136.373 C 33.489 129.093 39.502 123.153 46.892 123.153 Z " fill="rgb(66,66,69)"/><path d=" M 23.801 201.889 L 66.831 201.889 C 67.898 201.889 68.771 201.028 68.771 199.976 C 68.771 198.924 67.898 198.063 66.831 198.063 L 23.801 198.063 C 22.734 198.063 21.861 198.924 21.861 199.976 C 21.861 201.028 22.724 201.889 23.801 201.889 Z " fill="rgb(66,66,69)"/><path d=" M 79.186 155.122 C 81.456 155.447 83.57 153.898 83.909 151.659 C 84.239 149.421 82.668 147.335 80.399 147.001 C 78.129 146.675 76.015 148.225 75.676 150.463 C 75.336 152.711 76.907 154.797 79.186 155.122 Z " fill="rgb(66,66,69)"/><path d=" M 159.991 123.584 L 142.088 69.614 C 135.096 56.662 128.103 43.872 121.741 32.384 C 120.83 35.263 117.833 41.089 108.552 41.682 C 104.217 41.959 101.996 42.361 100.881 42.667 L 159.991 148.818 L 159.991 123.584 L 159.991 123.584 Z " fill="rgb(252,180,95)"/><path d=" M 159.991 111.273 L 159.991 100.922 C 159.991 93.088 166.45 86.708 174.402 86.708 L 174.984 86.708 L 174.984 85.474 C 167.72 61.77 159.399 35.789 152.242 14.037 C 150.807 16.696 146.763 21.871 137.54 20.771 C 133.224 20.254 130.964 20.245 129.82 20.331 L 159.991 111.273 L 159.991 111.273 Z " fill="rgb(252,180,95)"/><path d=" M 223.416 110.316 L 223.416 100.932 C 223.416 96.79 220.002 93.413 215.793 93.413 L 211.691 93.413 C 209.819 93.413 208.297 91.911 208.297 90.065 L 208.297 45.393 L 181.773 45.393 L 181.773 90.065 C 181.773 91.911 180.25 93.413 178.378 93.413 L 174.392 93.413 C 170.193 93.413 166.77 96.78 166.77 100.932 L 166.77 115.194 L 200.102 115.194 C 201.169 115.194 202.042 116.055 202.042 117.108 L 202.042 176.626 C 202.914 177.228 203.487 178.223 203.487 179.362 C 203.487 189.004 196.417 204.127 184.75 214.363 L 212.399 214.363 C 213.893 211.866 215.764 209.484 218.063 207.389 C 219.721 205.887 221.525 204.644 223.416 203.62 L 223.416 128.261 C 223.416 126.415 224.939 124.913 226.81 124.913 C 226.81 124.913 226.81 124.913 226.81 124.913 L 226.81 122.943 C 226.791 122.943 226.762 122.952 226.743 122.952 C 224.832 122.952 223.29 121.431 223.29 119.547 C 223.29 117.662 224.832 116.141 226.743 116.141 C 226.762 116.141 226.791 116.151 226.81 116.151 L 226.81 113.673 C 226.81 113.673 226.81 113.673 226.81 113.673 C 224.929 113.664 223.416 112.162 223.416 110.316 Z  M 217.413 205.103 C 217.403 205.103 217.403 205.103 217.394 205.103 C 216.327 205.103 215.464 204.261 215.454 203.209 L 215.066 164.276 C 215.056 163.224 215.919 162.354 216.986 162.344 C 216.996 162.344 216.996 162.344 217.006 162.344 C 218.072 162.344 218.936 163.186 218.945 164.238 L 219.333 203.171 C 219.343 204.233 218.48 205.093 217.413 205.103 Z " fill="rgb(150,150,152)"/><path d=" M 166.779 119.021 L 166.779 162.181 C 172.957 167.098 178.65 172.082 182.965 176.004 L 198.162 176.004 L 198.162 119.021 L 166.779 119.021 L 166.779 119.021 Z " fill="rgb(255,229,201)"/><path d=" M 211.691 38.697 L 216.695 38.697 L 216.695 35.713 C 216.695 33.206 214.63 31.159 212.079 31.159 L 177.127 31.159 C 174.586 31.159 172.511 33.197 172.511 35.713 L 172.511 38.697 L 178.388 38.697 L 211.691 38.697 L 211.691 38.697 Z " fill="rgb(254,204,146)"/><path d=" M 217.006 162.344 C 216.996 162.344 216.996 162.344 216.986 162.344 C 215.919 162.354 215.056 163.224 215.066 164.276 L 215.454 203.209 C 215.464 204.261 216.327 205.103 217.394 205.103 C 217.403 205.103 217.403 205.103 217.413 205.103 C 218.48 205.093 219.343 204.223 219.333 203.171 L 219.069 176.656 L 218.945 164.238 C 218.936 163.186 218.072 162.344 217.006 162.344 Z " fill="rgb(66,66,69)"/><path d=" M 250.425 221.145 C 254.275 220.217 259.027 219.834 264.662 220.724 C 265.719 220.896 266.437 221.872 266.272 222.914 C 266.097 223.957 265.098 224.665 264.051 224.502 C 257.398 223.441 252.171 224.378 248.379 225.765 C 246.992 228.338 245.217 230.797 242.987 232.949 C 245.431 236.307 246.643 239.645 246.207 242.084 C 246.207 242.094 246.197 242.113 246.197 242.132 C 249.572 243.309 253.432 243.978 257.582 243.691 C 266.65 243.06 274.321 237.158 278.133 232.298 C 278.618 231.686 279.422 231.418 280.179 231.629 C 284.795 232.872 288.403 232.815 290.1 231.476 C 290.992 230.768 291.109 230.137 291.118 229.735 C 291.157 228.501 290.119 226.98 289.276 226.042 L 281.052 227.143 C 280.383 227.229 279.704 226.97 279.277 226.444 C 275.824 222.216 266.941 215.874 257.136 215.874 C 256.622 215.874 256.108 215.893 255.585 215.931 C 254.266 216.027 252.985 216.218 251.744 216.486 C 251.434 218.007 250.988 219.576 250.425 221.145 Z " fill="rgb(252,180,95)"/><path d=" M 213.999 219.662 C 215.473 219.509 216.967 219.442 218.489 219.509 C 220.904 215.817 224.735 211.761 230.816 208.375 C 231.747 207.858 232.93 208.183 233.463 209.101 C 233.987 210.02 233.657 211.187 232.726 211.713 C 228.12 214.277 224.977 217.242 222.834 220.045 C 230.05 221.508 236.285 225.536 240.514 229.993 C 246.653 223.919 248.757 215.042 248.67 209.121 C 248.66 208.346 249.126 207.638 249.843 207.332 C 254.237 205.467 257.03 203.199 257.495 201.105 C 257.738 200.004 257.437 199.44 257.194 199.115 C 256.438 198.13 254.673 197.584 253.422 197.364 L 247.69 203.286 C 247.225 203.773 246.527 203.974 245.867 203.831 C 244.432 203.515 242.589 203.324 240.533 203.324 C 234.472 203.324 226.432 204.998 220.71 210.192 C 217.597 213.004 215.444 216.333 213.999 219.662 Z " fill="rgb(252,180,95)"/><path d=" M 242.386 241.424 C 242.977 238.114 235.073 226.023 221.312 223.641 C 212.36 222.092 203.467 225.985 198.57 229.792 C 197.949 230.271 197.105 230.337 196.417 229.955 C 192.246 227.65 188.726 226.836 186.757 227.745 C 185.72 228.223 185.448 228.797 185.341 229.19 C 184.983 230.424 185.671 232.155 186.224 233.217 L 194.467 234.116 C 195.146 234.193 195.728 234.604 196.019 235.216 C 198.453 240.401 206.154 249.297 216.424 251.067 C 224.26 252.425 230.971 249.957 234.278 248.369 C 239.466 245.872 242.143 242.811 242.386 241.424 Z  M 236.276 243.921 C 235.965 244.122 230.961 247.24 222.863 247.24 C 218.868 247.24 214.125 246.484 208.811 244.246 C 207.822 243.835 207.366 242.706 207.792 241.73 C 208.21 240.755 209.354 240.305 210.343 240.726 C 224.434 246.666 233.783 240.956 234.171 240.716 C 235.073 240.152 236.266 240.41 236.848 241.29 C 237.43 242.161 237.178 243.347 236.276 243.921 Z " fill="rgb(252,180,95)"/><path d=" M 236.848 241.281 C 236.266 240.391 235.073 240.142 234.171 240.707 C 233.783 240.956 224.434 246.666 210.343 240.716 C 209.354 240.295 208.219 240.755 207.792 241.721 C 207.375 242.696 207.831 243.816 208.811 244.237 C 214.125 246.475 218.868 247.231 222.863 247.231 C 230.961 247.231 235.965 244.112 236.276 243.911 C 237.178 243.347 237.43 242.161 236.848 241.281 Z " fill="rgb(45,45,48)"/><path d=" M 129.888 146.321 C 118.987 147.268 99.358 164.678 87.653 176.004 L 177.195 176.004 C 162.192 162.736 140.1 145.441 129.888 146.321 Z " fill="rgb(255,229,201)"/><path d=" M 196.349 182.7 L 71.69 182.7 C 73.755 193.681 84.908 212.421 101.443 217.271 C 102.966 217.72 103.965 219.146 103.868 220.686 L 103.868 221.145 C 129.684 218.639 134.892 218.906 135.552 222.235 C 135.833 223.651 135.949 225.115 135.988 226.463 L 163.501 226.463 L 163.501 220.667 C 163.501 219.174 164.5 217.864 165.955 217.452 C 182.849 212.631 194.244 193.758 196.349 182.7 Z  M 173.423 203.936 C 161.329 217.711 141.38 218.208 138.626 218.208 C 138.48 218.208 138.383 218.208 138.335 218.208 C 137.268 218.189 136.415 217.318 136.434 216.257 C 136.453 215.204 137.375 214.344 138.403 214.382 C 138.616 214.382 158.963 214.573 170.484 201.439 C 171.182 200.636 172.414 200.55 173.219 201.248 C 174.033 201.927 174.121 203.142 173.423 203.936 Z " fill="rgb(252,180,95)"/><path d=" M 170.494 201.43 C 158.963 214.564 138.626 214.372 138.412 214.372 C 137.384 214.334 136.453 215.195 136.444 216.247 C 136.424 217.299 137.278 218.17 138.345 218.199 C 138.393 218.199 138.49 218.199 138.636 218.199 C 141.399 218.199 161.348 217.711 173.432 203.926 C 174.13 203.132 174.043 201.918 173.238 201.229 C 172.414 200.55 171.192 200.636 170.494 201.43 Z " fill="rgb(66,66,69)"/><path d=" M 66.181 239.454 C 66.821 237.636 68.198 235.828 69.391 234.279 C 69.663 233.934 69.983 233.513 70.245 233.15 C 68.732 232.021 66.365 230.003 65.027 227.774 C 59.79 229.438 56.823 234.049 56.91 235.149 C 57.162 236.153 61.051 239.262 66.181 239.454 Z " fill="rgb(252,180,95)"/><path d=" M 131.905 230.816 C 132.05 229.486 132.293 226.444 131.847 223.594 C 128.229 222.541 110.434 224.321 99.63 225.402 C 79.487 227.42 76.248 227.506 74.871 226.071 C 73.92 225.086 71.554 224.273 69.595 224.263 C 69.585 224.263 69.566 224.263 69.556 224.263 C 68.46 224.263 67.985 224.522 67.917 224.588 C 67.578 225.717 71.505 229.639 73.426 230.691 C 73.998 231.007 74.415 231.552 74.541 232.184 C 74.832 233.532 73.94 234.68 72.475 236.594 C 71.505 237.847 69.498 240.468 69.692 241.462 C 69.692 241.482 69.711 241.549 69.925 241.683 C 70.914 242.266 72.563 242.419 76.626 238.363 C 77.576 237.416 79.962 236.737 85.189 236.029 C 86.528 232.815 92.57 229.037 99.096 229.132 C 99.465 228.415 100.008 227.822 100.745 227.43 C 101.977 226.779 103.606 226.76 105.478 227.372 C 107.757 228.118 110.695 229.974 112.034 232.356 C 112.47 232.585 113.324 232.882 114.458 233.207 C 122.226 232.49 129.742 231.658 131.905 230.816 Z " fill="rgb(150,150,152)"/><path d=" M 96.236 244.399 C 97.419 242.869 99.3 241.577 100.92 240.477 C 101.288 240.229 101.715 239.932 102.083 239.664 C 100.997 238.124 99.387 235.465 98.815 232.949 C 98.786 232.949 98.767 232.949 98.738 232.949 C 93.268 232.949 89.04 236.402 88.768 237.474 C 88.71 238.478 91.416 242.63 96.236 244.399 Z " fill="rgb(252,180,95)"/><path d=" M 108.717 234.365 C 108.135 233.131 106.137 231.638 104.275 231.017 C 103.218 230.672 102.675 230.768 102.578 230.816 C 101.899 231.782 104.392 236.718 105.885 238.306 C 106.331 238.784 106.545 239.425 106.477 240.066 C 106.322 241.434 105.119 242.256 103.121 243.615 C 101.802 244.514 99.067 246.379 98.941 247.384 C 98.941 247.403 98.932 247.479 99.096 247.661 C 99.853 248.522 101.375 249.163 106.516 246.571 C 107.02 246.312 107.747 246.188 108.795 246.188 C 112.393 246.188 119.802 247.738 135.212 251.296 C 144.978 253.544 158.177 256.576 161.407 256.404 C 161.969 255.18 163.152 252.367 163.637 249.526 C 160.534 247.412 143.058 243.634 132.458 241.338 C 112.674 237.053 109.57 236.144 108.717 234.365 Z " fill="rgb(150,150,152)"/><path d=" M 223.29 119.537 C 223.29 121.422 224.832 122.943 226.743 122.943 C 226.762 122.943 226.791 122.933 226.81 122.933 C 228.682 122.895 230.195 121.393 230.195 119.537 C 230.195 117.682 228.682 116.18 226.81 116.141 C 226.791 116.141 226.762 116.132 226.743 116.132 C 224.832 116.132 223.29 117.662 223.29 119.537 Z " fill="rgb(66,66,69)"/></g></g></g></g></svg>