<?xml version="1.0" encoding="UTF-8" standalone="no"?><!-- Generator: Gravit.io --><svg xmlns="http://www.w3.org/2000/svg" xmlns:xlink="http://www.w3.org/1999/xlink" style="isolation:isolate" viewBox="0 0 24 24" width="24pt" height="24pt"><path d=" M 0 0 L 24 0 L 24 24 L 0 24 L 0 0 Z " fill="none"/><path d=" M 12 4 C 13.93 4 17 5.4 17 9.15 C 17 11.31 15.28 13.82 12 16.47 C 8.72 13.82 7 11.3 7 9.15 C 7 5.4 10.07 4 12 4 Z  M 12 2 C 8.73 2 5 4.46 5 9.15 C 5 12.27 7.33 15.56 12 19 C 16.67 15.56 19 12.27 19 9.15 C 19 4.46 15.27 2 12 2 Z " fill="rgb(89,89,95)"/><path d=" M 12 7 C 10.9 7 10 7.9 10 9 C 10 10.1 10.9 11 12 11 C 13.105 11 14 10.105 14 9 C 14 7.895 13.105 7 12 7 Z  M 5 20 L 19 20 L 19 22 L 5 22 L 5 20 L 5 20 Z " fill="rgb(89,89,95)"/></svg>