<?xml version="1.0" encoding="UTF-8" standalone="no"?><!-- Generator: Gravit.io --><svg xmlns="http://www.w3.org/2000/svg" xmlns:xlink="http://www.w3.org/1999/xlink" style="isolation:isolate" viewBox="0 0 48 48" width="48pt" height="48pt"><g><path d=" M 19.5 33 L 6 33 L 6 29.625 C 6 25.136 14.994 22.875 19.5 22.875 C 21.678 22.875 24.904 23.403 27.641 24.472 L 19.5 33 Z  M 19.5 19.5 C 23.229 19.5 26.25 16.479 26.25 12.75 C 26.25 9.021 23.229 6 19.5 6 C 15.771 6 12.75 9.021 12.75 12.75 C 12.75 16.479 15.771 19.5 19.5 19.5 Z " fill="rgb(0,0,0)"/><path d=" M 19.59 37.435 L 19.59 42 L 24.155 42 L 37.618 28.537 L 33.053 23.972 L 19.59 37.435 Z  M 42 24.155 L 37.435 19.59 L 34.356 22.682 L 38.92 27.247 L 42 24.155 Z " fill="rgb(0,0,0)"/></g></svg>