<?xml version="1.0" encoding="UTF-8" standalone="no"?><!-- Generator: Gravit.io --><svg xmlns="http://www.w3.org/2000/svg" xmlns:xlink="http://www.w3.org/1999/xlink" style="isolation:isolate" viewBox="0 0 300 260" width="300pt" height="260pt"><defs><clipPath id="_clipPath_OVxYDVRmtrDcG3r6Eb52qTWXyw0iPaOz"><rect width="300" height="260"/></clipPath></defs><g clip-path="url(#_clipPath_OVxYDVRmtrDcG3r6Eb52qTWXyw0iPaOz)"><clipPath id="_clipPath_7MK1RcdDlokKs5hiwiFHzPoOM7HfQang"><rect x="0" y="0" width="300" height="260" transform="matrix(1,0,0,1,0,0)" fill="rgb(255,255,255)"/></clipPath><g clip-path="url(#_clipPath_7MK1RcdDlokKs5hiwiFHzPoOM7HfQang)"><g><clipPath id="_clipPath_gYgN3CxGi1VEKpiE59yqzdVYOqffnndh"><rect x="0" y="0" width="300" height="260" transform="matrix(1,0,0,1,0,0)" fill="rgb(255,255,255)"/></clipPath><g clip-path="url(#_clipPath_gYgN3CxGi1VEKpiE59yqzdVYOqffnndh)"><g><g><g><path d=" M 251.25 127.977 C 248.78 127.207 246.36 126.297 244 125.247 C 244.2 131.687 243.4 138.057 241.58 144.237 C 240.46 148.057 238.95 151.737 237.1 155.267 C 238.21 156.127 239.23 157.007 240.16 157.907 C 246.27 157.657 252.19 156.467 257.83 154.327 C 272.34 148.797 281.36 138.277 286.36 130.417 C 286.42 130.317 286.62 130.007 286.34 129.607 C 286.2 129.407 285.94 129.187 285.51 129.287 C 277.46 131.027 264.99 132.237 251.25 127.977 Z " fill="rgb(161,172,208)"/><path d=" M 231.23 151.357 C 232.71 148.437 233.93 145.387 234.86 142.247 C 236.83 135.547 237.47 128.587 236.76 121.557 C 236.43 118.267 234.32 115.547 231.26 114.437 L 223.21 111.537 C 222.6 112.687 221.89 113.787 221.05 114.837 L 200.5 140.567 C 212.71 143.087 223.29 146.797 231.23 151.357 Z " fill="rgb(161,172,208)"/><path d=" M 153.96 48.807 C 153.92 48.947 153.89 49.097 153.85 49.237 C 155.82 49.877 157.69 50.567 159.42 51.317 C 162.15 50.797 164.9 50.467 167.68 50.327 C 174.11 50.007 180.49 50.727 186.7 52.437 C 186.23 49.897 185.91 47.327 185.75 44.747 C 184.84 30.387 188.94 18.547 192.55 11.147 C 192.74 10.747 192.59 10.447 192.43 10.267 C 192.11 9.897 191.76 10.017 191.64 10.057 C 184 12.667 173.1 17.967 164.55 28.357 C 163.48 29.657 161.67 29.987 160.24 29.237 L 157.67 34.197 C 159.22 35.297 159.72 37.397 158.76 39.087 C 157.85 40.677 155.95 41.347 154.28 40.757 L 152.21 44.757 C 153.65 45.497 154.42 47.177 153.96 48.807 Z " fill="rgb(161,172,208)"/><path d=" M 153.85 49.237 C 153.89 49.097 153.92 48.947 153.96 48.807 C 154.41 47.177 153.64 45.507 152.2 44.757 C 151.99 44.647 151.77 44.557 151.53 44.497 C 149.67 43.977 147.74 45.067 147.22 46.927 C 147.18 47.067 147.15 47.207 147.11 47.347 C 149.48 47.907 151.73 48.547 153.85 49.237 Z " fill="rgb(66,66,69)"/><path d=" M 173.03 65.707 C 173.03 69.527 170.73 74.957 160.14 79.727 L 160.14 95.737 L 194.33 80.397 C 194.74 80.217 195.15 80.057 195.57 79.907 L 194.2 67.357 C 193.85 64.117 191.69 61.427 188.58 60.337 C 182.76 58.287 176.75 57.257 170.68 57.257 C 170.12 57.257 169.56 57.277 169.01 57.297 C 171.58 59.777 173.03 62.587 173.03 65.707 Z " fill="rgb(161,172,208)"/><path d=" M 160.14 127.287 L 167.82 137.047 C 176.47 137.217 184.83 137.947 192.67 139.167 L 215.58 110.477 C 219.67 105.357 219.7 98.177 215.64 93.027 L 213.98 90.917 L 213.98 90.917 C 211.25 87.447 207.15 85.557 202.95 85.557 C 201.01 85.557 199.05 85.957 197.2 86.797 L 162.67 102.287 C 161.77 102.697 160.93 103.197 160.14 103.767 L 160.14 127.287 L 160.14 127.287 L 160.14 127.287 L 160.14 127.287 Z  M 197.25 93.307 C 198.2 92.737 199.42 93.037 200 93.977 C 200.57 94.927 200.27 96.147 199.32 96.727 L 168.12 115.617 C 167.8 115.817 167.44 115.907 167.09 115.907 C 166.41 115.907 165.75 115.567 165.38 114.947 C 164.81 113.997 165.11 112.777 166.06 112.197 L 197.25 93.307 L 197.25 93.307 L 197.25 93.307 Z " fill="rgb(161,172,208)"/><path d=" M 165.38 114.937 C 165.76 115.557 166.42 115.897 167.09 115.897 C 167.44 115.897 167.8 115.807 168.12 115.607 L 199.32 96.717 C 200.26 96.147 200.57 94.917 200 93.967 C 199.43 93.027 198.2 92.717 197.25 93.297 L 166.05 112.187 C 165.11 112.757 164.81 113.987 165.38 114.937 Z " fill="rgb(66,66,69)"/><path d=" M 158.76 39.087 C 159.72 37.407 159.22 35.297 157.67 34.197 C 157.57 34.127 157.48 34.047 157.36 33.977 C 155.57 32.947 153.28 33.577 152.25 35.367 C 151.22 37.157 151.85 39.447 153.64 40.477 C 153.84 40.587 154.05 40.677 154.26 40.757 C 155.95 41.347 157.85 40.687 158.76 39.087 Z " fill="rgb(66,66,69)"/><path d=" M 153.61 75.027 C 153.84 74.907 154.08 74.837 154.32 74.807 C 154.62 74.547 154.96 74.317 155.34 74.167 C 163.22 71.017 166.03 67.737 166.03 65.717 C 166.03 59.447 144.08 50.327 109.7 50.327 C 86.34 50.327 64.92 54.767 56.41 61.367 C 56.15 61.567 55.87 61.717 55.58 61.837 C 60.43 61.457 65.4 61.267 70.35 61.267 C 101.82 61.267 133.69 68.957 133.69 83.657 C 133.69 84.387 133.6 85.177 133.39 86.007 L 153.61 75.027 L 153.61 75.027 L 153.61 75.027 Z " fill="rgb(252,180,95)"/><path d=" M 153.14 79.837 L 127.84 93.577 C 126.05 94.967 123.75 96.347 120.8 97.677 L 120.8 141.977 C 131.01 139.517 141.95 137.927 153.14 137.317 L 153.14 79.837 L 153.14 79.837 L 153.14 79.837 Z " fill="rgb(252,180,95)"/><path d=" M 116 92.107 C 123.88 88.967 126.69 85.677 126.69 83.657 C 126.69 77.387 104.74 68.267 70.35 68.267 C 35.96 68.267 14.02 77.377 14.02 83.657 C 14.02 85.677 16.83 88.967 24.71 92.107 C 26.04 92.637 26.91 93.927 26.91 95.357 L 26.91 170.487 L 58.87 170.487 C 60.11 163.877 65.92 158.847 72.89 158.847 C 75.11 158.847 77.21 159.367 79.08 160.277 C 82.6 157.537 86.83 154.887 91.71 152.407 C 89.87 151.187 89.18 148.767 90.21 146.757 C 91.31 144.597 93.96 143.737 96.12 144.847 C 97.8 145.707 98.68 147.487 98.47 149.257 C 103.28 147.207 108.42 145.387 113.8 143.827 L 113.8 95.347 C 113.8 93.927 114.67 92.637 116 92.107 Z  M 81.4 93.497 C 82.5 91.337 85.15 90.477 87.31 91.587 C 89.47 92.697 90.33 95.337 89.22 97.497 C 88.12 99.657 85.47 100.517 83.31 99.407 C 81.15 98.297 80.3 95.667 81.4 93.497 Z  M 69.16 129.677 C 70.26 127.517 72.91 126.657 75.07 127.767 C 77.23 128.867 78.09 131.517 76.98 133.677 C 75.88 135.837 73.23 136.697 71.07 135.587 C 68.91 134.487 68.06 131.837 69.16 129.677 Z  M 46.67 158.797 C 45.57 160.957 42.92 161.817 40.76 160.707 C 38.6 159.607 37.74 156.957 38.85 154.797 C 39.95 152.637 42.6 151.777 44.76 152.887 C 46.92 153.987 47.77 156.637 46.67 158.797 Z  M 46.65 114.317 C 44.49 113.217 43.63 110.567 44.74 108.407 C 45.84 106.247 48.49 105.387 50.65 106.497 C 52.81 107.597 53.67 110.247 52.56 112.407 C 51.45 114.567 48.81 115.427 46.65 114.317 Z " fill="rgb(255,229,201)"/><path d=" M 58.76 171.137 C 58.79 170.917 58.82 170.707 58.86 170.487 L 26.9 170.487 L 26.9 95.357 C 26.9 93.927 26.03 92.637 24.7 92.107 C 16.82 88.967 14.01 85.677 14.01 83.657 C 14.01 77.387 35.96 68.267 70.34 68.267 C 104.73 68.267 126.68 77.377 126.68 83.657 C 126.68 85.677 123.87 88.967 115.99 92.107 C 114.66 92.637 113.79 93.927 113.79 95.357 L 113.79 143.837 C 116.08 143.177 118.42 142.557 120.79 141.977 L 120.79 97.677 C 123.75 96.347 126.04 94.957 127.83 93.577 L 124.09 95.607 C 123.79 95.767 123.46 95.847 123.14 95.847 C 122.43 95.847 121.74 95.467 121.38 94.797 C 120.85 93.827 121.21 92.617 122.18 92.087 L 133.37 86.007 C 133.58 85.177 133.67 84.387 133.67 83.657 C 133.67 68.957 101.81 61.267 70.33 61.267 C 65.37 61.267 60.41 61.457 55.56 61.837 C 55.85 61.717 56.13 61.567 56.39 61.367 C 64.9 54.767 86.32 50.327 109.68 50.327 C 144.07 50.327 166.01 59.437 166.01 65.717 C 166.01 67.737 163.2 71.027 155.32 74.167 C 154.94 74.317 154.6 74.547 154.3 74.807 C 155.09 74.707 155.9 75.087 156.3 75.837 C 156.83 76.807 156.47 78.017 155.5 78.547 L 153.12 79.837 L 153.12 137.317 C 153.59 137.287 154.06 137.257 154.53 137.237 C 156.4 137.147 158.27 137.087 160.12 137.057 L 160.12 127.297 L 160.12 103.767 L 160.12 95.747 L 160.12 79.737 C 170.7 74.967 173.01 69.537 173.01 65.717 C 173.01 62.587 171.56 59.787 168.98 57.297 C 166.64 55.037 163.38 53.037 159.4 51.317 C 157.67 50.567 155.8 49.877 153.83 49.237 C 151.71 48.547 149.45 47.917 147.09 47.337 C 136.13 44.677 122.87 43.327 109.67 43.327 C 84.81 43.327 62.46 48.117 52.47 55.547 L 26.33 67.127 C 14.73 70.887 7 76.417 7 83.657 C 7 87.477 9.3 92.907 19.89 97.677 L 19.89 173.997 C 19.89 175.927 21.46 177.497 23.39 177.497 L 49.68 177.497 C 52.46 174.877 55.51 172.737 58.76 171.137 Z " fill="rgb(66,66,69)"/><path d=" M 52.56 112.407 C 53.66 110.247 52.81 107.597 50.65 106.497 C 48.49 105.397 45.84 106.247 44.74 108.407 C 43.64 110.567 44.49 113.217 46.65 114.317 C 48.81 115.427 51.46 114.567 52.56 112.407 Z " fill="rgb(66,66,69)"/><path d=" M 71.08 135.587 C 73.24 136.687 75.89 135.837 76.99 133.677 C 78.09 131.517 77.24 128.867 75.08 127.767 C 72.92 126.667 70.27 127.517 69.17 129.677 C 68.07 131.837 68.91 134.487 71.08 135.587 Z " fill="rgb(66,66,69)"/><path d=" M 44.75 152.877 C 42.59 151.777 39.94 152.627 38.84 154.787 C 37.74 156.947 38.59 159.597 40.75 160.697 C 42.91 161.797 45.56 160.947 46.66 158.787 C 47.76 156.627 46.92 153.987 44.75 152.877 Z " fill="rgb(66,66,69)"/><path d=" M 83.32 99.417 C 85.48 100.517 88.13 99.667 89.23 97.507 C 90.33 95.347 89.48 92.697 87.32 91.597 C 85.16 90.497 82.51 91.347 81.41 93.507 C 80.3 95.667 81.16 98.307 83.32 99.417 Z " fill="rgb(66,66,69)"/><path d=" M 153.14 79.837 L 155.52 78.547 C 156.49 78.017 156.85 76.807 156.32 75.837 C 155.92 75.097 155.11 74.717 154.32 74.807 C 154.08 74.837 153.84 74.907 153.61 75.027 L 133.39 86.007 L 122.2 92.087 C 121.23 92.617 120.87 93.827 121.4 94.797 C 121.76 95.467 122.45 95.847 123.16 95.847 C 123.48 95.847 123.81 95.767 124.11 95.607 L 127.85 93.577 L 153.14 79.837 L 153.14 79.837 L 153.14 79.837 Z " fill="rgb(66,66,69)"/><path d=" M 84.53 164.917 C 85.81 166.727 86.67 168.847 86.99 171.137 C 95.95 175.557 103.35 184.067 107.59 195.027 C 120.05 198.087 138.04 199.887 163 196.907 C 220.9 189.977 229.48 176.457 229.56 176.327 C 230.11 175.387 231.32 175.047 232.27 175.577 C 233.22 176.107 233.59 177.267 233.08 178.237 C 232.75 178.857 224.36 193.597 163.48 200.887 C 154.19 201.997 145.84 202.467 138.35 202.467 C 129.38 202.467 121.65 201.787 115.03 200.717 C 116.78 203.397 117.47 206.777 116.61 210.127 C 116.28 211.417 116.03 212.557 115.8 213.657 C 129.08 215.717 144.03 216.447 159.54 215.717 C 183 214.607 204.81 209.787 220.96 202.157 C 235.27 195.397 243.6 186.927 243.25 179.507 C 243.14 177.167 242.22 174.977 240.44 172.817 C 239.96 172.237 239.68 171.507 239.64 170.757 C 239.1 159.417 209.23 144.017 164.38 144.017 C 161.28 144.017 158.12 144.087 154.88 144.247 C 132.73 145.297 111.64 150.307 95.5 158.347 C 91.31 160.417 87.62 162.647 84.53 164.917 Z  M 173.44 146.467 C 173.73 146.617 180.49 150.287 181.8 157.717 C 183 164.497 181.86 173.337 181.81 173.717 C 181.68 174.727 180.82 175.457 179.83 175.457 C 179.74 175.457 179.66 175.447 179.57 175.437 C 178.47 175.297 177.7 174.287 177.85 173.197 C 177.86 173.107 178.95 164.587 177.86 158.417 C 176.89 152.937 171.61 150.027 171.56 149.997 C 170.59 149.477 170.22 148.267 170.74 147.287 C 171.27 146.317 172.47 145.957 173.44 146.467 Z  M 147.03 148.807 C 147.55 147.837 148.76 147.467 149.73 147.987 C 150.02 148.137 156.78 151.807 158.09 159.237 C 159.29 166.017 158.15 174.857 158.1 175.237 C 157.97 176.247 157.11 176.977 156.12 176.977 C 156.03 176.977 155.95 176.967 155.86 176.957 C 154.76 176.817 153.99 175.807 154.14 174.717 C 154.15 174.627 155.24 166.107 154.15 159.937 C 153.18 154.457 147.9 151.547 147.85 151.517 C 146.87 150.987 146.51 149.777 147.03 148.807 Z  M 125.62 153.787 C 126.14 152.817 127.35 152.447 128.32 152.967 C 128.61 153.117 135.37 156.787 136.68 164.217 C 137.88 170.997 136.74 179.837 136.69 180.217 C 136.56 181.227 135.7 181.957 134.71 181.957 C 134.62 181.957 134.54 181.947 134.45 181.937 C 133.35 181.797 132.58 180.787 132.73 179.697 C 132.74 179.607 133.83 171.087 132.74 164.917 C 131.77 159.437 126.49 156.527 126.44 156.497 C 125.47 155.977 125.1 154.757 125.62 153.787 Z " fill="rgb(150,150,152)"/><path d=" M 126.44 156.497 C 126.49 156.527 131.77 159.437 132.74 164.917 C 133.83 171.087 132.74 179.617 132.73 179.697 C 132.59 180.787 133.36 181.797 134.45 181.937 C 134.54 181.947 134.63 181.957 134.71 181.957 C 135.7 181.957 136.56 181.227 136.69 180.217 C 136.74 179.847 137.87 170.997 136.68 164.217 C 135.37 156.787 128.61 153.117 128.32 152.967 C 127.35 152.447 126.14 152.817 125.62 153.787 C 125.1 154.757 125.47 155.977 126.44 156.497 Z " fill="rgb(66,66,69)"/><path d=" M 147.84 151.507 C 147.89 151.537 153.17 154.447 154.14 159.927 C 155.23 166.097 154.14 174.627 154.13 174.707 C 153.99 175.797 154.76 176.807 155.85 176.947 C 155.94 176.957 156.03 176.967 156.11 176.967 C 157.1 176.967 157.96 176.237 158.09 175.227 C 158.14 174.857 159.27 166.007 158.08 159.227 C 156.77 151.797 150.01 148.127 149.72 147.977 C 148.75 147.457 147.54 147.827 147.02 148.797 C 146.51 149.777 146.87 150.987 147.84 151.507 Z " fill="rgb(66,66,69)"/><path d=" M 170.75 147.297 C 170.23 148.267 170.6 149.477 171.57 150.007 C 171.62 150.037 176.9 152.947 177.87 158.427 C 178.96 164.597 177.87 173.127 177.86 173.207 C 177.72 174.297 178.49 175.307 179.58 175.447 C 179.67 175.457 179.76 175.467 179.84 175.467 C 180.83 175.467 181.69 174.737 181.82 173.727 C 181.87 173.357 183 164.507 181.81 157.727 C 180.5 150.297 173.74 146.627 173.45 146.477 C 172.47 145.957 171.27 146.317 170.75 147.297 Z " fill="rgb(66,66,69)"/><path d=" M 45.79 194.927 C 48.5 195.267 50.18 196.107 51.66 196.867 C 52.92 197.507 53.91 198.017 55.73 198.287 C 58.69 198.737 60.27 198.027 62.65 196.947 C 65.02 195.877 67.96 194.547 72.53 194.427 C 77.7 194.297 80.63 195.817 82.98 197.057 C 85.06 198.147 86.56 198.927 89.78 198.687 C 92.35 198.497 94.12 197.767 95.99 197.007 C 97.28 196.477 98.65 195.917 100.25 195.557 C 96.96 188.097 91.98 182.167 86.06 178.577 C 83.91 183.747 78.82 187.387 72.88 187.387 C 66.95 187.387 61.85 183.747 59.7 178.577 C 53.94 182.057 49.07 187.757 45.79 194.927 Z " fill="rgb(136,150,194)"/><path d=" M 107.16 220.537 C 107.73 218.307 108.08 216.527 108.45 214.647 C 108.82 212.757 109.21 210.797 109.83 208.387 C 110.48 205.827 108.97 203.217 106.46 202.557 C 105.95 202.427 105.43 202.327 104.91 202.257 C 102.41 201.947 100.92 202.557 98.66 203.487 C 96.58 204.337 93.99 205.397 90.31 205.677 C 85.09 206.067 82.12 204.517 79.74 203.267 C 77.69 202.197 76.08 201.347 72.73 201.437 C 69.57 201.527 67.61 202.407 65.54 203.347 C 62.8 204.577 59.7 205.977 54.7 205.227 C 51.75 204.787 49.94 203.857 48.49 203.117 C 47.19 202.457 46.34 202.017 44.68 201.847 C 42.83 201.667 40.89 201.937 38.91 202.667 C 36.65 203.497 35.4 206.017 36.04 208.407 L 46.3 246.167 C 46.87 248.257 48.78 249.717 50.94 249.717 L 95.56 249.717 C 97.76 249.717 99.68 248.227 100.22 246.087 L 101.95 239.307 C 102.43 237.437 104.33 236.297 106.21 236.777 C 106.24 236.787 106.26 236.797 106.28 236.807 L 107.11 233.827 C 105.58 233.337 104.47 231.917 104.47 230.227 C 104.47 228.127 106.17 226.427 108.27 226.427 C 108.57 226.427 108.85 226.467 109.13 226.537 L 109.62 224.767 C 107.79 224.267 106.69 222.387 107.16 220.537 Z  M 62.5 244.117 C 62.37 244.147 62.24 244.157 62.11 244.157 C 61.17 244.157 60.34 243.497 60.15 242.547 L 54.42 213.727 C 54.2 212.647 54.91 211.587 55.99 211.377 C 57.08 211.167 58.13 211.867 58.34 212.947 L 64.07 241.767 C 64.29 242.847 63.58 243.907 62.5 244.117 Z  M 83.65 243.307 C 83.56 243.307 83.47 243.297 83.38 243.287 C 82.29 243.137 81.52 242.127 81.67 241.037 L 85.53 212.937 C 85.68 211.847 86.69 211.077 87.78 211.227 C 88.87 211.377 89.64 212.387 89.49 213.477 L 85.63 241.577 C 85.49 242.577 84.63 243.307 83.65 243.307 Z " fill="rgb(161,172,208)"/><path d=" M 95.56 256.707 C 100.97 256.707 105.67 253.047 107.01 247.807 L 108.74 241.027 C 109.21 239.177 108.11 237.307 106.28 236.797 C 106.26 236.787 106.23 236.777 106.21 236.767 C 104.33 236.287 102.43 237.417 101.95 239.297 L 100.22 246.077 C 99.68 248.207 97.76 249.707 95.56 249.707 L 50.94 249.707 C 48.77 249.707 46.86 248.247 46.3 246.157 L 36.04 208.397 C 35.39 206.017 36.65 203.497 38.91 202.657 C 40.89 201.927 42.83 201.647 44.68 201.837 C 46.34 202.007 47.19 202.437 48.49 203.107 C 49.94 203.847 51.75 204.777 54.7 205.217 C 59.7 205.967 62.8 204.567 65.54 203.337 C 67.61 202.397 69.57 201.517 72.73 201.427 C 76.08 201.337 77.69 202.187 79.74 203.257 C 82.12 204.507 85.09 206.057 90.31 205.667 C 93.99 205.397 96.58 204.337 98.66 203.477 C 100.92 202.547 102.41 201.937 104.91 202.247 C 105.43 202.317 105.96 202.417 106.46 202.547 C 108.97 203.207 110.49 205.817 109.83 208.377 C 109.22 210.787 108.83 212.747 108.45 214.637 C 108.08 216.527 107.72 218.307 107.16 220.527 C 106.69 222.377 107.79 224.247 109.62 224.757 C 109.64 224.767 109.67 224.777 109.69 224.787 C 111.56 225.267 113.47 224.127 113.95 222.257 C 114.11 221.637 114.25 221.057 114.38 220.487 C 124.74 222.117 136.06 222.967 147.85 222.957 C 151.81 222.957 155.83 222.867 159.87 222.667 C 184.23 221.517 206.98 216.467 223.95 208.447 C 241.41 200.197 250.74 189.787 250.24 179.137 C 250.07 175.627 248.83 172.287 246.53 169.207 C 246.32 167.607 245.83 166.037 245.1 164.507 C 250.32 163.917 255.41 162.697 260.31 160.837 C 276.62 154.627 286.68 142.897 292.25 134.137 C 293.93 131.497 293.86 128.127 292.06 125.557 C 290.25 122.967 287.08 121.737 283.99 122.407 C 276.77 123.997 265.6 125.087 253.31 121.267 C 249.65 120.127 246.12 118.637 242.74 116.797 C 241.14 112.687 237.84 109.357 233.62 107.837 L 225.41 104.877 C 226.27 99.277 224.86 93.407 221.14 88.677 L 219.48 86.567 L 219.48 86.567 C 215.28 81.227 208.93 78.397 202.46 78.547 L 201.15 66.577 C 200.66 62.117 198.2 58.127 194.59 55.607 C 193.6 51.897 192.97 48.107 192.73 44.287 C 191.91 31.447 195.6 20.837 198.84 14.197 C 200.23 11.357 199.77 7.987 197.68 5.617 C 195.6 3.267 192.35 2.407 189.38 3.417 C 180.88 6.327 168.74 12.237 159.15 23.897 C 157.92 25.387 158.14 27.597 159.63 28.827 C 159.82 28.987 160.03 29.117 160.24 29.227 C 161.68 29.977 163.48 29.647 164.55 28.347 C 173.1 17.957 184 12.657 191.64 10.047 C 191.75 10.007 192.1 9.887 192.43 10.257 C 192.59 10.437 192.74 10.737 192.55 11.137 C 188.94 18.537 184.83 30.367 185.75 44.737 C 185.91 47.317 186.24 49.877 186.7 52.427 C 180.48 50.717 174.1 49.997 167.68 50.317 C 164.9 50.457 162.15 50.787 159.42 51.307 C 163.4 53.027 166.66 55.027 169 57.287 C 169.56 57.267 170.12 57.247 170.67 57.247 C 176.74 57.247 182.75 58.277 188.57 60.327 C 191.69 61.427 193.84 64.117 194.19 67.347 L 195.56 79.897 C 195.15 80.057 194.73 80.207 194.32 80.387 L 160.13 95.727 L 160.13 103.747 C 160.91 103.177 161.75 102.677 162.66 102.267 L 197.19 86.777 C 199.05 85.947 201.01 85.537 202.94 85.537 C 207.14 85.537 211.24 87.427 213.97 90.897 L 213.97 90.897 L 215.63 93.007 C 219.68 98.157 219.66 105.337 215.57 110.457 L 192.66 139.147 C 184.82 137.937 176.46 137.197 167.81 137.027 L 160.13 127.267 L 160.13 137.027 C 158.27 137.067 156.41 137.117 154.54 137.207 C 154.07 137.227 153.6 137.267 153.13 137.287 C 141.93 137.897 131 139.487 120.79 141.947 C 118.42 142.517 116.08 143.137 113.79 143.807 C 108.4 145.367 103.27 147.187 98.46 149.237 C 98.66 147.467 97.78 145.687 96.11 144.827 C 93.95 143.727 91.3 144.577 90.2 146.737 C 89.17 148.747 89.86 151.167 91.7 152.387 C 86.82 154.867 82.59 157.507 79.07 160.257 C 77.19 159.347 75.1 158.827 72.88 158.827 C 65.91 158.827 60.1 163.847 58.86 170.467 C 58.82 170.677 58.79 170.897 58.76 171.117 C 55.51 172.717 52.46 174.867 49.69 177.467 C 44.7 182.167 40.64 188.367 37.93 195.597 C 37.44 195.737 36.96 195.897 36.47 196.077 C 30.85 198.157 27.69 204.367 29.28 210.217 L 39.54 247.977 C 40.93 253.107 45.62 256.687 50.94 256.687 L 95.56 256.687 L 95.56 256.707 L 95.56 256.707 L 95.56 256.707 Z  M 72.88 165.847 C 76.89 165.847 80.15 169.107 80.15 173.117 C 80.15 177.127 76.89 180.387 72.88 180.387 C 68.87 180.387 65.61 177.127 65.61 173.117 C 65.61 169.107 68.87 165.847 72.88 165.847 Z  M 154.88 144.227 C 158.12 144.077 161.28 143.997 164.38 143.997 C 209.23 143.997 239.11 159.397 239.64 170.737 C 239.68 171.487 239.95 172.217 240.44 172.797 C 242.22 174.957 243.14 177.147 243.25 179.487 C 243.6 186.907 235.27 195.377 220.96 202.137 C 204.81 209.767 182.99 214.587 159.54 215.697 C 144.02 216.437 129.07 215.697 115.8 213.637 C 116.03 212.537 116.28 211.397 116.61 210.107 C 117.46 206.757 116.78 203.377 115.03 200.697 C 121.65 201.767 129.38 202.447 138.35 202.447 C 145.84 202.447 154.2 201.977 163.48 200.867 C 224.37 193.577 232.75 178.837 233.08 178.217 C 233.58 177.257 233.22 176.087 232.27 175.557 C 231.32 175.027 230.11 175.377 229.56 176.307 C 229.48 176.437 220.9 189.957 163 196.887 C 138.04 199.877 120.06 198.077 107.59 195.007 C 103.34 184.047 95.95 175.537 86.99 171.117 C 86.67 168.827 85.81 166.707 84.53 164.897 C 87.62 162.627 91.3 160.397 95.5 158.307 C 111.64 150.287 132.73 145.277 154.88 144.227 Z  M 223.21 111.547 L 231.26 114.447 C 234.32 115.547 236.43 118.277 236.76 121.567 C 237.47 128.597 236.83 135.557 234.86 142.257 C 233.93 145.397 232.72 148.447 231.23 151.367 C 223.29 146.807 212.7 143.097 200.5 140.587 L 221.05 114.857 C 221.89 113.797 222.6 112.687 223.21 111.547 Z  M 286.33 129.587 C 286.61 129.987 286.41 130.297 286.35 130.397 C 281.35 138.257 272.34 148.787 257.82 154.307 C 252.19 156.447 246.26 157.647 240.15 157.887 C 239.22 156.987 238.2 156.107 237.09 155.247 C 238.94 151.727 240.45 148.037 241.57 144.217 C 243.39 138.047 244.19 131.677 243.99 125.227 C 246.35 126.277 248.77 127.197 251.24 127.957 C 264.99 132.217 277.46 131.007 285.5 129.247 C 285.93 129.167 286.19 129.387 286.33 129.587 Z  M 72.88 187.387 C 78.81 187.387 83.91 183.747 86.06 178.577 C 91.98 182.157 96.97 188.087 100.25 195.557 C 98.65 195.917 97.28 196.477 95.99 197.007 C 94.12 197.777 92.35 198.497 89.78 198.687 C 86.56 198.927 85.05 198.147 82.98 197.057 C 80.63 195.827 77.71 194.297 72.53 194.427 C 67.97 194.557 65.02 195.877 62.65 196.947 C 60.27 198.017 58.69 198.727 55.73 198.287 C 53.91 198.017 52.91 197.507 51.66 196.867 C 50.18 196.107 48.5 195.267 45.79 194.927 C 49.08 187.757 53.95 182.057 59.7 178.577 C 61.85 183.747 66.94 187.387 72.88 187.387 Z " fill="rgb(66,66,69)"/><path d=" M 65.61 173.117 C 65.61 177.127 68.87 180.387 72.88 180.387 C 76.89 180.387 80.15 177.127 80.15 173.117 C 80.15 169.107 76.89 165.847 72.88 165.847 C 68.87 165.847 65.61 169.107 65.61 173.117 Z " fill="rgb(252,180,95)"/><path d=" M 58.34 212.947 C 58.13 211.867 57.08 211.167 55.99 211.377 C 54.91 211.597 54.2 212.647 54.42 213.727 L 60.15 242.547 C 60.34 243.497 61.17 244.157 62.11 244.157 C 62.24 244.157 62.37 244.147 62.5 244.117 C 63.58 243.897 64.29 242.847 64.07 241.767 L 58.34 212.947 L 58.34 212.947 L 58.34 212.947 Z " fill="rgb(66,66,69)"/><path d=" M 89.49 213.477 C 89.64 212.387 88.87 211.377 87.78 211.227 C 86.69 211.077 85.68 211.837 85.53 212.937 L 81.67 241.037 C 81.52 242.127 82.29 243.137 83.38 243.287 C 83.47 243.297 83.56 243.307 83.65 243.307 C 84.63 243.307 85.49 242.577 85.63 241.577 L 89.49 213.477 L 89.49 213.477 L 89.49 213.477 Z " fill="rgb(66,66,69)"/><path d=" M 104.47 230.227 C 104.47 231.917 105.58 233.337 107.11 233.827 C 107.48 233.947 107.86 234.027 108.27 234.027 C 110.37 234.027 112.07 232.327 112.07 230.227 C 112.07 228.427 110.81 226.927 109.13 226.537 C 108.85 226.477 108.57 226.427 108.27 226.427 C 106.17 226.427 104.47 228.137 104.47 230.227 Z " fill="rgb(66,66,69)"/></g></g></g></g></g></g></g></svg>