<?xml version="1.0" encoding="UTF-8" standalone="no"?><!-- Generator: Gravit.io --><svg xmlns="http://www.w3.org/2000/svg" xmlns:xlink="http://www.w3.org/1999/xlink" style="isolation:isolate" viewBox="0 0 300 260" width="300pt" height="260pt"><defs><clipPath id="_clipPath_ZxNvlD6mOZwTCVhIKcOquV1ow6HleXVk"><rect width="300" height="260"/></clipPath></defs><g clip-path="url(#_clipPath_ZxNvlD6mOZwTCVhIKcOquV1ow6HleXVk)"><clipPath id="_clipPath_vBYBQzxax8bDcI2puHI4C4iOraN5WvW2"><rect x="0" y="0" width="300" height="260" transform="matrix(1,0,0,1,0,0)" fill="rgb(255,255,255)"/></clipPath><g clip-path="url(#_clipPath_vBYBQzxax8bDcI2puHI4C4iOraN5WvW2)"><g><rect x="217.145" y="59.088" width="12.034" height="12.492" transform="matrix(1,0,0,1,0,0)" fill="rgb(136,150,194)"/><path d=" M 205.033 78.493 L 205.033 107.615 C 211.142 106.756 217.514 106.312 223.827 106.312 C 229.888 106.312 235.58 106.638 240.835 107.26 L 240.835 78.493 L 205.033 78.493 L 205.033 78.493 Z " fill="rgb(150,150,152)"/><path d=" M 180.828 142.88 L 180.828 161.929 C 198.428 169.306 211.929 189.52 215.542 209.281 C 233.016 209.735 251.092 207.563 254.589 204.807 C 255.434 204.136 256.657 204.294 257.318 205.163 C 257.978 206.032 257.823 207.266 256.968 207.938 C 252.879 211.157 237.066 213.31 220.68 213.31 C 219.165 213.31 217.64 213.29 216.125 213.251 C 216.368 215.344 216.504 217.418 216.504 219.462 C 216.504 222.277 216.378 224.805 215.95 227.273 C 217.378 227.343 218.796 227.402 220.224 227.422 C 234.308 227.659 248.44 225.674 262.281 221.536 L 259.028 143.452 C 258.989 142.514 259.329 141.596 259.97 140.915 C 260.611 140.233 261.495 139.848 262.417 139.848 L 272.412 139.828 L 272.412 130.526 C 272.412 122.023 254.239 113.224 223.827 113.224 C 194.552 113.224 173.689 122.408 172.581 130.98 C 172.572 131.069 172.552 131.168 172.533 131.257 L 172.533 139.423 L 177.438 139.423 C 179.303 139.423 180.828 140.974 180.828 142.88 Z  M 183.858 132.481 C 184.13 131.424 185.189 130.802 186.238 131.079 C 186.685 131.197 231.093 142.929 254.938 131.207 C 255.9 130.733 257.065 131.148 257.532 132.126 C 257.998 133.113 257.59 134.288 256.628 134.762 C 248.013 138.999 237.134 140.401 226.489 140.401 C 206.062 140.401 186.471 135.226 185.237 134.891 C 184.198 134.614 183.577 133.538 183.858 132.481 Z " fill="rgb(150,150,152)"/><path d=" M 185.237 134.891 C 186.471 135.226 206.062 140.401 226.489 140.401 C 237.134 140.401 248.013 138.999 256.628 134.762 C 257.59 134.288 257.998 133.103 257.532 132.126 C 257.065 131.148 255.9 130.733 254.938 131.207 C 231.093 142.919 186.685 131.197 186.238 131.079 C 185.199 130.802 184.14 131.424 183.858 132.481 C 183.577 133.538 184.198 134.614 185.237 134.891 Z " fill="rgb(45,45,48)"/><rect x="201.924" y="46.883" width="66.486" height="5.303" transform="matrix(1,0,0,1,0,0)" fill="rgb(252,180,95)"/><path d=" M 84.999 126.586 L 68.448 7.352 L 61.95 8.28 L 65.31 32.465 L 67.331 47.041 L 67.331 47.05 L 83.513 163.647 L 84.999 126.586 L 84.999 126.586 Z " fill="rgb(161,172,208)"/><path d=" M 60.114 44.532 L 59.016 36.632 L 46.982 38.36 C 46.895 38.37 46.797 38.38 46.71 38.38 C 45.758 38.38 44.923 37.669 44.787 36.681 C 44.641 35.605 45.379 34.598 46.438 34.45 L 58.473 32.721 L 57.161 23.291 L 47.701 24.643 C 47.613 24.653 47.516 24.663 47.429 24.663 C 46.477 24.663 45.642 23.952 45.506 22.965 C 45.36 21.888 46.098 20.881 47.157 20.733 L 56.617 19.38 L 55.209 9.248 L 40.173 11.401 C 38.949 12.744 37.842 14.344 37.551 15.222 C 40.086 17.553 42.611 20.288 42.3 23.528 C 42.184 24.772 41.601 26.5 39.551 27.873 C 38.755 29.798 39.348 36.652 40.465 39.012 C 41.135 39.229 41.727 39.614 42.203 40.148 C 43.66 41.797 43.33 43.861 43.039 45.688 C 42.97 46.092 42.873 46.705 42.835 47.218 C 43.213 47.169 43.738 47.07 44.466 46.863 C 44.466 46.863 44.466 46.863 44.466 46.863 C 46.263 46.349 54.733 45.223 60.114 44.532 Z " fill="rgb(255,229,201)"/><rect x="101.132" y="10.789" width="29.188" height="20.303" transform="matrix(1,0,0,1,0,0)" fill="rgb(252,180,95)"/><ellipse vector-effect="non-scaling-stroke" cx="115.72122731904014" cy="119.80127514339193" rx="16.045948983658747" ry="15.37574555524887" fill="rgb(255,229,201)"/><path d=" M 137.041 61.804 L 136.089 38.005 L 95.343 38.005 L 88.573 207.237 C 91.633 207.217 94.586 207.089 97.344 206.802 C 103.337 206.19 108.572 205.449 113.186 204.807 C 115.294 204.511 117.266 204.235 119.169 203.988 C 122.802 190.518 130.806 177.394 141.335 168.822 L 137.886 82.67 C 137.809 80.764 139.266 79.155 141.14 79.076 L 140.995 75.412 C 139.188 75.294 137.76 73.783 137.76 71.916 C 137.76 70.149 139.052 68.697 140.723 68.45 L 140.587 65.112 C 138.702 65.211 137.119 63.72 137.041 61.804 Z  M 115.721 139.127 C 104.726 139.127 95.79 130.457 95.79 119.801 C 95.79 109.146 104.736 100.475 115.721 100.475 C 126.707 100.475 135.652 109.146 135.652 119.801 C 135.652 130.457 126.716 139.127 115.721 139.127 Z " fill="rgb(161,172,208)"/><path d=" M 115.721 100.475 C 104.726 100.475 95.79 109.146 95.79 119.801 C 95.79 130.457 104.736 139.127 115.721 139.127 C 126.707 139.127 135.652 130.457 135.652 119.801 C 135.652 109.146 126.716 100.475 115.721 100.475 Z  M 115.721 135.177 C 106.873 135.177 99.675 128.284 99.675 119.801 C 99.675 111.318 106.873 104.426 115.721 104.426 C 124.57 104.426 131.767 111.318 131.767 119.801 C 131.767 128.284 124.57 135.177 115.721 135.177 Z " fill="rgb(45,45,48)"/><rect x="273.167" y="244.703" width="13.229" height="8.236" transform="matrix(1,-0.002,0.002,1,-0.497,0.56)" fill="rgb(252,180,95)"/><path d=" M 265.963 146.751 L 266.895 169.118 L 279.668 169.118 C 280.736 169.118 281.61 170.007 281.61 171.093 L 281.61 211.918 C 281.61 213.004 280.736 213.893 279.668 213.893 L 268.76 213.893 L 269.76 237.909 L 289.546 237.879 L 292.712 155.559 L 271.82 155.559 C 270.751 155.559 269.877 154.671 269.877 153.584 C 269.877 152.498 270.751 151.609 271.82 151.609 L 292.868 151.609 L 293.052 146.701 L 265.963 146.751 L 265.963 146.751 Z " fill="rgb(255,229,201)"/><path d=" M 277.725 209.952 L 277.725 173.068 L 267.06 173.068 L 268.595 209.952 L 277.725 209.952 L 277.725 209.952 Z " fill="rgb(252,180,95)"/><path d=" M 191.939 178.44 C 190.512 177.739 189.035 177.394 187.607 177.394 C 186.413 177.394 185.237 177.64 184.15 178.134 C 181.76 179.221 179.983 181.383 179.167 184.237 C 178.312 187.2 178.594 190.528 179.934 193.609 C 181.284 196.69 183.538 199.119 186.277 200.452 C 188.909 201.736 191.677 201.845 194.067 200.758 C 196.456 199.672 198.233 197.509 199.049 194.656 C 199.846 191.871 199.642 188.78 198.505 185.867 C 196.835 183.447 195.009 181.166 193.047 179.063 C 192.687 178.845 192.318 178.628 191.939 178.44 Z " fill="rgb(255,229,201)"/><path d=" M 207.607 231.322 C 209.151 227.965 209.705 224.854 209.705 219.452 C 209.705 211.068 207.296 202.032 203.197 193.816 C 203.09 194.468 202.964 195.12 202.779 195.762 C 201.633 199.741 199.108 202.793 195.65 204.363 C 194.047 205.094 192.338 205.449 190.609 205.449 C 188.608 205.449 186.568 204.965 184.596 204.007 C 181.032 202.269 178.118 199.139 176.389 195.209 C 174.66 191.278 174.33 186.983 175.437 183.121 C 176.583 179.142 179.109 176.09 182.566 174.52 C 183.965 173.888 185.451 173.542 186.957 173.463 C 184.188 171.33 181.255 169.592 178.195 168.308 C 177.953 168.368 177.7 168.407 177.428 168.407 L 156.079 168.407 C 155.817 168.407 155.564 168.368 155.312 168.308 C 142.16 173.819 131.291 188.079 126.474 203.217 C 133.02 202.773 138.469 203.257 143.889 205.834 C 149.212 208.362 152.437 213.952 152.718 221.19 C 153.087 230.394 148.6 239.578 141.801 243.508 C 141.043 243.953 139.994 244.348 138.702 244.713 C 146.881 248.89 157.244 250.145 166.744 250.145 C 179.623 250.145 185.548 249.246 193.134 244.21 C 194.552 243.262 196.407 243.558 197.515 244.802 L 200.098 242.442 C 199.826 241.81 199.71 241.109 199.817 240.378 C 200.118 238.294 202.022 236.853 204.071 237.159 C 204.547 237.228 204.984 237.396 205.373 237.623 L 208.151 235.095 C 207.267 234.097 207.014 232.626 207.607 231.322 Z " fill="rgb(252,180,95)"/><rect x="159.478" y="146.336" width="14.55" height="15.168" transform="matrix(1,0,0,1,0,0)" fill="rgb(252,180,95)"/><path d=" M 199.826 240.388 C 199.72 241.119 199.836 241.82 200.108 242.452 C 200.604 243.617 201.662 244.516 202.993 244.713 C 205.042 245.019 206.946 243.577 207.247 241.494 C 207.48 239.894 206.694 238.393 205.382 237.633 C 204.994 237.405 204.557 237.238 204.081 237.168 C 202.031 236.862 200.128 238.304 199.826 240.388 Z " fill="rgb(45,45,48)"/><path d=" M 48.507 240.832 C 79.501 241.731 131.34 241.622 138.45 237.504 C 143.054 234.838 146.201 228.103 145.938 221.477 C 145.851 219.324 145.2 214.09 141.024 212.105 C 134.147 208.836 126.61 209.903 114.119 211.651 C 109.447 212.313 104.153 213.053 98.024 213.685 C 88.097 214.702 76.238 213.883 65.466 213.053 C 62.941 215.058 59.492 215.482 56.569 214.12 C 54.345 216.737 51.168 218.099 47.973 218.099 C 46.788 218.099 45.593 217.912 44.447 217.527 C 42.543 223.827 37.211 228.646 30.683 229.693 C 30.79 230.325 30.839 230.967 30.839 231.619 C 30.839 232.606 30.703 233.554 30.47 234.473 C 33.296 240.151 39.25 242.363 47.837 240.882 C 48.06 240.842 48.274 240.822 48.507 240.832 Z " fill="rgb(150,150,152)"/><path d=" M 128.746 246.461 C 137.177 253.403 149.999 257.057 166.763 257.057 C 180.226 257.057 187.773 256.04 196.864 250.006 C 198.438 248.96 198.875 246.826 197.855 245.227 C 197.758 245.079 197.641 244.95 197.524 244.812 C 196.427 243.558 194.572 243.271 193.144 244.219 C 185.558 249.256 179.633 250.154 166.754 250.154 C 157.264 250.154 146.89 248.9 138.712 244.723 C 139.994 244.358 141.053 243.963 141.81 243.518 C 148.6 239.588 153.087 230.414 152.728 221.2 C 152.437 213.972 149.222 208.372 143.899 205.844 C 138.479 203.267 133.03 202.783 126.483 203.227 C 131.301 188.098 142.17 173.829 155.321 168.318 C 155.564 168.378 155.817 168.417 156.089 168.417 L 177.438 168.417 C 177.7 168.417 177.953 168.378 178.205 168.318 C 181.265 169.602 184.208 171.34 186.966 173.473 C 185.461 173.552 183.975 173.898 182.576 174.53 C 179.118 176.09 176.593 179.151 175.447 183.131 C 174.339 186.992 174.679 191.288 176.399 195.218 C 178.118 199.149 181.032 202.269 184.606 204.017 C 186.578 204.975 188.618 205.459 190.618 205.459 C 192.357 205.459 194.057 205.094 195.66 204.373 C 199.117 202.813 201.643 199.751 202.789 195.772 C 202.973 195.14 203.1 194.488 203.207 193.826 C 207.315 202.042 209.714 211.068 209.714 219.462 C 209.714 224.874 209.161 227.975 207.616 231.332 C 207.024 232.626 207.276 234.107 208.16 235.114 C 208.452 235.45 208.821 235.727 209.248 235.934 C 210.948 236.744 212.968 236.003 213.774 234.275 C 213.804 234.206 213.823 234.147 213.852 234.087 C 215.94 234.216 218.029 234.305 220.117 234.344 C 220.894 234.354 221.681 234.364 222.458 234.364 C 235.901 234.364 249.363 232.448 262.582 228.656 L 263.117 241.543 C 263.194 243.311 264.554 244.693 266.264 244.832 L 266.283 256.554 C 266.283 258.46 267.808 260 269.683 260 C 269.683 260 269.683 260 269.692 260 L 289.721 259.97 C 290.624 259.97 291.488 259.605 292.12 258.953 C 292.751 258.301 293.111 257.423 293.111 256.504 L 293.091 244.782 C 294.791 244.644 296.16 243.252 296.228 241.484 L 299.997 143.393 C 300.036 142.455 299.686 141.537 299.045 140.865 C 298.404 140.184 297.52 139.809 296.598 139.809 C 296.598 139.809 296.598 139.809 296.588 139.809 L 279.211 139.838 L 279.211 130.546 C 279.211 119.9 267.177 111.822 247.644 108.287 L 247.644 75.057 C 247.644 73.151 246.119 71.6 244.244 71.6 L 235.988 71.6 L 235.988 59.108 L 271.82 59.108 C 273.694 59.108 275.219 57.558 275.219 55.652 L 275.219 43.436 C 275.219 41.53 273.694 39.98 271.82 39.98 L 198.535 39.98 C 196.66 39.98 195.135 41.53 195.135 43.436 L 195.135 55.652 C 195.135 57.558 196.66 59.108 198.535 59.108 L 210.346 59.108 L 210.346 71.6 L 201.633 71.6 C 199.758 71.6 198.233 73.151 198.233 75.057 L 198.233 108.8 C 181.42 112.207 167.929 119.1 165.967 129.281 C 165.811 129.677 165.734 130.101 165.734 130.555 L 165.734 139.443 L 156.089 139.443 C 154.214 139.443 152.689 140.993 152.689 142.899 L 152.689 161.949 C 151.077 162.62 149.503 163.4 147.959 164.289 L 144.685 82.414 C 144.608 80.508 142.995 79.017 141.15 79.105 L 141.15 79.105 C 139.275 79.184 137.818 80.794 137.896 82.7 L 141.344 168.852 C 130.815 177.423 122.812 190.547 119.179 204.017 C 117.285 204.264 115.304 204.541 113.196 204.837 C 108.582 205.489 103.347 206.219 97.354 206.832 C 94.595 207.118 91.643 207.237 88.583 207.266 L 95.353 38.034 L 136.099 38.034 L 137.051 61.834 C 137.129 63.74 138.712 65.231 140.587 65.142 L 140.587 65.142 C 142.461 65.063 143.918 63.453 143.84 61.547 L 142.753 34.43 C 142.675 32.573 141.179 31.112 139.353 31.112 L 137.109 31.112 L 137.109 7.352 C 137.109 5.446 135.584 3.896 133.71 3.896 L 97.723 3.896 C 95.848 3.896 94.323 5.446 94.323 7.352 L 94.323 31.112 L 92.08 31.112 C 90.254 31.112 88.758 32.573 88.68 34.43 L 86.524 88.201 L 74.693 2.977 C 74.431 1.081 72.712 -0.232 70.847 0.034 L 57.618 1.93 L 38.085 4.735 C 37.385 4.834 36.745 5.15 36.23 5.644 C 34.909 6.908 30.616 11.361 30.674 15.667 C 30.703 17.375 31.393 18.936 32.636 20.051 C 34.005 21.286 34.744 22.086 35.132 22.58 C 30.683 26.204 32.752 37.076 33.597 39.92 C 34.268 42.182 35.171 43.792 36.307 44.74 C 35.967 46.902 35.462 50.398 37.959 52.66 C 39.26 53.835 40.882 54.19 42.388 54.19 C 44.068 54.19 45.583 53.756 46.322 53.538 C 47.409 53.232 54.17 52.284 61.056 51.395 L 81.123 195.979 C 81.23 196.769 81.609 197.45 82.134 197.974 L 81.764 207.158 C 77.442 207.01 73.032 206.713 68.739 206.397 C 68.798 203.701 67.651 201.015 65.398 199.248 C 65.398 199.248 65.398 199.248 65.398 199.248 C 62.678 197.115 59.016 196.878 56.083 198.467 C 55.714 198.082 55.316 197.727 54.898 197.401 C 54.801 197.332 54.704 197.263 54.607 197.194 C 54.607 197.105 54.616 197.016 54.616 196.927 C 54.616 189.787 48.905 183.98 41.883 183.98 C 35.501 183.98 30.208 188.77 29.295 195.001 C 26.789 194.804 24.312 195.169 21.971 196.068 C 19.582 193.5 16.23 192.009 12.734 192.009 C 5.711 192.009 0 197.816 0 204.955 C 0 211.72 5.129 217.29 11.646 217.853 C 12.093 219.245 12.705 220.568 13.482 221.803 C 10.17 223.876 8.081 227.56 8.081 231.638 C 8.081 238.018 13.181 243.202 19.455 243.202 C 22.058 243.202 24.457 242.294 26.371 240.793 C 29.265 244.595 34.277 248.268 42.854 248.268 C 44.622 248.268 46.545 248.11 48.624 247.765 C 60.095 248.081 105.183 249.147 128.746 246.461 Z  M 30.46 234.473 C 30.693 233.554 30.829 232.606 30.829 231.619 C 30.829 230.967 30.781 230.325 30.674 229.693 C 37.201 228.646 42.533 223.827 44.437 217.527 C 45.583 217.912 46.778 218.099 47.963 218.099 C 51.168 218.099 54.335 216.737 56.559 214.12 C 59.483 215.482 62.931 215.058 65.456 213.053 C 76.228 213.893 88.097 214.702 98.014 213.685 C 104.134 213.053 109.437 212.313 114.109 211.651 C 126.6 209.893 134.137 208.836 141.014 212.105 C 145.191 214.09 145.841 219.314 145.929 221.477 C 146.191 228.103 143.044 234.838 138.44 237.504 C 131.32 241.622 79.492 241.731 48.497 240.832 C 48.274 240.822 48.05 240.842 47.827 240.882 C 39.241 242.373 33.287 240.151 30.46 234.473 Z  M 19.455 239.232 C 15.327 239.232 11.967 235.816 11.967 231.619 C 11.967 228.35 14.016 225.456 17.066 224.41 C 17.678 224.202 18.154 223.689 18.319 223.057 C 18.494 222.425 18.338 221.743 17.921 221.25 C 16.502 219.581 15.512 217.576 15.026 215.443 C 14.822 214.544 14.035 213.912 13.132 213.912 C 13.113 213.912 13.083 213.912 13.064 213.912 L 12.744 213.932 C 7.868 213.932 3.895 209.893 3.895 204.936 C 3.895 199.978 7.868 195.939 12.744 195.939 C 15.58 195.939 18.163 197.282 19.863 199.613 C 20.417 200.373 21.427 200.63 22.272 200.225 C 24.924 198.932 27.896 198.576 30.732 199.169 C 31.315 199.297 31.917 199.139 32.374 198.754 C 32.83 198.369 33.083 197.786 33.073 197.184 C 33.073 197.105 33.063 197.026 33.054 196.907 C 33.054 191.95 37.026 187.911 41.902 187.911 C 46.244 187.911 49.847 191.1 50.595 195.297 C 46.38 194.29 41.776 195.781 38.969 199.494 C 35.181 204.501 36.074 211.69 40.931 215.601 C 39.522 221.467 34.336 225.891 28.139 225.95 C 27.488 225.96 26.895 226.286 26.536 226.839 C 26.177 227.392 26.118 228.083 26.371 228.686 C 26.75 229.614 26.944 230.601 26.944 231.619 C 26.944 235.816 23.583 239.232 19.455 239.232 Z  M 54.14 202.22 C 54.461 202.684 54.956 202.99 55.51 203.059 C 56.064 203.129 56.617 202.951 57.035 202.575 C 58.725 201.055 61.251 200.956 63.047 202.358 C 65.116 203.968 65.505 206.99 63.912 209.093 C 63.145 210.11 62.027 210.762 60.775 210.93 C 59.541 211.088 58.307 210.762 57.326 210.002 C 57.297 209.982 57.268 209.952 57.249 209.933 C 56.812 209.587 56.248 209.449 55.704 209.547 C 55.16 209.646 54.684 209.982 54.393 210.466 C 54.247 210.713 54.092 210.95 53.917 211.177 C 51.401 214.505 46.691 215.127 43.417 212.569 C 41.834 211.335 40.814 209.538 40.562 207.523 C 40.309 205.509 40.834 203.514 42.048 201.894 C 43.262 200.284 45.03 199.248 47.011 198.991 C 47.341 198.951 47.672 198.922 47.992 198.922 C 49.634 198.922 51.217 199.465 52.538 200.502 C 53.159 200.986 53.694 201.558 54.14 202.22 Z  M 159.479 146.336 L 174.029 146.336 L 174.029 161.504 L 159.479 161.504 L 159.479 146.336 L 159.479 146.336 Z  M 172.523 131.257 C 172.543 131.168 172.562 131.069 172.572 130.98 C 173.679 122.408 194.543 113.224 223.818 113.224 C 254.229 113.224 272.402 122.023 272.402 130.526 L 272.402 139.828 L 262.408 139.848 C 261.485 139.848 260.601 140.233 259.96 140.915 C 259.319 141.596 258.979 142.514 259.018 143.452 L 262.272 221.536 C 248.431 225.674 234.298 227.649 220.214 227.422 C 218.796 227.402 217.368 227.333 215.94 227.273 C 216.368 224.805 216.494 222.287 216.494 219.462 C 216.494 217.418 216.358 215.344 216.115 213.251 C 217.631 213.29 219.155 213.31 220.671 213.31 C 237.057 213.31 252.879 211.157 256.959 207.938 C 257.804 207.266 257.959 206.032 257.308 205.163 C 256.657 204.294 255.434 204.146 254.579 204.807 C 251.082 207.563 233.006 209.725 215.532 209.281 C 211.919 189.52 198.428 169.306 180.818 161.929 L 180.818 142.88 C 180.818 140.974 179.293 139.423 177.418 139.423 L 172.513 139.423 L 172.513 131.257 L 172.523 131.257 L 172.523 131.257 Z  M 201.924 46.882 L 268.41 46.882 L 268.41 52.186 L 201.924 52.186 L 201.924 46.882 L 201.924 46.882 Z  M 229.179 59.088 L 229.179 71.58 L 217.145 71.58 L 217.145 59.088 L 229.179 59.088 L 229.179 59.088 Z  M 240.835 78.493 L 240.835 107.26 C 235.57 106.638 229.879 106.312 223.827 106.312 C 217.524 106.312 211.142 106.756 205.033 107.615 L 205.033 78.493 L 240.835 78.493 L 240.835 78.493 Z  M 286.292 253.038 L 273.063 253.058 L 273.053 244.822 L 286.282 244.802 L 286.292 253.038 L 286.292 253.038 Z  M 267.06 173.068 L 277.725 173.068 L 277.725 209.942 L 268.595 209.942 L 267.06 173.068 L 267.06 173.068 Z  M 292.858 151.619 L 271.81 151.619 C 270.741 151.619 269.867 152.508 269.867 153.594 C 269.867 154.681 270.741 155.569 271.81 155.569 L 292.703 155.569 L 289.536 237.889 L 269.751 237.919 L 268.75 213.902 L 279.658 213.902 C 280.726 213.902 281.601 213.014 281.601 211.927 L 281.601 171.103 C 281.601 170.017 280.726 169.128 279.658 169.128 L 266.885 169.128 L 265.953 146.761 L 293.033 146.711 L 292.858 151.619 L 292.858 151.619 Z  M 199.049 194.656 C 198.233 197.5 196.466 199.672 194.067 200.758 C 191.668 201.845 188.899 201.736 186.277 200.452 C 183.538 199.119 181.284 196.68 179.934 193.609 C 178.584 190.528 178.312 187.21 179.167 184.237 C 179.983 181.393 181.75 179.221 184.15 178.134 C 185.237 177.64 186.413 177.394 187.607 177.394 C 189.035 177.394 190.512 177.749 191.939 178.44 C 192.318 178.628 192.697 178.835 193.056 179.072 C 195.009 181.176 196.835 183.447 198.515 185.877 C 199.642 188.78 199.846 191.881 199.049 194.656 Z  M 44.476 46.863 C 43.748 47.07 43.213 47.169 42.844 47.218 C 42.893 46.705 42.99 46.092 43.048 45.688 C 43.34 43.861 43.67 41.787 42.213 40.148 C 41.737 39.614 41.144 39.229 40.474 39.012 C 39.357 36.652 38.765 29.798 39.561 27.873 C 41.611 26.5 42.194 24.772 42.31 23.528 C 42.621 20.288 40.095 17.553 37.56 15.222 C 37.852 14.353 38.949 12.744 40.183 11.401 L 55.219 9.248 L 56.627 19.38 L 47.167 20.733 C 46.108 20.881 45.36 21.888 45.515 22.965 C 45.651 23.952 46.487 24.663 47.438 24.663 C 47.526 24.663 47.623 24.653 47.71 24.643 L 57.171 23.291 L 58.482 32.721 L 46.448 34.45 C 45.389 34.598 44.641 35.605 44.797 36.681 C 44.933 37.669 45.768 38.38 46.72 38.38 C 46.807 38.38 46.904 38.37 46.992 38.36 L 59.026 36.632 L 60.124 44.532 C 54.733 45.223 46.263 46.349 44.476 46.863 C 44.486 46.863 44.476 46.863 44.476 46.863 Z  M 67.331 47.05 C 67.331 47.05 67.331 47.05 67.331 47.05 L 65.31 32.475 L 61.95 8.29 L 68.448 7.362 L 84.999 126.595 L 83.513 163.657 L 67.331 47.05 L 67.331 47.05 Z  M 130.31 10.789 L 130.31 31.092 L 101.122 31.092 L 101.122 10.789 L 130.31 10.789 L 130.31 10.789 Z " fill="rgb(45,45,48)"/><path d=" M 25.293 155.925 C 23.03 155.925 21.077 157.564 20.66 159.826 C 20.553 160.379 20.223 160.862 19.747 161.159 C 19.271 161.445 18.688 161.514 18.163 161.337 C 17.425 161.09 16.648 160.971 15.871 160.971 C 11.743 160.971 8.382 164.388 8.382 168.585 C 8.382 172.782 11.743 176.199 15.871 176.199 C 19.999 176.199 23.36 172.782 23.36 168.585 C 23.36 168.299 23.34 168.012 23.311 167.726 C 23.253 167.163 23.428 166.61 23.797 166.195 C 24.166 165.78 24.691 165.534 25.244 165.534 C 25.273 165.534 25.322 165.534 25.361 165.534 C 27.944 165.504 30.033 163.361 30.033 160.734 C 30.013 158.078 27.896 155.925 25.293 155.925 Z " fill="rgb(255,229,201)"/><path d=" M 17.445 157.13 C 16.92 157.051 16.396 157.021 15.861 157.021 C 9.587 157.021 4.487 162.205 4.487 168.585 C 4.487 174.964 9.587 180.149 15.861 180.149 C 21.903 180.149 26.866 175.33 27.216 169.276 C 31.043 168.387 33.899 164.902 33.899 160.744 C 33.899 155.915 30.033 151.995 25.293 151.995 C 21.845 151.975 18.804 154.049 17.445 157.13 Z  M 25.341 165.534 C 25.303 165.534 25.264 165.534 25.225 165.534 C 24.671 165.534 24.147 165.771 23.778 166.195 C 23.408 166.61 23.234 167.173 23.292 167.726 C 23.321 168.012 23.34 168.289 23.34 168.585 C 23.34 172.782 19.98 176.199 15.852 176.199 C 11.724 176.199 8.363 172.782 8.363 168.585 C 8.363 164.388 11.724 160.971 15.852 160.971 C 16.629 160.971 17.396 161.09 18.144 161.337 C 18.678 161.514 19.251 161.445 19.727 161.159 C 20.203 160.872 20.543 160.388 20.64 159.826 C 21.068 157.564 23.01 155.925 25.273 155.925 C 27.877 155.925 29.994 158.078 29.994 160.724 C 30.013 163.361 27.925 165.504 25.341 165.534 Z " fill="rgb(45,45,48)"/><path d=" M 26.944 231.619 C 26.944 230.601 26.75 229.614 26.371 228.686 C 26.118 228.083 26.186 227.382 26.536 226.839 C 26.895 226.286 27.498 225.96 28.139 225.95 C 34.326 225.891 39.522 221.467 40.931 215.601 C 36.074 211.69 35.181 204.501 38.969 199.494 C 41.776 195.781 46.38 194.29 50.595 195.297 C 49.847 191.1 46.234 187.911 41.902 187.911 C 37.026 187.911 33.054 191.95 33.054 196.907 C 33.063 197.026 33.063 197.105 33.073 197.184 C 33.092 197.786 32.83 198.369 32.374 198.754 C 31.917 199.139 31.315 199.297 30.732 199.169 C 27.886 198.566 24.924 198.922 22.272 200.225 C 21.427 200.63 20.417 200.383 19.863 199.613 C 18.173 197.282 15.58 195.939 12.744 195.939 C 7.868 195.939 3.895 199.978 3.895 204.936 C 3.895 209.893 7.868 213.932 12.744 213.932 L 13.064 213.912 C 13.083 213.912 13.113 213.912 13.132 213.912 C 14.035 213.912 14.822 214.544 15.026 215.443 C 15.502 217.576 16.502 219.581 17.921 221.25 C 18.338 221.743 18.494 222.425 18.319 223.057 C 18.144 223.689 17.678 224.192 17.066 224.41 C 14.016 225.456 11.967 228.35 11.967 231.619 C 11.967 235.816 15.327 239.232 19.455 239.232 C 23.583 239.232 26.944 235.816 26.944 231.619 Z " fill="rgb(255,229,201)"/><path d=" M 52.538 200.502 C 51.217 199.465 49.634 198.922 47.992 198.922 C 47.662 198.922 47.341 198.941 47.011 198.991 C 45.03 199.257 43.262 200.284 42.048 201.894 C 40.834 203.504 40.299 205.499 40.562 207.523 C 40.824 209.547 41.834 211.335 43.417 212.569 C 46.691 215.127 51.401 214.505 53.917 211.177 C 54.092 210.95 54.247 210.713 54.393 210.466 C 54.684 209.982 55.16 209.646 55.704 209.547 C 56.248 209.449 56.812 209.587 57.249 209.933 C 57.268 209.952 57.297 209.972 57.326 210.002 C 58.317 210.762 59.541 211.088 60.775 210.93 C 62.027 210.762 63.135 210.11 63.912 209.093 C 65.495 206.99 65.107 203.978 63.047 202.358 C 61.251 200.956 58.725 201.045 57.035 202.575 C 56.617 202.951 56.064 203.129 55.51 203.059 C 54.956 202.99 54.461 202.684 54.14 202.22 C 53.694 201.558 53.159 200.986 52.538 200.502 Z " fill="rgb(255,229,201)"/><path d=" M 137.75 71.926 C 137.75 73.793 139.188 75.303 140.985 75.422 C 141.063 75.422 141.131 75.442 141.208 75.442 C 143.122 75.442 144.666 73.872 144.666 71.926 C 144.666 69.981 143.122 68.411 141.208 68.411 C 141.033 68.411 140.878 68.44 140.713 68.46 C 139.042 68.707 137.75 70.158 137.75 71.926 Z " fill="rgb(45,45,48)"/></g></g></g></svg>