<?xml version="1.0" encoding="UTF-8" standalone="no"?>
<!-- Generator: Gravit.io -->
<svg xmlns="http://www.w3.org/2000/svg" xmlns:xlink="http://www.w3.org/1999/xlink" style="isolation:isolate" viewBox="0 0 300 260" width="300pt" height="260pt">
  <defs><clipPath id="_clipPath_tW80rn38dLUMC5ZRxSHSj6hQcKpofD6C"><rect width="300" height="260"/></clipPath></defs><g clip-path="url(#_clipPath_tW80rn38dLUMC5ZRxSHSj6hQcKpofD6C)"><rect x="0" y="0" width="300" height="260" transform="matrix(1,0,0,1,0,0)" fill="none"/><path d=" M 53.176 197.584 L 55.298 197.584 C 55.233 196.883 55.214 196.173 55.279 195.453 C 55.528 192.353 57.18 189.54 59.052 187.565 C 58.702 187.519 58.342 187.436 57.973 187.353 C 57.023 188.94 55.058 190.259 54.578 190.564 C 54.135 190.84 53.554 191.173 52.862 191.495 C 53.314 192.99 53.609 194.798 53.332 196.772 C 53.296 197.049 53.231 197.317 53.176 197.584 Z " fill="none"/><path d=" M 147.765 165.959 C 147.912 166.919 147.995 167.897 147.995 168.893 C 148.973 168.921 149.951 169.031 150.911 169.216 C 150.459 168.552 150.108 167.832 149.868 167.075 C 149.121 166.799 148.411 166.43 147.765 165.959 Z " fill="rgb(255,229,201)"/><path d=" M 163.328 154.04 C 163.457 154.04 163.587 154.031 163.716 154.031 C 164.149 154.04 164.564 154.077 164.989 154.114 C 164.814 153.708 164.675 153.283 164.564 152.85 C 164.131 152.73 163.716 152.573 163.31 152.379 C 163.337 152.804 163.356 153.228 163.347 153.662 C 163.356 153.791 163.337 153.911 163.328 154.04 Z " fill="rgb(255,229,201)"/><path d=" M 196.891 214.338 L 181.014 216.515 C 180.931 216.524 180.848 216.533 180.764 216.533 C 179.86 216.533 179.067 215.86 178.938 214.937 C 178.799 213.932 179.51 213 180.515 212.862 L 196.383 210.684 C 195.415 203.369 194.778 195.73 194.778 190.333 C 194.778 182.62 196.023 168.865 197.094 159.428 C 199.594 137.406 200.618 136.963 202.472 136.152 C 203.69 135.626 205.101 135.866 206.079 136.77 C 209.769 140.202 210.286 140.202 216.726 138.578 C 215.037 130.229 213.358 122.378 211.854 115.597 C 211.366 115.625 210.877 115.634 210.378 115.634 L 132.275 115.634 C 130.495 115.634 129.046 114.186 129.046 112.405 C 129.046 110.625 130.495 109.176 132.275 109.176 L 210.378 109.176 C 219.779 109.176 227.436 103.715 227.436 96.998 C 227.436 90.282 219.788 84.821 210.378 84.821 L 199.262 84.821 C 205.12 92.45 206.264 95.052 205.517 96.777 C 205.157 97.589 204.391 98.115 203.45 98.17 C 200.212 98.373 162.147 98.788 131.131 98.788 C 111.859 98.788 95.318 98.631 91.545 98.161 C 91.046 98.096 90.594 97.838 90.299 97.441 C 89.995 97.045 89.875 96.537 89.949 96.039 C 90.032 95.532 90.779 90.983 92.605 84.821 L 89.45 84.821 C 80.05 84.821 72.392 90.282 72.392 96.998 C 72.392 103.715 80.04 109.176 89.45 109.176 L 111.057 109.176 C 112.837 109.176 114.285 110.625 114.285 112.405 C 114.285 114.186 112.837 115.634 111.057 115.634 L 89.45 115.634 C 87.439 115.634 85.483 115.431 83.62 115.053 C 82.171 126.391 80.225 143.089 78.942 160.101 C 78.721 163.053 78.527 165.858 78.371 168.542 C 78.601 168.819 78.832 169.105 79.035 169.41 C 80.003 170.812 80.631 172.436 80.981 174.068 C 82.633 174.041 84.386 174.576 84.847 174.733 C 86.498 175.277 89.589 176.642 91.628 179.613 C 93.713 182.639 93.952 185.886 93.916 187.556 C 93.906 187.814 93.888 188.073 93.869 188.322 C 94.552 188.257 95.253 188.248 95.954 188.303 C 101.942 188.783 106.896 194.484 106.702 196.975 C 106.684 197.169 106.628 197.372 106.554 197.584 L 111.038 197.584 C 112.819 197.584 114.267 199.033 114.267 200.813 C 114.267 208.489 108.759 220.51 99.645 228.702 C 112.855 229.91 132.672 229.957 156.575 228.693 C 172.415 227.853 187.084 226.608 198.902 225.27 C 198.191 222.189 197.5 218.388 196.891 214.338 Z  M 121.73 109.185 L 121.933 109.185 C 123.714 109.185 125.162 110.634 125.162 112.414 C 125.162 114.195 123.714 115.643 121.933 115.643 L 121.73 115.643 C 119.95 115.643 118.501 114.195 118.501 112.414 C 118.501 110.634 119.941 109.185 121.73 109.185 Z  M 169.076 183.183 C 169.417 183.534 169.602 184.004 169.592 184.493 C 169.583 184.982 169.38 185.453 169.03 185.785 L 161.086 193.47 C 158.291 196.173 154.619 197.658 150.735 197.658 C 150.652 197.658 150.569 197.658 150.477 197.658 C 146.501 197.593 142.783 195.979 140.015 193.119 L 134.176 187.086 C 133.687 186.578 133.272 186.025 132.93 185.443 L 118.428 199.466 C 118.068 199.817 117.607 199.983 117.145 199.983 C 116.666 199.983 116.177 199.798 115.817 199.42 C 115.107 198.691 115.125 197.52 115.863 196.809 L 130.255 182.888 C 129.932 182.63 129.609 182.362 129.323 182.058 L 123.483 176.024 C 120.716 173.164 119.23 169.4 119.295 165.415 C 119.359 161.429 120.974 157.721 123.834 154.953 L 131.777 147.268 C 132.128 146.927 132.607 146.733 133.087 146.752 C 133.576 146.761 134.046 146.964 134.379 147.314 L 139.001 152.093 C 138.881 148.44 140.228 144.759 143.051 142.028 L 149.859 135.441 C 150.588 134.731 151.759 134.749 152.47 135.487 L 156.354 139.51 C 156.594 136.355 157.922 133.264 160.376 130.893 L 167.185 124.306 C 167.913 123.596 169.085 123.614 169.795 124.352 L 172.886 127.553 C 176.309 131.096 177.812 135.783 177.443 140.349 C 177.803 140.331 178.163 140.312 178.523 140.321 C 182.923 140.395 187.029 142.176 190.091 145.34 L 193.182 148.541 C 193.892 149.27 193.874 150.442 193.136 151.152 L 186.327 157.739 C 183.873 160.11 180.746 161.337 177.582 161.466 L 181.466 165.489 C 182.176 166.217 182.158 167.389 181.42 168.1 L 174.611 174.687 C 172.019 177.196 168.661 178.441 165.312 178.441 C 165.017 178.441 164.712 178.414 164.417 178.395 L 169.076 183.183 Z " fill="rgb(150,150,152)"/><path d=" M 93.962 94.655 C 109.534 95.504 188.339 94.877 201.54 94.544 C 199.428 90.55 191.023 80.3 185.239 73.234 C 182.665 70.097 180.239 67.126 178.181 64.534 C 177.093 66.388 176.023 68.206 175.118 69.765 C 174.777 70.355 174.159 70.678 173.522 70.678 C 173.236 70.678 172.95 70.614 172.683 70.475 C 170.626 69.423 152.608 59.94 153.236 49.847 C 153.254 49.616 153.309 49.386 153.411 49.173 C 156.538 42.531 159.297 38.398 161.64 36.802 C 157.203 29.126 152.534 21.949 149.794 21.534 C 149.61 21.506 149.407 21.506 149.103 21.792 C 147.184 23.646 145.458 26.045 143.466 28.813 C 138.466 35.76 132.238 44.404 117.939 52.402 C 101.822 61.453 95.475 87.312 93.962 94.655 Z  M 139.978 51.461 C 140.855 50.935 141.98 51.212 142.515 52.079 C 143.041 52.947 142.765 54.081 141.897 54.616 C 141.685 54.746 120.467 67.717 116.103 78.806 C 115.817 79.535 115.125 79.977 114.387 79.977 C 114.166 79.977 113.935 79.94 113.713 79.848 C 112.763 79.479 112.302 78.4 112.671 77.459 C 117.487 65.207 139.065 52.015 139.978 51.461 Z " fill="rgb(254,204,146)"/><path d=" M 113.713 79.848 C 113.935 79.931 114.166 79.977 114.387 79.977 C 115.125 79.977 115.817 79.535 116.103 78.806 C 120.467 67.717 141.685 54.746 141.897 54.616 C 142.765 54.091 143.051 52.956 142.515 52.079 C 141.99 51.203 140.855 50.926 139.978 51.461 C 139.065 52.015 117.487 65.207 112.671 77.459 C 112.293 78.409 112.763 79.479 113.713 79.848 Z " fill="rgb(45,45,48)"/><path d=" M 134.397 174.262 L 134.637 174.032 C 137.395 171.365 140.781 169.742 144.296 169.133 C 144.296 169.114 144.296 169.096 144.296 169.068 C 144.361 165.138 142.894 161.42 140.163 158.606 L 133.013 151.217 L 126.389 157.619 C 124.24 159.704 123.022 162.49 122.976 165.489 C 122.93 168.478 124.046 171.319 126.122 173.469 L 131.749 179.29 C 132.081 177.436 132.949 175.664 134.397 174.262 Z " fill="rgb(252,180,95)"/><path d=" M 145.412 158.403 L 149.342 162.472 C 149.444 162.583 149.564 162.666 149.675 162.758 C 150.025 161.208 150.809 159.797 151.981 158.671 C 154.13 156.586 156.76 155.175 159.592 154.501 C 159.896 150.94 158.734 147.278 156.059 144.51 L 151.114 139.399 L 145.624 144.704 C 141.805 148.412 141.704 154.566 145.412 158.403 Z " fill="rgb(252,180,95)"/><path d=" M 162.747 147.259 L 163.55 148.089 C 163.55 148.089 163.55 148.089 163.55 148.089 C 163.854 148.403 164.205 148.652 164.574 148.864 C 164.943 147.388 165.708 146.032 166.825 144.953 C 168.79 143.052 171.142 141.696 173.698 140.958 C 174.279 137.139 173.153 133.107 170.275 130.118 L 168.467 128.245 L 162.978 133.55 C 159.131 137.277 159.029 143.421 162.747 147.259 Z " fill="rgb(252,180,95)"/><path d=" M 157.996 177.03 C 152.359 171.199 143.032 171.052 137.211 176.679 L 136.971 176.91 C 134.84 178.976 134.785 182.381 136.842 184.521 L 142.682 190.554 C 144.767 192.704 147.553 193.922 150.551 193.968 C 153.54 194.005 156.372 192.898 158.531 190.822 L 165.155 184.419 L 157.996 177.03 Z " fill="rgb(252,180,95)"/><path d=" M 172.083 172.03 L 177.572 166.725 L 172.628 161.614 C 170.257 159.16 167.065 157.776 163.651 157.721 C 163.577 157.721 163.504 157.721 163.43 157.721 C 160.099 157.721 156.953 158.994 154.546 161.319 C 153.669 162.158 153.18 163.293 153.162 164.511 C 153.143 165.729 153.595 166.873 154.435 167.74 L 158.365 171.808 C 162.092 175.646 168.245 175.747 172.083 172.03 Z " fill="rgb(252,180,95)"/><path d=" M 174.648 174.687 L 181.456 168.1 C 182.185 167.389 182.204 166.227 181.503 165.489 L 177.619 161.466 C 180.783 161.337 183.91 160.101 186.364 157.739 L 193.173 151.152 C 193.902 150.442 193.92 149.279 193.219 148.541 L 190.128 145.34 C 187.066 142.176 182.96 140.395 178.56 140.321 C 178.2 140.312 177.84 140.34 177.48 140.349 C 177.849 135.783 176.355 131.096 172.923 127.553 L 169.832 124.352 C 169.122 123.623 167.95 123.605 167.221 124.306 L 160.413 130.893 C 157.959 133.264 156.631 136.345 156.391 139.51 L 152.507 135.487 C 151.796 134.759 150.634 134.74 149.896 135.441 L 143.087 142.028 C 140.264 144.759 138.918 148.449 139.037 152.093 L 134.415 147.314 C 134.074 146.964 133.613 146.761 133.124 146.752 C 132.635 146.742 132.164 146.927 131.814 147.268 L 123.871 154.953 C 121.011 157.721 119.396 161.429 119.332 165.415 C 119.267 169.4 120.753 173.155 123.52 176.024 L 129.36 182.058 C 129.655 182.362 129.969 182.63 130.292 182.888 L 115.9 196.809 C 115.171 197.52 115.153 198.682 115.854 199.42 C 116.214 199.798 116.693 199.983 117.182 199.983 C 117.644 199.983 118.105 199.808 118.465 199.466 L 132.967 185.443 C 133.318 186.025 133.724 186.578 134.213 187.086 L 140.052 193.119 C 142.82 195.979 146.529 197.593 150.514 197.658 C 150.597 197.658 150.68 197.658 150.772 197.658 C 154.656 197.658 158.328 196.173 161.123 193.47 L 169.067 185.785 C 169.417 185.443 169.62 184.982 169.629 184.493 C 169.639 184.004 169.454 183.534 169.113 183.183 L 164.491 178.404 C 164.786 178.423 165.081 178.451 165.386 178.451 C 168.698 178.441 172.056 177.196 174.648 174.687 Z  M 150.542 193.968 C 147.553 193.922 144.757 192.704 142.672 190.554 L 136.833 184.521 C 134.766 182.39 134.831 178.976 136.962 176.91 L 137.202 176.679 C 143.023 171.042 152.35 171.199 157.987 177.03 L 165.136 184.419 L 158.513 190.822 C 156.372 192.907 153.531 194.014 150.542 193.968 Z  M 126.149 173.469 C 124.064 171.319 122.948 168.487 123.004 165.489 C 123.05 162.5 124.267 159.704 126.417 157.619 L 133.041 151.217 L 140.191 158.606 C 142.921 161.429 144.388 165.147 144.324 169.068 C 144.324 169.087 144.324 169.105 144.324 169.133 C 140.8 169.732 137.414 171.365 134.665 174.032 L 134.425 174.262 C 132.976 175.664 132.109 177.436 131.795 179.29 L 126.149 173.469 Z  M 151.132 139.39 L 156.077 144.501 C 158.752 147.268 159.915 150.931 159.61 154.492 C 156.778 155.165 154.149 156.586 151.999 158.662 C 150.837 159.787 150.044 161.208 149.693 162.749 C 149.582 162.656 149.462 162.573 149.361 162.463 L 145.431 158.394 C 141.713 154.556 141.814 148.403 145.661 144.685 L 151.132 139.39 Z  M 168.458 128.245 L 170.266 130.118 C 173.153 133.098 174.279 137.139 173.689 140.958 C 171.133 141.696 168.781 143.052 166.815 144.953 C 165.69 146.041 164.924 147.388 164.564 148.864 C 164.195 148.652 163.845 148.403 163.54 148.089 C 163.54 148.089 163.54 148.089 163.54 148.089 L 162.738 147.259 C 159.02 143.421 159.121 137.268 162.968 133.55 L 168.458 128.245 Z  M 178.495 144.012 C 181.908 144.067 185.1 145.451 187.471 147.905 L 189.28 149.778 L 183.79 155.082 C 179.953 158.8 173.799 158.699 170.081 154.852 L 169.279 154.021 L 169.279 154.021 C 168.439 153.145 167.978 152.001 168.006 150.792 C 168.033 149.584 168.513 148.449 169.389 147.6 C 171.788 145.276 174.934 144.002 178.274 144.002 C 178.347 144.012 178.421 144.012 178.495 144.012 Z  M 147.995 168.884 C 147.995 167.897 147.922 166.919 147.765 165.95 C 148.411 166.42 149.121 166.799 149.868 167.057 C 150.108 167.814 150.459 168.542 150.911 169.197 C 149.942 169.031 148.973 168.921 147.995 168.884 Z  M 164.564 152.85 C 164.675 153.283 164.814 153.708 164.989 154.114 C 164.564 154.077 164.14 154.04 163.716 154.031 C 163.587 154.031 163.457 154.04 163.328 154.04 C 163.337 153.911 163.347 153.782 163.356 153.652 C 163.365 153.219 163.337 152.794 163.319 152.37 C 163.716 152.573 164.14 152.73 164.564 152.85 Z  M 158.374 171.799 L 154.444 167.73 C 153.605 166.854 153.143 165.71 153.171 164.502 C 153.199 163.293 153.678 162.158 154.555 161.31 C 156.953 158.985 160.099 157.712 163.439 157.712 C 163.513 157.712 163.587 157.712 163.66 157.712 C 167.074 157.767 170.266 159.151 172.637 161.605 L 177.582 166.716 L 172.092 172.02 C 168.245 175.747 162.092 175.646 158.374 171.799 Z " fill="rgb(45,45,48)"/><path d=" M 169.389 147.6 C 168.513 148.44 168.024 149.575 168.006 150.792 C 167.987 152.01 168.439 153.154 169.279 154.021 L 169.279 154.021 L 170.081 154.852 C 173.799 158.689 179.943 158.791 183.79 155.082 L 189.28 149.778 L 187.471 147.905 C 185.1 145.451 181.908 144.067 178.495 144.012 C 178.421 144.012 178.347 144.012 178.274 144.012 C 174.943 144.012 171.797 145.276 169.389 147.6 Z " fill="rgb(252,180,95)"/><path d=" M 166.29 40.566 C 165.524 40.271 164.74 39.957 163.734 39.782 C 162.461 40.455 159.371 45.28 156.907 50.428 C 156.935 56.296 167.249 63.279 172.821 66.388 C 175.146 62.412 180.266 53.685 181.964 51.129 C 181.3 50.114 179.187 48.196 178.329 47.411 C 177.692 46.83 177.185 46.369 176.871 46.028 C 175.69 44.745 176.041 43.444 180.894 36.129 C 183.606 32.042 187.139 27.014 189.981 22.973 C 191.743 20.464 193.56 17.89 194.455 16.543 C 193.588 15.915 192.02 15.011 190.728 14.384 C 189.049 16.201 184.962 22.281 181.89 26.848 C 173.439 39.422 171.908 41.323 170.155 41.396 C 168.596 41.47 167.424 41.009 166.29 40.566 Z " fill="rgb(161,172,208)"/><path d=" M 35.02 174.419 C 37.299 175.286 39.264 176.891 40.694 178.681 C 42.29 177.869 44.78 176.974 47.751 177.214 C 47.917 177.224 48.074 177.26 48.231 177.279 C 47.52 173.247 48.591 169.216 50.048 168.21 C 50.5 167.897 51.201 167.73 52.032 167.684 C 51.026 164.972 50.14 162.537 49.744 161.291 C 48.544 161.171 45.712 161.614 44.568 161.798 C 43.719 161.928 43.046 162.038 42.576 162.066 C 40.832 162.186 40.048 161.097 37.382 152.73 C 35.896 148.062 34.19 142.148 32.824 137.406 C 31.975 134.454 31.108 131.428 30.619 129.887 C 29.586 130.173 27.898 130.828 26.606 131.447 C 26.975 133.891 29.152 140.893 30.785 146.143 C 35.287 160.608 35.813 162.989 34.771 164.4 C 33.839 165.664 32.741 166.291 31.689 166.9 C 30.979 167.306 30.25 167.73 29.475 168.395 C 29.328 169.17 29.817 171.172 30.693 173.672 C 32.04 173.662 33.516 173.847 35.02 174.419 Z " fill="rgb(161,172,208)"/><path d=" M 25.158 178.958 C 25.37 179.945 26.385 182.196 28.211 183.894 C 28.71 183.894 29.3 183.912 29.89 183.986 C 30.25 183.478 30.638 182.98 31.071 182.51 C 31.569 181.965 34.153 179.244 36.21 179.392 C 36.247 179.392 36.284 179.401 36.321 179.41 C 35.583 178.792 34.715 178.248 33.71 177.869 C 30.13 176.504 26.228 178.155 25.158 178.958 Z " fill="rgb(255,229,201)"/><path d=" M 27.243 195.887 C 27.566 195.592 27.842 195.269 28.101 194.937 C 27.639 193.442 27.409 191.809 27.538 190.13 C 27.603 189.281 27.796 188.414 28.073 187.565 C 26.182 187.602 23.553 188.119 21.661 189.872 C 18.967 192.372 18.488 196.034 18.681 197.566 L 24.613 197.566 C 25.518 197.197 26.422 196.652 27.243 195.887 Z " fill="rgb(255,229,201)"/><path d=" M 33.691 197.584 L 36.035 197.584 C 36.607 197.086 37.252 196.385 37.824 195.509 C 37.843 195.204 37.861 194.909 37.907 194.604 C 38.12 193.091 38.673 191.661 39.411 190.379 C 39.411 190.222 39.393 190.065 39.383 189.909 C 39.208 189.77 39.042 189.641 38.904 189.521 C 36.81 187.731 35.638 185.702 35.767 184.078 C 35.795 183.774 35.859 183.478 35.961 183.192 C 35.961 183.192 35.952 183.183 35.952 183.183 C 34.715 183.857 31.523 186.707 31.219 190.434 C 30.97 193.58 32.501 196.256 33.691 197.584 Z " fill="rgb(255,229,201)"/><path d=" M 83.98 195.158 C 84.017 194.752 84.155 194.318 84.367 193.876 C 83.066 192.492 80.889 190.85 78.269 190.647 C 77.623 190.591 76.996 190.628 76.387 190.702 C 75.372 191.32 73.795 192.123 71.848 192.519 C 71.313 192.907 70.889 193.294 70.612 193.617 C 70.695 194.088 70.759 194.568 70.796 195.066 C 71.368 195.831 72.374 196.809 73.721 197.575 L 82.743 197.575 C 83.288 197.271 83.767 196.948 84.183 196.634 C 84.026 196.127 83.943 195.628 83.98 195.158 Z " fill="rgb(255,229,201)"/><path d=" M 95.668 191.984 C 94.635 191.901 93.648 192.012 92.753 192.243 C 92.449 192.741 92.089 193.147 91.683 193.433 C 90.945 193.94 90.013 194.115 89.081 194.115 C 89.035 194.115 88.98 194.115 88.934 194.106 C 88.251 194.641 87.799 195.149 87.67 195.462 C 87.771 195.887 88.343 196.726 89.284 197.584 L 102.071 197.584 C 102.449 197.252 102.744 196.948 102.92 196.717 C 102.246 195.481 99.405 192.28 95.668 191.984 Z " fill="rgb(255,229,201)"/><path d=" M 49.679 196.256 C 49.864 194.964 49.688 193.719 49.356 192.602 C 48.729 192.704 48.083 192.778 47.4 192.778 C 47.105 192.778 46.81 192.769 46.515 192.741 C 45.131 192.63 43.895 192.298 42.815 191.864 C 42.216 192.815 41.745 193.903 41.57 195.112 C 41.45 195.97 41.468 196.8 41.579 197.584 L 49.393 197.584 C 49.513 197.16 49.615 196.717 49.679 196.256 Z " fill="rgb(255,229,201)"/><path d=" M 62.927 173.183 C 63.204 173.589 63.444 174.013 63.674 174.447 C 63.905 174.124 64.117 173.773 64.32 173.404 C 63.868 170.72 64.2 168.053 64.901 166.282 C 64.219 164.289 63.019 162.758 62.383 162.223 C 61.156 162.795 58.01 165.276 57.309 168.755 C 59.412 169.659 61.488 171.107 62.927 173.183 Z " fill="rgb(255,229,201)"/><path d=" M 68.333 167.546 C 67.798 168.847 67.115 173.072 69.237 176.153 C 69.514 176.559 69.828 176.928 70.151 177.26 C 72.641 177.546 74.948 178.709 76.747 180.157 C 76.793 179.475 76.977 177.648 77.605 176.209 C 77.494 174.723 77.051 173.044 75.99 171.504 C 73.822 168.358 69.689 167.5 68.333 167.546 Z " fill="rgb(255,229,201)"/><path d=" M 39.457 184.373 C 39.697 185.379 42.548 188.728 46.801 189.069 C 50.297 189.346 53.342 187.132 54.44 185.932 C 52.807 185.01 51.257 183.718 50.085 182.021 C 49.956 181.836 49.854 181.643 49.744 181.458 C 49.024 181.172 48.258 180.96 47.447 180.895 C 43.231 180.554 39.863 183.414 39.457 184.373 Z " fill="rgb(255,229,201)"/><path d=" M 64.532 184.825 C 66.488 185.425 68.259 188.054 68.619 188.617 C 68.702 188.746 68.794 188.912 68.887 189.069 C 72.688 189.346 75.953 186.698 76.747 185.628 C 76.073 184.392 73.232 181.2 69.496 180.895 C 67.89 180.766 66.405 181.098 65.169 181.615 C 65.113 182.805 64.892 183.912 64.532 184.825 Z " fill="rgb(255,229,201)"/><path d=" M 67.125 196.394 C 67.125 196.394 67.125 196.394 67.125 196.394 C 67.429 192.575 64.763 189.291 63.683 188.497 C 62.447 189.171 59.255 192.012 58.951 195.748 C 58.895 196.385 58.932 197.003 59.006 197.593 L 66.94 197.593 C 67.023 197.197 67.088 196.809 67.125 196.394 Z " fill="rgb(255,229,201)"/><path d=" M 81.839 186.366 C 84.238 189.853 88.583 190.665 89.58 190.379 C 90.207 189.558 91.009 185.231 88.583 181.716 C 86.415 178.561 82.273 177.703 80.926 177.759 C 80.4 179.059 79.727 183.285 81.839 186.366 Z " fill="rgb(255,229,201)"/><path d=" M 60.879 183.94 C 61.506 183.119 62.309 178.792 59.883 175.277 C 57.715 172.122 53.563 171.273 52.225 171.319 C 51.69 172.62 51.008 176.845 53.13 179.927 C 55.537 183.414 59.883 184.226 60.879 183.94 Z " fill="rgb(255,229,201)"/><path d=" M 107.422 204.042 L 11.873 204.042 C 13.746 212.603 22.15 226.488 34.476 230.15 C 35.924 230.584 36.865 231.949 36.782 233.425 L 36.782 237.374 L 81.996 237.374 L 81.996 233.398 C 81.996 231.959 82.946 230.695 84.33 230.298 C 96.923 226.654 105.521 212.668 107.422 204.042 Z  M 63.001 231.792 C 61.986 231.774 61.174 230.934 61.193 229.91 C 61.211 228.886 62.097 228.075 63.075 228.102 C 63.324 228.093 78.942 228.213 87.771 218.01 C 88.436 217.244 89.607 217.152 90.373 217.825 C 91.148 218.489 91.231 219.661 90.557 220.427 C 81.055 231.405 65.39 231.792 63.231 231.792 C 63.121 231.792 63.038 231.792 63.001 231.792 Z " fill="rgb(252,180,95)"/><path d=" M 90.557 220.417 C 91.222 219.652 91.139 218.48 90.373 217.816 C 89.607 217.152 88.436 217.235 87.771 218 C 78.942 228.204 63.324 228.084 63.075 228.093 C 62.097 228.065 61.211 228.886 61.193 229.901 C 61.174 230.916 61.986 231.765 63.001 231.783 C 63.038 231.783 63.112 231.783 63.231 231.783 C 65.399 231.792 81.055 231.405 90.557 220.417 Z " fill="rgb(45,45,48)"/><path d=" M 283.943 176.338 C 282.005 160.387 279.782 155.82 279.468 155.239 C 278.767 154.344 278.73 153.329 279.145 152.259 C 280.335 149.206 281.313 145.866 281.682 143.726 C 277.715 144.482 273.933 143.643 269.357 142.619 C 262.881 141.179 254.015 139.196 239.346 140.903 C 229.364 142.065 223.285 143.587 218.857 144.704 C 213.109 146.152 209.788 146.982 205.627 144.538 C 203.939 154.27 201.236 178.939 201.236 190.324 C 201.236 204.716 205.12 225.796 206.541 228.388 C 208.238 230.805 207.288 233.85 206.365 236.802 C 205.47 239.653 204.815 242.07 205.766 242.743 C 208.201 244.478 219.825 243.324 231.062 242.199 C 234.623 241.839 238.304 241.479 242.225 241.129 C 259.144 239.634 269.929 239.487 277.07 239.385 C 282.227 239.311 286.683 239.247 287.273 238.536 C 290.474 234.671 286.904 228.942 286.157 227.825 C 284.542 225.436 284.865 223.849 285.243 222.004 C 285.769 219.421 287.005 213.369 285.585 194.272 C 285.456 192.51 286.766 190.979 288.518 190.822 L 288.214 187.399 C 288.177 187.399 288.14 187.408 288.113 187.408 C 286.295 187.408 284.828 185.942 284.828 184.124 C 284.828 182.473 286.046 181.126 287.633 180.886 L 287.476 179.142 C 285.705 179.308 284.155 178.072 283.943 176.338 Z  M 261.663 208.157 C 261.635 208.646 261.414 209.107 261.054 209.43 C 260.713 209.734 260.279 209.9 259.827 209.9 C 259.79 209.9 259.763 209.9 259.726 209.9 L 242.797 208.959 C 241.782 208.904 240.998 208.028 241.053 207.013 L 241.182 204.752 L 235.361 212.124 C 235.001 212.585 234.457 212.825 233.913 212.825 C 233.516 212.825 233.11 212.696 232.769 212.428 L 219.466 201.911 C 218.663 201.284 218.534 200.121 219.161 199.319 L 229.678 186.015 C 230.315 185.213 231.468 185.084 232.271 185.711 L 234.106 187.159 L 234.106 177.749 C 234.106 176.735 234.937 175.904 235.951 175.904 L 252.908 175.904 C 253.923 175.904 254.753 176.735 254.753 177.749 L 254.753 188.931 L 260.879 189.272 C 261.368 189.3 261.829 189.521 262.152 189.881 C 262.475 190.25 262.65 190.73 262.622 191.209 L 261.663 208.157 Z  M 263.204 157.158 C 258.434 158.57 251.524 159.04 244.448 159.04 C 230.933 159.04 216.818 157.333 215.932 157.223 C 214.917 157.093 214.198 156.18 214.327 155.165 C 214.456 154.151 215.369 153.431 216.384 153.56 C 216.707 153.597 249.024 157.518 262.161 153.625 C 263.139 153.339 264.163 153.892 264.458 154.87 C 264.744 155.839 264.182 156.872 263.204 157.158 Z " fill="rgb(161,172,208)"/><path d=" M 291.397 223.854 C 291.434 223.651 291.489 223.347 291.554 223.07 C 292.181 219.979 293.491 213.558 292.015 193.567 C 291.886 191.786 290.336 190.458 288.555 190.587 C 288.537 190.587 288.518 190.596 288.5 190.596 C 286.747 190.753 285.437 192.284 285.566 194.047 C 286.978 213.143 285.751 219.195 285.225 221.778 C 284.847 223.624 284.524 225.22 286.138 227.6 C 286.886 228.707 290.465 234.436 287.255 238.311 C 286.664 239.021 282.208 239.085 277.051 239.159 C 269.911 239.261 259.126 239.408 242.206 240.903 C 238.286 241.244 234.605 241.613 231.044 241.973 C 219.807 243.089 208.183 244.252 205.747 242.517 C 204.797 241.844 205.461 239.427 206.347 236.576 C 207.269 233.624 208.229 230.58 206.522 228.162 C 205.101 225.57 201.217 204.49 201.217 190.098 C 201.217 178.723 203.921 154.045 205.609 144.312 C 209.769 146.757 213.1 145.917 218.838 144.478 C 223.276 143.362 229.346 141.839 239.328 140.677 C 253.997 138.97 262.862 140.944 269.339 142.393 C 273.924 143.417 277.697 144.256 281.664 143.5 C 281.295 145.64 280.317 148.98 279.127 152.034 C 278.712 153.104 278.749 154.118 279.45 155.013 C 279.773 155.604 281.987 160.17 283.924 176.112 C 284.136 177.847 285.686 179.083 287.421 178.935 C 287.458 178.935 287.485 178.935 287.522 178.935 C 289.293 178.723 290.557 177.108 290.336 175.337 C 288.703 161.868 286.775 155.696 285.649 153.048 C 290.096 141.092 287.661 138.583 286.849 137.734 C 286.258 137.125 284.598 135.806 281.885 136.765 C 278.749 137.872 275.566 137.162 270.741 136.092 C 263.813 134.551 254.329 132.439 238.581 134.265 C 231.975 135.031 226.92 135.981 222.99 136.848 C 221.348 128.776 219.705 121.082 218.22 114.347 C 227.335 111.783 233.876 104.882 233.876 96.782 C 233.876 86.505 223.331 78.146 210.36 78.146 L 194.16 78.146 C 192.389 75.942 190.377 73.478 188.09 70.683 C 185.276 67.251 182.619 64.004 180.469 61.273 C 180.377 61.162 180.285 61.033 180.192 60.913 C 182.637 56.789 184.824 53.173 185.257 52.619 C 187.176 50.248 183.947 47.306 180.811 44.455 C 180.617 44.28 180.432 44.113 180.257 43.947 C 181.77 40.82 188.975 30.58 192.998 24.869 C 198.394 17.193 198.413 17.11 198.514 16.455 C 198.902 13.974 194.151 11.575 191.291 10.367 C 189.206 9.49 188.163 10.689 178.827 24.574 C 175.534 29.473 171.096 36.087 169.592 37.49 C 168.974 37.443 168.412 37.222 167.618 36.908 C 167.065 36.687 166.41 36.447 165.653 36.235 C 159.278 25.044 154.666 18.347 150.32 17.692 C 148.909 17.479 147.59 17.913 146.519 18.946 C 144.37 21.031 142.552 23.55 140.449 26.465 C 135.661 33.117 129.701 41.392 116.121 48.985 C 105.263 55.055 98.602 67.565 94.718 78.137 L 89.432 78.137 C 76.47 78.137 65.916 86.495 65.916 96.773 C 65.916 103.553 70.51 109.495 77.356 112.761 C 75.88 124.182 73.822 141.599 72.485 159.359 C 72.355 161.047 72.245 162.68 72.134 164.285 C 70.575 163.787 69.071 163.593 67.9 163.695 C 66.562 160.659 64.375 158.445 62.853 158.233 C 60.953 157.956 56.995 160.613 54.873 164.553 C 53.923 161.969 53.231 160.032 53.13 159.562 C 52.484 156.582 48.166 157.255 43.978 157.91 C 43.719 157.947 43.47 157.993 43.24 158.021 C 41.745 154.884 38.286 142.854 36.348 136.138 C 33.756 127.125 33.691 127.06 33.249 126.562 C 31.56 124.708 26.717 126.903 23.977 128.379 C 21.993 129.449 22.27 131.018 27.243 146.996 C 28.996 152.633 31.367 160.235 31.523 162.283 C 31.099 162.735 30.573 163.04 29.835 163.455 C 28.996 163.934 27.944 164.543 26.818 165.567 C 25.453 166.813 25.49 169.627 26.911 173.944 C 26.818 173.972 26.717 173.99 26.634 174.018 C 25.923 174.23 22.344 175.365 21.569 177.413 C 20.84 179.332 22.741 182.579 23.128 183.216 C 23.359 183.594 23.608 183.954 23.866 184.304 C 22.03 184.858 20.407 185.762 19.124 186.943 C 15.941 189.895 14.724 194.249 14.982 197.34 L 8.229 197.34 C 6.448 197.34 5 198.788 5 200.569 C 5 210.929 15 229.325 30.296 235.303 L 30.296 240.368 C 30.296 242.148 31.745 243.597 33.525 243.597 L 85.197 243.597 C 86.978 243.597 88.426 242.148 88.426 240.368 L 88.426 235.478 C 89.607 235.026 90.751 234.5 91.867 233.919 C 100.41 235.266 112.053 235.829 124.996 235.829 C 149.804 235.829 179.362 233.762 200.858 231.235 C 200.904 231.318 200.95 231.419 200.987 231.493 C 200.941 232.157 200.479 233.633 200.166 234.639 C 198.957 238.495 197.14 244.316 201.974 247.767 C 204.068 249.261 207.196 249.852 211.91 249.852 C 216.679 249.852 223.073 249.252 231.662 248.394 C 235.204 248.043 238.867 247.674 242.751 247.333 C 259.43 245.866 270.077 245.719 277.116 245.617 C 286.018 245.488 289.709 245.442 292.199 242.425 C 296.96 236.678 294.93 229.131 291.452 223.983 C 291.443 223.937 291.415 223.891 291.397 223.854 Z  M 99.654 228.467 C 108.769 220.265 114.276 208.254 114.276 200.578 C 114.276 198.798 112.828 197.349 111.047 197.349 L 106.564 197.349 C 106.637 197.137 106.693 196.934 106.711 196.74 C 106.914 194.249 101.951 188.548 95.964 188.068 C 95.253 188.013 94.561 188.022 93.879 188.087 C 93.897 187.838 93.916 187.589 93.925 187.321 C 93.962 185.651 93.713 182.404 91.637 179.378 C 89.589 176.407 86.507 175.042 84.856 174.498 C 84.386 174.341 82.633 173.806 80.991 173.833 C 80.64 172.201 80.013 170.586 79.044 169.175 C 78.832 168.87 78.61 168.584 78.38 168.307 C 78.546 165.623 78.73 162.809 78.952 159.866 C 80.234 142.854 82.181 126.156 83.629 114.818 C 85.493 115.196 87.448 115.399 89.46 115.399 L 111.066 115.399 C 112.846 115.399 114.295 113.951 114.295 112.17 C 114.295 110.39 112.846 108.941 111.066 108.941 L 89.46 108.941 C 80.059 108.941 72.402 103.48 72.402 96.763 C 72.402 90.047 80.05 84.586 89.46 84.586 L 92.615 84.586 C 90.797 90.748 90.041 95.297 89.958 95.804 C 89.875 96.302 90.004 96.8 90.308 97.206 C 90.613 97.603 91.056 97.871 91.554 97.926 C 95.327 98.396 111.868 98.553 131.14 98.553 C 162.157 98.553 200.221 98.138 203.459 97.935 C 204.391 97.88 205.166 97.354 205.526 96.542 C 206.273 94.817 205.129 92.225 199.271 84.586 L 210.388 84.586 C 219.788 84.586 227.446 90.047 227.446 96.763 C 227.446 103.48 219.798 108.941 210.388 108.941 L 132.284 108.941 C 130.504 108.941 129.055 110.39 129.055 112.17 C 129.055 113.951 130.504 115.399 132.284 115.399 L 210.388 115.399 C 210.886 115.399 211.375 115.381 211.864 115.362 C 213.367 122.143 215.046 129.985 216.735 138.343 C 210.295 139.957 209.779 139.967 206.089 136.535 C 205.111 135.631 203.699 135.381 202.481 135.917 C 200.618 136.728 199.594 137.171 197.103 159.193 C 196.033 168.63 194.787 182.385 194.787 190.098 C 194.787 195.495 195.433 203.143 196.392 210.449 L 180.525 212.627 C 179.519 212.765 178.809 213.697 178.947 214.702 C 179.076 215.625 179.87 216.298 180.774 216.298 C 180.857 216.298 180.94 216.289 181.023 216.28 L 196.9 214.103 C 197.509 218.153 198.201 221.954 198.92 225.044 C 187.102 226.382 172.434 227.627 156.594 228.467 C 132.69 229.722 112.865 229.685 99.654 228.467 Z  M 81.987 233.163 L 81.987 237.139 L 36.773 237.139 L 36.773 233.19 C 36.856 231.714 35.915 230.34 34.466 229.915 C 22.141 226.253 13.737 212.368 11.864 203.807 L 107.412 203.807 C 105.512 212.433 96.914 226.419 84.312 230.063 C 82.937 230.46 81.987 231.724 81.987 233.163 Z  M 21.661 189.646 C 23.553 187.884 26.182 187.376 28.073 187.34 C 27.796 188.188 27.612 189.046 27.538 189.904 C 27.4 191.583 27.639 193.216 28.101 194.711 C 27.842 195.043 27.566 195.366 27.243 195.661 C 26.422 196.417 25.527 196.962 24.623 197.358 L 18.691 197.358 C 18.488 195.809 18.967 192.155 21.661 189.646 Z  M 29.485 168.16 C 30.25 167.486 30.988 167.071 31.699 166.665 C 32.76 166.056 33.848 165.429 34.78 164.165 C 35.822 162.754 35.297 160.364 30.795 145.908 C 29.162 140.649 26.975 133.656 26.615 131.212 C 27.916 130.593 29.595 129.938 30.628 129.652 C 31.117 131.193 31.985 134.219 32.833 137.171 C 34.199 141.913 35.896 147.827 37.391 152.495 C 40.057 160.862 40.841 161.951 42.585 161.831 C 43.055 161.803 43.729 161.693 44.577 161.563 C 45.721 161.388 48.554 160.945 49.753 161.056 C 50.15 162.302 51.035 164.737 52.041 167.449 C 51.201 167.495 50.509 167.662 50.057 167.975 C 48.6 168.981 47.53 173.012 48.24 177.044 C 48.083 177.025 47.926 176.989 47.76 176.979 C 44.79 176.739 42.308 177.634 40.703 178.446 C 39.273 176.647 37.308 175.042 35.029 174.184 C 33.525 173.612 32.049 173.437 30.712 173.437 C 29.826 170.937 29.337 168.935 29.485 168.16 Z  M 62.383 161.997 C 63.019 162.532 64.209 164.064 64.901 166.056 C 64.191 167.828 63.859 170.494 64.32 173.178 C 64.117 173.547 63.905 173.898 63.674 174.221 C 63.453 173.787 63.204 173.354 62.927 172.957 C 61.497 170.881 59.412 169.433 57.309 168.538 C 58.01 165.051 61.156 162.578 62.383 161.997 Z  M 88.592 181.481 C 91.009 184.996 90.216 189.323 89.589 190.144 C 88.592 190.43 84.247 189.618 81.849 186.131 C 79.727 183.05 80.409 178.824 80.944 177.524 C 82.282 177.468 86.424 178.326 88.592 181.481 Z  M 31.219 190.19 C 31.514 186.463 34.715 183.612 35.952 182.939 C 35.952 182.939 35.961 182.948 35.961 182.948 C 35.859 183.234 35.795 183.529 35.767 183.834 C 35.638 185.458 36.81 187.487 38.904 189.277 C 39.042 189.397 39.208 189.535 39.383 189.664 C 39.393 189.821 39.411 189.978 39.411 190.135 C 38.673 191.417 38.12 192.847 37.907 194.36 C 37.861 194.665 37.843 194.969 37.824 195.264 C 37.252 196.141 36.607 196.842 36.035 197.34 L 33.691 197.34 C 32.501 196.021 30.97 193.345 31.219 190.19 Z  M 53.13 179.692 C 51.008 176.61 51.69 172.385 52.225 171.084 C 53.563 171.038 57.705 171.887 59.883 175.042 C 62.3 178.557 61.506 182.884 60.879 183.705 C 59.883 183.991 55.537 183.179 53.13 179.692 Z  M 73.73 197.349 C 72.383 196.574 71.378 195.606 70.806 194.84 C 70.778 194.342 70.713 193.853 70.621 193.391 C 70.898 193.069 71.313 192.681 71.857 192.294 C 73.804 191.888 75.391 191.094 76.396 190.476 C 76.996 190.393 77.623 190.366 78.278 190.421 C 80.898 190.633 83.076 192.266 84.376 193.65 C 84.155 194.093 84.017 194.526 83.989 194.932 C 83.952 195.393 84.035 195.892 84.201 196.408 C 83.786 196.722 83.306 197.054 82.762 197.349 L 73.73 197.349 L 73.73 197.349 Z  M 69.505 180.66 C 73.232 180.956 76.083 184.157 76.756 185.393 C 75.963 186.463 72.688 189.111 68.896 188.834 C 68.804 188.677 68.711 188.52 68.628 188.382 C 68.269 187.819 66.497 185.19 64.541 184.59 C 64.901 183.677 65.123 182.57 65.187 181.38 C 66.423 180.863 67.9 180.531 69.505 180.66 Z  M 50.094 181.786 C 51.266 183.483 52.816 184.766 54.449 185.697 C 53.351 186.897 50.297 189.111 46.81 188.834 C 42.557 188.493 39.706 185.144 39.467 184.138 C 39.872 183.179 43.24 180.328 47.465 180.66 C 48.277 180.725 49.043 180.937 49.762 181.223 C 49.864 181.408 49.965 181.601 50.094 181.786 Z  M 41.57 194.877 C 41.736 193.668 42.216 192.58 42.815 191.629 C 43.895 192.063 45.131 192.395 46.515 192.506 C 46.819 192.534 47.114 192.543 47.4 192.543 C 48.083 192.543 48.738 192.469 49.356 192.367 C 49.698 193.484 49.864 194.729 49.679 196.021 C 49.615 196.482 49.513 196.925 49.384 197.349 L 41.57 197.349 C 41.468 196.565 41.441 195.735 41.57 194.877 Z  M 52.871 191.26 C 53.554 190.938 54.144 190.605 54.587 190.329 C 55.067 190.024 57.032 188.705 57.982 187.118 C 58.351 187.201 58.711 187.284 59.062 187.33 C 57.189 189.305 55.537 192.118 55.288 195.218 C 55.233 195.938 55.242 196.657 55.307 197.349 L 53.185 197.349 C 53.24 197.082 53.305 196.814 53.342 196.537 C 53.609 194.563 53.323 192.755 52.871 191.26 Z  M 58.951 195.504 C 59.246 191.777 62.447 188.926 63.683 188.253 C 64.754 189.046 67.429 192.331 67.125 196.15 C 67.125 196.15 67.125 196.15 67.125 196.15 C 67.088 196.565 67.023 196.953 66.94 197.34 L 59.006 197.34 C 58.932 196.759 58.905 196.141 58.951 195.504 Z  M 102.08 197.349 L 89.294 197.349 C 88.353 196.491 87.781 195.652 87.679 195.227 C 87.808 194.914 88.26 194.406 88.943 193.871 C 88.989 193.871 89.044 193.88 89.091 193.88 C 90.022 193.88 90.954 193.705 91.692 193.198 C 92.098 192.921 92.458 192.506 92.762 192.008 C 93.666 191.777 94.644 191.666 95.678 191.749 C 99.405 192.045 102.255 195.246 102.929 196.482 C 102.754 196.713 102.458 197.017 102.08 197.349 Z  M 75.99 171.278 C 77.042 172.809 77.485 174.498 77.605 175.983 C 76.977 177.413 76.793 179.24 76.747 179.931 C 74.948 178.483 72.651 177.321 70.151 177.035 C 69.828 176.703 69.523 176.334 69.237 175.928 C 67.115 172.846 67.798 168.621 68.333 167.32 C 69.689 167.265 73.822 168.123 75.99 171.278 Z  M 33.71 177.634 C 34.725 178.022 35.592 178.566 36.321 179.175 C 36.284 179.175 36.247 179.157 36.21 179.157 C 34.162 179.009 31.569 181.721 31.071 182.275 C 30.638 182.745 30.25 183.243 29.89 183.751 C 29.3 183.677 28.71 183.659 28.211 183.659 C 26.376 181.97 25.37 179.71 25.158 178.723 C 26.228 177.92 30.13 176.269 33.71 177.634 Z  M 143.466 28.615 C 145.468 25.838 147.193 23.439 149.103 21.594 C 149.407 21.299 149.601 21.299 149.794 21.336 C 152.534 21.751 157.203 28.928 161.64 36.604 C 159.297 38.2 156.538 42.333 153.411 48.975 C 153.309 49.188 153.254 49.418 153.236 49.649 C 152.608 59.741 170.626 69.225 172.683 70.277 C 172.95 70.415 173.236 70.48 173.522 70.48 C 174.159 70.48 174.777 70.148 175.118 69.567 C 176.023 68.008 177.093 66.19 178.181 64.336 C 180.239 66.928 182.665 69.89 185.239 73.035 C 191.023 80.102 199.428 90.352 201.54 94.346 C 188.339 94.669 109.534 95.306 93.962 94.457 C 95.465 87.104 101.813 61.254 117.939 52.232 C 132.238 44.206 138.466 35.561 143.466 28.615 Z  M 181.899 26.622 C 184.971 22.055 189.058 15.976 190.737 14.158 C 192.029 14.786 193.597 15.68 194.464 16.317 C 193.569 17.664 191.761 20.238 189.99 22.747 C 187.149 26.788 183.606 31.816 180.903 35.903 C 176.05 43.219 175.7 44.519 176.881 45.802 C 177.194 46.143 177.702 46.604 178.338 47.186 C 179.196 47.97 181.309 49.889 181.973 50.903 C 180.276 53.459 175.155 62.195 172.831 66.162 C 167.258 63.053 156.944 56.07 156.917 50.202 C 159.38 45.054 162.47 40.23 163.743 39.556 C 164.749 39.731 165.533 40.045 166.299 40.34 C 167.434 40.783 168.605 41.244 170.183 41.18 C 171.917 41.097 173.449 39.187 181.899 26.622 Z " fill="rgb(45,45,48)"/><path d=" M 262.161 153.625 C 249.033 157.527 216.707 153.606 216.384 153.56 C 215.369 153.431 214.456 154.151 214.327 155.165 C 214.198 156.18 214.917 157.093 215.932 157.223 C 216.827 157.333 230.933 159.04 244.448 159.04 C 251.524 159.04 258.443 158.57 263.204 157.158 C 264.182 156.872 264.735 155.839 264.449 154.861 C 264.163 153.892 263.13 153.329 262.161 153.625 Z " fill="rgb(45,45,48)"/><path d=" M 241.312 192.87 L 241.828 192.87 L 241.985 190.075 C 242.04 189.06 242.917 188.285 243.932 188.331 L 251.044 188.728 L 251.044 179.594 L 237.778 179.594 L 237.778 190.075 L 241.312 192.87 Z " fill="rgb(255,229,201)"/><path d=" M 241.561 197.769 L 231.413 189.743 L 223.183 200.158 L 233.599 208.387 L 241.533 198.341 L 241.561 197.769 Z " fill="rgb(255,229,201)"/><rect x="245.167" y="192.682" width="13.26" height="13.26" transform="matrix(0.056,-0.998,0.998,0.056,38.691,439.548)" fill="rgb(255,229,201)"/><path d=" M 260.87 189.281 L 254.744 188.94 L 254.744 177.759 C 254.744 176.744 253.914 175.914 252.899 175.914 L 235.942 175.914 C 234.927 175.914 234.097 176.744 234.097 177.759 L 234.097 187.169 L 232.261 185.72 C 231.459 185.093 230.305 185.222 229.669 186.025 L 219.152 199.328 C 218.525 200.131 218.654 201.284 219.456 201.92 L 232.759 212.437 C 233.101 212.705 233.498 212.834 233.903 212.834 C 234.448 212.834 234.992 212.594 235.352 212.133 L 241.173 204.762 L 241.044 207.022 C 240.989 208.037 241.764 208.913 242.788 208.969 L 259.716 209.91 C 259.753 209.91 259.781 209.91 259.818 209.91 C 260.27 209.91 260.713 209.743 261.045 209.439 C 261.414 209.116 261.626 208.655 261.654 208.166 L 262.595 191.237 C 262.622 190.748 262.456 190.268 262.124 189.909 C 261.811 189.521 261.359 189.309 260.87 189.281 Z  M 258.084 206.109 L 244.836 205.371 L 245.574 192.123 L 258.822 192.861 L 258.084 206.109 Z  M 233.599 208.387 L 223.183 200.158 L 231.413 189.743 L 241.561 197.76 L 241.533 198.341 L 233.599 208.387 Z  M 251.044 179.594 L 251.044 188.728 L 243.932 188.331 C 242.917 188.285 242.04 189.051 241.985 190.075 L 241.828 192.87 L 241.312 192.87 L 237.778 190.075 L 237.778 179.594 L 251.044 179.594 Z " fill="rgb(45,45,48)"/><path d=" M 121.73 115.643 L 121.933 115.643 C 123.714 115.643 125.162 114.195 125.162 112.414 C 125.162 110.634 123.714 109.185 121.933 109.185 L 121.73 109.185 C 119.95 109.185 118.501 110.634 118.501 112.414 C 118.501 114.195 119.941 115.643 121.73 115.643 Z " fill="rgb(45,45,48)"/><path d=" M 284.791 184.143 C 284.791 185.96 286.258 187.427 288.076 187.427 C 288.113 187.427 288.149 187.418 288.177 187.418 C 289.939 187.362 291.36 185.923 291.36 184.143 C 291.36 182.325 289.893 180.858 288.076 180.858 C 287.91 180.858 287.753 180.886 287.596 180.905 C 286.009 181.135 284.791 182.491 284.791 184.143 Z " fill="rgb(45,45,48)"/></g>
</svg>