<?xml version="1.0" encoding="UTF-8" standalone="no"?><!-- Generator: Gravit.io --><svg xmlns="http://www.w3.org/2000/svg" xmlns:xlink="http://www.w3.org/1999/xlink" style="isolation:isolate" viewBox="0 0 300 260" width="300pt" height="260pt"><defs><clipPath id="_clipPath_mVOhWYXb3Ht9sjJ16s2InccDyqtO6era"><rect width="300" height="260"/></clipPath></defs><g clip-path="url(#_clipPath_mVOhWYXb3Ht9sjJ16s2InccDyqtO6era)"><clipPath id="_clipPath_9aaKwYIhRNKFoFlA1IFLubFtvdGwKh0C"><rect x="0" y="0" width="300" height="260" transform="matrix(1,0,0,1,0,0)" fill="rgb(255,255,255)"/></clipPath><g clip-path="url(#_clipPath_9aaKwYIhRNKFoFlA1IFLubFtvdGwKh0C)"><g><rect x="0" y="0" width="300" height="260" transform="matrix(1,0,0,1,0,0)" fill="none"/><g><path d=" M 129.355 103.24 C 129.29 103.354 129.225 103.468 129.152 103.573 C 129.25 103.525 129.355 103.468 129.46 103.419 C 129.42 103.362 129.387 103.297 129.355 103.24 Z " fill="none"/><path d=" M 91.158 179.109 L 108.609 179.109 C 106.027 177.794 103.745 176.21 101.81 174.277 C 99.512 171.987 97.763 169.323 96.541 166.245 C 95.554 168.787 94.453 171.508 93.206 174.464 C 92.526 176.08 91.846 177.623 91.158 179.109 Z " fill="none"/><path d=" M 78.766 53.059 C 82.32 57.697 84.756 63.763 85.63 68.823 L 90.082 68.823 C 90.98 62.854 93.846 56.032 97.933 51.378 C 95.392 47.09 91.992 43.769 88.56 43.769 C 84.821 43.769 81.203 47.975 78.766 53.059 Z " fill="rgb(255,229,201)"/><path d=" M 127.218 68.823 L 131.67 68.823 C 132.512 63.235 135.077 56.893 138.76 52.296 C 136.17 47.577 132.544 43.777 128.869 43.777 C 125.372 43.777 121.981 47.448 119.569 52.085 C 123.551 56.811 126.287 63.398 127.218 68.823 Z " fill="rgb(255,229,201)"/><path d=" M 54.249 68.823 L 79.891 68.823 C 78.305 61.172 72.566 51.533 66.706 51.533 C 61.056 51.533 55.706 61.091 54.249 68.823 Z  M 67.993 54.635 C 68.284 54.765 75.156 57.981 75.075 66.362 C 75.067 67.255 74.347 67.97 73.457 67.97 C 73.448 67.97 73.448 67.97 73.44 67.97 C 72.55 67.962 71.83 67.223 71.838 66.329 C 71.894 60.109 66.868 57.688 66.657 57.591 C 65.848 57.217 65.492 56.251 65.864 55.439 C 66.228 54.627 67.184 54.269 67.993 54.635 Z " fill="rgb(255,229,201)"/><path d=" M 65.856 55.439 C 65.484 56.251 65.84 57.217 66.649 57.591 C 66.86 57.688 71.894 60.109 71.83 66.329 C 71.821 67.223 72.542 67.962 73.432 67.97 C 73.44 67.97 73.44 67.97 73.448 67.97 C 74.339 67.97 75.059 67.255 75.067 66.362 C 75.148 57.981 68.276 54.765 67.985 54.635 C 67.184 54.269 66.228 54.627 65.856 55.439 Z " fill="rgb(53,78,155)"/><path d=" M 95.837 68.823 L 121.479 68.823 C 119.893 61.172 114.154 51.533 108.294 51.533 C 102.644 51.533 97.294 61.091 95.837 68.823 Z  M 109.581 54.635 C 109.872 54.765 116.744 57.981 116.663 66.362 C 116.655 67.255 115.935 67.97 115.044 67.97 C 115.036 67.97 115.036 67.97 115.028 67.97 C 114.138 67.962 113.417 67.223 113.426 66.329 C 113.49 60.044 108.302 57.615 108.245 57.591 C 107.428 57.225 107.072 56.259 107.436 55.439 C 107.808 54.627 108.763 54.269 109.581 54.635 Z " fill="rgb(255,229,201)"/><path d=" M 107.436 55.447 C 107.072 56.267 107.428 57.225 108.245 57.599 C 108.294 57.623 113.482 60.044 113.426 66.338 C 113.417 67.231 114.138 67.97 115.028 67.978 C 115.036 67.978 115.036 67.978 115.044 67.978 C 115.935 67.978 116.655 67.263 116.663 66.37 C 116.744 57.989 109.872 54.773 109.581 54.643 C 108.763 54.269 107.808 54.627 107.436 55.447 Z " fill="rgb(53,78,155)"/><path d=" M 137.425 68.823 L 163.067 68.823 C 161.481 61.172 155.742 51.533 149.882 51.533 C 144.232 51.533 138.882 61.091 137.425 68.823 Z  M 149.032 55.447 C 149.404 54.627 150.359 54.269 151.177 54.635 C 151.468 54.765 158.34 57.981 158.259 66.362 C 158.251 67.255 157.531 67.97 156.64 67.97 C 156.632 67.97 156.632 67.97 156.624 67.97 C 155.734 67.962 155.013 67.223 155.021 66.329 C 155.086 60.044 149.898 57.615 149.841 57.591 C 149.024 57.225 148.659 56.267 149.032 55.447 Z " fill="rgb(255,229,201)"/><path d=" M 149.841 57.599 C 149.89 57.623 155.078 60.044 155.021 66.338 C 155.013 67.231 155.734 67.97 156.624 67.978 C 156.632 67.978 156.632 67.978 156.64 67.978 C 157.531 67.978 158.251 67.263 158.259 66.37 C 158.34 57.989 151.468 54.773 151.177 54.643 C 150.359 54.278 149.404 54.635 149.032 55.455 C 148.659 56.267 149.024 57.225 149.841 57.599 Z " fill="rgb(53,78,155)"/><path d=" M 49.854 87.331 C 49.676 88.224 49.579 89.142 49.579 90.076 L 49.579 93.203 C 49.579 100.431 55.034 106.4 62.036 107.187 C 63.517 105.157 65.03 103.127 66.568 101.129 C 72.574 93.316 79.114 89.613 85.007 88.76 C 84.958 88.273 84.894 87.794 84.804 87.323 L 49.854 87.323 L 49.854 87.331 L 49.854 87.331 L 49.854 87.331 Z " fill="rgb(136,150,194)"/><path d=" M 62.036 107.196 C 55.042 106.4 49.579 100.439 49.579 93.211 L 49.579 90.084 C 49.579 89.142 49.676 88.224 49.854 87.339 L 84.796 87.339 C 84.894 87.81 84.958 88.289 84.999 88.777 C 87.095 88.476 89.111 88.533 90.988 88.89 C 91.029 88.362 91.102 87.843 91.199 87.339 L 126.141 87.339 C 126.32 88.232 126.417 89.15 126.417 90.084 L 126.417 93.211 C 126.417 100.601 120.702 106.676 113.482 107.236 L 116.331 110.03 C 116.866 110.558 117.173 111.281 117.181 112.028 C 117.181 112.093 117.181 112.149 117.181 112.214 C 117.942 113.993 118.242 115.861 118.096 117.713 C 128.772 108.544 143.439 102.071 160.04 99.854 C 151.873 105.791 144.863 113.124 143.803 121.205 C 142.84 128.546 146.66 135.384 155.159 141.548 C 158.332 143.847 163.237 145.698 168.345 145.698 C 170.077 145.698 171.833 145.487 173.557 145.008 C 178.802 143.554 182.801 139.916 185.132 134.483 C 188.45 126.743 193.404 113.782 196.706 105.011 C 202.186 107.691 207.707 111.264 213.259 115.731 C 214.425 116.673 216.1 116.519 217.096 115.439 C 217.144 115.39 217.193 115.349 217.241 115.292 C 218.221 114.066 218.027 112.279 216.804 111.297 C 210.766 106.432 204.72 102.558 198.706 99.667 C 199.588 97.304 200.13 95.834 200.155 95.777 C 200.381 95.16 200.381 94.494 200.179 93.893 L 207.188 85.755 C 208.759 86.787 210.612 87.266 212.514 87.128 C 214.813 86.957 216.901 85.91 218.407 84.164 C 219.912 82.418 220.649 80.184 220.487 77.878 C 220.317 75.571 219.273 73.476 217.533 71.966 C 216.132 70.747 214.4 70.041 212.612 69.887 C 212.207 68.132 211.26 66.516 209.851 65.298 C 206.258 62.179 200.802 62.577 197.694 66.183 C 195.177 69.107 194.958 73.249 196.876 76.375 L 189.859 84.521 C 189.389 84.448 188.896 84.489 188.434 84.667 C 187.771 84.919 181.287 87.428 173.452 91.595 L 173.452 90.084 C 173.452 89.15 173.379 88.232 173.258 87.339 L 175.281 87.339 C 176.843 87.339 178.114 86.064 178.114 84.497 L 178.114 71.673 C 178.114 70.106 176.843 68.831 175.281 68.831 L 168.822 68.831 C 167.163 59.199 159.829 45.856 149.89 45.856 C 147.413 45.856 145.082 46.757 142.953 48.268 C 139.537 42.607 134.648 38.1 128.877 38.1 C 123.398 38.1 118.622 42.477 115.295 48.154 C 113.167 46.717 110.819 45.864 108.302 45.864 C 106.173 45.864 104.158 46.53 102.28 47.667 C 98.888 42.291 94.137 38.1 88.576 38.1 C 82.886 38.1 77.957 42.818 74.614 48.812 C 72.251 46.985 69.587 45.864 66.714 45.864 C 57.357 45.864 50.056 58.606 48.51 68.839 L 38.813 68.839 C 37.251 68.839 35.98 70.114 35.98 71.681 L 35.98 84.505 C 35.98 86.072 37.251 87.347 38.813 87.347 L 44.123 87.347 C 44.002 88.249 43.929 89.166 43.929 90.092 L 43.929 93.219 C 43.929 102.307 50.072 109.973 58.409 112.279 C 59.567 110.598 60.789 108.901 62.036 107.196 Z  M 41.638 74.508 L 172.432 74.508 L 172.432 81.646 L 41.638 81.646 L 41.638 74.508 L 41.638 74.508 L 41.638 74.508 Z  M 79.883 68.823 L 54.241 68.823 C 55.698 61.091 61.048 51.533 66.698 51.533 C 72.558 51.533 78.297 61.172 79.883 68.823 Z  M 97.941 51.378 C 93.854 56.032 90.988 62.845 90.09 68.823 L 85.638 68.823 C 84.764 63.771 82.328 57.697 78.774 53.059 C 81.211 47.975 84.829 43.769 88.568 43.769 C 92 43.769 95.392 47.09 97.941 51.378 Z  M 121.471 68.823 L 95.829 68.823 C 97.286 61.091 102.636 51.533 108.286 51.533 C 114.146 51.533 119.885 61.172 121.471 68.823 Z  M 128.869 43.769 C 132.544 43.769 136.178 47.569 138.76 52.288 C 135.077 56.893 132.52 63.227 131.67 68.815 L 127.218 68.815 C 126.287 63.398 123.551 56.803 119.561 52.069 C 121.981 47.439 125.364 43.769 128.869 43.769 Z  M 149.882 51.533 C 155.742 51.533 161.481 61.172 163.067 68.823 L 137.425 68.823 C 138.882 61.091 144.232 51.533 149.882 51.533 Z  M 167.77 90.076 L 167.77 93.203 C 167.77 93.284 167.762 93.365 167.754 93.446 C 155.79 94.031 144.54 96.695 134.624 100.975 C 133.143 98.741 132.277 96.069 132.277 93.195 L 132.277 90.068 C 132.277 89.126 132.374 88.208 132.552 87.323 L 167.495 87.323 C 167.673 88.216 167.77 89.134 167.77 90.076 Z  M 207.091 72.461 C 206.873 73.476 207.229 74.524 208.006 75.206 C 208.791 75.888 209.876 76.083 210.847 75.718 C 211.859 75.344 213 75.547 213.809 76.254 L 213.809 76.254 C 214.408 76.773 214.765 77.488 214.821 78.284 C 214.878 79.072 214.627 79.835 214.109 80.436 C 213.591 81.037 212.879 81.394 212.085 81.451 C 211.3 81.508 210.539 81.256 209.941 80.737 C 209.722 80.55 209.536 80.33 209.382 80.087 C 208.904 79.332 208.095 78.844 207.197 78.779 C 206.298 78.706 205.432 79.072 204.849 79.754 L 196.229 89.759 L 194.335 88.005 L 202.753 78.243 C 203.263 77.659 203.506 76.887 203.433 76.116 C 203.36 75.344 202.971 74.629 202.364 74.15 L 202.275 74.085 C 201.045 73.013 200.907 71.145 201.976 69.903 C 203.044 68.668 204.914 68.53 206.144 69.602 C 206.954 70.301 207.318 71.405 207.091 72.461 Z  M 188.815 90.62 L 194.173 95.582 C 191.915 101.665 184.395 121.806 179.919 132.233 C 178.268 136.083 175.621 138.535 172.044 139.526 C 167.074 140.907 161.521 139.153 158.47 136.936 C 151.792 132.095 148.748 127.052 149.412 121.952 C 151.177 108.527 177.054 95.387 188.815 90.62 Z  M 129.355 103.24 C 129.387 103.297 129.42 103.362 129.46 103.419 C 129.363 103.468 129.258 103.525 129.152 103.573 C 129.217 103.46 129.282 103.354 129.355 103.24 Z " fill="rgb(66,66,69)"/><path d=" M 126.425 93.203 L 126.425 90.076 C 126.425 89.134 126.328 88.216 126.15 87.331 L 91.207 87.331 C 91.11 87.843 91.037 88.354 90.997 88.882 C 93.522 89.369 95.805 90.417 97.707 91.879 C 98.985 92.862 100.013 93.999 100.815 95.225 C 101.228 95.355 101.616 95.566 101.94 95.891 L 113.49 107.228 C 120.71 106.668 126.425 100.601 126.425 93.203 Z " fill="rgb(136,150,194)"/><path d=" M 132.552 87.331 C 132.374 88.224 132.277 89.142 132.277 90.076 L 132.277 93.203 C 132.277 96.078 133.143 98.749 134.624 100.983 C 144.548 96.703 155.79 94.039 167.754 93.454 C 167.754 93.373 167.77 93.292 167.77 93.211 L 167.77 90.084 C 167.77 89.142 167.673 88.224 167.495 87.339 L 132.552 87.339 L 132.552 87.331 L 132.552 87.331 L 132.552 87.331 Z " fill="rgb(136,150,194)"/><rect x="41.638" y="74.508" width="130.794" height="7.139" transform="matrix(1,0,0,1,0,0)" fill="rgb(161,172,208)"/><path d=" M 201.976 69.903 C 200.907 71.137 201.045 73.013 202.275 74.085 L 202.364 74.15 C 202.971 74.629 203.36 75.336 203.433 76.116 C 203.506 76.887 203.263 77.659 202.753 78.243 L 194.335 88.005 L 196.229 89.759 L 204.849 79.754 C 205.432 79.072 206.298 78.706 207.197 78.779 C 208.087 78.844 208.896 79.332 209.382 80.087 C 209.536 80.33 209.722 80.55 209.941 80.737 C 210.539 81.256 211.3 81.508 212.085 81.451 C 212.871 81.394 213.591 81.029 214.109 80.436 C 214.627 79.835 214.878 79.072 214.821 78.284 C 214.765 77.496 214.4 76.773 213.809 76.254 L 213.809 76.254 C 212.992 75.547 211.859 75.344 210.847 75.718 C 209.876 76.083 208.791 75.88 208.006 75.206 C 207.221 74.524 206.873 73.476 207.091 72.461 C 207.318 71.397 206.954 70.301 206.136 69.594 C 204.906 68.53 203.036 68.66 201.976 69.903 Z " fill="rgb(255,229,201)"/><path d=" M 213.251 115.723 C 207.698 111.248 202.178 107.683 196.698 105.003 C 193.396 113.774 188.442 126.735 185.124 134.475 C 182.793 139.908 178.794 143.546 173.549 145 C 171.825 145.479 170.069 145.69 168.336 145.69 C 163.221 145.69 158.324 143.847 155.151 141.54 C 146.652 135.384 142.832 128.538 143.795 121.197 C 144.855 113.116 151.865 105.782 160.032 99.846 C 143.431 102.063 128.764 108.536 118.088 117.704 C 117.902 120.051 116.995 122.382 115.392 124.486 C 108.027 134.126 105.485 141.345 101.64 152.285 C 101.163 153.633 100.677 155.03 100.159 156.475 C 100.588 162.371 102.442 166.895 105.793 170.233 C 111.766 176.186 122.442 178.354 135.709 179.101 L 186.872 179.101 C 187.074 178.102 187.293 177.087 187.536 176.031 C 191.016 160.958 195.589 153.072 202.372 150.466 C 202.445 150.441 202.526 150.417 202.599 150.392 C 202.623 150.384 202.64 150.368 202.664 150.36 C 205.294 149.394 223.069 142.978 236.562 140.777 C 233.503 136.627 229.893 132.038 226.113 127.718 C 225.141 126.613 225.198 124.973 226.177 123.917 L 223.806 121.708 C 223.28 122.309 222.511 122.699 221.653 122.699 C 220.058 122.699 218.771 121.408 218.771 119.808 C 218.771 119.02 219.087 118.305 219.597 117.786 L 217.08 115.439 C 216.092 116.519 214.417 116.665 213.251 115.723 Z  M 157.231 175.373 C 156.017 175.398 154.819 175.414 153.645 175.414 C 131.961 175.414 117.772 170.752 111.434 161.527 C 105.226 152.488 109.095 142.653 109.265 142.239 C 109.605 141.41 110.544 141.004 111.378 141.345 C 112.203 141.686 112.608 142.629 112.268 143.457 C 112.219 143.587 108.909 152.171 114.13 159.716 C 120.087 168.332 134.972 172.628 157.166 172.125 C 158.024 172.092 158.801 172.815 158.818 173.709 C 158.834 174.61 158.122 175.357 157.231 175.373 Z " fill="rgb(252,180,95)"/><path d=" M 149.412 121.952 C 148.74 127.06 151.792 132.103 158.47 136.936 C 161.521 139.145 167.074 140.907 172.044 139.526 C 175.621 138.535 178.276 136.083 179.919 132.233 C 184.395 121.798 191.915 101.665 194.173 95.582 L 188.815 90.62 C 177.054 95.387 151.177 108.527 149.412 121.952 Z " fill="rgb(252,180,95)"/><path d=" M 157.158 172.125 C 134.964 172.628 120.079 168.332 114.122 159.716 C 108.901 152.163 112.211 143.587 112.26 143.457 C 112.592 142.629 112.195 141.678 111.37 141.345 C 110.536 141.004 109.597 141.41 109.257 142.239 C 109.087 142.653 105.218 152.496 111.426 161.527 C 117.764 170.744 131.953 175.414 153.637 175.414 C 154.811 175.414 156.009 175.398 157.223 175.373 C 158.113 175.357 158.826 174.61 158.801 173.717 C 158.793 172.823 158.016 172.092 157.158 172.125 Z " fill="rgb(66,66,69)"/><path d=" M 86.334 192.883 L 185.415 192.883 C 185.334 190.511 185.504 187.815 185.909 184.794 L 88.342 184.794 C 87.678 186.045 87.006 187.23 86.326 188.375 L 86.326 192.883 L 86.334 192.883 L 86.334 192.883 L 86.334 192.883 Z " fill="rgb(161,172,208)"/><path d=" M 45.888 139.266 C 39.356 146.982 31.593 154.234 21.468 162.087 C 6.987 173.327 4.624 183.194 7.246 188.676 C 10.03 194.491 18.4 196.659 28.574 194.198 C 52.735 188.359 61.971 182.488 72.647 157.174 C 76.419 148.224 78.831 141.37 80.96 135.319 C 84.837 124.283 87.646 116.308 95.562 105.953 C 98.411 102.225 96.954 98.457 94.25 96.37 C 89.159 92.439 79.721 93.333 71.061 104.589 C 65.37 111.987 59.858 120.019 55.835 125.883 C 54.945 127.174 53.181 127.499 51.894 126.613 C 51.861 126.589 51.837 126.565 51.813 126.54 L 50.089 128.855 C 50.59 129.147 51.003 129.594 51.23 130.179 C 51.756 131.543 51.084 133.07 49.724 133.598 C 48.745 133.979 47.685 133.728 46.972 133.054 L 45.418 135.141 C 45.467 135.173 45.524 135.206 45.564 135.246 C 46.754 136.278 46.899 138.073 45.888 139.266 Z  M 49.514 147.201 C 51.254 146.267 52.914 145.382 54.411 144.561 C 55.892 143.749 60.384 141.272 63.428 143.79 C 67.054 146.787 64.893 153.527 62.805 160.049 C 60.312 167.829 45.256 182.536 38.652 184.827 C 37.195 185.33 35.738 185.582 34.337 185.582 C 31.844 185.582 29.546 184.786 27.797 183.259 C 24.131 180.043 23.103 174.245 24.738 166.01 C 25.895 160.235 35.738 154.567 49.514 147.201 Z " fill="rgb(150,150,152)"/><path d=" M 87.994 172.247 C 91.766 163.297 94.178 156.443 96.306 150.401 C 100.183 139.364 102.992 131.389 110.908 121.034 C 112.713 118.679 112.964 116.088 111.629 113.749 C 111.507 113.538 111.418 113.319 111.353 113.092 L 102.725 104.621 C 102.401 106.026 101.827 107.399 100.993 108.69 C 100.782 109.023 100.556 109.348 100.305 109.673 C 92.939 119.312 90.398 126.532 86.553 137.472 C 85.428 140.663 84.157 144.277 82.635 148.313 C 81.186 152.171 79.705 155.874 78.119 159.643 C 67.669 184.404 57.891 192.948 32.621 199.364 C 31.812 199.567 30.994 199.77 30.153 199.973 C 26.276 200.907 22.56 201.28 19.096 201.069 L 23.005 204.902 C 23.273 205.065 23.515 205.268 23.71 205.519 C 27.279 209.986 35.025 211.424 43.921 209.271 C 68.082 203.424 77.309 197.561 87.994 172.247 Z " fill="rgb(254,213,166)"/><path d=" M 86.334 188.367 C 87.014 187.23 87.686 186.037 88.35 184.786 C 89.297 183.007 90.236 181.123 91.167 179.101 C 91.846 177.623 92.534 176.08 93.214 174.456 C 94.461 171.5 95.554 168.779 96.549 166.237 C 97.941 162.664 99.115 159.456 100.175 156.467 C 100.693 155.022 101.179 153.625 101.657 152.277 C 105.501 141.337 108.043 134.117 115.409 124.478 C 117.011 122.374 117.918 120.043 118.104 117.696 C 118.25 115.837 117.95 113.969 117.189 112.198 C 117.189 112.133 117.197 112.076 117.189 112.011 C 117.181 111.256 116.874 110.541 116.339 110.014 L 113.49 107.22 L 101.94 95.883 C 101.608 95.558 101.219 95.347 100.815 95.217 C 100.013 93.99 98.985 92.853 97.707 91.871 C 95.813 90.409 93.53 89.361 90.997 88.874 C 89.119 88.509 87.103 88.452 85.007 88.76 C 79.122 89.613 72.582 93.316 66.568 101.129 C 65.03 103.127 63.517 105.165 62.036 107.187 C 60.789 108.893 59.567 110.598 58.393 112.255 C 55.706 116.048 53.237 119.645 51.165 122.675 C 50.299 123.933 50.599 125.647 51.813 126.557 C 51.845 126.581 51.869 126.605 51.894 126.63 C 53.181 127.515 54.945 127.19 55.835 125.899 C 59.858 120.035 65.37 111.995 71.061 104.605 C 79.721 93.341 89.151 92.447 94.25 96.386 C 96.954 98.473 98.411 102.25 95.562 105.969 C 87.646 116.324 84.845 124.299 80.96 135.336 C 78.831 141.386 76.427 148.24 72.647 157.19 C 61.971 182.504 52.735 188.367 28.574 194.215 C 18.4 196.675 10.022 194.507 7.246 188.692 C 4.624 183.21 6.979 173.343 21.468 162.103 C 31.593 154.242 39.356 146.99 45.888 139.283 C 46.899 138.089 46.754 136.294 45.564 135.279 C 45.515 135.238 45.467 135.214 45.418 135.173 C 44.228 134.28 42.545 134.45 41.574 135.604 C 35.301 143.01 27.805 150.003 18.003 157.612 C 3.434 168.917 -2.491 181.464 2.147 191.161 C 3.045 193.037 4.3 194.661 5.846 196.018 C 5.862 196.034 5.87 196.05 5.886 196.066 L 19.468 209.401 C 19.557 209.491 19.654 209.572 19.752 209.645 C 23.386 213.787 29.173 215.972 36.086 215.972 C 38.967 215.972 42.051 215.59 45.248 214.818 C 61.817 210.814 72.283 206.437 80.741 196.367 C 82.692 194.012 84.537 191.372 86.334 188.367 Z  M 23.702 205.519 C 23.499 205.268 23.265 205.065 22.997 204.902 L 19.088 201.069 C 22.552 201.28 26.267 200.915 30.145 199.973 C 30.986 199.77 31.804 199.567 32.613 199.364 C 57.883 192.948 67.661 184.404 78.111 159.643 C 79.697 155.874 81.178 152.171 82.627 148.313 C 84.149 144.277 85.42 140.663 86.545 137.472 C 90.389 126.532 92.931 119.304 100.297 109.673 C 100.548 109.348 100.774 109.015 100.985 108.69 C 101.818 107.399 102.393 106.026 102.717 104.621 L 111.345 113.092 C 111.41 113.319 111.499 113.538 111.62 113.749 C 112.956 116.088 112.697 118.679 110.9 121.034 C 102.984 131.389 100.183 139.364 96.298 150.401 C 94.169 156.451 91.766 163.297 87.986 172.247 C 77.309 197.561 68.074 203.424 43.913 209.271 C 35.025 211.424 27.279 209.978 23.702 205.519 Z " fill="rgb(66,66,69)"/><path d=" M 31.521 178.971 C 33.277 180.506 36.005 179.726 36.798 179.45 C 41.314 177.883 55.406 164.564 57.414 158.311 C 58.191 155.891 59.907 150.514 59.721 148.435 C 59.259 148.541 58.442 148.825 57.139 149.54 C 55.625 150.376 53.941 151.27 52.177 152.22 C 45.305 155.891 31.011 163.541 30.29 167.122 C 29.133 172.953 29.586 177.274 31.521 178.971 Z  M 38.093 164.954 C 38.498 162.94 44.463 160.065 47.944 158.148 C 51.424 156.232 50.242 159.919 49.457 162.379 C 48.672 164.84 43.597 169.705 41.654 170.379 C 39.712 171.053 37.025 170.322 38.093 164.954 Z " fill="rgb(255,229,201)"/><path d=" M 24.738 166.01 C 23.095 174.245 24.122 180.043 27.797 183.259 C 29.546 184.794 31.844 185.582 34.337 185.582 C 35.729 185.582 37.195 185.33 38.652 184.827 C 45.264 182.536 60.32 167.829 62.805 160.049 C 64.893 153.527 67.046 146.787 63.428 143.79 C 60.384 141.272 55.892 143.749 54.411 144.561 C 52.914 145.39 51.254 146.275 49.514 147.201 C 35.738 154.567 25.895 160.235 24.738 166.01 Z  M 52.177 152.22 C 53.941 151.278 55.625 150.376 57.139 149.54 C 58.442 148.825 59.259 148.541 59.721 148.435 C 59.907 150.514 58.183 155.891 57.414 158.311 C 55.415 164.572 41.314 177.891 36.798 179.45 C 36.005 179.726 33.277 180.506 31.521 178.971 C 29.578 177.274 29.133 172.953 30.29 167.122 C 31.011 163.541 45.305 155.891 52.177 152.22 Z " fill="rgb(66,66,69)"/><path d=" M 41.654 170.387 C 43.597 169.713 48.672 164.84 49.457 162.388 C 50.242 159.927 51.424 156.248 47.944 158.156 C 44.463 160.073 38.498 162.948 38.093 164.962 C 37.025 170.322 39.704 171.061 41.654 170.387 Z " fill="rgb(66,66,69)"/><path d=" M 49.716 133.622 C 51.076 133.094 51.748 131.567 51.222 130.203 C 50.995 129.618 50.582 129.172 50.081 128.879 C 49.409 128.489 48.583 128.384 47.806 128.692 C 46.446 129.22 45.774 130.747 46.301 132.112 C 46.446 132.493 46.681 132.81 46.956 133.078 C 47.677 133.752 48.737 134.004 49.716 133.622 Z " fill="rgb(66,66,69)"/><path d=" M 275.706 187.344 C 275.981 186.378 276.92 185.501 278.49 184.753 C 279.097 184.461 280.352 183.949 281.59 183.876 C 281.695 182.772 281.469 180.368 279.105 175.974 C 272.452 163.581 256.32 148.443 247.141 145.991 C 241.831 144.57 227.723 148.216 216.537 151.7 C 220.188 153.259 224.3 155.679 229.059 159.033 C 245.401 170.557 252.743 181.44 252.144 193.581 C 252.572 193.232 253.115 192.899 253.762 192.582 C 254.653 192.16 256.887 191.242 258.473 191.924 C 260.1 192.623 261.84 194.142 263.548 196.107 C 264.099 195.88 264.641 195.66 265.183 195.425 C 263.564 193.614 262.65 192.063 263.103 190.463 C 263.378 189.496 264.317 188.619 265.887 187.872 C 266.778 187.45 269.012 186.532 270.598 187.214 C 271.99 187.815 273.464 189.017 274.937 190.584 C 275.317 190.357 275.689 190.13 276.046 189.894 C 275.617 189.033 275.463 188.197 275.706 187.344 Z " fill="rgb(150,150,152)"/><path d=" M 251.553 198.162 C 251.439 198.73 251.31 199.307 251.156 199.883 C 251.091 200.127 251.027 200.379 250.954 200.639 C 251.609 200.436 252.273 200.216 252.937 199.997 C 252.37 199.364 251.901 198.754 251.553 198.162 Z " fill="rgb(255,229,201)"/><path d=" M 222.017 194.02 C 224.421 194.02 226.776 194.369 228.986 195.214 C 232.353 196.505 235.219 198.324 237.752 199.924 C 239.759 201.191 242.795 203.116 243.645 202.766 C 243.685 202.75 244.673 202.32 245.676 198.454 C 247.797 190.284 247.449 178.955 225.797 163.679 C 215.712 156.565 208.913 154.047 204.404 155.777 C 199.693 157.58 195.986 164.629 193.064 177.314 C 189.584 192.412 191.372 197.52 192.756 199.217 C 193.849 200.565 195.395 200.639 197.306 200.598 L 197.743 200.59 C 198.398 200.541 200.754 199.623 202.64 198.893 C 207.901 196.846 215.145 194.02 222.017 194.02 Z  M 202.712 181.359 C 203.635 176.99 207.229 171.175 211.656 169.014 C 213.826 167.951 216.61 168.462 219.921 170.533 C 224.518 173.408 230.686 180.059 230.694 182.918 C 230.702 185.257 230.006 186.938 228.622 187.921 C 226.153 189.667 222.551 188.359 220.398 187.58 C 220.026 187.442 219.71 187.328 219.475 187.263 C 214.821 185.923 212.498 187.239 210.637 188.294 C 209.657 188.847 208.564 189.472 207.334 189.472 C 206.217 189.472 204.995 188.952 203.668 187.377 C 202.502 185.98 202.178 183.909 202.712 181.359 Z " fill="rgb(150,150,152)"/><path d=" M 281.971 187.1 C 281.331 187.011 279.494 187.734 278.862 188.286 C 279.154 189.18 281.226 191.25 282.626 192.639 C 284.674 194.678 286.989 196.992 288.454 199.437 C 289.377 200.98 290.202 202.612 291.004 204.188 C 292.323 206.786 294.128 210.335 295.229 210.457 C 295.423 210.482 295.812 210.279 296.354 209.694 C 296.062 206.486 287.483 189.537 281.971 187.1 Z " fill="rgb(255,229,201)"/><path d=" M 299.373 208.354 C 298.24 203.717 292.372 192.095 286.706 186.621 C 286.746 186.508 286.803 186.402 286.843 186.288 L 286.843 186.288 C 287.92 183.056 286.989 178.679 284.091 173.27 C 277.341 160.698 260.367 143.644 248.598 140.493 C 247.117 140.095 245.231 139.981 243.078 140.07 C 240.221 136.099 235.656 130 230.378 123.974 C 229.35 122.796 227.553 122.683 226.38 123.714 C 226.307 123.779 226.25 123.852 226.185 123.925 C 225.206 124.981 225.149 126.622 226.121 127.726 C 229.901 132.047 233.511 136.643 236.57 140.785 C 223.077 142.994 205.294 149.41 202.672 150.368 C 202.648 150.376 202.631 150.392 202.607 150.401 C 202.534 150.425 202.453 150.449 202.38 150.474 C 195.598 153.081 191.016 160.958 187.544 176.039 C 187.301 177.095 187.083 178.11 186.88 179.109 L 135.717 179.109 C 122.442 178.362 111.766 176.194 105.801 170.241 C 102.45 166.903 100.596 162.379 100.167 156.483 C 99.107 159.464 97.933 162.68 96.541 166.253 C 97.763 169.323 99.512 171.995 101.81 174.285 C 103.745 176.218 106.036 177.802 108.609 179.117 L 91.158 179.117 C 90.228 181.139 89.289 183.024 88.342 184.802 L 185.909 184.802 C 185.504 187.823 185.334 190.52 185.415 192.891 L 86.334 192.891 L 86.334 188.375 C 84.546 191.38 82.692 194.02 80.741 196.351 C 81.025 197.626 82.15 198.576 83.501 198.576 L 186.241 198.576 C 186.734 200.265 187.439 201.678 188.361 202.815 C 191.3 206.429 195.444 206.34 197.435 206.291 L 197.815 206.283 C 199.321 206.267 201.207 205.552 204.687 204.196 C 210.976 201.743 220.487 198.048 226.962 200.525 C 229.804 201.613 232.418 203.27 234.725 204.732 C 237.865 206.721 240.666 208.492 243.434 208.492 C 244.057 208.492 244.681 208.394 245.304 208.199 C 247.327 207.663 251.917 206.397 257.348 204.553 C 258.724 205.982 260.06 207.485 260.942 208.963 C 261.808 210.408 262.609 211.992 263.386 213.511 C 265.491 217.653 267.304 221.226 270.153 221.535 C 270.283 221.551 270.412 221.559 270.542 221.559 C 271.869 221.559 273.164 220.804 274.378 219.317 C 275.082 218.457 274.904 217.255 274.645 216.199 C 273.86 212.991 270.801 206.421 267.118 200.874 C 267.911 200.541 268.696 200.192 269.473 199.843 C 270.857 201.272 272.193 202.783 273.075 204.261 C 273.941 205.706 274.742 207.282 275.511 208.809 C 277.616 212.95 279.429 216.532 282.278 216.84 C 282.408 216.857 282.537 216.865 282.667 216.865 C 283.994 216.865 285.281 216.11 286.495 214.623 C 287.199 213.763 287.029 212.561 286.762 211.497 C 285.929 208.07 282.497 200.825 278.482 195.067 C 278.879 194.808 279.275 194.556 279.656 194.296 C 279.874 194.515 280.101 194.743 280.336 194.97 C 282.246 196.878 284.407 199.039 285.67 201.142 C 286.536 202.588 287.337 204.171 288.114 205.69 C 290.218 209.832 292.032 213.405 294.881 213.714 C 295.01 213.73 295.14 213.738 295.269 213.738 C 296.597 213.738 297.892 212.983 299.106 211.497 C 299.802 210.62 299.632 209.418 299.373 208.354 Z  M 295.229 210.473 C 294.12 210.352 292.315 206.795 291.004 204.204 C 290.202 202.628 289.377 201.004 288.454 199.453 C 286.989 197.008 284.674 194.694 282.626 192.655 C 281.226 191.259 279.154 189.188 278.862 188.302 C 279.486 187.742 281.323 187.019 281.971 187.117 C 287.483 189.553 296.062 206.494 296.354 209.718 C 295.82 210.295 295.423 210.498 295.229 210.473 Z  M 282.634 213.592 C 281.525 213.47 279.72 209.913 278.409 207.322 C 277.608 205.747 276.782 204.123 275.859 202.571 C 274.394 200.127 272.079 197.812 270.032 195.774 C 268.631 194.377 266.559 192.306 266.268 191.421 C 266.899 190.861 268.737 190.138 269.376 190.227 C 274.888 192.664 283.468 209.604 283.759 212.829 C 283.217 213.421 282.812 213.608 282.634 213.592 Z  M 270.598 187.222 C 269.012 186.54 266.77 187.458 265.887 187.88 C 264.317 188.627 263.378 189.504 263.103 190.471 C 262.65 192.071 263.564 193.622 265.183 195.433 C 264.649 195.66 264.099 195.888 263.548 196.115 C 261.832 194.142 260.092 192.631 258.473 191.933 C 256.887 191.25 254.653 192.168 253.762 192.59 C 253.107 192.899 252.572 193.232 252.144 193.589 C 252.743 181.448 245.401 170.566 229.059 159.042 C 224.3 155.687 220.188 153.267 216.537 151.708 C 227.723 148.224 241.831 144.578 247.141 145.999 C 256.32 148.46 272.452 163.589 279.105 175.983 C 281.469 180.384 281.695 182.78 281.59 183.884 C 280.352 183.958 279.105 184.469 278.49 184.762 C 276.92 185.509 275.981 186.386 275.706 187.352 C 275.463 188.205 275.609 189.041 276.046 189.91 C 275.689 190.138 275.317 190.365 274.937 190.601 C 273.472 189.025 271.99 187.823 270.598 187.222 Z  M 270.501 218.302 C 269.392 218.18 267.587 214.623 266.276 212.033 C 265.475 210.457 264.649 208.833 263.726 207.282 C 262.261 204.837 259.946 202.523 257.898 200.484 C 256.498 199.087 254.426 197.017 254.135 196.131 C 254.758 195.571 256.595 194.848 257.243 194.946 C 262.755 197.382 271.335 214.323 271.626 217.547 C 271.092 218.124 270.687 218.327 270.501 218.302 Z  M 197.297 200.598 C 195.387 200.647 193.841 200.565 192.748 199.217 C 191.372 197.52 189.576 192.412 193.056 177.314 C 195.978 164.629 199.693 157.588 204.396 155.777 C 208.904 154.047 215.695 156.556 225.789 163.679 C 247.441 178.955 247.781 190.284 245.668 198.454 C 244.664 202.32 243.685 202.75 243.637 202.766 C 242.787 203.116 239.743 201.191 237.744 199.924 C 235.21 198.316 232.337 196.505 228.978 195.214 C 226.768 194.369 224.413 194.02 222.009 194.02 C 215.137 194.02 207.893 196.846 202.631 198.893 C 200.746 199.632 198.39 200.541 197.734 200.59 L 197.297 200.598 L 197.297 200.598 L 197.297 200.598 Z  M 251.156 199.883 C 251.302 199.307 251.431 198.738 251.553 198.162 C 251.901 198.746 252.37 199.355 252.937 199.997 C 252.273 200.216 251.609 200.427 250.954 200.639 C 251.027 200.379 251.099 200.127 251.156 199.883 Z " fill="rgb(66,66,69)"/><path d=" M 269.376 190.227 C 268.737 190.13 266.899 190.861 266.268 191.421 C 266.559 192.314 268.631 194.385 270.032 195.774 C 272.079 197.812 274.394 200.127 275.859 202.571 C 276.782 204.114 277.608 205.747 278.409 207.322 C 279.728 209.921 281.533 213.478 282.634 213.592 C 282.812 213.6 283.217 213.413 283.759 212.829 C 283.46 209.613 274.888 192.664 269.376 190.227 Z " fill="rgb(255,229,201)"/><path d=" M 257.243 194.937 C 256.603 194.84 254.766 195.571 254.135 196.123 C 254.426 197.017 256.498 199.087 257.898 200.476 C 259.946 202.515 262.261 204.829 263.726 207.274 C 264.649 208.817 265.475 210.449 266.276 212.025 C 267.595 214.623 269.4 218.172 270.501 218.294 C 270.679 218.319 271.084 218.115 271.626 217.531 C 271.335 214.315 262.755 197.374 257.243 194.937 Z " fill="rgb(255,229,201)"/><path d=" M 206.144 185.265 C 207.188 186.499 207.253 186.467 209.042 185.452 C 211.179 184.242 214.408 182.415 220.366 184.128 C 220.657 184.209 221.046 184.356 221.499 184.518 C 222.851 185.013 225.667 186.037 226.76 185.257 C 227.327 184.859 227.456 183.803 227.456 182.975 C 227.149 181.578 222.033 175.138 216.99 172.588 C 216.132 172.157 215.032 171.719 214.077 171.719 C 213.72 171.719 213.381 171.784 213.081 171.93 C 210.021 173.424 206.727 178.045 205.893 182.025 C 205.57 183.519 205.659 184.697 206.144 185.265 Z " fill="rgb(252,180,95)"/><path d=" M 203.668 187.36 C 204.995 188.936 206.217 189.456 207.334 189.456 C 208.556 189.456 209.657 188.83 210.637 188.278 C 212.506 187.222 214.829 185.907 219.475 187.247 C 219.71 187.312 220.026 187.433 220.398 187.563 C 222.551 188.343 226.153 189.659 228.622 187.904 C 230.006 186.93 230.702 185.249 230.694 182.902 C 230.686 180.035 224.518 173.392 219.921 170.517 C 216.61 168.446 213.834 167.942 211.656 168.998 C 207.229 171.158 203.635 176.973 202.712 181.343 C 202.178 183.909 202.502 185.98 203.668 187.36 Z  M 205.877 182.033 C 206.719 178.053 210.005 173.432 213.065 171.938 C 213.364 171.792 213.704 171.727 214.06 171.727 C 215.015 171.727 216.116 172.166 216.974 172.596 C 222.017 175.146 227.133 181.578 227.44 182.983 C 227.44 183.811 227.311 184.859 226.744 185.265 C 225.651 186.037 222.834 185.013 221.483 184.526 C 221.029 184.364 220.641 184.226 220.35 184.136 C 214.392 182.431 211.163 184.258 209.026 185.46 C 207.237 186.475 207.164 186.508 206.128 185.273 C 205.659 184.697 205.57 183.519 205.877 182.033 Z " fill="rgb(66,66,69)"/><path d=" M 221.661 122.699 C 222.527 122.699 223.288 122.309 223.814 121.708 C 224.259 121.197 224.542 120.539 224.542 119.808 C 224.542 118.208 223.255 116.917 221.661 116.917 C 220.86 116.917 220.131 117.25 219.605 117.786 C 219.095 118.305 218.779 119.02 218.779 119.808 C 218.779 121.408 220.074 122.699 221.661 122.699 Z " fill="rgb(66,66,69)"/></g></g></g></g></svg>