<?xml version="1.0" encoding="UTF-8" standalone="no"?><!-- Generator: Gravit.io --><svg xmlns="http://www.w3.org/2000/svg" xmlns:xlink="http://www.w3.org/1999/xlink" style="isolation:isolate" viewBox="0 0 300 260" width="300pt" height="260pt"><defs><clipPath id="_clipPath_hhi6pNcM8I4dA4G04CVf77bKU3Aqo003"><rect width="300" height="260"/></clipPath></defs><g clip-path="url(#_clipPath_hhi6pNcM8I4dA4G04CVf77bKU3Aqo003)"><path d=" M 20.169 101.99 L 1.949 45.237 C 1.949 45.237 9.246 37.67 29.531 30.8 C 49.824 23.939 57.951 24.906 57.951 24.906 C 57.951 24.906 70.797 49.332 71.997 59.827 C 73.188 70.323 79.356 84.018 79.356 84.018 L 20.169 101.99 L 20.169 101.99 Z " fill="rgb(252,180,95)"/><path d=" M 58.903 86.351 C 61.065 85.817 63.174 85.302 65.186 84.832 L 46.63 28.26 C 44.663 28.712 42.554 29.245 40.375 29.842 L 58.903 86.351 L 58.903 86.351 Z " fill="none"/><path d=" M 49.224 88.864 C 51.324 88.294 53.407 87.743 55.462 87.218 L 36.96 30.8 C 34.904 31.397 32.831 32.029 30.801 32.671 L 49.224 88.864 L 49.224 88.864 Z " fill="none"/><path d=" M 68.635 84.027 C 71.627 83.34 74.335 82.744 76.647 82.246 C 68.547 53.68 60.209 28.875 56.936 27.021 C 55.551 26.741 53.133 26.967 50.107 27.528 L 68.635 84.027 L 68.635 84.027 Z " fill="none"/><path d=" M 21.352 35.899 L 39.625 91.612 C 41.672 90.988 43.736 90.391 45.81 89.804 L 27.44 33.801 C 27.431 33.783 27.431 33.774 27.431 33.756 C 25.26 34.47 23.196 35.166 21.325 35.826 C 21.334 35.853 21.343 35.871 21.352 35.899 Z " fill="none"/><path d=" M 30.14 94.694 C 32.116 93.998 34.163 93.32 36.245 92.66 L 18.008 37.047 C 18.008 37.038 18.008 37.029 17.999 37.02 C 16.446 37.589 15.14 38.095 14.143 38.511 C 13.411 38.819 12.705 39.153 12.034 39.506 L 30.14 94.694 L 30.14 94.694 Z " fill="none"/><path d=" M 8.929 41.368 C 6.511 43.022 4.711 44.712 3.802 45.644 L 20.699 98.374 C 22.605 97.533 24.652 96.71 26.813 95.906 L 8.929 41.368 L 8.929 41.368 Z " fill="none"/><path d=" M 130.469 38.909 L 130.31 12.82 L 128.21 13.669 L 128.21 38.909 L 130.469 38.909 L 130.469 38.909 Z " fill="rgb(252,180,95)"/><path d=" M 112.213 102.794 C 117.931 102.794 122.59 107.567 122.59 113.425 L 122.59 116.716 C 122.59 118.461 121.204 119.88 119.501 119.88 L 116.484 119.88 L 116.484 149.82 C 121.443 149.865 125.625 153.255 127.001 157.893 C 133.089 153.762 140.21 151.836 147.277 152.152 L 147.18 141.612 C 147.171 140.617 147.956 139.795 148.927 139.786 C 148.936 139.786 148.936 139.786 148.945 139.786 C 149.915 139.786 150.7 140.581 150.709 141.576 L 150.815 152.496 C 152.147 152.695 153.471 152.984 154.777 153.346 L 154.777 81.74 C 154.777 77.826 151.671 74.635 147.842 74.635 L 144.109 74.635 C 142.407 74.635 141.021 73.215 141.021 71.471 L 141.021 59.086 L 138.392 59.086 L 119.21 59.086 L 116.899 59.086 L 116.899 71.471 C 116.899 73.215 115.513 74.635 113.81 74.635 L 110.184 74.635 C 106.364 74.635 103.249 77.817 103.249 81.74 L 103.249 102.794 L 112.213 102.794 L 112.213 102.794 Z " fill="rgb(150,150,152)"/><rect x="122.281" y="45.237" width="13.005" height="7.53" transform="matrix(1,0,0,1,0,0)" fill="rgb(252,180,95)"/><path d=" M 76.382 156.058 L 77.997 146.882 L 56.812 127.356 L 51.139 154.476 L 72.932 175.62 L 75.173 162.91 L 75.173 161.192 C 75.173 159.339 75.615 157.594 76.382 156.058 Z " fill="rgb(252,180,95)"/><path d=" M 38.442 174.879 L 58.118 238.52 C 59.971 239.813 63.721 241.874 66.183 240.889 C 68.388 240.003 69.359 236.522 69.791 233.747 C 70.18 231.252 71.221 229.535 72.888 228.64 C 73.629 228.242 74.397 228.052 75.173 228.025 L 75.173 219.527 L 62.733 223.984 C 62.539 224.056 62.345 224.083 62.15 224.083 C 61.418 224.083 60.739 223.613 60.483 222.872 C 60.165 221.932 60.65 220.901 61.568 220.567 L 75.173 215.694 L 75.173 180.637 C 75.015 180.764 74.838 180.872 74.644 180.945 C 74.468 181.008 74.282 181.035 74.097 181.035 C 73.656 181.035 73.215 180.863 72.879 180.538 L 47.998 156.392 C 47.548 155.958 47.354 155.316 47.486 154.702 L 53.998 123.532 C 54.13 122.899 54.58 122.393 55.18 122.194 C 55.78 121.995 56.433 122.14 56.901 122.574 L 81.076 144.857 C 81.535 145.273 81.738 145.906 81.632 146.52 L 80.794 151.294 C 82.356 150.381 84.156 149.847 86.07 149.811 L 86.07 119.871 L 82.417 119.871 C 80.715 119.871 79.329 118.451 79.329 116.707 L 79.329 113.416 C 79.329 107.757 83.67 103.129 89.123 102.812 C 86.494 95.725 84.429 90.256 83.3 87.3 C 72.844 89.442 32.61 98.093 17.443 106.989 L 32.213 154.765 C 32.725 156.428 31.825 158.209 30.201 158.733 L 31.366 162.494 C 31.693 162.377 32.045 162.295 32.416 162.295 C 34.154 162.295 35.557 163.733 35.557 165.513 C 35.557 166.987 34.578 168.216 33.263 168.596 L 34.56 172.8 C 34.56 172.8 34.56 172.8 34.56 172.8 C 36.192 172.284 37.931 173.206 38.442 174.879 Z " fill="rgb(161,172,208)"/><path d=" M 103.205 188.005 L 103.205 175.204 L 81.359 175.204 L 81.359 219.663 L 103.205 219.663 L 103.205 192.642 C 103.064 191.431 102.984 190.265 102.984 189.171 C 102.984 188.755 103.064 188.366 103.205 188.005 Z " fill="rgb(150,150,152)"/><path d=" M 104.97 171.597 C 105.94 171.597 106.734 172.411 106.734 173.405 L 106.734 186.007 L 111.79 186.007 C 112.002 177.781 115.028 169.59 120.94 163.127 C 121.054 163 121.178 162.883 121.293 162.756 L 121.293 161.192 C 121.293 158.408 119.087 156.148 116.369 156.148 L 113.387 156.148 C 111.684 156.148 110.299 154.729 110.299 152.984 L 110.299 119.88 L 92.255 119.88 L 92.255 152.984 C 92.255 154.729 90.87 156.148 89.167 156.148 L 86.264 156.148 C 83.547 156.148 81.341 158.408 81.341 161.192 L 81.341 171.597 L 104.97 171.597 L 104.97 171.597 Z " fill="rgb(161,172,208)"/><path d=" M 106.734 205.615 L 106.734 221.471 C 106.734 222.465 105.94 223.279 104.97 223.279 L 81.359 223.279 L 81.359 241.178 C 81.359 243.962 83.564 246.222 86.282 246.222 L 116.387 246.222 C 119.104 246.222 121.31 243.962 121.31 241.178 L 121.31 228.377 C 120.587 227.609 119.881 226.832 119.201 226.036 L 119.316 238.412 C 119.325 239.406 118.54 240.229 117.569 240.238 C 117.56 240.238 117.56 240.238 117.552 240.238 C 116.581 240.238 115.796 239.442 115.787 238.448 L 115.628 221.507 C 111.869 216.363 108.869 210.894 106.734 205.615 Z " fill="rgb(161,172,208)"/><path d=" M 113.396 113.543 L 116.413 113.543 L 116.413 113.416 C 116.413 111.048 114.534 109.113 112.213 109.113 L 89.723 109.113 C 87.411 109.113 85.523 111.039 85.523 113.416 L 85.523 113.543 L 89.176 113.543 L 113.396 113.543 L 113.396 113.543 Z " fill="rgb(252,180,95)"/><path d=" M 194.243 146.376 L 194.243 151.05 C 198.443 153.201 202.255 156.302 205.387 160.189 C 205.731 160.614 206.066 161.048 206.384 161.482 C 208.237 160.858 210.116 160.406 212.004 160.126 C 211.272 158.923 210.451 157.766 209.551 156.654 C 205.36 151.447 199.925 147.976 194.243 146.376 Z " fill="rgb(255,229,201)"/><path d=" M 202.669 162.485 C 200.252 159.484 197.393 157.007 194.243 155.145 L 194.243 161.581 C 195.62 162.792 196.917 164.13 198.125 165.577 C 198.575 165.269 199.034 164.971 199.502 164.682 C 200.631 163.995 201.778 163.389 202.952 162.847 C 202.855 162.729 202.766 162.612 202.669 162.485 Z " fill="rgb(255,229,201)"/><path d=" M 169.565 153.644 C 171.612 153.373 173.72 153.328 175.864 153.526 L 175.864 151.556 C 173.65 151.944 171.541 152.65 169.565 153.644 Z " fill="rgb(255,229,201)"/><path d=" M 195.284 167.737 C 194.949 167.34 194.605 166.951 194.252 166.571 L 194.252 168.244 C 194.561 168.108 194.861 167.963 195.17 167.837 C 195.205 167.801 195.24 167.773 195.284 167.737 Z " fill="rgb(255,229,201)"/><path d=" M 173.226 157.016 C 170.447 157.016 167.765 157.477 165.241 158.372 C 165.638 158.661 166.044 158.95 166.432 159.258 C 169.582 159.267 172.767 159.8 175.856 160.822 L 175.856 157.17 C 174.973 157.079 174.1 157.016 173.226 157.016 Z " fill="rgb(255,229,201)"/><path d=" M 172.617 165.522 C 173.738 166.3 174.823 167.168 175.864 168.099 L 175.864 164.637 C 174.17 164.004 172.441 163.534 170.703 163.235 C 171.373 163.977 172.017 164.736 172.617 165.522 Z " fill="rgb(255,229,201)"/><path d=" M 190.714 106.094 C 185.526 104.982 181.035 103.734 180.382 103.545 C 180.047 103.472 179.72 103.409 179.394 103.337 L 179.394 171.742 C 179.729 172.14 180.047 172.538 180.355 172.944 C 180.849 173.288 181.335 173.64 181.82 174.02 L 183.214 174.02 L 183.214 108.046 C 183.214 107.052 184.008 106.238 184.979 106.238 C 185.949 106.238 186.743 107.052 186.743 108.046 L 186.743 172.854 C 187.89 171.923 189.108 171.046 190.405 170.259 C 190.511 170.196 190.617 170.142 190.723 170.079 L 190.723 106.094 L 190.714 106.094 L 190.714 106.094 Z " fill="rgb(255,229,201)"/><path d=" M 145.786 155.723 C 137.642 155.723 129.516 159.041 123.516 165.595 C 118.24 171.362 115.531 178.667 115.319 186.007 L 120.507 186.007 C 121.848 180.402 124.566 175.06 128.686 170.549 C 137.554 160.849 150.595 157.513 162.329 160.713 C 157.3 157.377 151.539 155.723 145.786 155.723 Z " fill="rgb(255,229,201)"/><path d=" M 130.919 186.007 C 132.357 183.114 134.201 180.411 136.424 177.971 C 145.292 168.271 158.333 164.935 170.067 168.135 C 165.038 164.799 159.277 163.145 153.524 163.145 C 145.38 163.145 137.254 166.463 131.254 173.017 C 127.778 176.822 125.413 181.297 124.142 186.007 L 130.919 186.007 L 130.919 186.007 L 130.919 186.007 Z " fill="rgb(255,229,201)"/><path d=" M 177.726 175.512 C 172.714 172.212 166.988 170.567 161.262 170.567 C 153.118 170.567 144.992 173.884 138.992 180.438 C 137.421 182.156 136.072 184.018 134.942 185.998 L 143.633 185.998 C 143.81 185.799 143.977 185.591 144.162 185.392 C 150.374 178.594 158.791 174.689 167.879 174.382 C 171.241 174.264 174.558 174.653 177.726 175.512 Z " fill="rgb(255,229,201)"/><path d=" M 166.273 186.007 C 168.047 184.289 170.015 182.744 172.194 181.406 C 173.703 180.475 175.264 179.688 176.844 179.028 C 174.32 178.341 171.691 177.98 169.018 177.98 C 168.673 177.98 168.329 177.989 167.985 177.998 C 160.715 178.242 153.93 181.071 148.592 186.007 L 166.273 186.007 L 166.273 186.007 L 166.273 186.007 Z " fill="rgb(255,229,201)"/><path d=" M 224.613 88.556 C 216.742 90.102 213.848 92.932 211.298 95.427 C 208.528 98.148 205.899 100.706 198.531 99.811 C 187.714 98.482 172.185 95.897 167.544 95.11 C 168.197 95.879 170.826 97.913 181.123 100.019 C 181.167 100.028 181.202 100.037 181.247 100.046 C 181.396 100.091 196.325 104.286 203.613 104.286 C 208.29 104.286 209.587 102.641 210.954 100.896 C 211.572 100.109 212.207 99.305 213.107 98.654 C 221.18 92.814 230.418 92.245 236.745 92.796 C 247.994 93.772 286.931 98.717 295.366 99.793 L 296.125 96.041 C 286.428 94.206 239.471 85.645 224.613 88.556 Z " fill="rgb(136,150,194)"/><path d=" M 298.56 92.823 C 296.222 92.362 241.121 81.641 223.951 85.013 C 215.057 86.757 211.625 90.12 208.863 92.823 C 206.252 95.381 204.672 96.927 198.955 96.231 C 186.258 94.676 166.971 91.359 166.776 91.323 C 166.318 91.241 165.85 91.35 165.471 91.621 C 164.694 92.172 163.494 93.61 163.882 95.517 C 164.262 97.361 165.991 99.983 175.847 102.523 L 175.847 144.098 C 173.632 145.092 171.532 146.403 169.591 148.039 C 168.418 149.034 167.359 150.109 166.397 151.248 C 165.109 152.008 163.874 152.885 162.7 153.87 C 162.082 154.394 161.491 154.955 160.927 155.524 L 160.927 81.731 C 160.927 74.327 155.05 68.298 147.815 68.298 L 147.171 68.298 L 147.171 55.913 C 147.171 54.168 145.786 52.749 144.083 52.749 L 141.454 52.749 L 141.454 42.055 C 141.454 40.31 140.068 38.891 138.366 38.891 L 136.627 38.891 L 136.442 8.146 C 136.433 7.106 135.93 6.13 135.083 5.542 C 134.236 4.955 133.169 4.837 132.216 5.226 L 123.966 8.571 C 122.784 9.05 122.016 10.216 122.016 11.509 L 122.016 38.9 L 119.184 38.9 C 117.481 38.9 116.096 40.319 116.096 42.064 L 116.096 52.758 L 113.784 52.758 C 112.081 52.758 110.696 54.177 110.696 55.922 L 110.696 68.307 L 110.158 68.307 C 102.931 68.307 97.046 74.327 97.046 81.74 L 97.046 102.794 L 95.714 102.794 C 91.249 90.708 88.17 82.707 88.108 82.536 C 87.561 81.125 86.114 80.303 84.658 80.583 C 84.297 80.655 82.647 80.972 80.062 81.514 C 78.65 76.515 77.088 71.127 75.474 65.739 C 63.139 24.689 59.486 23.875 57.73 23.487 C 49.807 21.733 18.581 32.753 12.802 35.139 C 5.452 38.177 0.644 43.727 0.441 43.962 C 0.026 44.441 -0.106 45.11 0.088 45.716 L 17.434 99.856 C 15.352 100.887 13.526 101.935 12.017 102.984 C 10.887 103.771 10.402 105.226 10.817 106.555 L 26.319 156.672 C 26.831 158.336 28.569 159.258 30.193 158.733 C 30.193 158.733 30.193 158.733 30.193 158.733 C 31.816 158.209 32.716 156.428 32.204 154.765 L 17.434 106.989 C 32.61 98.093 72.835 89.442 83.291 87.3 C 84.411 90.256 86.485 95.716 89.114 102.812 C 83.661 103.129 79.32 107.748 79.32 113.416 L 79.32 116.707 C 79.32 118.451 80.706 119.871 82.409 119.871 L 86.061 119.871 L 86.061 149.811 C 84.147 149.847 82.347 150.381 80.785 151.294 L 81.623 146.52 C 81.729 145.906 81.517 145.273 81.067 144.857 L 56.892 122.574 C 56.424 122.14 55.771 122.004 55.171 122.194 C 54.571 122.393 54.121 122.908 53.989 123.532 L 47.477 154.702 C 47.345 155.316 47.539 155.958 47.989 156.392 L 72.871 180.538 C 73.206 180.863 73.638 181.035 74.088 181.035 C 74.274 181.035 74.459 181.008 74.635 180.945 C 74.829 180.881 75.006 180.764 75.165 180.637 L 75.165 215.694 L 61.559 220.567 C 60.642 220.892 60.156 221.923 60.474 222.872 C 60.73 223.613 61.409 224.083 62.142 224.083 C 62.336 224.083 62.53 224.047 62.724 223.984 L 75.165 219.527 L 75.165 228.025 C 74.388 228.061 73.629 228.242 72.879 228.64 C 71.212 229.535 70.171 231.252 69.783 233.747 C 69.35 236.513 68.38 240.003 66.174 240.889 C 63.712 241.874 59.962 239.813 58.109 238.52 L 38.434 174.879 C 37.922 173.216 36.184 172.293 34.56 172.818 C 34.56 172.818 34.56 172.818 34.56 172.818 C 32.937 173.342 32.037 175.123 32.548 176.786 L 52.533 241.413 C 52.718 242.01 53.071 242.534 53.548 242.932 C 54.218 243.483 59.283 247.47 64.736 247.47 C 65.953 247.47 67.188 247.271 68.406 246.792 C 71.627 245.508 73.894 242.597 75.165 238.113 L 75.165 241.187 C 75.165 247.461 80.141 252.559 86.264 252.559 L 116.369 252.559 C 122.484 252.559 127.469 247.461 127.469 241.187 L 127.469 234.172 C 131.81 237.716 136.627 240.627 141.851 242.534 L 141.851 251.836 C 141.851 253.581 143.236 255 144.939 255 L 224.339 255 C 226.042 255 227.427 253.581 227.427 251.836 L 227.427 242.796 C 234.486 240.283 241.165 235.881 247.324 229.688 C 248.541 228.459 248.559 226.461 247.359 225.213 C 247.253 225.105 247.138 225.015 247.024 224.924 C 245.824 223.984 244.103 224.056 243 225.177 C 236.939 231.279 230.374 235.41 223.483 237.454 C 222.16 237.842 221.251 239.081 221.251 240.491 L 221.251 248.681 L 148.027 248.681 L 148.027 240.473 C 148.124 239.008 147.224 237.643 145.83 237.218 C 125.148 230.918 111.384 206.085 109.399 192.353 L 260.709 192.353 C 260.012 197.434 257.77 203.707 254.418 209.8 C 253.65 211.192 254.038 212.919 255.247 213.859 C 255.362 213.95 255.468 214.04 255.591 214.112 C 257.082 214.971 258.962 214.429 259.8 212.91 C 264.45 204.449 267.114 195.806 267.114 189.198 C 267.114 187.453 265.729 186.034 264.026 186.034 L 249.927 186.034 C 249.124 182.816 247.862 179.688 246.15 176.75 C 239.603 165.532 227.833 159.448 215.904 159.8 C 214.872 157.902 213.663 156.085 212.278 154.367 C 207.372 148.283 200.949 144.324 194.243 142.661 L 194.243 106.826 C 197.631 107.459 201.028 107.92 203.622 107.92 C 209.984 107.92 212.137 105.181 213.716 103.183 C 214.219 102.541 214.66 101.981 215.154 101.628 C 220.933 97.443 228.107 95.689 236.462 96.412 C 248.965 97.497 296.09 103.536 296.566 103.599 C 297.475 103.716 298.331 103.093 298.516 102.171 L 299.963 94.975 C 300.06 94.505 299.963 94.007 299.698 93.601 C 299.434 93.185 299.028 92.914 298.56 92.823 Z  M 295.384 99.793 C 286.949 98.717 248.012 93.772 236.762 92.796 C 230.436 92.245 221.189 92.814 213.125 98.654 C 212.225 99.305 211.59 100.109 210.972 100.896 C 209.604 102.641 208.307 104.286 203.631 104.286 C 196.343 104.286 181.414 100.091 181.264 100.046 C 181.22 100.037 181.185 100.028 181.141 100.019 C 170.844 97.922 168.215 95.879 167.562 95.11 C 172.203 95.897 187.732 98.491 198.549 99.811 C 205.916 100.706 208.537 98.148 211.316 95.427 C 213.866 92.932 216.751 90.102 224.63 88.556 C 239.48 85.636 286.446 94.206 296.152 96.032 L 295.384 99.793 L 295.384 99.793 Z  M 243.124 178.585 C 244.5 180.945 245.55 183.44 246.274 186.007 L 238.924 186.007 C 238.377 184.741 237.751 183.503 237.053 182.301 C 230.41 170.901 218.366 164.808 206.243 165.369 C 209.71 164.031 213.319 163.371 216.901 163.371 C 227.286 163.371 237.424 168.804 243.124 178.585 Z  M 226.774 186.007 C 219.945 175.819 208.581 170.413 197.146 170.946 C 200.614 169.609 204.222 168.949 207.804 168.949 C 218.189 168.949 228.327 174.382 234.027 184.154 C 234.38 184.76 234.706 185.383 235.015 186.007 L 226.774 186.007 L 226.774 186.007 L 226.774 186.007 Z  M 171.797 186.007 C 172.503 185.483 173.235 184.977 174.003 184.515 C 178.891 181.523 184.273 180.095 189.593 180.095 C 195.981 180.095 202.263 182.156 207.487 186.007 L 171.797 186.007 L 171.797 186.007 L 171.797 186.007 Z  M 115.778 238.448 C 115.787 239.442 116.572 240.238 117.543 240.238 C 117.552 240.238 117.552 240.238 117.56 240.238 C 118.531 240.229 119.316 239.406 119.307 238.412 L 119.193 226.036 C 119.872 226.832 120.587 227.609 121.301 228.377 L 121.301 241.178 C 121.301 243.962 119.096 246.222 116.378 246.222 L 86.273 246.222 C 83.556 246.222 81.35 243.962 81.35 241.178 L 81.35 223.279 L 104.961 223.279 C 105.931 223.279 106.725 222.465 106.725 221.471 L 106.725 205.615 C 108.861 210.894 111.861 216.363 115.61 221.498 L 115.778 238.448 L 115.778 238.448 Z  M 81.35 161.183 C 81.35 158.399 83.556 156.139 86.273 156.139 L 89.176 156.139 C 90.879 156.139 92.264 154.72 92.264 152.975 L 92.264 119.871 L 110.308 119.871 L 110.308 152.975 C 110.308 154.72 111.693 156.139 113.396 156.139 L 116.378 156.139 C 119.096 156.139 121.301 158.399 121.301 161.183 L 121.301 162.747 C 121.187 162.874 121.063 162.991 120.948 163.118 C 115.037 169.59 112.011 177.772 111.799 185.998 L 106.743 185.998 L 106.743 173.396 C 106.743 172.402 105.949 171.588 104.978 171.588 L 81.367 171.588 L 81.367 161.183 L 81.35 161.183 L 81.35 161.183 Z  M 85.523 113.425 C 85.523 111.057 87.403 109.122 89.723 109.122 L 112.213 109.122 C 114.525 109.122 116.413 111.048 116.413 113.425 L 116.413 113.552 L 113.396 113.552 L 89.176 113.552 L 85.523 113.552 L 85.523 113.425 L 85.523 113.425 Z  M 110.166 74.635 L 113.793 74.635 C 115.496 74.635 116.881 73.215 116.881 71.471 L 116.881 59.086 L 119.193 59.086 L 138.374 59.086 L 141.004 59.086 L 141.004 71.471 C 141.004 73.215 142.389 74.635 144.092 74.635 L 147.824 74.635 C 151.645 74.635 154.759 77.817 154.759 81.74 L 154.759 153.346 C 153.453 152.984 152.13 152.695 150.797 152.496 L 150.692 141.576 C 150.683 140.581 149.898 139.786 148.927 139.786 C 148.918 139.786 148.918 139.786 148.909 139.786 C 147.939 139.795 147.153 140.617 147.162 141.612 L 147.259 152.152 C 140.192 151.836 133.072 153.762 126.984 157.893 C 125.607 153.255 121.425 149.865 116.466 149.82 L 116.466 119.88 L 119.484 119.88 C 121.187 119.88 122.572 118.461 122.572 116.716 L 122.572 113.425 C 122.572 107.567 117.922 102.794 112.196 102.794 L 103.223 102.794 L 103.223 81.74 C 103.231 77.817 106.346 74.635 110.166 74.635 Z  M 122.281 45.237 L 135.286 45.237 L 135.286 52.767 L 122.281 52.767 L 122.281 45.237 L 122.281 45.237 Z  M 130.31 12.82 L 130.46 38.909 L 128.201 38.909 L 128.201 13.669 L 130.31 12.82 L 130.31 12.82 Z  M 103.205 219.663 L 81.359 219.663 L 81.359 175.204 L 103.205 175.204 L 103.205 188.005 C 103.064 188.366 102.984 188.755 102.984 189.171 C 102.984 190.274 103.064 191.44 103.205 192.642 L 103.205 219.663 L 103.205 219.663 Z  M 167.879 174.382 C 158.8 174.689 150.374 178.603 144.162 185.392 C 143.977 185.591 143.81 185.799 143.633 185.998 L 134.942 185.998 C 136.08 184.018 137.43 182.156 138.992 180.438 C 144.983 173.875 153.109 170.567 161.262 170.567 C 166.988 170.567 172.714 172.212 177.726 175.512 C 174.558 174.653 171.241 174.264 167.879 174.382 Z  M 124.151 186.007 C 125.422 181.297 127.778 176.831 131.263 173.017 C 137.254 166.454 145.38 163.145 153.533 163.145 C 159.285 163.145 165.047 164.808 170.076 168.135 C 158.341 164.935 145.301 168.271 136.433 177.971 C 134.21 180.402 132.366 183.114 130.928 186.007 L 124.151 186.007 L 124.151 186.007 L 124.151 186.007 Z  M 198.125 165.577 C 196.917 164.13 195.62 162.792 194.243 161.581 L 194.243 155.145 C 197.384 157.007 200.243 159.484 202.669 162.485 C 202.766 162.603 202.855 162.729 202.943 162.847 C 201.778 163.389 200.622 163.995 199.493 164.682 C 199.034 164.971 198.575 165.269 198.125 165.577 Z  M 194.243 166.571 C 194.596 166.951 194.94 167.34 195.275 167.737 C 195.231 167.773 195.196 167.81 195.161 167.837 C 194.852 167.963 194.552 168.099 194.243 168.244 L 194.243 166.571 L 194.243 166.571 Z  M 175.864 168.099 C 174.823 167.168 173.738 166.309 172.617 165.522 C 172.017 164.736 171.373 163.977 170.703 163.235 C 172.441 163.525 174.17 163.995 175.864 164.637 L 175.864 168.099 L 175.864 168.099 L 175.864 168.099 Z  M 166.441 159.258 C 166.053 158.95 165.647 158.661 165.25 158.372 C 167.773 157.477 170.456 157.016 173.235 157.016 C 174.1 157.016 174.982 157.079 175.864 157.17 L 175.864 160.822 C 172.767 159.791 169.591 159.267 166.441 159.258 Z  M 169.565 153.644 C 171.55 152.65 173.658 151.944 175.864 151.556 L 175.864 153.526 C 173.72 153.328 171.612 153.373 169.565 153.644 Z  M 162.329 160.713 C 150.595 157.513 137.545 160.849 128.686 170.549 C 124.566 175.06 121.857 180.402 120.507 186.007 L 115.319 186.007 C 115.531 178.667 118.24 171.371 123.516 165.595 C 129.507 159.032 137.633 155.723 145.786 155.723 C 151.539 155.723 157.3 157.377 162.329 160.713 Z  M 213.019 186.007 C 206.252 179.453 197.172 176.09 188.04 176.515 C 191.508 175.177 195.117 174.517 198.699 174.517 C 207.681 174.517 216.469 178.585 222.372 186.007 L 213.019 186.007 L 213.019 186.007 Z  M 148.601 186.007 C 153.939 181.071 160.724 178.242 167.994 177.998 C 168.338 177.989 168.682 177.98 169.026 177.98 C 171.7 177.98 174.329 178.341 176.853 179.028 C 175.264 179.688 173.711 180.484 172.203 181.406 C 170.023 182.735 168.056 184.289 166.282 186.007 L 148.601 186.007 L 148.601 186.007 L 148.601 186.007 Z  M 206.384 161.482 C 206.057 161.048 205.731 160.614 205.387 160.189 C 202.255 156.302 198.443 153.21 194.243 151.05 L 194.243 146.376 C 199.925 147.976 205.36 151.447 209.56 156.654 C 210.46 157.766 211.272 158.923 212.013 160.126 C 210.116 160.406 208.237 160.858 206.384 161.482 Z  M 190.714 170.079 C 190.608 170.142 190.502 170.196 190.396 170.259 C 189.108 171.055 187.89 171.923 186.735 172.854 L 186.735 108.046 C 186.735 107.052 185.94 106.238 184.97 106.238 C 183.999 106.238 183.205 107.052 183.205 108.046 L 183.205 174.02 L 181.811 174.02 C 181.335 173.649 180.841 173.288 180.347 172.944 C 180.038 172.538 179.711 172.14 179.385 171.742 L 179.385 103.337 C 179.711 103.409 180.038 103.472 180.373 103.545 C 181.035 103.734 185.517 104.973 190.705 106.094 L 190.705 170.079 L 190.714 170.079 L 190.714 170.079 Z  M 56.936 27.021 C 60.209 28.875 68.547 53.68 76.647 82.246 C 74.335 82.744 71.627 83.34 68.635 84.027 L 50.107 27.528 C 53.133 26.967 55.559 26.732 56.936 27.021 Z  M 36.96 30.8 L 55.462 87.218 C 53.415 87.743 51.324 88.294 49.224 88.864 L 30.793 32.671 C 32.831 32.029 34.904 31.397 36.96 30.8 Z  M 46.622 28.251 L 65.177 84.823 C 63.165 85.293 61.065 85.808 58.895 86.342 L 40.357 29.833 C 42.545 29.245 44.654 28.703 46.622 28.251 Z  M 27.44 33.801 L 45.81 89.804 C 43.736 90.391 41.672 90.988 39.625 91.612 L 21.352 35.899 C 21.343 35.871 21.325 35.853 21.316 35.826 C 23.187 35.166 25.252 34.47 27.422 33.756 C 27.44 33.765 27.44 33.783 27.44 33.801 Z  M 14.152 38.502 C 15.14 38.095 16.455 37.589 18.008 37.011 C 18.008 37.02 18.008 37.029 18.017 37.038 L 36.254 92.651 C 34.172 93.311 32.125 93.989 30.149 94.685 L 12.043 39.487 C 12.714 39.144 13.42 38.809 14.152 38.502 Z  M 3.794 45.635 C 4.711 44.704 6.502 43.013 8.92 41.359 L 26.805 95.897 C 24.643 96.701 22.596 97.533 20.69 98.365 L 3.794 45.635 L 3.794 45.635 Z  M 72.941 175.62 L 51.148 154.476 L 56.821 127.356 L 78.006 146.882 L 76.391 156.058 C 75.623 157.603 75.182 159.339 75.182 161.192 L 75.182 162.91 L 72.941 175.62 L 72.941 175.62 Z " fill="rgb(45,45,48)"/><path d=" M 206.243 165.369 C 218.366 164.799 230.401 170.901 237.053 182.301 C 237.759 183.503 238.377 184.741 238.924 186.007 L 246.274 186.007 C 245.55 183.44 244.5 180.945 243.124 178.585 C 237.424 168.804 227.286 163.38 216.901 163.38 C 213.319 163.371 209.71 164.04 206.243 165.369 Z " fill="rgb(255,229,201)"/><path d=" M 234.027 184.154 C 228.327 174.373 218.189 168.949 207.804 168.949 C 204.222 168.949 200.614 169.609 197.146 170.946 C 208.581 170.413 219.945 175.819 226.774 186.007 L 235.015 186.007 C 234.706 185.383 234.38 184.76 234.027 184.154 Z " fill="rgb(255,229,201)"/><path d=" M 222.363 186.007 C 216.46 178.585 207.672 174.517 198.69 174.517 C 195.108 174.517 191.499 175.177 188.032 176.515 C 197.164 176.09 206.243 179.453 213.01 186.007 L 222.363 186.007 L 222.363 186.007 Z " fill="rgb(255,229,201)"/><path d=" M 189.593 180.095 C 184.273 180.095 178.891 181.514 174.003 184.515 C 173.235 184.986 172.503 185.483 171.797 186.007 L 207.487 186.007 C 202.263 182.156 195.981 180.095 189.593 180.095 Z " fill="rgb(255,229,201)"/><path d=" M 254.426 209.782 C 257.77 203.689 260.012 197.416 260.717 192.335 L 109.408 192.335 C 111.393 206.067 125.157 230.909 145.839 237.2 C 147.233 237.625 148.142 238.981 148.036 240.455 L 148.036 248.663 L 221.26 248.663 L 221.26 240.473 C 221.26 239.063 222.169 237.824 223.492 237.435 C 230.374 235.392 236.939 231.27 243.009 225.159 C 244.121 224.047 245.833 223.975 247.033 224.906 L 249.459 221.643 C 249.177 221.154 249 220.594 249 219.988 C 249 218.207 250.403 216.77 252.141 216.77 C 252.432 216.77 252.715 216.824 252.979 216.906 L 255.265 213.832 C 254.047 212.892 253.659 211.174 254.426 209.782 Z  M 231.557 216.779 C 232.298 217.43 232.377 218.578 231.733 219.328 C 217.439 236.251 193.828 236.848 190.564 236.848 C 190.387 236.848 190.273 236.848 190.22 236.848 C 189.249 236.83 188.473 236.007 188.49 235.004 C 188.508 234.018 189.293 233.232 190.255 233.232 C 190.273 233.232 190.255 233.232 190.405 233.232 C 192.267 233.232 215.613 232.897 229.068 216.96 C 229.713 216.21 230.824 216.119 231.557 216.779 Z " fill="rgb(252,180,95)"/><path d=" M 190.405 233.232 C 190.255 233.232 190.273 233.232 190.255 233.232 C 189.293 233.232 188.508 234.018 188.49 235.004 C 188.473 235.998 189.249 236.821 190.22 236.848 C 190.273 236.848 190.387 236.848 190.564 236.848 C 193.828 236.848 217.439 236.242 231.733 219.328 C 232.368 218.578 232.289 217.43 231.557 216.779 C 230.824 216.128 229.704 216.21 229.068 216.96 C 215.613 232.897 192.267 233.232 190.405 233.232 Z " fill="rgb(45,45,48)"/><path d=" M 35.566 165.532 C 35.566 163.751 34.163 162.313 32.425 162.313 C 32.054 162.313 31.71 162.395 31.375 162.512 C 30.157 162.955 29.275 164.13 29.275 165.532 C 29.275 167.312 30.678 168.75 32.416 168.75 C 32.707 168.75 32.99 168.696 33.263 168.614 C 34.595 168.234 35.566 167.005 35.566 165.532 Z " fill="rgb(45,45,48)"/><path d=" M 248.991 219.997 C 248.991 220.603 249.168 221.163 249.45 221.652 C 249.997 222.583 250.994 223.216 252.132 223.216 C 253.871 223.216 255.273 221.778 255.273 219.997 C 255.273 218.524 254.294 217.285 252.971 216.906 C 252.697 216.824 252.424 216.77 252.132 216.77 C 250.394 216.779 248.991 218.216 248.991 219.997 Z " fill="rgb(45,45,48)"/></g></svg>